<svg width="104" height="33" viewBox="0 0 104 33" fill="none" xmlns="http://www.w3.org/2000/svg">
<mask id="path-1-outside-1_1_46" maskUnits="userSpaceOnUse" x="0" y="0" width="104" height="33" fill="black">
<rect fill="white" width="104" height="33"/>
<path d="M10 4.1H10.9V5H10V4.1ZM4.6 5H10V6.8H5.5V7.7H4.6V5ZM2.8 16.7H6.4V15.8H7.3V14.9H8.2V11.3H7.3V10.4H3.7V7.7H4.6V9.5H8.2V10.4H9.1V11.3H10V14.9H9.1V15.8H8.2V16.7H7.3V17.6H2.8V16.7ZM2.8 10.4H3.7V11.3H2.8V10.4ZM1.9 14H3.7V15.8H2.8V16.7H1.9V14ZM15.393 5H19.893V5.9H20.793V6.8H21.693V11.3H20.793V12.2H19.893V6.8H18.993V5.9H15.393V5ZM14.493 5.9H15.393V6.8H14.493V5.9ZM14.493 12.2H15.393V13.1H18.993V14H14.493V13.1H13.593V12.2H12.693V7.7H13.593V6.8H14.493V12.2ZM18.993 12.2H19.893V13.1H18.993V12.2ZM27.0859 2.3H25.2859V1.4H27.0859V2.3ZM35.1859 1.4H36.0859V2.3H35.1859V1.4ZM25.2859 4.1H24.3859V2.3H25.2859V4.1ZM34.2859 2.3H35.1859V3.2H34.2859V2.3ZM27.0859 2.3H27.9859V4.1H27.0859V2.3ZM33.3859 3.2H34.2859V4.1H33.3859V3.2ZM25.2859 4.1H27.0859V5H25.2859V4.1ZM32.4859 4.1H33.3859V5H32.4859V4.1ZM31.5859 5H32.4859V5.9H31.5859V5ZM30.6859 5.9H31.5859V6.8H30.6859V5.9ZM29.7859 6.8H30.6859V7.7H29.7859V6.8ZM28.8859 7.7H29.7859V8.6H28.8859V7.7ZM27.9859 8.6H28.8859V9.5H27.9859V8.6ZM27.0859 9.5H27.9859V10.4H27.0859V9.5ZM26.1859 10.4H27.0859V11.3H26.1859V10.4ZM31.5859 10.4H33.3859V11.3H31.5859V10.4ZM25.2859 11.3H26.1859V12.2H25.2859V11.3ZM33.3859 11.3H34.2859V13.1H33.3859V11.3ZM30.6859 11.3H31.5859V13.1H30.6859V11.3ZM24.3859 12.2H25.2859V13.1H24.3859V12.2ZM23.4859 13.1H24.3859V14H23.4859V13.1ZM31.5859 13.1H33.3859V14H31.5859V13.1ZM42.3824 13.1H43.2824V11.3H44.1824V8.6H45.0824V5H45.9824V2.3H45.0824V1.4H48.6824V2.3H47.7824V5H46.8824V7.7H52.2824V5H53.1824V2.3H52.2824V1.4H55.8824V2.3H54.9824V5H54.0824V8.6H53.1824V11.3H52.2824V13.1H53.1824V14H49.5824V13.1H50.4824V11.3H51.3824V8.6H45.9824V11.3H45.0824V13.1H45.9824V14H42.3824V13.1ZM59.4789 1.4H61.2789V3.2H59.4789V1.4ZM56.7789 11.3H57.6789V8.6H58.5789V5.9H57.6789V5H60.3789V9.5H59.4789V11.3H58.5789V13.1H59.4789V14H56.7789V11.3ZM56.7789 5.9H57.6789V6.8H56.7789V5.9ZM59.4789 12.2H60.3789V13.1H59.4789V12.2ZM64.8754 10.4H67.5754V9.5H68.4754V5.9H70.2754V5H72.0754V6.8H70.2754V8.6H69.3754V10.4H68.4754V11.3H64.8754V10.4ZM64.8754 10.4H63.0754V7.7H63.9754V5.9H64.8754V5H68.4754V5.9H65.7754V6.8H64.8754V10.4ZM61.2754 14.9H63.0754V15.8H63.9754V16.7H67.5754V15.8H68.4754V14H62.1754V13.1H61.2754V11.3H62.1754V10.4H63.0754V13.1H69.3754V14H70.2754V15.8H69.3754V16.7H68.4754V17.6H62.1754V16.7H61.2754V14.9ZM72.9684 11.3H73.8684V8.6H74.7684V5H75.6684V2.3H73.8684V1.4H77.4684V5H76.5684V7.7H77.4684V8.6H76.5684V9.5H75.6684V11.3H74.7684V14H72.9684V11.3ZM79.2684 11.3H80.1684V8.6H81.0684V6.8H80.1684V5.9H79.2684V5H81.9684V5.9H82.8684V8.6H81.9684V11.3H81.0684V12.2H80.1684V13.1H79.2684V11.3ZM78.3684 5.9H79.2684V6.8H78.3684V5.9ZM77.4684 6.8H78.3684V7.7H77.4684V6.8ZM76.5684 11.3H78.3684V13.1H79.2684V14H77.4684V13.1H76.5684V11.3ZM90.0754 8.6H90.9754V5.9H88.2754V5H91.8754V5.9H92.7754V8.6H91.8754V9.5H90.0754V8.6ZM85.5754 12.2H84.6754V8.6H85.5754V6.8H86.4754V5.9H88.2754V6.8H87.3754V8.6H86.4754V10.4H88.2754V11.3H86.4754V12.2H87.3754V13.1H90.0754V14H86.4754V13.1H85.5754V12.2ZM88.2754 9.5H90.0754V10.4H88.2754V9.5ZM91.8754 11.3H92.7754V12.2H91.8754V11.3ZM90.0754 12.2H91.8754V13.1H90.0754V12.2ZM94.5719 11.3H95.4719V8.6H96.3719V5.9H95.4719V5H98.1719V6.8H99.0719V7.7H98.1719V9.5H97.2719V11.3H96.3719V14H94.5719V11.3ZM99.9719 5H101.772V5.9H102.672V7.7H100.872V5.9H99.9719V5ZM99.0719 5.9H99.9719V6.8H99.0719V5.9ZM94.5719 5.9H95.4719V6.8H94.5719V5.9ZM1.9 31.1H2.8V29.3H3.7V25.7H4.6V23H5.5V20.3H4.6V19.4H12.7V20.3H13.6V23.9H12.7V24.8H11.8V25.7H10.9V23.9H11.8V21.2H10.9V20.3H7.3V23H6.4V25.7H5.5V26.6H8.2V27.5H9.1V28.4H10V29.3H10.9V30.2H11.8V31.1H12.7V32H10V31.1H9.1V30.2H8.2V29.3H7.3V28.4H6.4V27.5H5.5V29.3H4.6V31.1H5.5V32H1.9V31.1ZM8.2 25.7H10.9V26.6H8.2V25.7ZM20.8 26.6H21.7V23.9H19V23H22.6V23.9H23.5V26.6H22.6V27.5H20.8V26.6ZM16.3 30.2H15.4V26.6H16.3V24.8H17.2V23.9H19V24.8H18.1V26.6H17.2V28.4H19V29.3H17.2V30.2H18.1V31.1H20.8V32H17.2V31.1H16.3V30.2ZM19 27.5H20.8V28.4H19V27.5ZM22.6 29.3H23.5V30.2H22.6V29.3ZM20.8 30.2H22.6V31.1H20.8V30.2ZM25.2965 29.3H26.1965V26.6H27.0965V23.9H25.2965V23H27.9965V20.3H29.7965V23H31.5965V23.9H28.8965V27.5H27.9965V29.3H27.0965V31.1H27.9965V32H25.2965V29.3ZM27.9965 30.2H28.8965V31.1H27.9965V30.2ZM37.007 26.6H37.907V23.9H35.207V23H38.807V23.9H39.707V26.6H38.807V27.5H37.007V26.6ZM32.507 30.2H31.607V26.6H32.507V24.8H33.407V23.9H35.207V24.8H34.307V26.6H33.407V28.4H35.207V29.3H33.407V30.2H34.307V31.1H37.007V32H33.407V31.1H32.507V30.2ZM35.207 27.5H37.007V28.4H35.207V27.5ZM38.807 29.3H39.707V30.2H38.807V29.3ZM37.007 30.2H38.807V31.1H37.007V30.2ZM41.5035 29.3H42.4035V26.6H43.3035V23.9H42.4035V23H45.1035V25.7H46.0035V26.6H45.1035V27.5H44.2035V29.3H43.3035V32H41.5035V29.3ZM47.8035 29.3H48.7035V26.6H49.6035V24.8H48.7035V23.9H47.8035V23H50.5035V23.9H51.4035V26.6H50.5035V29.3H49.6035V31.1H50.5035V32H47.8035V29.3ZM46.9035 23.9H47.8035V24.8H46.9035V23.9ZM41.5035 23.9H42.4035V24.8H41.5035V23.9ZM46.0035 24.8H46.9035V25.7H46.0035V24.8ZM50.5035 30.2H51.4035V31.1H50.5035V30.2ZM53.2105 29.3H54.1105V26.6H55.0105V23.9H53.2105V23H55.9105V20.3H57.7105V23H59.5105V23.9H56.8105V27.5H55.9105V29.3H55.0105V31.1H55.9105V32H53.2105V29.3ZM55.9105 30.2H56.8105V31.1H55.9105V30.2ZM63.1176 19.4H64.9176V21.2H63.1176V19.4ZM60.4176 29.3H61.3176V26.6H62.2176V23.9H61.3176V23H64.0176V27.5H63.1176V29.3H62.2176V31.1H63.1176V32H60.4176V29.3ZM60.4176 23.9H61.3176V24.8H60.4176V23.9ZM63.1176 30.2H64.0176V31.1H63.1176V30.2ZM71.2141 30.2H72.1141V28.4H73.0141V24.8H72.1141V23.9H69.4141V23H73.0141V23.9H73.9141V24.8H74.8141V28.4H73.9141V30.2H73.0141V31.1H71.2141V30.2ZM66.7141 30.2H65.8141V26.6H66.7141V24.8H67.6141V23.9H69.4141V24.8H68.5141V26.6H67.6141V30.2H68.5141V31.1H71.2141V32H67.6141V31.1H66.7141V30.2ZM76.607 29.3H77.507V26.6H78.407V23.9H77.507V23H80.207V25.7H81.107V26.6H80.207V27.5H79.307V29.3H78.407V32H76.607V29.3ZM82.907 29.3H83.807V26.6H84.707V24.8H83.807V23.9H82.907V23H85.607V23.9H86.507V26.6H85.607V29.3H84.707V31.1H85.607V32H82.907V29.3ZM82.007 23.9H82.907V24.8H82.007V23.9ZM76.607 23.9H77.507V24.8H76.607V23.9ZM81.107 24.8H82.007V25.7H81.107V24.8ZM85.607 30.2H86.507V31.1H85.607V30.2Z"/>
</mask>
<path d="M10 4.1H10.9V5H10V4.1ZM4.6 5H10V6.8H5.5V7.7H4.6V5ZM2.8 16.7H6.4V15.8H7.3V14.9H8.2V11.3H7.3V10.4H3.7V7.7H4.6V9.5H8.2V10.4H9.1V11.3H10V14.9H9.1V15.8H8.2V16.7H7.3V17.6H2.8V16.7ZM2.8 10.4H3.7V11.3H2.8V10.4ZM1.9 14H3.7V15.8H2.8V16.7H1.9V14ZM15.393 5H19.893V5.9H20.793V6.8H21.693V11.3H20.793V12.2H19.893V6.8H18.993V5.9H15.393V5ZM14.493 5.9H15.393V6.8H14.493V5.9ZM14.493 12.2H15.393V13.1H18.993V14H14.493V13.1H13.593V12.2H12.693V7.7H13.593V6.8H14.493V12.2ZM18.993 12.2H19.893V13.1H18.993V12.2ZM27.0859 2.3H25.2859V1.4H27.0859V2.3ZM35.1859 1.4H36.0859V2.3H35.1859V1.4ZM25.2859 4.1H24.3859V2.3H25.2859V4.1ZM34.2859 2.3H35.1859V3.2H34.2859V2.3ZM27.0859 2.3H27.9859V4.1H27.0859V2.3ZM33.3859 3.2H34.2859V4.1H33.3859V3.2ZM25.2859 4.1H27.0859V5H25.2859V4.1ZM32.4859 4.1H33.3859V5H32.4859V4.1ZM31.5859 5H32.4859V5.9H31.5859V5ZM30.6859 5.9H31.5859V6.8H30.6859V5.9ZM29.7859 6.8H30.6859V7.7H29.7859V6.8ZM28.8859 7.7H29.7859V8.6H28.8859V7.7ZM27.9859 8.6H28.8859V9.5H27.9859V8.6ZM27.0859 9.5H27.9859V10.4H27.0859V9.5ZM26.1859 10.4H27.0859V11.3H26.1859V10.4ZM31.5859 10.4H33.3859V11.3H31.5859V10.4ZM25.2859 11.3H26.1859V12.2H25.2859V11.3ZM33.3859 11.3H34.2859V13.1H33.3859V11.3ZM30.6859 11.3H31.5859V13.1H30.6859V11.3ZM24.3859 12.2H25.2859V13.1H24.3859V12.2ZM23.4859 13.1H24.3859V14H23.4859V13.1ZM31.5859 13.1H33.3859V14H31.5859V13.1ZM42.3824 13.1H43.2824V11.3H44.1824V8.6H45.0824V5H45.9824V2.3H45.0824V1.4H48.6824V2.3H47.7824V5H46.8824V7.7H52.2824V5H53.1824V2.3H52.2824V1.4H55.8824V2.3H54.9824V5H54.0824V8.6H53.1824V11.3H52.2824V13.1H53.1824V14H49.5824V13.1H50.4824V11.3H51.3824V8.6H45.9824V11.3H45.0824V13.1H45.9824V14H42.3824V13.1ZM59.4789 1.4H61.2789V3.2H59.4789V1.4ZM56.7789 11.3H57.6789V8.6H58.5789V5.9H57.6789V5H60.3789V9.5H59.4789V11.3H58.5789V13.1H59.4789V14H56.7789V11.3ZM56.7789 5.9H57.6789V6.8H56.7789V5.9ZM59.4789 12.2H60.3789V13.1H59.4789V12.2ZM64.8754 10.4H67.5754V9.5H68.4754V5.9H70.2754V5H72.0754V6.8H70.2754V8.6H69.3754V10.4H68.4754V11.3H64.8754V10.4ZM64.8754 10.4H63.0754V7.7H63.9754V5.9H64.8754V5H68.4754V5.9H65.7754V6.8H64.8754V10.4ZM61.2754 14.9H63.0754V15.8H63.9754V16.7H67.5754V15.8H68.4754V14H62.1754V13.1H61.2754V11.3H62.1754V10.4H63.0754V13.1H69.3754V14H70.2754V15.8H69.3754V16.7H68.4754V17.6H62.1754V16.7H61.2754V14.9ZM72.9684 11.3H73.8684V8.6H74.7684V5H75.6684V2.3H73.8684V1.4H77.4684V5H76.5684V7.7H77.4684V8.6H76.5684V9.5H75.6684V11.3H74.7684V14H72.9684V11.3ZM79.2684 11.3H80.1684V8.6H81.0684V6.8H80.1684V5.9H79.2684V5H81.9684V5.9H82.8684V8.6H81.9684V11.3H81.0684V12.2H80.1684V13.1H79.2684V11.3ZM78.3684 5.9H79.2684V6.8H78.3684V5.9ZM77.4684 6.8H78.3684V7.7H77.4684V6.8ZM76.5684 11.3H78.3684V13.1H79.2684V14H77.4684V13.1H76.5684V11.3ZM90.0754 8.6H90.9754V5.9H88.2754V5H91.8754V5.9H92.7754V8.6H91.8754V9.5H90.0754V8.6ZM85.5754 12.2H84.6754V8.6H85.5754V6.8H86.4754V5.9H88.2754V6.8H87.3754V8.6H86.4754V10.4H88.2754V11.3H86.4754V12.2H87.3754V13.1H90.0754V14H86.4754V13.1H85.5754V12.2ZM88.2754 9.5H90.0754V10.4H88.2754V9.5ZM91.8754 11.3H92.7754V12.2H91.8754V11.3ZM90.0754 12.2H91.8754V13.1H90.0754V12.2ZM94.5719 11.3H95.4719V8.6H96.3719V5.9H95.4719V5H98.1719V6.8H99.0719V7.7H98.1719V9.5H97.2719V11.3H96.3719V14H94.5719V11.3ZM99.9719 5H101.772V5.9H102.672V7.7H100.872V5.9H99.9719V5ZM99.0719 5.9H99.9719V6.8H99.0719V5.9ZM94.5719 5.9H95.4719V6.8H94.5719V5.9ZM1.9 31.1H2.8V29.3H3.7V25.7H4.6V23H5.5V20.3H4.6V19.4H12.7V20.3H13.6V23.9H12.7V24.8H11.8V25.7H10.9V23.9H11.8V21.2H10.9V20.3H7.3V23H6.4V25.7H5.5V26.6H8.2V27.5H9.1V28.4H10V29.3H10.9V30.2H11.8V31.1H12.7V32H10V31.1H9.1V30.2H8.2V29.3H7.3V28.4H6.4V27.5H5.5V29.3H4.6V31.1H5.5V32H1.9V31.1ZM8.2 25.7H10.9V26.6H8.2V25.7ZM20.8 26.6H21.7V23.9H19V23H22.6V23.9H23.5V26.6H22.6V27.5H20.8V26.6ZM16.3 30.2H15.4V26.6H16.3V24.8H17.2V23.9H19V24.8H18.1V26.6H17.2V28.4H19V29.3H17.2V30.2H18.1V31.1H20.8V32H17.2V31.1H16.3V30.2ZM19 27.5H20.8V28.4H19V27.5ZM22.6 29.3H23.5V30.2H22.6V29.3ZM20.8 30.2H22.6V31.1H20.8V30.2ZM25.2965 29.3H26.1965V26.6H27.0965V23.9H25.2965V23H27.9965V20.3H29.7965V23H31.5965V23.9H28.8965V27.5H27.9965V29.3H27.0965V31.1H27.9965V32H25.2965V29.3ZM27.9965 30.2H28.8965V31.1H27.9965V30.2ZM37.007 26.6H37.907V23.9H35.207V23H38.807V23.9H39.707V26.6H38.807V27.5H37.007V26.6ZM32.507 30.2H31.607V26.6H32.507V24.8H33.407V23.9H35.207V24.8H34.307V26.6H33.407V28.4H35.207V29.3H33.407V30.2H34.307V31.1H37.007V32H33.407V31.1H32.507V30.2ZM35.207 27.5H37.007V28.4H35.207V27.5ZM38.807 29.3H39.707V30.2H38.807V29.3ZM37.007 30.2H38.807V31.1H37.007V30.2ZM41.5035 29.3H42.4035V26.6H43.3035V23.9H42.4035V23H45.1035V25.7H46.0035V26.6H45.1035V27.5H44.2035V29.3H43.3035V32H41.5035V29.3ZM47.8035 29.3H48.7035V26.6H49.6035V24.8H48.7035V23.9H47.8035V23H50.5035V23.9H51.4035V26.6H50.5035V29.3H49.6035V31.1H50.5035V32H47.8035V29.3ZM46.9035 23.9H47.8035V24.8H46.9035V23.9ZM41.5035 23.9H42.4035V24.8H41.5035V23.9ZM46.0035 24.8H46.9035V25.7H46.0035V24.8ZM50.5035 30.2H51.4035V31.1H50.5035V30.2ZM53.2105 29.3H54.1105V26.6H55.0105V23.9H53.2105V23H55.9105V20.3H57.7105V23H59.5105V23.9H56.8105V27.5H55.9105V29.3H55.0105V31.1H55.9105V32H53.2105V29.3ZM55.9105 30.2H56.8105V31.1H55.9105V30.2ZM63.1176 19.4H64.9176V21.2H63.1176V19.4ZM60.4176 29.3H61.3176V26.6H62.2176V23.9H61.3176V23H64.0176V27.5H63.1176V29.3H62.2176V31.1H63.1176V32H60.4176V29.3ZM60.4176 23.9H61.3176V24.8H60.4176V23.9ZM63.1176 30.2H64.0176V31.1H63.1176V30.2ZM71.2141 30.2H72.1141V28.4H73.0141V24.8H72.1141V23.9H69.4141V23H73.0141V23.9H73.9141V24.8H74.8141V28.4H73.9141V30.2H73.0141V31.1H71.2141V30.2ZM66.7141 30.2H65.8141V26.6H66.7141V24.8H67.6141V23.9H69.4141V24.8H68.5141V26.6H67.6141V30.2H68.5141V31.1H71.2141V32H67.6141V31.1H66.7141V30.2ZM76.607 29.3H77.507V26.6H78.407V23.9H77.507V23H80.207V25.7H81.107V26.6H80.207V27.5H79.307V29.3H78.407V32H76.607V29.3ZM82.907 29.3H83.807V26.6H84.707V24.8H83.807V23.9H82.907V23H85.607V23.9H86.507V26.6H85.607V29.3H84.707V31.1H85.607V32H82.907V29.3ZM82.007 23.9H82.907V24.8H82.007V23.9ZM76.607 23.9H77.507V24.8H76.607V23.9ZM81.107 24.8H82.007V25.7H81.107V24.8ZM85.607 30.2H86.507V31.1H85.607V30.2Z" fill="#FFF32E"/>
<path d="M10 4.1V3.1H9V4.1H10ZM10.9 4.1H11.9V3.1H10.9V4.1ZM10.9 5V6H11.9V5H10.9ZM10 5H9V6H10V5ZM4.6 5V4H3.6V5H4.6ZM10 5H11V4H10V5ZM10 6.8V7.8H11V6.8H10ZM5.5 6.8V5.8H4.5V6.8H5.5ZM5.5 7.7V8.7H6.5V7.7H5.5ZM4.6 7.7H3.6V8.7H4.6V7.7ZM2.8 16.7V15.7H1.8V16.7H2.8ZM6.4 16.7V17.7H7.4V16.7H6.4ZM6.4 15.8V14.8H5.4V15.8H6.4ZM7.3 15.8V16.8H8.3V15.8H7.3ZM7.3 14.9V13.9H6.3V14.9H7.3ZM8.2 14.9V15.9H9.2V14.9H8.2ZM8.2 11.3H9.2V10.3H8.2V11.3ZM7.3 11.3H6.3V12.3H7.3V11.3ZM7.3 10.4H8.3V9.4H7.3V10.4ZM3.7 10.4H2.7V11.4H3.7V10.4ZM3.7 7.7V6.7H2.7V7.7H3.7ZM4.6 7.7H5.6V6.7H4.6V7.7ZM4.6 9.5H3.6V10.5H4.6V9.5ZM8.2 9.5H9.2V8.5H8.2V9.5ZM8.2 10.4H7.2V11.4H8.2V10.4ZM9.1 10.4H10.1V9.4H9.1V10.4ZM9.1 11.3H8.1V12.3H9.1V11.3ZM10 11.3H11V10.3H10V11.3ZM10 14.9V15.9H11V14.9H10ZM9.1 14.9V13.9H8.1V14.9H9.1ZM9.1 15.8V16.8H10.1V15.8H9.1ZM8.2 15.8V14.8H7.2V15.8H8.2ZM8.2 16.7V17.7H9.2V16.7H8.2ZM7.3 16.7V15.7H6.3V16.7H7.3ZM7.3 17.6V18.6H8.3V17.6H7.3ZM2.8 17.6H1.8V18.6H2.8V17.6ZM2.8 10.4V9.4H1.8V10.4H2.8ZM3.7 10.4H4.7V9.4H3.7V10.4ZM3.7 11.3V12.3H4.7V11.3H3.7ZM2.8 11.3H1.8V12.3H2.8V11.3ZM1.9 14V13H0.9V14H1.9ZM3.7 14H4.7V13H3.7V14ZM3.7 15.8V16.8H4.7V15.8H3.7ZM2.8 15.8V14.8H1.8V15.8H2.8ZM2.8 16.7V17.7H3.8V16.7H2.8ZM1.9 16.7H0.9V17.7H1.9V16.7ZM10 4.1V5.1H10.9V4.1V3.1H10V4.1ZM10.9 4.1H9.9V5H10.9H11.9V4.1H10.9ZM10.9 5V4H10V5V6H10.9V5ZM10 5H11V4.1H10H9V5H10ZM4.6 5V6H10V5V4H4.6V5ZM10 5H9V6.8H10H11V5H10ZM10 6.8V5.8H5.5V6.8V7.8H10V6.8ZM5.5 6.8H4.5V7.7H5.5H6.5V6.8H5.5ZM5.5 7.7V6.7H4.6V7.7V8.7H5.5V7.7ZM4.6 7.7H5.6V5H4.6H3.6V7.7H4.6ZM2.8 16.7V17.7H6.4V16.7V15.7H2.8V16.7ZM6.4 16.7H7.4V15.8H6.4H5.4V16.7H6.4ZM6.4 15.8V16.8H7.3V15.8V14.8H6.4V15.8ZM7.3 15.8H8.3V14.9H7.3H6.3V15.8H7.3ZM7.3 14.9V15.9H8.2V14.9V13.9H7.3V14.9ZM8.2 14.9H9.2V11.3H8.2H7.2V14.9H8.2ZM8.2 11.3V10.3H7.3V11.3V12.3H8.2V11.3ZM7.3 11.3H8.3V10.4H7.3H6.3V11.3H7.3ZM7.3 10.4V9.4H3.7V10.4V11.4H7.3V10.4ZM3.7 10.4H4.7V7.7H3.7H2.7V10.4H3.7ZM3.7 7.7V8.7H4.6V7.7V6.7H3.7V7.7ZM4.6 7.7H3.6V9.5H4.6H5.6V7.7H4.6ZM4.6 9.5V10.5H8.2V9.5V8.5H4.6V9.5ZM8.2 9.5H7.2V10.4H8.2H9.2V9.5H8.2ZM8.2 10.4V11.4H9.1V10.4V9.4H8.2V10.4ZM9.1 10.4H8.1V11.3H9.1H10.1V10.4H9.1ZM9.1 11.3V12.3H10V11.3V10.3H9.1V11.3ZM10 11.3H9V14.9H10H11V11.3H10ZM10 14.9V13.9H9.1V14.9V15.9H10V14.9ZM9.1 14.9H8.1V15.8H9.1H10.1V14.9H9.1ZM9.1 15.8V14.8H8.2V15.8V16.8H9.1V15.8ZM8.2 15.8H7.2V16.7H8.2H9.2V15.8H8.2ZM8.2 16.7V15.7H7.3V16.7V17.7H8.2V16.7ZM7.3 16.7H6.3V17.6H7.3H8.3V16.7H7.3ZM7.3 17.6V16.6H2.8V17.6V18.6H7.3V17.6ZM2.8 17.6H3.8V16.7H2.8H1.8V17.6H2.8ZM2.8 10.4V11.4H3.7V10.4V9.4H2.8V10.4ZM3.7 10.4H2.7V11.3H3.7H4.7V10.4H3.7ZM3.7 11.3V10.3H2.8V11.3V12.3H3.7V11.3ZM2.8 11.3H3.8V10.4H2.8H1.8V11.3H2.8ZM1.9 14V15H3.7V14V13H1.9V14ZM3.7 14H2.7V15.8H3.7H4.7V14H3.7ZM3.7 15.8V14.8H2.8V15.8V16.8H3.7V15.8ZM2.8 15.8H1.8V16.7H2.8H3.8V15.8H2.8ZM2.8 16.7V15.7H1.9V16.7V17.7H2.8V16.7ZM1.9 16.7H2.9V14H1.9H0.9V16.7H1.9ZM15.393 5V4H14.393V5H15.393ZM19.893 5H20.893V4H19.893V5ZM19.893 5.9H18.893V6.9H19.893V5.9ZM20.793 5.9H21.793V4.9H20.793V5.9ZM20.793 6.8H19.793V7.8H20.793V6.8ZM21.693 6.8H22.693V5.8H21.693V6.8ZM21.693 11.3V12.3H22.693V11.3H21.693ZM20.793 11.3V10.3H19.793V11.3H20.793ZM20.793 12.2V13.2H21.793V12.2H20.793ZM19.893 12.2H18.893V13.2H19.893V12.2ZM19.893 6.8H20.893V5.8H19.893V6.8ZM18.993 6.8H17.993V7.8H18.993V6.8ZM18.993 5.9H19.993V4.9H18.993V5.9ZM15.393 5.9H14.393V6.9H15.393V5.9ZM14.493 5.9V4.9H13.493V5.9H14.493ZM15.393 5.9H16.393V4.9H15.393V5.9ZM15.393 6.8V7.8H16.393V6.8H15.393ZM14.493 6.8H13.493V7.8H14.493V6.8ZM14.493 12.2H13.493V13.2H14.493V12.2ZM15.393 12.2H16.393V11.2H15.393V12.2ZM15.393 13.1H14.393V14.1H15.393V13.1ZM18.993 13.1H19.993V12.1H18.993V13.1ZM18.993 14V15H19.993V14H18.993ZM14.493 14H13.493V15H14.493V14ZM14.493 13.1H15.493V12.1H14.493V13.1ZM13.593 13.1H12.593V14.1H13.593V13.1ZM13.593 12.2H14.593V11.2H13.593V12.2ZM12.693 12.2H11.693V13.2H12.693V12.2ZM12.693 7.7V6.7H11.693V7.7H12.693ZM13.593 7.7V8.7H14.593V7.7H13.593ZM13.593 6.8V5.8H12.593V6.8H13.593ZM14.493 6.8H15.493V5.8H14.493V6.8ZM18.993 12.2V11.2H17.993V12.2H18.993ZM19.893 12.2H20.893V11.2H19.893V12.2ZM19.893 13.1V14.1H20.893V13.1H19.893ZM18.993 13.1H17.993V14.1H18.993V13.1ZM15.393 5V6H19.893V5V4H15.393V5ZM19.893 5H18.893V5.9H19.893H20.893V5H19.893ZM19.893 5.9V6.9H20.793V5.9V4.9H19.893V5.9ZM20.793 5.9H19.793V6.8H20.793H21.793V5.9H20.793ZM20.793 6.8V7.8H21.693V6.8V5.8H20.793V6.8ZM21.693 6.8H20.693V11.3H21.693H22.693V6.8H21.693ZM21.693 11.3V10.3H20.793V11.3V12.3H21.693V11.3ZM20.793 11.3H19.793V12.2H20.793H21.793V11.3H20.793ZM20.793 12.2V11.2H19.893V12.2V13.2H20.793V12.2ZM19.893 12.2H20.893V6.8H19.893H18.893V12.2H19.893ZM19.893 6.8V5.8H18.993V6.8V7.8H19.893V6.8ZM18.993 6.8H19.993V5.9H18.993H17.993V6.8H18.993ZM18.993 5.9V4.9H15.393V5.9V6.9H18.993V5.9ZM15.393 5.9H16.393V5H15.393H14.393V5.9H15.393ZM14.493 5.9V6.9H15.393V5.9V4.9H14.493V5.9ZM15.393 5.9H14.393V6.8H15.393H16.393V5.9H15.393ZM15.393 6.8V5.8H14.493V6.8V7.8H15.393V6.8ZM14.493 6.8H15.493V5.9H14.493H13.493V6.8H14.493ZM14.493 12.2V13.2H15.393V12.2V11.2H14.493V12.2ZM15.393 12.2H14.393V13.1H15.393H16.393V12.2H15.393ZM15.393 13.1V14.1H18.993V13.1V12.1H15.393V13.1ZM18.993 13.1H17.993V14H18.993H19.993V13.1H18.993ZM18.993 14V13H14.493V14V15H18.993V14ZM14.493 14H15.493V13.1H14.493H13.493V14H14.493ZM14.493 13.1V12.1H13.593V13.1V14.1H14.493V13.1ZM13.593 13.1H14.593V12.2H13.593H12.593V13.1H13.593ZM13.593 12.2V11.2H12.693V12.2V13.2H13.593V12.2ZM12.693 12.2H13.693V7.7H12.693H11.693V12.2H12.693ZM12.693 7.7V8.7H13.593V7.7V6.7H12.693V7.7ZM13.593 7.7H14.593V6.8H13.593H12.593V7.7H13.593ZM13.593 6.8V7.8H14.493V6.8V5.8H13.593V6.8ZM14.493 6.8H13.493V12.2H14.493H15.493V6.8H14.493ZM18.993 12.2V13.2H19.893V12.2V11.2H18.993V12.2ZM19.893 12.2H18.893V13.1H19.893H20.893V12.2H19.893ZM19.893 13.1V12.1H18.993V13.1V14.1H19.893V13.1ZM18.993 13.1H19.993V12.2H18.993H17.993V13.1H18.993ZM27.0859 2.3V3.3H28.0859V2.3H27.0859ZM25.2859 2.3H24.2859V3.3H25.2859V2.3ZM25.2859 1.4V0.399999H24.2859V1.4H25.2859ZM27.0859 1.4H28.0859V0.399999H27.0859V1.4ZM35.1859 1.4V0.399999H34.1859V1.4H35.1859ZM36.0859 1.4H37.0859V0.399999H36.0859V1.4ZM36.0859 2.3V3.3H37.0859V2.3H36.0859ZM35.1859 2.3H34.1859V3.3H35.1859V2.3ZM25.2859 4.1V5.1H26.2859V4.1H25.2859ZM24.3859 4.1H23.3859V5.1H24.3859V4.1ZM24.3859 2.3V1.3H23.3859V2.3H24.3859ZM25.2859 2.3H26.2859V1.3H25.2859V2.3ZM34.2859 2.3V1.3H33.2859V2.3H34.2859ZM35.1859 2.3H36.1859V1.3H35.1859V2.3ZM35.1859 3.2V4.2H36.1859V3.2H35.1859ZM34.2859 3.2H33.2859V4.2H34.2859V3.2ZM27.0859 2.3V1.3H26.0859V2.3H27.0859ZM27.9859 2.3H28.9859V1.3H27.9859V2.3ZM27.9859 4.1V5.1H28.9859V4.1H27.9859ZM27.0859 4.1H26.0859V5.1H27.0859V4.1ZM33.3859 3.2V2.2H32.3859V3.2H33.3859ZM34.2859 3.2H35.2859V2.2H34.2859V3.2ZM34.2859 4.1V5.1H35.2859V4.1H34.2859ZM33.3859 4.1H32.3859V5.1H33.3859V4.1ZM25.2859 4.1V3.1H24.2859V4.1H25.2859ZM27.0859 4.1H28.0859V3.1H27.0859V4.1ZM27.0859 5V6H28.0859V5H27.0859ZM25.2859 5H24.2859V6H25.2859V5ZM32.4859 4.1V3.1H31.4859V4.1H32.4859ZM33.3859 4.1H34.3859V3.1H33.3859V4.1ZM33.3859 5V6H34.3859V5H33.3859ZM32.4859 5H31.4859V6H32.4859V5ZM31.5859 5V4H30.5859V5H31.5859ZM32.4859 5H33.4859V4H32.4859V5ZM32.4859 5.9V6.9H33.4859V5.9H32.4859ZM31.5859 5.9H30.5859V6.9H31.5859V5.9ZM30.6859 5.9V4.9H29.6859V5.9H30.6859ZM31.5859 5.9H32.5859V4.9H31.5859V5.9ZM31.5859 6.8V7.8H32.5859V6.8H31.5859ZM30.6859 6.8H29.6859V7.8H30.6859V6.8ZM29.7859 6.8V5.8H28.7859V6.8H29.7859ZM30.6859 6.8H31.6859V5.8H30.6859V6.8ZM30.6859 7.7V8.7H31.6859V7.7H30.6859ZM29.7859 7.7H28.7859V8.7H29.7859V7.7ZM28.8859 7.7V6.7H27.8859V7.7H28.8859ZM29.7859 7.7H30.7859V6.7H29.7859V7.7ZM29.7859 8.6V9.6H30.7859V8.6H29.7859ZM28.8859 8.6H27.8859V9.6H28.8859V8.6ZM27.9859 8.6V7.6H26.9859V8.6H27.9859ZM28.8859 8.6H29.8859V7.6H28.8859V8.6ZM28.8859 9.5V10.5H29.8859V9.5H28.8859ZM27.9859 9.5H26.9859V10.5H27.9859V9.5ZM27.0859 9.5V8.5H26.0859V9.5H27.0859ZM27.9859 9.5H28.9859V8.5H27.9859V9.5ZM27.9859 10.4V11.4H28.9859V10.4H27.9859ZM27.0859 10.4H26.0859V11.4H27.0859V10.4ZM26.1859 10.4V9.4H25.1859V10.4H26.1859ZM27.0859 10.4H28.0859V9.4H27.0859V10.4ZM27.0859 11.3V12.3H28.0859V11.3H27.0859ZM26.1859 11.3H25.1859V12.3H26.1859V11.3ZM31.5859 10.4V9.4H30.5859V10.4H31.5859ZM33.3859 10.4H34.3859V9.4H33.3859V10.4ZM33.3859 11.3V12.3H34.3859V11.3H33.3859ZM31.5859 11.3H30.5859V12.3H31.5859V11.3ZM25.2859 11.3V10.3H24.2859V11.3H25.2859ZM26.1859 11.3H27.1859V10.3H26.1859V11.3ZM26.1859 12.2V13.2H27.1859V12.2H26.1859ZM25.2859 12.2H24.2859V13.2H25.2859V12.2ZM33.3859 11.3V10.3H32.3859V11.3H33.3859ZM34.2859 11.3H35.2859V10.3H34.2859V11.3ZM34.2859 13.1V14.1H35.2859V13.1H34.2859ZM33.3859 13.1H32.3859V14.1H33.3859V13.1ZM30.6859 11.3V10.3H29.6859V11.3H30.6859ZM31.5859 11.3H32.5859V10.3H31.5859V11.3ZM31.5859 13.1V14.1H32.5859V13.1H31.5859ZM30.6859 13.1H29.6859V14.1H30.6859V13.1ZM24.3859 12.2V11.2H23.3859V12.2H24.3859ZM25.2859 12.2H26.2859V11.2H25.2859V12.2ZM25.2859 13.1V14.1H26.2859V13.1H25.2859ZM24.3859 13.1H23.3859V14.1H24.3859V13.1ZM23.4859 13.1V12.1H22.4859V13.1H23.4859ZM24.3859 13.1H25.3859V12.1H24.3859V13.1ZM24.3859 14V15H25.3859V14H24.3859ZM23.4859 14H22.4859V15H23.4859V14ZM31.5859 13.1V12.1H30.5859V13.1H31.5859ZM33.3859 13.1H34.3859V12.1H33.3859V13.1ZM33.3859 14V15H34.3859V14H33.3859ZM31.5859 14H30.5859V15H31.5859V14ZM27.0859 2.3V1.3H25.2859V2.3V3.3H27.0859V2.3ZM25.2859 2.3H26.2859V1.4H25.2859H24.2859V2.3H25.2859ZM25.2859 1.4V2.4H27.0859V1.4V0.399999H25.2859V1.4ZM27.0859 1.4H26.0859V2.3H27.0859H28.0859V1.4H27.0859ZM35.1859 1.4V2.4H36.0859V1.4V0.399999H35.1859V1.4ZM36.0859 1.4H35.0859V2.3H36.0859H37.0859V1.4H36.0859ZM36.0859 2.3V1.3H35.1859V2.3V3.3H36.0859V2.3ZM35.1859 2.3H36.1859V1.4H35.1859H34.1859V2.3H35.1859ZM25.2859 4.1V3.1H24.3859V4.1V5.1H25.2859V4.1ZM24.3859 4.1H25.3859V2.3H24.3859H23.3859V4.1H24.3859ZM24.3859 2.3V3.3H25.2859V2.3V1.3H24.3859V2.3ZM25.2859 2.3H24.2859V4.1H25.2859H26.2859V2.3H25.2859ZM34.2859 2.3V3.3H35.1859V2.3V1.3H34.2859V2.3ZM35.1859 2.3H34.1859V3.2H35.1859H36.1859V2.3H35.1859ZM35.1859 3.2V2.2H34.2859V3.2V4.2H35.1859V3.2ZM34.2859 3.2H35.2859V2.3H34.2859H33.2859V3.2H34.2859ZM27.0859 2.3V3.3H27.9859V2.3V1.3H27.0859V2.3ZM27.9859 2.3H26.9859V4.1H27.9859H28.9859V2.3H27.9859ZM27.9859 4.1V3.1H27.0859V4.1V5.1H27.9859V4.1ZM27.0859 4.1H28.0859V2.3H27.0859H26.0859V4.1H27.0859ZM33.3859 3.2V4.2H34.2859V3.2V2.2H33.3859V3.2ZM34.2859 3.2H33.2859V4.1H34.2859H35.2859V3.2H34.2859ZM34.2859 4.1V3.1H33.3859V4.1V5.1H34.2859V4.1ZM33.3859 4.1H34.3859V3.2H33.3859H32.3859V4.1H33.3859ZM25.2859 4.1V5.1H27.0859V4.1V3.1H25.2859V4.1ZM27.0859 4.1H26.0859V5H27.0859H28.0859V4.1H27.0859ZM27.0859 5V4H25.2859V5V6H27.0859V5ZM25.2859 5H26.2859V4.1H25.2859H24.2859V5H25.2859ZM32.4859 4.1V5.1H33.3859V4.1V3.1H32.4859V4.1ZM33.3859 4.1H32.3859V5H33.3859H34.3859V4.1H33.3859ZM33.3859 5V4H32.4859V5V6H33.3859V5ZM32.4859 5H33.4859V4.1H32.4859H31.4859V5H32.4859ZM31.5859 5V6H32.4859V5V4H31.5859V5ZM32.4859 5H31.4859V5.9H32.4859H33.4859V5H32.4859ZM32.4859 5.9V4.9H31.5859V5.9V6.9H32.4859V5.9ZM31.5859 5.9H32.5859V5H31.5859H30.5859V5.9H31.5859ZM30.6859 5.9V6.9H31.5859V5.9V4.9H30.6859V5.9ZM31.5859 5.9H30.5859V6.8H31.5859H32.5859V5.9H31.5859ZM31.5859 6.8V5.8H30.6859V6.8V7.8H31.5859V6.8ZM30.6859 6.8H31.6859V5.9H30.6859H29.6859V6.8H30.6859ZM29.7859 6.8V7.8H30.6859V6.8V5.8H29.7859V6.8ZM30.6859 6.8H29.6859V7.7H30.6859H31.6859V6.8H30.6859ZM30.6859 7.7V6.7H29.7859V7.7V8.7H30.6859V7.7ZM29.7859 7.7H30.7859V6.8H29.7859H28.7859V7.7H29.7859ZM28.8859 7.7V8.7H29.7859V7.7V6.7H28.8859V7.7ZM29.7859 7.7H28.7859V8.6H29.7859H30.7859V7.7H29.7859ZM29.7859 8.6V7.6H28.8859V8.6V9.6H29.7859V8.6ZM28.8859 8.6H29.8859V7.7H28.8859H27.8859V8.6H28.8859ZM27.9859 8.6V9.6H28.8859V8.6V7.6H27.9859V8.6ZM28.8859 8.6H27.8859V9.5H28.8859H29.8859V8.6H28.8859ZM28.8859 9.5V8.5H27.9859V9.5V10.5H28.8859V9.5ZM27.9859 9.5H28.9859V8.6H27.9859H26.9859V9.5H27.9859ZM27.0859 9.5V10.5H27.9859V9.5V8.5H27.0859V9.5ZM27.9859 9.5H26.9859V10.4H27.9859H28.9859V9.5H27.9859ZM27.9859 10.4V9.4H27.0859V10.4V11.4H27.9859V10.4ZM27.0859 10.4H28.0859V9.5H27.0859H26.0859V10.4H27.0859ZM26.1859 10.4V11.4H27.0859V10.4V9.4H26.1859V10.4ZM27.0859 10.4H26.0859V11.3H27.0859H28.0859V10.4H27.0859ZM27.0859 11.3V10.3H26.1859V11.3V12.3H27.0859V11.3ZM26.1859 11.3H27.1859V10.4H26.1859H25.1859V11.3H26.1859ZM31.5859 10.4V11.4H33.3859V10.4V9.4H31.5859V10.4ZM33.3859 10.4H32.3859V11.3H33.3859H34.3859V10.4H33.3859ZM33.3859 11.3V10.3H31.5859V11.3V12.3H33.3859V11.3ZM31.5859 11.3H32.5859V10.4H31.5859H30.5859V11.3H31.5859ZM25.2859 11.3V12.3H26.1859V11.3V10.3H25.2859V11.3ZM26.1859 11.3H25.1859V12.2H26.1859H27.1859V11.3H26.1859ZM26.1859 12.2V11.2H25.2859V12.2V13.2H26.1859V12.2ZM25.2859 12.2H26.2859V11.3H25.2859H24.2859V12.2H25.2859ZM33.3859 11.3V12.3H34.2859V11.3V10.3H33.3859V11.3ZM34.2859 11.3H33.2859V13.1H34.2859H35.2859V11.3H34.2859ZM34.2859 13.1V12.1H33.3859V13.1V14.1H34.2859V13.1ZM33.3859 13.1H34.3859V11.3H33.3859H32.3859V13.1H33.3859ZM30.6859 11.3V12.3H31.5859V11.3V10.3H30.6859V11.3ZM31.5859 11.3H30.5859V13.1H31.5859H32.5859V11.3H31.5859ZM31.5859 13.1V12.1H30.6859V13.1V14.1H31.5859V13.1ZM30.6859 13.1H31.6859V11.3H30.6859H29.6859V13.1H30.6859ZM24.3859 12.2V13.2H25.2859V12.2V11.2H24.3859V12.2ZM25.2859 12.2H24.2859V13.1H25.2859H26.2859V12.2H25.2859ZM25.2859 13.1V12.1H24.3859V13.1V14.1H25.2859V13.1ZM24.3859 13.1H25.3859V12.2H24.3859H23.3859V13.1H24.3859ZM23.4859 13.1V14.1H24.3859V13.1V12.1H23.4859V13.1ZM24.3859 13.1H23.3859V14H24.3859H25.3859V13.1H24.3859ZM24.3859 14V13H23.4859V14V15H24.3859V14ZM23.4859 14H24.4859V13.1H23.4859H22.4859V14H23.4859ZM31.5859 13.1V14.1H33.3859V13.1V12.1H31.5859V13.1ZM33.3859 13.1H32.3859V14H33.3859H34.3859V13.1H33.3859ZM33.3859 14V13H31.5859V14V15H33.3859V14ZM31.5859 14H32.5859V13.1H31.5859H30.5859V14H31.5859ZM42.3824 13.1V12.1H41.3824V13.1H42.3824ZM43.2824 13.1V14.1H44.2824V13.1H43.2824ZM43.2824 11.3V10.3H42.2824V11.3H43.2824ZM44.1824 11.3V12.3H45.1824V11.3H44.1824ZM44.1824 8.6V7.6H43.1824V8.6H44.1824ZM45.0824 8.6V9.6H46.0824V8.6H45.0824ZM45.0824 5V4H44.0824V5H45.0824ZM45.9824 5V6H46.9824V5H45.9824ZM45.9824 2.3H46.9824V1.3H45.9824V2.3ZM45.0824 2.3H44.0824V3.3H45.0824V2.3ZM45.0824 1.4V0.399999H44.0824V1.4H45.0824ZM48.6824 1.4H49.6824V0.399999H48.6824V1.4ZM48.6824 2.3V3.3H49.6824V2.3H48.6824ZM47.7824 2.3V1.3H46.7824V2.3H47.7824ZM47.7824 5V6H48.7824V5H47.7824ZM46.8824 5V4H45.8824V5H46.8824ZM46.8824 7.7H45.8824V8.7H46.8824V7.7ZM52.2824 7.7V8.7H53.2824V7.7H52.2824ZM52.2824 5V4H51.2824V5H52.2824ZM53.1824 5V6H54.1824V5H53.1824ZM53.1824 2.3H54.1824V1.3H53.1824V2.3ZM52.2824 2.3H51.2824V3.3H52.2824V2.3ZM52.2824 1.4V0.399999H51.2824V1.4H52.2824ZM55.8824 1.4H56.8824V0.399999H55.8824V1.4ZM55.8824 2.3V3.3H56.8824V2.3H55.8824ZM54.9824 2.3V1.3H53.9824V2.3H54.9824ZM54.9824 5V6H55.9824V5H54.9824ZM54.0824 5V4H53.0824V5H54.0824ZM54.0824 8.6V9.6H55.0824V8.6H54.0824ZM53.1824 8.6V7.6H52.1824V8.6H53.1824ZM53.1824 11.3V12.3H54.1824V11.3H53.1824ZM52.2824 11.3V10.3H51.2824V11.3H52.2824ZM52.2824 13.1H51.2824V14.1H52.2824V13.1ZM53.1824 13.1H54.1824V12.1H53.1824V13.1ZM53.1824 14V15H54.1824V14H53.1824ZM49.5824 14H48.5824V15H49.5824V14ZM49.5824 13.1V12.1H48.5824V13.1H49.5824ZM50.4824 13.1V14.1H51.4824V13.1H50.4824ZM50.4824 11.3V10.3H49.4824V11.3H50.4824ZM51.3824 11.3V12.3H52.3824V11.3H51.3824ZM51.3824 8.6H52.3824V7.6H51.3824V8.6ZM45.9824 8.6V7.6H44.9824V8.6H45.9824ZM45.9824 11.3V12.3H46.9824V11.3H45.9824ZM45.0824 11.3V10.3H44.0824V11.3H45.0824ZM45.0824 13.1H44.0824V14.1H45.0824V13.1ZM45.9824 13.1H46.9824V12.1H45.9824V13.1ZM45.9824 14V15H46.9824V14H45.9824ZM42.3824 14H41.3824V15H42.3824V14ZM42.3824 13.1V14.1H43.2824V13.1V12.1H42.3824V13.1ZM43.2824 13.1H44.2824V11.3H43.2824H42.2824V13.1H43.2824ZM43.2824 11.3V12.3H44.1824V11.3V10.3H43.2824V11.3ZM44.1824 11.3H45.1824V8.6H44.1824H43.1824V11.3H44.1824ZM44.1824 8.6V9.6H45.0824V8.6V7.6H44.1824V8.6ZM45.0824 8.6H46.0824V5H45.0824H44.0824V8.6H45.0824ZM45.0824 5V6H45.9824V5V4H45.0824V5ZM45.9824 5H46.9824V2.3H45.9824H44.9824V5H45.9824ZM45.9824 2.3V1.3H45.0824V2.3V3.3H45.9824V2.3ZM45.0824 2.3H46.0824V1.4H45.0824H44.0824V2.3H45.0824ZM45.0824 1.4V2.4H48.6824V1.4V0.399999H45.0824V1.4ZM48.6824 1.4H47.6824V2.3H48.6824H49.6824V1.4H48.6824ZM48.6824 2.3V1.3H47.7824V2.3V3.3H48.6824V2.3ZM47.7824 2.3H46.7824V5H47.7824H48.7824V2.3H47.7824ZM47.7824 5V4H46.8824V5V6H47.7824V5ZM46.8824 5H45.8824V7.7H46.8824H47.8824V5H46.8824ZM46.8824 7.7V8.7H52.2824V7.7V6.7H46.8824V7.7ZM52.2824 7.7H53.2824V5H52.2824H51.2824V7.7H52.2824ZM52.2824 5V6H53.1824V5V4H52.2824V5ZM53.1824 5H54.1824V2.3H53.1824H52.1824V5H53.1824ZM53.1824 2.3V1.3H52.2824V2.3V3.3H53.1824V2.3ZM52.2824 2.3H53.2824V1.4H52.2824H51.2824V2.3H52.2824ZM52.2824 1.4V2.4H55.8824V1.4V0.399999H52.2824V1.4ZM55.8824 1.4H54.8824V2.3H55.8824H56.8824V1.4H55.8824ZM55.8824 2.3V1.3H54.9824V2.3V3.3H55.8824V2.3ZM54.9824 2.3H53.9824V5H54.9824H55.9824V2.3H54.9824ZM54.9824 5V4H54.0824V5V6H54.9824V5ZM54.0824 5H53.0824V8.6H54.0824H55.0824V5H54.0824ZM54.0824 8.6V7.6H53.1824V8.6V9.6H54.0824V8.6ZM53.1824 8.6H52.1824V11.3H53.1824H54.1824V8.6H53.1824ZM53.1824 11.3V10.3H52.2824V11.3V12.3H53.1824V11.3ZM52.2824 11.3H51.2824V13.1H52.2824H53.2824V11.3H52.2824ZM52.2824 13.1V14.1H53.1824V13.1V12.1H52.2824V13.1ZM53.1824 13.1H52.1824V14H53.1824H54.1824V13.1H53.1824ZM53.1824 14V13H49.5824V14V15H53.1824V14ZM49.5824 14H50.5824V13.1H49.5824H48.5824V14H49.5824ZM49.5824 13.1V14.1H50.4824V13.1V12.1H49.5824V13.1ZM50.4824 13.1H51.4824V11.3H50.4824H49.4824V13.1H50.4824ZM50.4824 11.3V12.3H51.3824V11.3V10.3H50.4824V11.3ZM51.3824 11.3H52.3824V8.6H51.3824H50.3824V11.3H51.3824ZM51.3824 8.6V7.6H45.9824V8.6V9.6H51.3824V8.6ZM45.9824 8.6H44.9824V11.3H45.9824H46.9824V8.6H45.9824ZM45.9824 11.3V10.3H45.0824V11.3V12.3H45.9824V11.3ZM45.0824 11.3H44.0824V13.1H45.0824H46.0824V11.3H45.0824ZM45.0824 13.1V14.1H45.9824V13.1V12.1H45.0824V13.1ZM45.9824 13.1H44.9824V14H45.9824H46.9824V13.1H45.9824ZM45.9824 14V13H42.3824V14V15H45.9824V14ZM42.3824 14H43.3824V13.1H42.3824H41.3824V14H42.3824ZM59.4789 1.4V0.399999H58.4789V1.4H59.4789ZM61.2789 1.4H62.2789V0.399999H61.2789V1.4ZM61.2789 3.2V4.2H62.2789V3.2H61.2789ZM59.4789 3.2H58.4789V4.2H59.4789V3.2ZM56.7789 11.3V10.3H55.7789V11.3H56.7789ZM57.6789 11.3V12.3H58.6789V11.3H57.6789ZM57.6789 8.6V7.6H56.6789V8.6H57.6789ZM58.5789 8.6V9.6H59.5789V8.6H58.5789ZM58.5789 5.9H59.5789V4.9H58.5789V5.9ZM57.6789 5.9H56.6789V6.9H57.6789V5.9ZM57.6789 5V4H56.6789V5H57.6789ZM60.3789 5H61.3789V4H60.3789V5ZM60.3789 9.5V10.5H61.3789V9.5H60.3789ZM59.4789 9.5V8.5H58.4789V9.5H59.4789ZM59.4789 11.3V12.3H60.4789V11.3H59.4789ZM58.5789 11.3V10.3H57.5789V11.3H58.5789ZM58.5789 13.1H57.5789V14.1H58.5789V13.1ZM59.4789 13.1H60.4789V12.1H59.4789V13.1ZM59.4789 14V15H60.4789V14H59.4789ZM56.7789 14H55.7789V15H56.7789V14ZM56.7789 5.9V4.9H55.7789V5.9H56.7789ZM57.6789 5.9H58.6789V4.9H57.6789V5.9ZM57.6789 6.8V7.8H58.6789V6.8H57.6789ZM56.7789 6.8H55.7789V7.8H56.7789V6.8ZM59.4789 12.2V11.2H58.4789V12.2H59.4789ZM60.3789 12.2H61.3789V11.2H60.3789V12.2ZM60.3789 13.1V14.1H61.3789V13.1H60.3789ZM59.4789 13.1H58.4789V14.1H59.4789V13.1ZM59.4789 1.4V2.4H61.2789V1.4V0.399999H59.4789V1.4ZM61.2789 1.4H60.2789V3.2H61.2789H62.2789V1.4H61.2789ZM61.2789 3.2V2.2H59.4789V3.2V4.2H61.2789V3.2ZM59.4789 3.2H60.4789V1.4H59.4789H58.4789V3.2H59.4789ZM56.7789 11.3V12.3H57.6789V11.3V10.3H56.7789V11.3ZM57.6789 11.3H58.6789V8.6H57.6789H56.6789V11.3H57.6789ZM57.6789 8.6V9.6H58.5789V8.6V7.6H57.6789V8.6ZM58.5789 8.6H59.5789V5.9H58.5789H57.5789V8.6H58.5789ZM58.5789 5.9V4.9H57.6789V5.9V6.9H58.5789V5.9ZM57.6789 5.9H58.6789V5H57.6789H56.6789V5.9H57.6789ZM57.6789 5V6H60.3789V5V4H57.6789V5ZM60.3789 5H59.3789V9.5H60.3789H61.3789V5H60.3789ZM60.3789 9.5V8.5H59.4789V9.5V10.5H60.3789V9.5ZM59.4789 9.5H58.4789V11.3H59.4789H60.4789V9.5H59.4789ZM59.4789 11.3V10.3H58.5789V11.3V12.3H59.4789V11.3ZM58.5789 11.3H57.5789V13.1H58.5789H59.5789V11.3H58.5789ZM58.5789 13.1V14.1H59.4789V13.1V12.1H58.5789V13.1ZM59.4789 13.1H58.4789V14H59.4789H60.4789V13.1H59.4789ZM59.4789 14V13H56.7789V14V15H59.4789V14ZM56.7789 14H57.7789V11.3H56.7789H55.7789V14H56.7789ZM56.7789 5.9V6.9H57.6789V5.9V4.9H56.7789V5.9ZM57.6789 5.9H56.6789V6.8H57.6789H58.6789V5.9H57.6789ZM57.6789 6.8V5.8H56.7789V6.8V7.8H57.6789V6.8ZM56.7789 6.8H57.7789V5.9H56.7789H55.7789V6.8H56.7789ZM59.4789 12.2V13.2H60.3789V12.2V11.2H59.4789V12.2ZM60.3789 12.2H59.3789V13.1H60.3789H61.3789V12.2H60.3789ZM60.3789 13.1V12.1H59.4789V13.1V14.1H60.3789V13.1ZM59.4789 13.1H60.4789V12.2H59.4789H58.4789V13.1H59.4789ZM64.8754 10.4V9.4H63.8754V10.4H64.8754ZM67.5754 10.4V11.4H68.5754V10.4H67.5754ZM67.5754 9.5V8.5H66.5754V9.5H67.5754ZM68.4754 9.5V10.5H69.4754V9.5H68.4754ZM68.4754 5.9V4.9H67.4754V5.9H68.4754ZM70.2754 5.9V6.9H71.2754V5.9H70.2754ZM70.2754 5V4H69.2754V5H70.2754ZM72.0754 5H73.0754V4H72.0754V5ZM72.0754 6.8V7.8H73.0754V6.8H72.0754ZM70.2754 6.8V5.8H69.2754V6.8H70.2754ZM70.2754 8.6V9.6H71.2754V8.6H70.2754ZM69.3754 8.6V7.6H68.3754V8.6H69.3754ZM69.3754 10.4V11.4H70.3754V10.4H69.3754ZM68.4754 10.4V9.4H67.4754V10.4H68.4754ZM68.4754 11.3V12.3H69.4754V11.3H68.4754ZM64.8754 11.3H63.8754V12.3H64.8754V11.3ZM64.8754 10.4V11.4H65.8754V10.4H64.8754ZM63.0754 10.4H62.0754V11.4H63.0754V10.4ZM63.0754 7.7V6.7H62.0754V7.7H63.0754ZM63.9754 7.7V8.7H64.9754V7.7H63.9754ZM63.9754 5.9V4.9H62.9754V5.9H63.9754ZM64.8754 5.9V6.9H65.8754V5.9H64.8754ZM64.8754 5V4H63.8754V5H64.8754ZM68.4754 5H69.4754V4H68.4754V5ZM68.4754 5.9V6.9H69.4754V5.9H68.4754ZM65.7754 5.9V4.9H64.7754V5.9H65.7754ZM65.7754 6.8V7.8H66.7754V6.8H65.7754ZM64.8754 6.8V5.8H63.8754V6.8H64.8754ZM61.2754 14.9V13.9H60.2754V14.9H61.2754ZM63.0754 14.9H64.0754V13.9H63.0754V14.9ZM63.0754 15.8H62.0754V16.8H63.0754V15.8ZM63.9754 15.8H64.9754V14.8H63.9754V15.8ZM63.9754 16.7H62.9754V17.7H63.9754V16.7ZM67.5754 16.7V17.7H68.5754V16.7H67.5754ZM67.5754 15.8V14.8H66.5754V15.8H67.5754ZM68.4754 15.8V16.8H69.4754V15.8H68.4754ZM68.4754 14H69.4754V13H68.4754V14ZM62.1754 14H61.1754V15H62.1754V14ZM62.1754 13.1H63.1754V12.1H62.1754V13.1ZM61.2754 13.1H60.2754V14.1H61.2754V13.1ZM61.2754 11.3V10.3H60.2754V11.3H61.2754ZM62.1754 11.3V12.3H63.1754V11.3H62.1754ZM62.1754 10.4V9.4H61.1754V10.4H62.1754ZM63.0754 10.4H64.0754V9.4H63.0754V10.4ZM63.0754 13.1H62.0754V14.1H63.0754V13.1ZM69.3754 13.1H70.3754V12.1H69.3754V13.1ZM69.3754 14H68.3754V15H69.3754V14ZM70.2754 14H71.2754V13H70.2754V14ZM70.2754 15.8V16.8H71.2754V15.8H70.2754ZM69.3754 15.8V14.8H68.3754V15.8H69.3754ZM69.3754 16.7V17.7H70.3754V16.7H69.3754ZM68.4754 16.7V15.7H67.4754V16.7H68.4754ZM68.4754 17.6V18.6H69.4754V17.6H68.4754ZM62.1754 17.6H61.1754V18.6H62.1754V17.6ZM62.1754 16.7H63.1754V15.7H62.1754V16.7ZM61.2754 16.7H60.2754V17.7H61.2754V16.7ZM64.8754 10.4V11.4H67.5754V10.4V9.4H64.8754V10.4ZM67.5754 10.4H68.5754V9.5H67.5754H66.5754V10.4H67.5754ZM67.5754 9.5V10.5H68.4754V9.5V8.5H67.5754V9.5ZM68.4754 9.5H69.4754V5.9H68.4754H67.4754V9.5H68.4754ZM68.4754 5.9V6.9H70.2754V5.9V4.9H68.4754V5.9ZM70.2754 5.9H71.2754V5H70.2754H69.2754V5.9H70.2754ZM70.2754 5V6H72.0754V5V4H70.2754V5ZM72.0754 5H71.0754V6.8H72.0754H73.0754V5H72.0754ZM72.0754 6.8V5.8H70.2754V6.8V7.8H72.0754V6.8ZM70.2754 6.8H69.2754V8.6H70.2754H71.2754V6.8H70.2754ZM70.2754 8.6V7.6H69.3754V8.6V9.6H70.2754V8.6ZM69.3754 8.6H68.3754V10.4H69.3754H70.3754V8.6H69.3754ZM69.3754 10.4V9.4H68.4754V10.4V11.4H69.3754V10.4ZM68.4754 10.4H67.4754V11.3H68.4754H69.4754V10.4H68.4754ZM68.4754 11.3V10.3H64.8754V11.3V12.3H68.4754V11.3ZM64.8754 11.3H65.8754V10.4H64.8754H63.8754V11.3H64.8754ZM64.8754 10.4V9.4H63.0754V10.4V11.4H64.8754V10.4ZM63.0754 10.4H64.0754V7.7H63.0754H62.0754V10.4H63.0754ZM63.0754 7.7V8.7H63.9754V7.7V6.7H63.0754V7.7ZM63.9754 7.7H64.9754V5.9H63.9754H62.9754V7.7H63.9754ZM63.9754 5.9V6.9H64.8754V5.9V4.9H63.9754V5.9ZM64.8754 5.9H65.8754V5H64.8754H63.8754V5.9H64.8754ZM64.8754 5V6H68.4754V5V4H64.8754V5ZM68.4754 5H67.4754V5.9H68.4754H69.4754V5H68.4754ZM68.4754 5.9V4.9H65.7754V5.9V6.9H68.4754V5.9ZM65.7754 5.9H64.7754V6.8H65.7754H66.7754V5.9H65.7754ZM65.7754 6.8V5.8H64.8754V6.8V7.8H65.7754V6.8ZM64.8754 6.8H63.8754V10.4H64.8754H65.8754V6.8H64.8754ZM61.2754 14.9V15.9H63.0754V14.9V13.9H61.2754V14.9ZM63.0754 14.9H62.0754V15.8H63.0754H64.0754V14.9H63.0754ZM63.0754 15.8V16.8H63.9754V15.8V14.8H63.0754V15.8ZM63.9754 15.8H62.9754V16.7H63.9754H64.9754V15.8H63.9754ZM63.9754 16.7V17.7H67.5754V16.7V15.7H63.9754V16.7ZM67.5754 16.7H68.5754V15.8H67.5754H66.5754V16.7H67.5754ZM67.5754 15.8V16.8H68.4754V15.8V14.8H67.5754V15.8ZM68.4754 15.8H69.4754V14H68.4754H67.4754V15.8H68.4754ZM68.4754 14V13H62.1754V14V15H68.4754V14ZM62.1754 14H63.1754V13.1H62.1754H61.1754V14H62.1754ZM62.1754 13.1V12.1H61.2754V13.1V14.1H62.1754V13.1ZM61.2754 13.1H62.2754V11.3H61.2754H60.2754V13.1H61.2754ZM61.2754 11.3V12.3H62.1754V11.3V10.3H61.2754V11.3ZM62.1754 11.3H63.1754V10.4H62.1754H61.1754V11.3H62.1754ZM62.1754 10.4V11.4H63.0754V10.4V9.4H62.1754V10.4ZM63.0754 10.4H62.0754V13.1H63.0754H64.0754V10.4H63.0754ZM63.0754 13.1V14.1H69.3754V13.1V12.1H63.0754V13.1ZM69.3754 13.1H68.3754V14H69.3754H70.3754V13.1H69.3754ZM69.3754 14V15H70.2754V14V13H69.3754V14ZM70.2754 14H69.2754V15.8H70.2754H71.2754V14H70.2754ZM70.2754 15.8V14.8H69.3754V15.8V16.8H70.2754V15.8ZM69.3754 15.8H68.3754V16.7H69.3754H70.3754V15.8H69.3754ZM69.3754 16.7V15.7H68.4754V16.7V17.7H69.3754V16.7ZM68.4754 16.7H67.4754V17.6H68.4754H69.4754V16.7H68.4754ZM68.4754 17.6V16.6H62.1754V17.6V18.6H68.4754V17.6ZM62.1754 17.6H63.1754V16.7H62.1754H61.1754V17.6H62.1754ZM62.1754 16.7V15.7H61.2754V16.7V17.7H62.1754V16.7ZM61.2754 16.7H62.2754V14.9H61.2754H60.2754V16.7H61.2754ZM72.9684 11.3V10.3H71.9684V11.3H72.9684ZM73.8684 11.3V12.3H74.8684V11.3H73.8684ZM73.8684 8.6V7.6H72.8684V8.6H73.8684ZM74.7684 8.6V9.6H75.7684V8.6H74.7684ZM74.7684 5V4H73.7684V5H74.7684ZM75.6684 5V6H76.6684V5H75.6684ZM75.6684 2.3H76.6684V1.3H75.6684V2.3ZM73.8684 2.3H72.8684V3.3H73.8684V2.3ZM73.8684 1.4V0.399999H72.8684V1.4H73.8684ZM77.4684 1.4H78.4684V0.399999H77.4684V1.4ZM77.4684 5V6H78.4684V5H77.4684ZM76.5684 5V4H75.5684V5H76.5684ZM76.5684 7.7H75.5684V8.7H76.5684V7.7ZM77.4684 7.7H78.4684V6.7H77.4684V7.7ZM77.4684 8.6V9.6H78.4684V8.6H77.4684ZM76.5684 8.6V7.6H75.5684V8.6H76.5684ZM76.5684 9.5V10.5H77.5684V9.5H76.5684ZM75.6684 9.5V8.5H74.6684V9.5H75.6684ZM75.6684 11.3V12.3H76.6684V11.3H75.6684ZM74.7684 11.3V10.3H73.7684V11.3H74.7684ZM74.7684 14V15H75.7684V14H74.7684ZM72.9684 14H71.9684V15H72.9684V14ZM79.2684 11.3V10.3H78.2684V11.3H79.2684ZM80.1684 11.3V12.3H81.1684V11.3H80.1684ZM80.1684 8.6V7.6H79.1684V8.6H80.1684ZM81.0684 8.6V9.6H82.0684V8.6H81.0684ZM81.0684 6.8H82.0684V5.8H81.0684V6.8ZM80.1684 6.8H79.1684V7.8H80.1684V6.8ZM80.1684 5.9H81.1684V4.9H80.1684V5.9ZM79.2684 5.9H78.2684V6.9H79.2684V5.9ZM79.2684 5V4H78.2684V5H79.2684ZM81.9684 5H82.9684V4H81.9684V5ZM81.9684 5.9H80.9684V6.9H81.9684V5.9ZM82.8684 5.9H83.8684V4.9H82.8684V5.9ZM82.8684 8.6V9.6H83.8684V8.6H82.8684ZM81.9684 8.6V7.6H80.9684V8.6H81.9684ZM81.9684 11.3V12.3H82.9684V11.3H81.9684ZM81.0684 11.3V10.3H80.0684V11.3H81.0684ZM81.0684 12.2V13.2H82.0684V12.2H81.0684ZM80.1684 12.2V11.2H79.1684V12.2H80.1684ZM80.1684 13.1V14.1H81.1684V13.1H80.1684ZM79.2684 13.1H78.2684V14.1H79.2684V13.1ZM78.3684 5.9V4.9H77.3684V5.9H78.3684ZM79.2684 5.9H80.2684V4.9H79.2684V5.9ZM79.2684 6.8V7.8H80.2684V6.8H79.2684ZM78.3684 6.8H77.3684V7.8H78.3684V6.8ZM77.4684 6.8V5.8H76.4684V6.8H77.4684ZM78.3684 6.8H79.3684V5.8H78.3684V6.8ZM78.3684 7.7V8.7H79.3684V7.7H78.3684ZM77.4684 7.7H76.4684V8.7H77.4684V7.7ZM76.5684 11.3V10.3H75.5684V11.3H76.5684ZM78.3684 11.3H79.3684V10.3H78.3684V11.3ZM78.3684 13.1H77.3684V14.1H78.3684V13.1ZM79.2684 13.1H80.2684V12.1H79.2684V13.1ZM79.2684 14V15H80.2684V14H79.2684ZM77.4684 14H76.4684V15H77.4684V14ZM77.4684 13.1H78.4684V12.1H77.4684V13.1ZM76.5684 13.1H75.5684V14.1H76.5684V13.1ZM72.9684 11.3V12.3H73.8684V11.3V10.3H72.9684V11.3ZM73.8684 11.3H74.8684V8.6H73.8684H72.8684V11.3H73.8684ZM73.8684 8.6V9.6H74.7684V8.6V7.6H73.8684V8.6ZM74.7684 8.6H75.7684V5H74.7684H73.7684V8.6H74.7684ZM74.7684 5V6H75.6684V5V4H74.7684V5ZM75.6684 5H76.6684V2.3H75.6684H74.6684V5H75.6684ZM75.6684 2.3V1.3H73.8684V2.3V3.3H75.6684V2.3ZM73.8684 2.3H74.8684V1.4H73.8684H72.8684V2.3H73.8684ZM73.8684 1.4V2.4H77.4684V1.4V0.399999H73.8684V1.4ZM77.4684 1.4H76.4684V5H77.4684H78.4684V1.4H77.4684ZM77.4684 5V4H76.5684V5V6H77.4684V5ZM76.5684 5H75.5684V7.7H76.5684H77.5684V5H76.5684ZM76.5684 7.7V8.7H77.4684V7.7V6.7H76.5684V7.7ZM77.4684 7.7H76.4684V8.6H77.4684H78.4684V7.7H77.4684ZM77.4684 8.6V7.6H76.5684V8.6V9.6H77.4684V8.6ZM76.5684 8.6H75.5684V9.5H76.5684H77.5684V8.6H76.5684ZM76.5684 9.5V8.5H75.6684V9.5V10.5H76.5684V9.5ZM75.6684 9.5H74.6684V11.3H75.6684H76.6684V9.5H75.6684ZM75.6684 11.3V10.3H74.7684V11.3V12.3H75.6684V11.3ZM74.7684 11.3H73.7684V14H74.7684H75.7684V11.3H74.7684ZM74.7684 14V13H72.9684V14V15H74.7684V14ZM72.9684 14H73.9684V11.3H72.9684H71.9684V14H72.9684ZM79.2684 11.3V12.3H80.1684V11.3V10.3H79.2684V11.3ZM80.1684 11.3H81.1684V8.6H80.1684H79.1684V11.3H80.1684ZM80.1684 8.6V9.6H81.0684V8.6V7.6H80.1684V8.6ZM81.0684 8.6H82.0684V6.8H81.0684H80.0684V8.6H81.0684ZM81.0684 6.8V5.8H80.1684V6.8V7.8H81.0684V6.8ZM80.1684 6.8H81.1684V5.9H80.1684H79.1684V6.8H80.1684ZM80.1684 5.9V4.9H79.2684V5.9V6.9H80.1684V5.9ZM79.2684 5.9H80.2684V5H79.2684H78.2684V5.9H79.2684ZM79.2684 5V6H81.9684V5V4H79.2684V5ZM81.9684 5H80.9684V5.9H81.9684H82.9684V5H81.9684ZM81.9684 5.9V6.9H82.8684V5.9V4.9H81.9684V5.9ZM82.8684 5.9H81.8684V8.6H82.8684H83.8684V5.9H82.8684ZM82.8684 8.6V7.6H81.9684V8.6V9.6H82.8684V8.6ZM81.9684 8.6H80.9684V11.3H81.9684H82.9684V8.6H81.9684ZM81.9684 11.3V10.3H81.0684V11.3V12.3H81.9684V11.3ZM81.0684 11.3H80.0684V12.2H81.0684H82.0684V11.3H81.0684ZM81.0684 12.2V11.2H80.1684V12.2V13.2H81.0684V12.2ZM80.1684 12.2H79.1684V13.1H80.1684H81.1684V12.2H80.1684ZM80.1684 13.1V12.1H79.2684V13.1V14.1H80.1684V13.1ZM79.2684 13.1H80.2684V11.3H79.2684H78.2684V13.1H79.2684ZM78.3684 5.9V6.9H79.2684V5.9V4.9H78.3684V5.9ZM79.2684 5.9H78.2684V6.8H79.2684H80.2684V5.9H79.2684ZM79.2684 6.8V5.8H78.3684V6.8V7.8H79.2684V6.8ZM78.3684 6.8H79.3684V5.9H78.3684H77.3684V6.8H78.3684ZM77.4684 6.8V7.8H78.3684V6.8V5.8H77.4684V6.8ZM78.3684 6.8H77.3684V7.7H78.3684H79.3684V6.8H78.3684ZM78.3684 7.7V6.7H77.4684V7.7V8.7H78.3684V7.7ZM77.4684 7.7H78.4684V6.8H77.4684H76.4684V7.7H77.4684ZM76.5684 11.3V12.3H78.3684V11.3V10.3H76.5684V11.3ZM78.3684 11.3H77.3684V13.1H78.3684H79.3684V11.3H78.3684ZM78.3684 13.1V14.1H79.2684V13.1V12.1H78.3684V13.1ZM79.2684 13.1H78.2684V14H79.2684H80.2684V13.1H79.2684ZM79.2684 14V13H77.4684V14V15H79.2684V14ZM77.4684 14H78.4684V13.1H77.4684H76.4684V14H77.4684ZM77.4684 13.1V12.1H76.5684V13.1V14.1H77.4684V13.1ZM76.5684 13.1H77.5684V11.3H76.5684H75.5684V13.1H76.5684ZM90.0754 8.6V7.6H89.0754V8.6H90.0754ZM90.9754 8.6V9.6H91.9754V8.6H90.9754ZM90.9754 5.9H91.9754V4.9H90.9754V5.9ZM88.2754 5.9H87.2754V6.9H88.2754V5.9ZM88.2754 5V4H87.2754V5H88.2754ZM91.8754 5H92.8754V4H91.8754V5ZM91.8754 5.9H90.8754V6.9H91.8754V5.9ZM92.7754 5.9H93.7754V4.9H92.7754V5.9ZM92.7754 8.6V9.6H93.7754V8.6H92.7754ZM91.8754 8.6V7.6H90.8754V8.6H91.8754ZM91.8754 9.5V10.5H92.8754V9.5H91.8754ZM90.0754 9.5H89.0754V10.5H90.0754V9.5ZM85.5754 12.2H86.5754V11.2H85.5754V12.2ZM84.6754 12.2H83.6754V13.2H84.6754V12.2ZM84.6754 8.6V7.6H83.6754V8.6H84.6754ZM85.5754 8.6V9.6H86.5754V8.6H85.5754ZM85.5754 6.8V5.8H84.5754V6.8H85.5754ZM86.4754 6.8V7.8H87.4754V6.8H86.4754ZM86.4754 5.9V4.9H85.4754V5.9H86.4754ZM88.2754 5.9H89.2754V4.9H88.2754V5.9ZM88.2754 6.8V7.8H89.2754V6.8H88.2754ZM87.3754 6.8V5.8H86.3754V6.8H87.3754ZM87.3754 8.6V9.6H88.3754V8.6H87.3754ZM86.4754 8.6V7.6H85.4754V8.6H86.4754ZM86.4754 10.4H85.4754V11.4H86.4754V10.4ZM88.2754 10.4H89.2754V9.4H88.2754V10.4ZM88.2754 11.3V12.3H89.2754V11.3H88.2754ZM86.4754 11.3V10.3H85.4754V11.3H86.4754ZM86.4754 12.2H85.4754V13.2H86.4754V12.2ZM87.3754 12.2H88.3754V11.2H87.3754V12.2ZM87.3754 13.1H86.3754V14.1H87.3754V13.1ZM90.0754 13.1H91.0754V12.1H90.0754V13.1ZM90.0754 14V15H91.0754V14H90.0754ZM86.4754 14H85.4754V15H86.4754V14ZM86.4754 13.1H87.4754V12.1H86.4754V13.1ZM85.5754 13.1H84.5754V14.1H85.5754V13.1ZM88.2754 9.5V8.5H87.2754V9.5H88.2754ZM90.0754 9.5H91.0754V8.5H90.0754V9.5ZM90.0754 10.4V11.4H91.0754V10.4H90.0754ZM88.2754 10.4H87.2754V11.4H88.2754V10.4ZM91.8754 11.3V10.3H90.8754V11.3H91.8754ZM92.7754 11.3H93.7754V10.3H92.7754V11.3ZM92.7754 12.2V13.2H93.7754V12.2H92.7754ZM91.8754 12.2H90.8754V13.2H91.8754V12.2ZM90.0754 12.2V11.2H89.0754V12.2H90.0754ZM91.8754 12.2H92.8754V11.2H91.8754V12.2ZM91.8754 13.1V14.1H92.8754V13.1H91.8754ZM90.0754 13.1H89.0754V14.1H90.0754V13.1ZM90.0754 8.6V9.6H90.9754V8.6V7.6H90.0754V8.6ZM90.9754 8.6H91.9754V5.9H90.9754H89.9754V8.6H90.9754ZM90.9754 5.9V4.9H88.2754V5.9V6.9H90.9754V5.9ZM88.2754 5.9H89.2754V5H88.2754H87.2754V5.9H88.2754ZM88.2754 5V6H91.8754V5V4H88.2754V5ZM91.8754 5H90.8754V5.9H91.8754H92.8754V5H91.8754ZM91.8754 5.9V6.9H92.7754V5.9V4.9H91.8754V5.9ZM92.7754 5.9H91.7754V8.6H92.7754H93.7754V5.9H92.7754ZM92.7754 8.6V7.6H91.8754V8.6V9.6H92.7754V8.6ZM91.8754 8.6H90.8754V9.5H91.8754H92.8754V8.6H91.8754ZM91.8754 9.5V8.5H90.0754V9.5V10.5H91.8754V9.5ZM90.0754 9.5H91.0754V8.6H90.0754H89.0754V9.5H90.0754ZM85.5754 12.2V11.2H84.6754V12.2V13.2H85.5754V12.2ZM84.6754 12.2H85.6754V8.6H84.6754H83.6754V12.2H84.6754ZM84.6754 8.6V9.6H85.5754V8.6V7.6H84.6754V8.6ZM85.5754 8.6H86.5754V6.8H85.5754H84.5754V8.6H85.5754ZM85.5754 6.8V7.8H86.4754V6.8V5.8H85.5754V6.8ZM86.4754 6.8H87.4754V5.9H86.4754H85.4754V6.8H86.4754ZM86.4754 5.9V6.9H88.2754V5.9V4.9H86.4754V5.9ZM88.2754 5.9H87.2754V6.8H88.2754H89.2754V5.9H88.2754ZM88.2754 6.8V5.8H87.3754V6.8V7.8H88.2754V6.8ZM87.3754 6.8H86.3754V8.6H87.3754H88.3754V6.8H87.3754ZM87.3754 8.6V7.6H86.4754V8.6V9.6H87.3754V8.6ZM86.4754 8.6H85.4754V10.4H86.4754H87.4754V8.6H86.4754ZM86.4754 10.4V11.4H88.2754V10.4V9.4H86.4754V10.4ZM88.2754 10.4H87.2754V11.3H88.2754H89.2754V10.4H88.2754ZM88.2754 11.3V10.3H86.4754V11.3V12.3H88.2754V11.3ZM86.4754 11.3H85.4754V12.2H86.4754H87.4754V11.3H86.4754ZM86.4754 12.2V13.2H87.3754V12.2V11.2H86.4754V12.2ZM87.3754 12.2H86.3754V13.1H87.3754H88.3754V12.2H87.3754ZM87.3754 13.1V14.1H90.0754V13.1V12.1H87.3754V13.1ZM90.0754 13.1H89.0754V14H90.0754H91.0754V13.1H90.0754ZM90.0754 14V13H86.4754V14V15H90.0754V14ZM86.4754 14H87.4754V13.1H86.4754H85.4754V14H86.4754ZM86.4754 13.1V12.1H85.5754V13.1V14.1H86.4754V13.1ZM85.5754 13.1H86.5754V12.2H85.5754H84.5754V13.1H85.5754ZM88.2754 9.5V10.5H90.0754V9.5V8.5H88.2754V9.5ZM90.0754 9.5H89.0754V10.4H90.0754H91.0754V9.5H90.0754ZM90.0754 10.4V9.4H88.2754V10.4V11.4H90.0754V10.4ZM88.2754 10.4H89.2754V9.5H88.2754H87.2754V10.4H88.2754ZM91.8754 11.3V12.3H92.7754V11.3V10.3H91.8754V11.3ZM92.7754 11.3H91.7754V12.2H92.7754H93.7754V11.3H92.7754ZM92.7754 12.2V11.2H91.8754V12.2V13.2H92.7754V12.2ZM91.8754 12.2H92.8754V11.3H91.8754H90.8754V12.2H91.8754ZM90.0754 12.2V13.2H91.8754V12.2V11.2H90.0754V12.2ZM91.8754 12.2H90.8754V13.1H91.8754H92.8754V12.2H91.8754ZM91.8754 13.1V12.1H90.0754V13.1V14.1H91.8754V13.1ZM90.0754 13.1H91.0754V12.2H90.0754H89.0754V13.1H90.0754ZM94.5719 11.3V10.3H93.5719V11.3H94.5719ZM95.4719 11.3V12.3H96.4719V11.3H95.4719ZM95.4719 8.6V7.6H94.4719V8.6H95.4719ZM96.3719 8.6V9.6H97.3719V8.6H96.3719ZM96.3719 5.9H97.3719V4.9H96.3719V5.9ZM95.4719 5.9H94.4719V6.9H95.4719V5.9ZM95.4719 5V4H94.4719V5H95.4719ZM98.1719 5H99.1719V4H98.1719V5ZM98.1719 6.8H97.1719V7.8H98.1719V6.8ZM99.0719 6.8H100.072V5.8H99.0719V6.8ZM99.0719 7.7V8.7H100.072V7.7H99.0719ZM98.1719 7.7V6.7H97.1719V7.7H98.1719ZM98.1719 9.5V10.5H99.1719V9.5H98.1719ZM97.2719 9.5V8.5H96.2719V9.5H97.2719ZM97.2719 11.3V12.3H98.2719V11.3H97.2719ZM96.3719 11.3V10.3H95.3719V11.3H96.3719ZM96.3719 14V15H97.3719V14H96.3719ZM94.5719 14H93.5719V15H94.5719V14ZM99.9719 5V4H98.9719V5H99.9719ZM101.772 5H102.772V4H101.772V5ZM101.772 5.9H100.772V6.9H101.772V5.9ZM102.672 5.9H103.672V4.9H102.672V5.9ZM102.672 7.7V8.7H103.672V7.7H102.672ZM100.872 7.7H99.8719V8.7H100.872V7.7ZM100.872 5.9H101.872V4.9H100.872V5.9ZM99.9719 5.9H98.9719V6.9H99.9719V5.9ZM99.0719 5.9V4.9H98.0719V5.9H99.0719ZM99.9719 5.9H100.972V4.9H99.9719V5.9ZM99.9719 6.8V7.8H100.972V6.8H99.9719ZM99.0719 6.8H98.0719V7.8H99.0719V6.8ZM94.5719 5.9V4.9H93.5719V5.9H94.5719ZM95.4719 5.9H96.4719V4.9H95.4719V5.9ZM95.4719 6.8V7.8H96.4719V6.8H95.4719ZM94.5719 6.8H93.5719V7.8H94.5719V6.8ZM94.5719 11.3V12.3H95.4719V11.3V10.3H94.5719V11.3ZM95.4719 11.3H96.4719V8.6H95.4719H94.4719V11.3H95.4719ZM95.4719 8.6V9.6H96.3719V8.6V7.6H95.4719V8.6ZM96.3719 8.6H97.3719V5.9H96.3719H95.3719V8.6H96.3719ZM96.3719 5.9V4.9H95.4719V5.9V6.9H96.3719V5.9ZM95.4719 5.9H96.4719V5H95.4719H94.4719V5.9H95.4719ZM95.4719 5V6H98.1719V5V4H95.4719V5ZM98.1719 5H97.1719V6.8H98.1719H99.1719V5H98.1719ZM98.1719 6.8V7.8H99.0719V6.8V5.8H98.1719V6.8ZM99.0719 6.8H98.0719V7.7H99.0719H100.072V6.8H99.0719ZM99.0719 7.7V6.7H98.1719V7.7V8.7H99.0719V7.7ZM98.1719 7.7H97.1719V9.5H98.1719H99.1719V7.7H98.1719ZM98.1719 9.5V8.5H97.2719V9.5V10.5H98.1719V9.5ZM97.2719 9.5H96.2719V11.3H97.2719H98.2719V9.5H97.2719ZM97.2719 11.3V10.3H96.3719V11.3V12.3H97.2719V11.3ZM96.3719 11.3H95.3719V14H96.3719H97.3719V11.3H96.3719ZM96.3719 14V13H94.5719V14V15H96.3719V14ZM94.5719 14H95.5719V11.3H94.5719H93.5719V14H94.5719ZM99.9719 5V6H101.772V5V4H99.9719V5ZM101.772 5H100.772V5.9H101.772H102.772V5H101.772ZM101.772 5.9V6.9H102.672V5.9V4.9H101.772V5.9ZM102.672 5.9H101.672V7.7H102.672H103.672V5.9H102.672ZM102.672 7.7V6.7H100.872V7.7V8.7H102.672V7.7ZM100.872 7.7H101.872V5.9H100.872H99.8719V7.7H100.872ZM100.872 5.9V4.9H99.9719V5.9V6.9H100.872V5.9ZM99.9719 5.9H100.972V5H99.9719H98.9719V5.9H99.9719ZM99.0719 5.9V6.9H99.9719V5.9V4.9H99.0719V5.9ZM99.9719 5.9H98.9719V6.8H99.9719H100.972V5.9H99.9719ZM99.9719 6.8V5.8H99.0719V6.8V7.8H99.9719V6.8ZM99.0719 6.8H100.072V5.9H99.0719H98.0719V6.8H99.0719ZM94.5719 5.9V6.9H95.4719V5.9V4.9H94.5719V5.9ZM95.4719 5.9H94.4719V6.8H95.4719H96.4719V5.9H95.4719ZM95.4719 6.8V5.8H94.5719V6.8V7.8H95.4719V6.8ZM94.5719 6.8H95.5719V5.9H94.5719H93.5719V6.8H94.5719ZM1.9 31.1V30.1H0.9V31.1H1.9ZM2.8 31.1V32.1H3.8V31.1H2.8ZM2.8 29.3V28.3H1.8V29.3H2.8ZM3.7 29.3V30.3H4.7V29.3H3.7ZM3.7 25.7V24.7H2.7V25.7H3.7ZM4.6 25.7V26.7H5.6V25.7H4.6ZM4.6 23V22H3.6V23H4.6ZM5.5 23V24H6.5V23H5.5ZM5.5 20.3H6.5V19.3H5.5V20.3ZM4.6 20.3H3.6V21.3H4.6V20.3ZM4.6 19.4V18.4H3.6V19.4H4.6ZM12.7 19.4H13.7V18.4H12.7V19.4ZM12.7 20.3H11.7V21.3H12.7V20.3ZM13.6 20.3H14.6V19.3H13.6V20.3ZM13.6 23.9V24.9H14.6V23.9H13.6ZM12.7 23.9V22.9H11.7V23.9H12.7ZM12.7 24.8V25.8H13.7V24.8H12.7ZM11.8 24.8V23.8H10.8V24.8H11.8ZM11.8 25.7V26.7H12.8V25.7H11.8ZM10.9 25.7H9.9V26.7H10.9V25.7ZM10.9 23.9V22.9H9.9V23.9H10.9ZM11.8 23.9V24.9H12.8V23.9H11.8ZM11.8 21.2H12.8V20.2H11.8V21.2ZM10.9 21.2H9.9V22.2H10.9V21.2ZM10.9 20.3H11.9V19.3H10.9V20.3ZM7.3 20.3V19.3H6.3V20.3H7.3ZM7.3 23V24H8.3V23H7.3ZM6.4 23V22H5.4V23H6.4ZM6.4 25.7V26.7H7.4V25.7H6.4ZM5.5 25.7V24.7H4.5V25.7H5.5ZM5.5 26.6H4.5V27.6H5.5V26.6ZM8.2 26.6H9.2V25.6H8.2V26.6ZM8.2 27.5H7.2V28.5H8.2V27.5ZM9.1 27.5H10.1V26.5H9.1V27.5ZM9.1 28.4H8.1V29.4H9.1V28.4ZM10 28.4H11V27.4H10V28.4ZM10 29.3H9V30.3H10V29.3ZM10.9 29.3H11.9V28.3H10.9V29.3ZM10.9 30.2H9.9V31.2H10.9V30.2ZM11.8 30.2H12.8V29.2H11.8V30.2ZM11.8 31.1H10.8V32.1H11.8V31.1ZM12.7 31.1H13.7V30.1H12.7V31.1ZM12.7 32V33H13.7V32H12.7ZM10 32H9V33H10V32ZM10 31.1H11V30.1H10V31.1ZM9.1 31.1H8.1V32.1H9.1V31.1ZM9.1 30.2H10.1V29.2H9.1V30.2ZM8.2 30.2H7.2V31.2H8.2V30.2ZM8.2 29.3H9.2V28.3H8.2V29.3ZM7.3 29.3H6.3V30.3H7.3V29.3ZM7.3 28.4H8.3V27.4H7.3V28.4ZM6.4 28.4H5.4V29.4H6.4V28.4ZM6.4 27.5H7.4V26.5H6.4V27.5ZM5.5 27.5V26.5H4.5V27.5H5.5ZM5.5 29.3V30.3H6.5V29.3H5.5ZM4.6 29.3V28.3H3.6V29.3H4.6ZM4.6 31.1H3.6V32.1H4.6V31.1ZM5.5 31.1H6.5V30.1H5.5V31.1ZM5.5 32V33H6.5V32H5.5ZM1.9 32H0.9V33H1.9V32ZM8.2 25.7V24.7H7.2V25.7H8.2ZM10.9 25.7H11.9V24.7H10.9V25.7ZM10.9 26.6V27.6H11.9V26.6H10.9ZM8.2 26.6H7.2V27.6H8.2V26.6ZM1.9 31.1V32.1H2.8V31.1V30.1H1.9V31.1ZM2.8 31.1H3.8V29.3H2.8H1.8V31.1H2.8ZM2.8 29.3V30.3H3.7V29.3V28.3H2.8V29.3ZM3.7 29.3H4.7V25.7H3.7H2.7V29.3H3.7ZM3.7 25.7V26.7H4.6V25.7V24.7H3.7V25.7ZM4.6 25.7H5.6V23H4.6H3.6V25.7H4.6ZM4.6 23V24H5.5V23V22H4.6V23ZM5.5 23H6.5V20.3H5.5H4.5V23H5.5ZM5.5 20.3V19.3H4.6V20.3V21.3H5.5V20.3ZM4.6 20.3H5.6V19.4H4.6H3.6V20.3H4.6ZM4.6 19.4V20.4H12.7V19.4V18.4H4.6V19.4ZM12.7 19.4H11.7V20.3H12.7H13.7V19.4H12.7ZM12.7 20.3V21.3H13.6V20.3V19.3H12.7V20.3ZM13.6 20.3H12.6V23.9H13.6H14.6V20.3H13.6ZM13.6 23.9V22.9H12.7V23.9V24.9H13.6V23.9ZM12.7 23.9H11.7V24.8H12.7H13.7V23.9H12.7ZM12.7 24.8V23.8H11.8V24.8V25.8H12.7V24.8ZM11.8 24.8H10.8V25.7H11.8H12.8V24.8H11.8ZM11.8 25.7V24.7H10.9V25.7V26.7H11.8V25.7ZM10.9 25.7H11.9V23.9H10.9H9.9V25.7H10.9ZM10.9 23.9V24.9H11.8V23.9V22.9H10.9V23.9ZM11.8 23.9H12.8V21.2H11.8H10.8V23.9H11.8ZM11.8 21.2V20.2H10.9V21.2V22.2H11.8V21.2ZM10.9 21.2H11.9V20.3H10.9H9.9V21.2H10.9ZM10.9 20.3V19.3H7.3V20.3V21.3H10.9V20.3ZM7.3 20.3H6.3V23H7.3H8.3V20.3H7.3ZM7.3 23V22H6.4V23V24H7.3V23ZM6.4 23H5.4V25.7H6.4H7.4V23H6.4ZM6.4 25.7V24.7H5.5V25.7V26.7H6.4V25.7ZM5.5 25.7H4.5V26.6H5.5H6.5V25.7H5.5ZM5.5 26.6V27.6H8.2V26.6V25.6H5.5V26.6ZM8.2 26.6H7.2V27.5H8.2H9.2V26.6H8.2ZM8.2 27.5V28.5H9.1V27.5V26.5H8.2V27.5ZM9.1 27.5H8.1V28.4H9.1H10.1V27.5H9.1ZM9.1 28.4V29.4H10V28.4V27.4H9.1V28.4ZM10 28.4H9V29.3H10H11V28.4H10ZM10 29.3V30.3H10.9V29.3V28.3H10V29.3ZM10.9 29.3H9.9V30.2H10.9H11.9V29.3H10.9ZM10.9 30.2V31.2H11.8V30.2V29.2H10.9V30.2ZM11.8 30.2H10.8V31.1H11.8H12.8V30.2H11.8ZM11.8 31.1V32.1H12.7V31.1V30.1H11.8V31.1ZM12.7 31.1H11.7V32H12.7H13.7V31.1H12.7ZM12.7 32V31H10V32V33H12.7V32ZM10 32H11V31.1H10H9V32H10ZM10 31.1V30.1H9.1V31.1V32.1H10V31.1ZM9.1 31.1H10.1V30.2H9.1H8.1V31.1H9.1ZM9.1 30.2V29.2H8.2V30.2V31.2H9.1V30.2ZM8.2 30.2H9.2V29.3H8.2H7.2V30.2H8.2ZM8.2 29.3V28.3H7.3V29.3V30.3H8.2V29.3ZM7.3 29.3H8.3V28.4H7.3H6.3V29.3H7.3ZM7.3 28.4V27.4H6.4V28.4V29.4H7.3V28.4ZM6.4 28.4H7.4V27.5H6.4H5.4V28.4H6.4ZM6.4 27.5V26.5H5.5V27.5V28.5H6.4V27.5ZM5.5 27.5H4.5V29.3H5.5H6.5V27.5H5.5ZM5.5 29.3V28.3H4.6V29.3V30.3H5.5V29.3ZM4.6 29.3H3.6V31.1H4.6H5.6V29.3H4.6ZM4.6 31.1V32.1H5.5V31.1V30.1H4.6V31.1ZM5.5 31.1H4.5V32H5.5H6.5V31.1H5.5ZM5.5 32V31H1.9V32V33H5.5V32ZM1.9 32H2.9V31.1H1.9H0.9V32H1.9ZM8.2 25.7V26.7H10.9V25.7V24.7H8.2V25.7ZM10.9 25.7H9.9V26.6H10.9H11.9V25.7H10.9ZM10.9 26.6V25.6H8.2V26.6V27.6H10.9V26.6ZM8.2 26.6H9.2V25.7H8.2H7.2V26.6H8.2ZM20.8 26.6V25.6H19.8V26.6H20.8ZM21.7 26.6V27.6H22.7V26.6H21.7ZM21.7 23.9H22.7V22.9H21.7V23.9ZM19 23.9H18V24.9H19V23.9ZM19 23V22H18V23H19ZM22.6 23H23.6V22H22.6V23ZM22.6 23.9H21.6V24.9H22.6V23.9ZM23.5 23.9H24.5V22.9H23.5V23.9ZM23.5 26.6V27.6H24.5V26.6H23.5ZM22.6 26.6V25.6H21.6V26.6H22.6ZM22.6 27.5V28.5H23.6V27.5H22.6ZM20.8 27.5H19.8V28.5H20.8V27.5ZM16.3 30.2H17.3V29.2H16.3V30.2ZM15.4 30.2H14.4V31.2H15.4V30.2ZM15.4 26.6V25.6H14.4V26.6H15.4ZM16.3 26.6V27.6H17.3V26.6H16.3ZM16.3 24.8V23.8H15.3V24.8H16.3ZM17.2 24.8V25.8H18.2V24.8H17.2ZM17.2 23.9V22.9H16.2V23.9H17.2ZM19 23.9H20V22.9H19V23.9ZM19 24.8V25.8H20V24.8H19ZM18.1 24.8V23.8H17.1V24.8H18.1ZM18.1 26.6V27.6H19.1V26.6H18.1ZM17.2 26.6V25.6H16.2V26.6H17.2ZM17.2 28.4H16.2V29.4H17.2V28.4ZM19 28.4H20V27.4H19V28.4ZM19 29.3V30.3H20V29.3H19ZM17.2 29.3V28.3H16.2V29.3H17.2ZM17.2 30.2H16.2V31.2H17.2V30.2ZM18.1 30.2H19.1V29.2H18.1V30.2ZM18.1 31.1H17.1V32.1H18.1V31.1ZM20.8 31.1H21.8V30.1H20.8V31.1ZM20.8 32V33H21.8V32H20.8ZM17.2 32H16.2V33H17.2V32ZM17.2 31.1H18.2V30.1H17.2V31.1ZM16.3 31.1H15.3V32.1H16.3V31.1ZM19 27.5V26.5H18V27.5H19ZM20.8 27.5H21.8V26.5H20.8V27.5ZM20.8 28.4V29.4H21.8V28.4H20.8ZM19 28.4H18V29.4H19V28.4ZM22.6 29.3V28.3H21.6V29.3H22.6ZM23.5 29.3H24.5V28.3H23.5V29.3ZM23.5 30.2V31.2H24.5V30.2H23.5ZM22.6 30.2H21.6V31.2H22.6V30.2ZM20.8 30.2V29.2H19.8V30.2H20.8ZM22.6 30.2H23.6V29.2H22.6V30.2ZM22.6 31.1V32.1H23.6V31.1H22.6ZM20.8 31.1H19.8V32.1H20.8V31.1ZM20.8 26.6V27.6H21.7V26.6V25.6H20.8V26.6ZM21.7 26.6H22.7V23.9H21.7H20.7V26.6H21.7ZM21.7 23.9V22.9H19V23.9V24.9H21.7V23.9ZM19 23.9H20V23H19H18V23.9H19ZM19 23V24H22.6V23V22H19V23ZM22.6 23H21.6V23.9H22.6H23.6V23H22.6ZM22.6 23.9V24.9H23.5V23.9V22.9H22.6V23.9ZM23.5 23.9H22.5V26.6H23.5H24.5V23.9H23.5ZM23.5 26.6V25.6H22.6V26.6V27.6H23.5V26.6ZM22.6 26.6H21.6V27.5H22.6H23.6V26.6H22.6ZM22.6 27.5V26.5H20.8V27.5V28.5H22.6V27.5ZM20.8 27.5H21.8V26.6H20.8H19.8V27.5H20.8ZM16.3 30.2V29.2H15.4V30.2V31.2H16.3V30.2ZM15.4 30.2H16.4V26.6H15.4H14.4V30.2H15.4ZM15.4 26.6V27.6H16.3V26.6V25.6H15.4V26.6ZM16.3 26.6H17.3V24.8H16.3H15.3V26.6H16.3ZM16.3 24.8V25.8H17.2V24.8V23.8H16.3V24.8ZM17.2 24.8H18.2V23.9H17.2H16.2V24.8H17.2ZM17.2 23.9V24.9H19V23.9V22.9H17.2V23.9ZM19 23.9H18V24.8H19H20V23.9H19ZM19 24.8V23.8H18.1V24.8V25.8H19V24.8ZM18.1 24.8H17.1V26.6H18.1H19.1V24.8H18.1ZM18.1 26.6V25.6H17.2V26.6V27.6H18.1V26.6ZM17.2 26.6H16.2V28.4H17.2H18.2V26.6H17.2ZM17.2 28.4V29.4H19V28.4V27.4H17.2V28.4ZM19 28.4H18V29.3H19H20V28.4H19ZM19 29.3V28.3H17.2V29.3V30.3H19V29.3ZM17.2 29.3H16.2V30.2H17.2H18.2V29.3H17.2ZM17.2 30.2V31.2H18.1V30.2V29.2H17.2V30.2ZM18.1 30.2H17.1V31.1H18.1H19.1V30.2H18.1ZM18.1 31.1V32.1H20.8V31.1V30.1H18.1V31.1ZM20.8 31.1H19.8V32H20.8H21.8V31.1H20.8ZM20.8 32V31H17.2V32V33H20.8V32ZM17.2 32H18.2V31.1H17.2H16.2V32H17.2ZM17.2 31.1V30.1H16.3V31.1V32.1H17.2V31.1ZM16.3 31.1H17.3V30.2H16.3H15.3V31.1H16.3ZM19 27.5V28.5H20.8V27.5V26.5H19V27.5ZM20.8 27.5H19.8V28.4H20.8H21.8V27.5H20.8ZM20.8 28.4V27.4H19V28.4V29.4H20.8V28.4ZM19 28.4H20V27.5H19H18V28.4H19ZM22.6 29.3V30.3H23.5V29.3V28.3H22.6V29.3ZM23.5 29.3H22.5V30.2H23.5H24.5V29.3H23.5ZM23.5 30.2V29.2H22.6V30.2V31.2H23.5V30.2ZM22.6 30.2H23.6V29.3H22.6H21.6V30.2H22.6ZM20.8 30.2V31.2H22.6V30.2V29.2H20.8V30.2ZM22.6 30.2H21.6V31.1H22.6H23.6V30.2H22.6ZM22.6 31.1V30.1H20.8V31.1V32.1H22.6V31.1ZM20.8 31.1H21.8V30.2H20.8H19.8V31.1H20.8ZM25.2965 29.3V28.3H24.2965V29.3H25.2965ZM26.1965 29.3V30.3H27.1965V29.3H26.1965ZM26.1965 26.6V25.6H25.1965V26.6H26.1965ZM27.0965 26.6V27.6H28.0965V26.6H27.0965ZM27.0965 23.9H28.0965V22.9H27.0965V23.9ZM25.2965 23.9H24.2965V24.9H25.2965V23.9ZM25.2965 23V22H24.2965V23H25.2965ZM27.9965 23V24H28.9965V23H27.9965ZM27.9965 20.3V19.3H26.9965V20.3H27.9965ZM29.7965 20.3H30.7965V19.3H29.7965V20.3ZM29.7965 23H28.7965V24H29.7965V23ZM31.5965 23H32.5965V22H31.5965V23ZM31.5965 23.9V24.9H32.5965V23.9H31.5965ZM28.8965 23.9V22.9H27.8965V23.9H28.8965ZM28.8965 27.5V28.5H29.8965V27.5H28.8965ZM27.9965 27.5V26.5H26.9965V27.5H27.9965ZM27.9965 29.3V30.3H28.9965V29.3H27.9965ZM27.0965 29.3V28.3H26.0965V29.3H27.0965ZM27.0965 31.1H26.0965V32.1H27.0965V31.1ZM27.9965 31.1H28.9965V30.1H27.9965V31.1ZM27.9965 32V33H28.9965V32H27.9965ZM25.2965 32H24.2965V33H25.2965V32ZM27.9965 30.2V29.2H26.9965V30.2H27.9965ZM28.8965 30.2H29.8965V29.2H28.8965V30.2ZM28.8965 31.1V32.1H29.8965V31.1H28.8965ZM27.9965 31.1H26.9965V32.1H27.9965V31.1ZM25.2965 29.3V30.3H26.1965V29.3V28.3H25.2965V29.3ZM26.1965 29.3H27.1965V26.6H26.1965H25.1965V29.3H26.1965ZM26.1965 26.6V27.6H27.0965V26.6V25.6H26.1965V26.6ZM27.0965 26.6H28.0965V23.9H27.0965H26.0965V26.6H27.0965ZM27.0965 23.9V22.9H25.2965V23.9V24.9H27.0965V23.9ZM25.2965 23.9H26.2965V23H25.2965H24.2965V23.9H25.2965ZM25.2965 23V24H27.9965V23V22H25.2965V23ZM27.9965 23H28.9965V20.3H27.9965H26.9965V23H27.9965ZM27.9965 20.3V21.3H29.7965V20.3V19.3H27.9965V20.3ZM29.7965 20.3H28.7965V23H29.7965H30.7965V20.3H29.7965ZM29.7965 23V24H31.5965V23V22H29.7965V23ZM31.5965 23H30.5965V23.9H31.5965H32.5965V23H31.5965ZM31.5965 23.9V22.9H28.8965V23.9V24.9H31.5965V23.9ZM28.8965 23.9H27.8965V27.5H28.8965H29.8965V23.9H28.8965ZM28.8965 27.5V26.5H27.9965V27.5V28.5H28.8965V27.5ZM27.9965 27.5H26.9965V29.3H27.9965H28.9965V27.5H27.9965ZM27.9965 29.3V28.3H27.0965V29.3V30.3H27.9965V29.3ZM27.0965 29.3H26.0965V31.1H27.0965H28.0965V29.3H27.0965ZM27.0965 31.1V32.1H27.9965V31.1V30.1H27.0965V31.1ZM27.9965 31.1H26.9965V32H27.9965H28.9965V31.1H27.9965ZM27.9965 32V31H25.2965V32V33H27.9965V32ZM25.2965 32H26.2965V29.3H25.2965H24.2965V32H25.2965ZM27.9965 30.2V31.2H28.8965V30.2V29.2H27.9965V30.2ZM28.8965 30.2H27.8965V31.1H28.8965H29.8965V30.2H28.8965ZM28.8965 31.1V30.1H27.9965V31.1V32.1H28.8965V31.1ZM27.9965 31.1H28.9965V30.2H27.9965H26.9965V31.1H27.9965ZM37.007 26.6V25.6H36.007V26.6H37.007ZM37.907 26.6V27.6H38.907V26.6H37.907ZM37.907 23.9H38.907V22.9H37.907V23.9ZM35.207 23.9H34.207V24.9H35.207V23.9ZM35.207 23V22H34.207V23H35.207ZM38.807 23H39.807V22H38.807V23ZM38.807 23.9H37.807V24.9H38.807V23.9ZM39.707 23.9H40.707V22.9H39.707V23.9ZM39.707 26.6V27.6H40.707V26.6H39.707ZM38.807 26.6V25.6H37.807V26.6H38.807ZM38.807 27.5V28.5H39.807V27.5H38.807ZM37.007 27.5H36.007V28.5H37.007V27.5ZM32.507 30.2H33.507V29.2H32.507V30.2ZM31.607 30.2H30.607V31.2H31.607V30.2ZM31.607 26.6V25.6H30.607V26.6H31.607ZM32.507 26.6V27.6H33.507V26.6H32.507ZM32.507 24.8V23.8H31.507V24.8H32.507ZM33.407 24.8V25.8H34.407V24.8H33.407ZM33.407 23.9V22.9H32.407V23.9H33.407ZM35.207 23.9H36.207V22.9H35.207V23.9ZM35.207 24.8V25.8H36.207V24.8H35.207ZM34.307 24.8V23.8H33.307V24.8H34.307ZM34.307 26.6V27.6H35.307V26.6H34.307ZM33.407 26.6V25.6H32.407V26.6H33.407ZM33.407 28.4H32.407V29.4H33.407V28.4ZM35.207 28.4H36.207V27.4H35.207V28.4ZM35.207 29.3V30.3H36.207V29.3H35.207ZM33.407 29.3V28.3H32.407V29.3H33.407ZM33.407 30.2H32.407V31.2H33.407V30.2ZM34.307 30.2H35.307V29.2H34.307V30.2ZM34.307 31.1H33.307V32.1H34.307V31.1ZM37.007 31.1H38.007V30.1H37.007V31.1ZM37.007 32V33H38.007V32H37.007ZM33.407 32H32.407V33H33.407V32ZM33.407 31.1H34.407V30.1H33.407V31.1ZM32.507 31.1H31.507V32.1H32.507V31.1ZM35.207 27.5V26.5H34.207V27.5H35.207ZM37.007 27.5H38.007V26.5H37.007V27.5ZM37.007 28.4V29.4H38.007V28.4H37.007ZM35.207 28.4H34.207V29.4H35.207V28.4ZM38.807 29.3V28.3H37.807V29.3H38.807ZM39.707 29.3H40.707V28.3H39.707V29.3ZM39.707 30.2V31.2H40.707V30.2H39.707ZM38.807 30.2H37.807V31.2H38.807V30.2ZM37.007 30.2V29.2H36.007V30.2H37.007ZM38.807 30.2H39.807V29.2H38.807V30.2ZM38.807 31.1V32.1H39.807V31.1H38.807ZM37.007 31.1H36.007V32.1H37.007V31.1ZM37.007 26.6V27.6H37.907V26.6V25.6H37.007V26.6ZM37.907 26.6H38.907V23.9H37.907H36.907V26.6H37.907ZM37.907 23.9V22.9H35.207V23.9V24.9H37.907V23.9ZM35.207 23.9H36.207V23H35.207H34.207V23.9H35.207ZM35.207 23V24H38.807V23V22H35.207V23ZM38.807 23H37.807V23.9H38.807H39.807V23H38.807ZM38.807 23.9V24.9H39.707V23.9V22.9H38.807V23.9ZM39.707 23.9H38.707V26.6H39.707H40.707V23.9H39.707ZM39.707 26.6V25.6H38.807V26.6V27.6H39.707V26.6ZM38.807 26.6H37.807V27.5H38.807H39.807V26.6H38.807ZM38.807 27.5V26.5H37.007V27.5V28.5H38.807V27.5ZM37.007 27.5H38.007V26.6H37.007H36.007V27.5H37.007ZM32.507 30.2V29.2H31.607V30.2V31.2H32.507V30.2ZM31.607 30.2H32.607V26.6H31.607H30.607V30.2H31.607ZM31.607 26.6V27.6H32.507V26.6V25.6H31.607V26.6ZM32.507 26.6H33.507V24.8H32.507H31.507V26.6H32.507ZM32.507 24.8V25.8H33.407V24.8V23.8H32.507V24.8ZM33.407 24.8H34.407V23.9H33.407H32.407V24.8H33.407ZM33.407 23.9V24.9H35.207V23.9V22.9H33.407V23.9ZM35.207 23.9H34.207V24.8H35.207H36.207V23.9H35.207ZM35.207 24.8V23.8H34.307V24.8V25.8H35.207V24.8ZM34.307 24.8H33.307V26.6H34.307H35.307V24.8H34.307ZM34.307 26.6V25.6H33.407V26.6V27.6H34.307V26.6ZM33.407 26.6H32.407V28.4H33.407H34.407V26.6H33.407ZM33.407 28.4V29.4H35.207V28.4V27.4H33.407V28.4ZM35.207 28.4H34.207V29.3H35.207H36.207V28.4H35.207ZM35.207 29.3V28.3H33.407V29.3V30.3H35.207V29.3ZM33.407 29.3H32.407V30.2H33.407H34.407V29.3H33.407ZM33.407 30.2V31.2H34.307V30.2V29.2H33.407V30.2ZM34.307 30.2H33.307V31.1H34.307H35.307V30.2H34.307ZM34.307 31.1V32.1H37.007V31.1V30.1H34.307V31.1ZM37.007 31.1H36.007V32H37.007H38.007V31.1H37.007ZM37.007 32V31H33.407V32V33H37.007V32ZM33.407 32H34.407V31.1H33.407H32.407V32H33.407ZM33.407 31.1V30.1H32.507V31.1V32.1H33.407V31.1ZM32.507 31.1H33.507V30.2H32.507H31.507V31.1H32.507ZM35.207 27.5V28.5H37.007V27.5V26.5H35.207V27.5ZM37.007 27.5H36.007V28.4H37.007H38.007V27.5H37.007ZM37.007 28.4V27.4H35.207V28.4V29.4H37.007V28.4ZM35.207 28.4H36.207V27.5H35.207H34.207V28.4H35.207ZM38.807 29.3V30.3H39.707V29.3V28.3H38.807V29.3ZM39.707 29.3H38.707V30.2H39.707H40.707V29.3H39.707ZM39.707 30.2V29.2H38.807V30.2V31.2H39.707V30.2ZM38.807 30.2H39.807V29.3H38.807H37.807V30.2H38.807ZM37.007 30.2V31.2H38.807V30.2V29.2H37.007V30.2ZM38.807 30.2H37.807V31.1H38.807H39.807V30.2H38.807ZM38.807 31.1V30.1H37.007V31.1V32.1H38.807V31.1ZM37.007 31.1H38.007V30.2H37.007H36.007V31.1H37.007ZM41.5035 29.3V28.3H40.5035V29.3H41.5035ZM42.4035 29.3V30.3H43.4035V29.3H42.4035ZM42.4035 26.6V25.6H41.4035V26.6H42.4035ZM43.3035 26.6V27.6H44.3035V26.6H43.3035ZM43.3035 23.9H44.3035V22.9H43.3035V23.9ZM42.4035 23.9H41.4035V24.9H42.4035V23.9ZM42.4035 23V22H41.4035V23H42.4035ZM45.1035 23H46.1035V22H45.1035V23ZM45.1035 25.7H44.1035V26.7H45.1035V25.7ZM46.0035 25.7H47.0035V24.7H46.0035V25.7ZM46.0035 26.6V27.6H47.0035V26.6H46.0035ZM45.1035 26.6V25.6H44.1035V26.6H45.1035ZM45.1035 27.5V28.5H46.1035V27.5H45.1035ZM44.2035 27.5V26.5H43.2035V27.5H44.2035ZM44.2035 29.3V30.3H45.2035V29.3H44.2035ZM43.3035 29.3V28.3H42.3035V29.3H43.3035ZM43.3035 32V33H44.3035V32H43.3035ZM41.5035 32H40.5035V33H41.5035V32ZM47.8035 29.3V28.3H46.8035V29.3H47.8035ZM48.7035 29.3V30.3H49.7035V29.3H48.7035ZM48.7035 26.6V25.6H47.7035V26.6H48.7035ZM49.6035 26.6V27.6H50.6035V26.6H49.6035ZM49.6035 24.8H50.6035V23.8H49.6035V24.8ZM48.7035 24.8H47.7035V25.8H48.7035V24.8ZM48.7035 23.9H49.7035V22.9H48.7035V23.9ZM47.8035 23.9H46.8035V24.9H47.8035V23.9ZM47.8035 23V22H46.8035V23H47.8035ZM50.5035 23H51.5035V22H50.5035V23ZM50.5035 23.9H49.5035V24.9H50.5035V23.9ZM51.4035 23.9H52.4035V22.9H51.4035V23.9ZM51.4035 26.6V27.6H52.4035V26.6H51.4035ZM50.5035 26.6V25.6H49.5035V26.6H50.5035ZM50.5035 29.3V30.3H51.5035V29.3H50.5035ZM49.6035 29.3V28.3H48.6035V29.3H49.6035ZM49.6035 31.1H48.6035V32.1H49.6035V31.1ZM50.5035 31.1H51.5035V30.1H50.5035V31.1ZM50.5035 32V33H51.5035V32H50.5035ZM47.8035 32H46.8035V33H47.8035V32ZM46.9035 23.9V22.9H45.9035V23.9H46.9035ZM47.8035 23.9H48.8035V22.9H47.8035V23.9ZM47.8035 24.8V25.8H48.8035V24.8H47.8035ZM46.9035 24.8H45.9035V25.8H46.9035V24.8ZM41.5035 23.9V22.9H40.5035V23.9H41.5035ZM42.4035 23.9H43.4035V22.9H42.4035V23.9ZM42.4035 24.8V25.8H43.4035V24.8H42.4035ZM41.5035 24.8H40.5035V25.8H41.5035V24.8ZM46.0035 24.8V23.8H45.0035V24.8H46.0035ZM46.9035 24.8H47.9035V23.8H46.9035V24.8ZM46.9035 25.7V26.7H47.9035V25.7H46.9035ZM46.0035 25.7H45.0035V26.7H46.0035V25.7ZM50.5035 30.2V29.2H49.5035V30.2H50.5035ZM51.4035 30.2H52.4035V29.2H51.4035V30.2ZM51.4035 31.1V32.1H52.4035V31.1H51.4035ZM50.5035 31.1H49.5035V32.1H50.5035V31.1ZM41.5035 29.3V30.3H42.4035V29.3V28.3H41.5035V29.3ZM42.4035 29.3H43.4035V26.6H42.4035H41.4035V29.3H42.4035ZM42.4035 26.6V27.6H43.3035V26.6V25.6H42.4035V26.6ZM43.3035 26.6H44.3035V23.9H43.3035H42.3035V26.6H43.3035ZM43.3035 23.9V22.9H42.4035V23.9V24.9H43.3035V23.9ZM42.4035 23.9H43.4035V23H42.4035H41.4035V23.9H42.4035ZM42.4035 23V24H45.1035V23V22H42.4035V23ZM45.1035 23H44.1035V25.7H45.1035H46.1035V23H45.1035ZM45.1035 25.7V26.7H46.0035V25.7V24.7H45.1035V25.7ZM46.0035 25.7H45.0035V26.6H46.0035H47.0035V25.7H46.0035ZM46.0035 26.6V25.6H45.1035V26.6V27.6H46.0035V26.6ZM45.1035 26.6H44.1035V27.5H45.1035H46.1035V26.6H45.1035ZM45.1035 27.5V26.5H44.2035V27.5V28.5H45.1035V27.5ZM44.2035 27.5H43.2035V29.3H44.2035H45.2035V27.5H44.2035ZM44.2035 29.3V28.3H43.3035V29.3V30.3H44.2035V29.3ZM43.3035 29.3H42.3035V32H43.3035H44.3035V29.3H43.3035ZM43.3035 32V31H41.5035V32V33H43.3035V32ZM41.5035 32H42.5035V29.3H41.5035H40.5035V32H41.5035ZM47.8035 29.3V30.3H48.7035V29.3V28.3H47.8035V29.3ZM48.7035 29.3H49.7035V26.6H48.7035H47.7035V29.3H48.7035ZM48.7035 26.6V27.6H49.6035V26.6V25.6H48.7035V26.6ZM49.6035 26.6H50.6035V24.8H49.6035H48.6035V26.6H49.6035ZM49.6035 24.8V23.8H48.7035V24.8V25.8H49.6035V24.8ZM48.7035 24.8H49.7035V23.9H48.7035H47.7035V24.8H48.7035ZM48.7035 23.9V22.9H47.8035V23.9V24.9H48.7035V23.9ZM47.8035 23.9H48.8035V23H47.8035H46.8035V23.9H47.8035ZM47.8035 23V24H50.5035V23V22H47.8035V23ZM50.5035 23H49.5035V23.9H50.5035H51.5035V23H50.5035ZM50.5035 23.9V24.9H51.4035V23.9V22.9H50.5035V23.9ZM51.4035 23.9H50.4035V26.6H51.4035H52.4035V23.9H51.4035ZM51.4035 26.6V25.6H50.5035V26.6V27.6H51.4035V26.6ZM50.5035 26.6H49.5035V29.3H50.5035H51.5035V26.6H50.5035ZM50.5035 29.3V28.3H49.6035V29.3V30.3H50.5035V29.3ZM49.6035 29.3H48.6035V31.1H49.6035H50.6035V29.3H49.6035ZM49.6035 31.1V32.1H50.5035V31.1V30.1H49.6035V31.1ZM50.5035 31.1H49.5035V32H50.5035H51.5035V31.1H50.5035ZM50.5035 32V31H47.8035V32V33H50.5035V32ZM47.8035 32H48.8035V29.3H47.8035H46.8035V32H47.8035ZM46.9035 23.9V24.9H47.8035V23.9V22.9H46.9035V23.9ZM47.8035 23.9H46.8035V24.8H47.8035H48.8035V23.9H47.8035ZM47.8035 24.8V23.8H46.9035V24.8V25.8H47.8035V24.8ZM46.9035 24.8H47.9035V23.9H46.9035H45.9035V24.8H46.9035ZM41.5035 23.9V24.9H42.4035V23.9V22.9H41.5035V23.9ZM42.4035 23.9H41.4035V24.8H42.4035H43.4035V23.9H42.4035ZM42.4035 24.8V23.8H41.5035V24.8V25.8H42.4035V24.8ZM41.5035 24.8H42.5035V23.9H41.5035H40.5035V24.8H41.5035ZM46.0035 24.8V25.8H46.9035V24.8V23.8H46.0035V24.8ZM46.9035 24.8H45.9035V25.7H46.9035H47.9035V24.8H46.9035ZM46.9035 25.7V24.7H46.0035V25.7V26.7H46.9035V25.7ZM46.0035 25.7H47.0035V24.8H46.0035H45.0035V25.7H46.0035ZM50.5035 30.2V31.2H51.4035V30.2V29.2H50.5035V30.2ZM51.4035 30.2H50.4035V31.1H51.4035H52.4035V30.2H51.4035ZM51.4035 31.1V30.1H50.5035V31.1V32.1H51.4035V31.1ZM50.5035 31.1H51.5035V30.2H50.5035H49.5035V31.1H50.5035ZM53.2105 29.3V28.3H52.2105V29.3H53.2105ZM54.1105 29.3V30.3H55.1105V29.3H54.1105ZM54.1105 26.6V25.6H53.1105V26.6H54.1105ZM55.0105 26.6V27.6H56.0105V26.6H55.0105ZM55.0105 23.9H56.0105V22.9H55.0105V23.9ZM53.2105 23.9H52.2105V24.9H53.2105V23.9ZM53.2105 23V22H52.2105V23H53.2105ZM55.9105 23V24H56.9105V23H55.9105ZM55.9105 20.3V19.3H54.9105V20.3H55.9105ZM57.7105 20.3H58.7105V19.3H57.7105V20.3ZM57.7105 23H56.7105V24H57.7105V23ZM59.5105 23H60.5105V22H59.5105V23ZM59.5105 23.9V24.9H60.5105V23.9H59.5105ZM56.8105 23.9V22.9H55.8105V23.9H56.8105ZM56.8105 27.5V28.5H57.8105V27.5H56.8105ZM55.9105 27.5V26.5H54.9105V27.5H55.9105ZM55.9105 29.3V30.3H56.9105V29.3H55.9105ZM55.0105 29.3V28.3H54.0105V29.3H55.0105ZM55.0105 31.1H54.0105V32.1H55.0105V31.1ZM55.9105 31.1H56.9105V30.1H55.9105V31.1ZM55.9105 32V33H56.9105V32H55.9105ZM53.2105 32H52.2105V33H53.2105V32ZM55.9105 30.2V29.2H54.9105V30.2H55.9105ZM56.8105 30.2H57.8105V29.2H56.8105V30.2ZM56.8105 31.1V32.1H57.8105V31.1H56.8105ZM55.9105 31.1H54.9105V32.1H55.9105V31.1ZM53.2105 29.3V30.3H54.1105V29.3V28.3H53.2105V29.3ZM54.1105 29.3H55.1105V26.6H54.1105H53.1105V29.3H54.1105ZM54.1105 26.6V27.6H55.0105V26.6V25.6H54.1105V26.6ZM55.0105 26.6H56.0105V23.9H55.0105H54.0105V26.6H55.0105ZM55.0105 23.9V22.9H53.2105V23.9V24.9H55.0105V23.9ZM53.2105 23.9H54.2105V23H53.2105H52.2105V23.9H53.2105ZM53.2105 23V24H55.9105V23V22H53.2105V23ZM55.9105 23H56.9105V20.3H55.9105H54.9105V23H55.9105ZM55.9105 20.3V21.3H57.7105V20.3V19.3H55.9105V20.3ZM57.7105 20.3H56.7105V23H57.7105H58.7105V20.3H57.7105ZM57.7105 23V24H59.5105V23V22H57.7105V23ZM59.5105 23H58.5105V23.9H59.5105H60.5105V23H59.5105ZM59.5105 23.9V22.9H56.8105V23.9V24.9H59.5105V23.9ZM56.8105 23.9H55.8105V27.5H56.8105H57.8105V23.9H56.8105ZM56.8105 27.5V26.5H55.9105V27.5V28.5H56.8105V27.5ZM55.9105 27.5H54.9105V29.3H55.9105H56.9105V27.5H55.9105ZM55.9105 29.3V28.3H55.0105V29.3V30.3H55.9105V29.3ZM55.0105 29.3H54.0105V31.1H55.0105H56.0105V29.3H55.0105ZM55.0105 31.1V32.1H55.9105V31.1V30.1H55.0105V31.1ZM55.9105 31.1H54.9105V32H55.9105H56.9105V31.1H55.9105ZM55.9105 32V31H53.2105V32V33H55.9105V32ZM53.2105 32H54.2105V29.3H53.2105H52.2105V32H53.2105ZM55.9105 30.2V31.2H56.8105V30.2V29.2H55.9105V30.2ZM56.8105 30.2H55.8105V31.1H56.8105H57.8105V30.2H56.8105ZM56.8105 31.1V30.1H55.9105V31.1V32.1H56.8105V31.1ZM55.9105 31.1H56.9105V30.2H55.9105H54.9105V31.1H55.9105ZM63.1176 19.4V18.4H62.1176V19.4H63.1176ZM64.9176 19.4H65.9176V18.4H64.9176V19.4ZM64.9176 21.2V22.2H65.9176V21.2H64.9176ZM63.1176 21.2H62.1176V22.2H63.1176V21.2ZM60.4176 29.3V28.3H59.4176V29.3H60.4176ZM61.3176 29.3V30.3H62.3176V29.3H61.3176ZM61.3176 26.6V25.6H60.3176V26.6H61.3176ZM62.2176 26.6V27.6H63.2176V26.6H62.2176ZM62.2176 23.9H63.2176V22.9H62.2176V23.9ZM61.3176 23.9H60.3176V24.9H61.3176V23.9ZM61.3176 23V22H60.3176V23H61.3176ZM64.0176 23H65.0176V22H64.0176V23ZM64.0176 27.5V28.5H65.0176V27.5H64.0176ZM63.1176 27.5V26.5H62.1176V27.5H63.1176ZM63.1176 29.3V30.3H64.1176V29.3H63.1176ZM62.2176 29.3V28.3H61.2176V29.3H62.2176ZM62.2176 31.1H61.2176V32.1H62.2176V31.1ZM63.1176 31.1H64.1176V30.1H63.1176V31.1ZM63.1176 32V33H64.1176V32H63.1176ZM60.4176 32H59.4176V33H60.4176V32ZM60.4176 23.9V22.9H59.4176V23.9H60.4176ZM61.3176 23.9H62.3176V22.9H61.3176V23.9ZM61.3176 24.8V25.8H62.3176V24.8H61.3176ZM60.4176 24.8H59.4176V25.8H60.4176V24.8ZM63.1176 30.2V29.2H62.1176V30.2H63.1176ZM64.0176 30.2H65.0176V29.2H64.0176V30.2ZM64.0176 31.1V32.1H65.0176V31.1H64.0176ZM63.1176 31.1H62.1176V32.1H63.1176V31.1ZM63.1176 19.4V20.4H64.9176V19.4V18.4H63.1176V19.4ZM64.9176 19.4H63.9176V21.2H64.9176H65.9176V19.4H64.9176ZM64.9176 21.2V20.2H63.1176V21.2V22.2H64.9176V21.2ZM63.1176 21.2H64.1176V19.4H63.1176H62.1176V21.2H63.1176ZM60.4176 29.3V30.3H61.3176V29.3V28.3H60.4176V29.3ZM61.3176 29.3H62.3176V26.6H61.3176H60.3176V29.3H61.3176ZM61.3176 26.6V27.6H62.2176V26.6V25.6H61.3176V26.6ZM62.2176 26.6H63.2176V23.9H62.2176H61.2176V26.6H62.2176ZM62.2176 23.9V22.9H61.3176V23.9V24.9H62.2176V23.9ZM61.3176 23.9H62.3176V23H61.3176H60.3176V23.9H61.3176ZM61.3176 23V24H64.0176V23V22H61.3176V23ZM64.0176 23H63.0176V27.5H64.0176H65.0176V23H64.0176ZM64.0176 27.5V26.5H63.1176V27.5V28.5H64.0176V27.5ZM63.1176 27.5H62.1176V29.3H63.1176H64.1176V27.5H63.1176ZM63.1176 29.3V28.3H62.2176V29.3V30.3H63.1176V29.3ZM62.2176 29.3H61.2176V31.1H62.2176H63.2176V29.3H62.2176ZM62.2176 31.1V32.1H63.1176V31.1V30.1H62.2176V31.1ZM63.1176 31.1H62.1176V32H63.1176H64.1176V31.1H63.1176ZM63.1176 32V31H60.4176V32V33H63.1176V32ZM60.4176 32H61.4176V29.3H60.4176H59.4176V32H60.4176ZM60.4176 23.9V24.9H61.3176V23.9V22.9H60.4176V23.9ZM61.3176 23.9H60.3176V24.8H61.3176H62.3176V23.9H61.3176ZM61.3176 24.8V23.8H60.4176V24.8V25.8H61.3176V24.8ZM60.4176 24.8H61.4176V23.9H60.4176H59.4176V24.8H60.4176ZM63.1176 30.2V31.2H64.0176V30.2V29.2H63.1176V30.2ZM64.0176 30.2H63.0176V31.1H64.0176H65.0176V30.2H64.0176ZM64.0176 31.1V30.1H63.1176V31.1V32.1H64.0176V31.1ZM63.1176 31.1H64.1176V30.2H63.1176H62.1176V31.1H63.1176ZM71.2141 30.2V29.2H70.2141V30.2H71.2141ZM72.1141 30.2V31.2H73.1141V30.2H72.1141ZM72.1141 28.4V27.4H71.1141V28.4H72.1141ZM73.0141 28.4V29.4H74.0141V28.4H73.0141ZM73.0141 24.8H74.0141V23.8H73.0141V24.8ZM72.1141 24.8H71.1141V25.8H72.1141V24.8ZM72.1141 23.9H73.1141V22.9H72.1141V23.9ZM69.4141 23.9H68.4141V24.9H69.4141V23.9ZM69.4141 23V22H68.4141V23H69.4141ZM73.0141 23H74.0141V22H73.0141V23ZM73.0141 23.9H72.0141V24.9H73.0141V23.9ZM73.9141 23.9H74.9141V22.9H73.9141V23.9ZM73.9141 24.8H72.9141V25.8H73.9141V24.8ZM74.8141 24.8H75.8141V23.8H74.8141V24.8ZM74.8141 28.4V29.4H75.8141V28.4H74.8141ZM73.9141 28.4V27.4H72.9141V28.4H73.9141ZM73.9141 30.2V31.2H74.9141V30.2H73.9141ZM73.0141 30.2V29.2H72.0141V30.2H73.0141ZM73.0141 31.1V32.1H74.0141V31.1H73.0141ZM71.2141 31.1H70.2141V32.1H71.2141V31.1ZM66.7141 30.2H67.7141V29.2H66.7141V30.2ZM65.8141 30.2H64.8141V31.2H65.8141V30.2ZM65.8141 26.6V25.6H64.8141V26.6H65.8141ZM66.7141 26.6V27.6H67.7141V26.6H66.7141ZM66.7141 24.8V23.8H65.7141V24.8H66.7141ZM67.6141 24.8V25.8H68.6141V24.8H67.6141ZM67.6141 23.9V22.9H66.6141V23.9H67.6141ZM69.4141 23.9H70.4141V22.9H69.4141V23.9ZM69.4141 24.8V25.8H70.4141V24.8H69.4141ZM68.5141 24.8V23.8H67.5141V24.8H68.5141ZM68.5141 26.6V27.6H69.5141V26.6H68.5141ZM67.6141 26.6V25.6H66.6141V26.6H67.6141ZM67.6141 30.2H66.6141V31.2H67.6141V30.2ZM68.5141 30.2H69.5141V29.2H68.5141V30.2ZM68.5141 31.1H67.5141V32.1H68.5141V31.1ZM71.2141 31.1H72.2141V30.1H71.2141V31.1ZM71.2141 32V33H72.2141V32H71.2141ZM67.6141 32H66.6141V33H67.6141V32ZM67.6141 31.1H68.6141V30.1H67.6141V31.1ZM66.7141 31.1H65.7141V32.1H66.7141V31.1ZM71.2141 30.2V31.2H72.1141V30.2V29.2H71.2141V30.2ZM72.1141 30.2H73.1141V28.4H72.1141H71.1141V30.2H72.1141ZM72.1141 28.4V29.4H73.0141V28.4V27.4H72.1141V28.4ZM73.0141 28.4H74.0141V24.8H73.0141H72.0141V28.4H73.0141ZM73.0141 24.8V23.8H72.1141V24.8V25.8H73.0141V24.8ZM72.1141 24.8H73.1141V23.9H72.1141H71.1141V24.8H72.1141ZM72.1141 23.9V22.9H69.4141V23.9V24.9H72.1141V23.9ZM69.4141 23.9H70.4141V23H69.4141H68.4141V23.9H69.4141ZM69.4141 23V24H73.0141V23V22H69.4141V23ZM73.0141 23H72.0141V23.9H73.0141H74.0141V23H73.0141ZM73.0141 23.9V24.9H73.9141V23.9V22.9H73.0141V23.9ZM73.9141 23.9H72.9141V24.8H73.9141H74.9141V23.9H73.9141ZM73.9141 24.8V25.8H74.8141V24.8V23.8H73.9141V24.8ZM74.8141 24.8H73.8141V28.4H74.8141H75.8141V24.8H74.8141ZM74.8141 28.4V27.4H73.9141V28.4V29.4H74.8141V28.4ZM73.9141 28.4H72.9141V30.2H73.9141H74.9141V28.4H73.9141ZM73.9141 30.2V29.2H73.0141V30.2V31.2H73.9141V30.2ZM73.0141 30.2H72.0141V31.1H73.0141H74.0141V30.2H73.0141ZM73.0141 31.1V30.1H71.2141V31.1V32.1H73.0141V31.1ZM71.2141 31.1H72.2141V30.2H71.2141H70.2141V31.1H71.2141ZM66.7141 30.2V29.2H65.8141V30.2V31.2H66.7141V30.2ZM65.8141 30.2H66.8141V26.6H65.8141H64.8141V30.2H65.8141ZM65.8141 26.6V27.6H66.7141V26.6V25.6H65.8141V26.6ZM66.7141 26.6H67.7141V24.8H66.7141H65.7141V26.6H66.7141ZM66.7141 24.8V25.8H67.6141V24.8V23.8H66.7141V24.8ZM67.6141 24.8H68.6141V23.9H67.6141H66.6141V24.8H67.6141ZM67.6141 23.9V24.9H69.4141V23.9V22.9H67.6141V23.9ZM69.4141 23.9H68.4141V24.8H69.4141H70.4141V23.9H69.4141ZM69.4141 24.8V23.8H68.5141V24.8V25.8H69.4141V24.8ZM68.5141 24.8H67.5141V26.6H68.5141H69.5141V24.8H68.5141ZM68.5141 26.6V25.6H67.6141V26.6V27.6H68.5141V26.6ZM67.6141 26.6H66.6141V30.2H67.6141H68.6141V26.6H67.6141ZM67.6141 30.2V31.2H68.5141V30.2V29.2H67.6141V30.2ZM68.5141 30.2H67.5141V31.1H68.5141H69.5141V30.2H68.5141ZM68.5141 31.1V32.1H71.2141V31.1V30.1H68.5141V31.1ZM71.2141 31.1H70.2141V32H71.2141H72.2141V31.1H71.2141ZM71.2141 32V31H67.6141V32V33H71.2141V32ZM67.6141 32H68.6141V31.1H67.6141H66.6141V32H67.6141ZM67.6141 31.1V30.1H66.7141V31.1V32.1H67.6141V31.1ZM66.7141 31.1H67.7141V30.2H66.7141H65.7141V31.1H66.7141ZM76.607 29.3V28.3H75.607V29.3H76.607ZM77.507 29.3V30.3H78.507V29.3H77.507ZM77.507 26.6V25.6H76.507V26.6H77.507ZM78.407 26.6V27.6H79.407V26.6H78.407ZM78.407 23.9H79.407V22.9H78.407V23.9ZM77.507 23.9H76.507V24.9H77.507V23.9ZM77.507 23V22H76.507V23H77.507ZM80.207 23H81.207V22H80.207V23ZM80.207 25.7H79.207V26.7H80.207V25.7ZM81.107 25.7H82.107V24.7H81.107V25.7ZM81.107 26.6V27.6H82.107V26.6H81.107ZM80.207 26.6V25.6H79.207V26.6H80.207ZM80.207 27.5V28.5H81.207V27.5H80.207ZM79.307 27.5V26.5H78.307V27.5H79.307ZM79.307 29.3V30.3H80.307V29.3H79.307ZM78.407 29.3V28.3H77.407V29.3H78.407ZM78.407 32V33H79.407V32H78.407ZM76.607 32H75.607V33H76.607V32ZM82.907 29.3V28.3H81.907V29.3H82.907ZM83.807 29.3V30.3H84.807V29.3H83.807ZM83.807 26.6V25.6H82.807V26.6H83.807ZM84.707 26.6V27.6H85.707V26.6H84.707ZM84.707 24.8H85.707V23.8H84.707V24.8ZM83.807 24.8H82.807V25.8H83.807V24.8ZM83.807 23.9H84.807V22.9H83.807V23.9ZM82.907 23.9H81.907V24.9H82.907V23.9ZM82.907 23V22H81.907V23H82.907ZM85.607 23H86.607V22H85.607V23ZM85.607 23.9H84.607V24.9H85.607V23.9ZM86.507 23.9H87.507V22.9H86.507V23.9ZM86.507 26.6V27.6H87.507V26.6H86.507ZM85.607 26.6V25.6H84.607V26.6H85.607ZM85.607 29.3V30.3H86.607V29.3H85.607ZM84.707 29.3V28.3H83.707V29.3H84.707ZM84.707 31.1H83.707V32.1H84.707V31.1ZM85.607 31.1H86.607V30.1H85.607V31.1ZM85.607 32V33H86.607V32H85.607ZM82.907 32H81.907V33H82.907V32ZM82.007 23.9V22.9H81.007V23.9H82.007ZM82.907 23.9H83.907V22.9H82.907V23.9ZM82.907 24.8V25.8H83.907V24.8H82.907ZM82.007 24.8H81.007V25.8H82.007V24.8ZM76.607 23.9V22.9H75.607V23.9H76.607ZM77.507 23.9H78.507V22.9H77.507V23.9ZM77.507 24.8V25.8H78.507V24.8H77.507ZM76.607 24.8H75.607V25.8H76.607V24.8ZM81.107 24.8V23.8H80.107V24.8H81.107ZM82.007 24.8H83.007V23.8H82.007V24.8ZM82.007 25.7V26.7H83.007V25.7H82.007ZM81.107 25.7H80.107V26.7H81.107V25.7ZM85.607 30.2V29.2H84.607V30.2H85.607ZM86.507 30.2H87.507V29.2H86.507V30.2ZM86.507 31.1V32.1H87.507V31.1H86.507ZM85.607 31.1H84.607V32.1H85.607V31.1ZM76.607 29.3V30.3H77.507V29.3V28.3H76.607V29.3ZM77.507 29.3H78.507V26.6H77.507H76.507V29.3H77.507ZM77.507 26.6V27.6H78.407V26.6V25.6H77.507V26.6ZM78.407 26.6H79.407V23.9H78.407H77.407V26.6H78.407ZM78.407 23.9V22.9H77.507V23.9V24.9H78.407V23.9ZM77.507 23.9H78.507V23H77.507H76.507V23.9H77.507ZM77.507 23V24H80.207V23V22H77.507V23ZM80.207 23H79.207V25.7H80.207H81.207V23H80.207ZM80.207 25.7V26.7H81.107V25.7V24.7H80.207V25.7ZM81.107 25.7H80.107V26.6H81.107H82.107V25.7H81.107ZM81.107 26.6V25.6H80.207V26.6V27.6H81.107V26.6ZM80.207 26.6H79.207V27.5H80.207H81.207V26.6H80.207ZM80.207 27.5V26.5H79.307V27.5V28.5H80.207V27.5ZM79.307 27.5H78.307V29.3H79.307H80.307V27.5H79.307ZM79.307 29.3V28.3H78.407V29.3V30.3H79.307V29.3ZM78.407 29.3H77.407V32H78.407H79.407V29.3H78.407ZM78.407 32V31H76.607V32V33H78.407V32ZM76.607 32H77.607V29.3H76.607H75.607V32H76.607ZM82.907 29.3V30.3H83.807V29.3V28.3H82.907V29.3ZM83.807 29.3H84.807V26.6H83.807H82.807V29.3H83.807ZM83.807 26.6V27.6H84.707V26.6V25.6H83.807V26.6ZM84.707 26.6H85.707V24.8H84.707H83.707V26.6H84.707ZM84.707 24.8V23.8H83.807V24.8V25.8H84.707V24.8ZM83.807 24.8H84.807V23.9H83.807H82.807V24.8H83.807ZM83.807 23.9V22.9H82.907V23.9V24.9H83.807V23.9ZM82.907 23.9H83.907V23H82.907H81.907V23.9H82.907ZM82.907 23V24H85.607V23V22H82.907V23ZM85.607 23H84.607V23.9H85.607H86.607V23H85.607ZM85.607 23.9V24.9H86.507V23.9V22.9H85.607V23.9ZM86.507 23.9H85.507V26.6H86.507H87.507V23.9H86.507ZM86.507 26.6V25.6H85.607V26.6V27.6H86.507V26.6ZM85.607 26.6H84.607V29.3H85.607H86.607V26.6H85.607ZM85.607 29.3V28.3H84.707V29.3V30.3H85.607V29.3ZM84.707 29.3H83.707V31.1H84.707H85.707V29.3H84.707ZM84.707 31.1V32.1H85.607V31.1V30.1H84.707V31.1ZM85.607 31.1H84.607V32H85.607H86.607V31.1H85.607ZM85.607 32V31H82.907V32V33H85.607V32ZM82.907 32H83.907V29.3H82.907H81.907V32H82.907ZM82.007 23.9V24.9H82.907V23.9V22.9H82.007V23.9ZM82.907 23.9H81.907V24.8H82.907H83.907V23.9H82.907ZM82.907 24.8V23.8H82.007V24.8V25.8H82.907V24.8ZM82.007 24.8H83.007V23.9H82.007H81.007V24.8H82.007ZM76.607 23.9V24.9H77.507V23.9V22.9H76.607V23.9ZM77.507 23.9H76.507V24.8H77.507H78.507V23.9H77.507ZM77.507 24.8V23.8H76.607V24.8V25.8H77.507V24.8ZM76.607 24.8H77.607V23.9H76.607H75.607V24.8H76.607ZM81.107 24.8V25.8H82.007V24.8V23.8H81.107V24.8ZM82.007 24.8H81.007V25.7H82.007H83.007V24.8H82.007ZM82.007 25.7V24.7H81.107V25.7V26.7H82.007V25.7ZM81.107 25.7H82.107V24.8H81.107H80.107V25.7H81.107ZM85.607 30.2V31.2H86.507V30.2V29.2H85.607V30.2ZM86.507 30.2H85.507V31.1H86.507H87.507V30.2H86.507ZM86.507 31.1V30.1H85.607V31.1V32.1H86.507V31.1ZM85.607 31.1H86.607V30.2H85.607H84.607V31.1H85.607Z" fill="black" mask="url(#path-1-outside-1_1_46)"/>
</svg>
