<svg width="117" height="33" viewBox="0 0 117 33" fill="none" xmlns="http://www.w3.org/2000/svg">
<mask id="path-1-outside-1_1_43" maskUnits="userSpaceOnUse" x="0" y="0" width="117" height="33" fill="black">
<rect fill="white" width="117" height="33"/>
<path d="M6.4 1.4H10V2.3H6.4V1.4ZM10 2.3H10.9V3.2H10V2.3ZM4.6 2.3H6.4V3.2H4.6V2.3ZM3.7 3.2H4.6V5H3.7V3.2ZM4.6 13.1H2.8V11.3H1.9V5.9H2.8V5H3.7V12.2H4.6V13.1ZM5.5 5.9H9.1V6.8H10V7.7H10.9V11.3H10V12.2H9.1V7.7H8.2V6.8H5.5V5.9ZM4.6 6.8H5.5V7.7H4.6V6.8ZM8.2 12.2H9.1V13.1H8.2V12.2ZM4.6 13.1H8.2V14H4.6V13.1ZM16.293 1.4H20.793V2.3H21.693V5H20.793V5.9H19.893V2.3H16.293V1.4ZM14.493 3.2H15.393V2.3H16.293V6.8H15.393V5.9H14.493V3.2ZM17.193 5.9H19.893V6.8H20.793V7.7H21.693V11.3H20.793V12.2H19.893V7.7H18.993V6.8H17.193V5.9ZM14.493 6.8H15.393V7.7H14.493V6.8ZM13.593 12.2H12.693V8.6H13.593V7.7H14.493V12.2H15.393V13.1H18.993V14H14.493V13.1H13.593V12.2ZM18.993 12.2H19.893V13.1H18.993V12.2ZM27.0859 2.3H25.2859V1.4H27.0859V2.3ZM35.1859 1.4H36.0859V2.3H35.1859V1.4ZM25.2859 4.1H24.3859V2.3H25.2859V4.1ZM34.2859 2.3H35.1859V3.2H34.2859V2.3ZM27.0859 2.3H27.9859V4.1H27.0859V2.3ZM33.3859 3.2H34.2859V4.1H33.3859V3.2ZM25.2859 4.1H27.0859V5H25.2859V4.1ZM32.4859 4.1H33.3859V5H32.4859V4.1ZM31.5859 5H32.4859V5.9H31.5859V5ZM30.6859 5.9H31.5859V6.8H30.6859V5.9ZM29.7859 6.8H30.6859V7.7H29.7859V6.8ZM28.8859 7.7H29.7859V8.6H28.8859V7.7ZM27.9859 8.6H28.8859V9.5H27.9859V8.6ZM27.0859 9.5H27.9859V10.4H27.0859V9.5ZM26.1859 10.4H27.0859V11.3H26.1859V10.4ZM31.5859 10.4H33.3859V11.3H31.5859V10.4ZM25.2859 11.3H26.1859V12.2H25.2859V11.3ZM33.3859 11.3H34.2859V13.1H33.3859V11.3ZM30.6859 11.3H31.5859V13.1H30.6859V11.3ZM24.3859 12.2H25.2859V13.1H24.3859V12.2ZM23.4859 13.1H24.3859V14H23.4859V13.1ZM31.5859 13.1H33.3859V14H31.5859V13.1ZM47.7824 12.2H48.6824V10.4H49.5824V6.8H48.6824V5.9H45.9824V5H49.5824V5.9H50.4824V6.8H51.3824V10.4H50.4824V12.2H49.5824V13.1H47.7824V12.2ZM43.2824 12.2H42.3824V8.6H43.2824V6.8H44.1824V5.9H45.9824V6.8H45.0824V8.6H44.1824V12.2H45.0824V13.1H47.7824V14H44.1824V13.1H43.2824V12.2ZM57.6754 1.4H61.2754V3.2H59.4754V2.3H57.6754V1.4ZM52.2754 14H53.1754V11.3H54.0754V8.6H54.9754V5.9H53.1754V5H55.8754V3.2H56.7754V2.3H57.6754V5H59.4754V5.9H56.7754V8.6H55.8754V11.3H54.9754V14H54.0754V15.8H53.1754V16.7H52.2754V14ZM48.6754 14.9H50.4754V16.7H52.2754V17.6H49.5754V16.7H48.6754V14.9ZM69.3824 1.4H73.8824V2.3H74.7824V1.4H75.6824V5.9H74.7824V4.1H73.8824V3.2H72.9824V2.3H69.3824V1.4ZM66.6824 10.4H67.5824V12.2H68.4824V13.1H66.6824V12.2H65.7824V10.4H64.8824V5.9H65.7824V4.1H66.6824V3.2H67.5824V2.3H69.3824V3.2H68.4824V4.1H67.5824V5.9H66.6824V10.4ZM72.0824 12.2H72.9824V10.4H73.8824V8.6H71.1824V7.7H76.5824V8.6H75.6824V10.4H74.7824V14H73.8824V13.1H72.0824V12.2ZM68.4824 14V13.1H72.0824V14H68.4824ZM82.8859 8.6H83.7859V5.9H81.0859V5H84.6859V5.9H85.5859V8.6H84.6859V9.5H82.8859V8.6ZM78.3859 12.2H77.4859V8.6H78.3859V6.8H79.2859V5.9H81.0859V6.8H80.1859V8.6H79.2859V10.4H81.0859V11.3H79.2859V12.2H80.1859V13.1H82.8859V14H79.2859V13.1H78.3859V12.2ZM81.0859 9.5H82.8859V10.4H81.0859V9.5ZM84.6859 11.3H85.5859V12.2H84.6859V11.3ZM82.8859 12.2H84.6859V13.1H82.8859V12.2ZM87.3824 11.3H88.2824V8.6H89.1824V5.9H88.2824V5H90.9824V7.7H91.8824V8.6H90.9824V9.5H90.0824V11.3H89.1824V14H87.3824V11.3ZM93.6824 11.3H94.5824V8.6H95.4824V6.8H94.5824V5.9H93.6824V5H96.3824V5.9H97.2824V8.6H96.3824V11.3H95.4824V13.1H96.3824V14H93.6824V11.3ZM92.7824 5.9H93.6824V6.8H92.7824V5.9ZM87.3824 5.9H88.2824V6.8H87.3824V5.9ZM91.8824 6.8H92.7824V7.7H91.8824V6.8ZM96.3824 12.2H97.2824V13.1H96.3824V12.2ZM101.789 13.1H102.689V12.2H103.589V11.3H104.489V10.4H105.389V9.5H106.289V8.6H107.189V7.7H108.089V6.8H108.989V5.9H109.889V5H110.789V4.1H111.689V3.2H112.589V2.3H106.289V3.2H105.389V1.4H115.289V2.3H114.389V3.2H113.489V4.1H112.589V5H111.689V5.9H110.789V6.8H109.889V7.7H108.989V8.6H108.089V9.5H107.189V10.4H106.289V11.3H105.389V12.2H104.489V13.1H110.789V12.2H111.689V13.1H112.589V14H101.789V13.1ZM104.489 3.2H105.389V4.1H104.489V3.2ZM111.689 11.3H112.589V12.2H111.689V11.3ZM1.9 31.1H2.8V29.3H3.7V25.7H4.6V23H5.5V20.3H4.6V19.4H12.7V20.3H13.6V23.9H12.7V24.8H11.8V25.7H10.9V23.9H11.8V21.2H10.9V20.3H7.3V23H6.4V25.7H5.5V26.6H8.2V27.5H9.1V28.4H10V29.3H10.9V30.2H11.8V31.1H12.7V32H10V31.1H9.1V30.2H8.2V29.3H7.3V28.4H6.4V27.5H5.5V29.3H4.6V31.1H5.5V32H1.9V31.1ZM8.2 25.7H10.9V26.6H8.2V25.7ZM19 32H16.3V31.1H15.4V28.4H16.3V25.7H17.2V23.9H16.3V23H19V25.7H18.1V28.4H17.2V30.2H18.1V31.1H19V32ZM21.7 29.3H20.8V28.4H21.7V27.5H22.6V25.7H23.5V23H25.3V25.7H24.4V28.4H23.5V31.1H24.4V32H21.7V29.3ZM16.3 24.8H15.4V23.9H16.3V24.8ZM20.8 30.2H19.9V29.3H20.8V30.2ZM19.9 31.1H19V30.2H19.9V31.1ZM25.3 31.1H24.4V30.2H25.3V31.1ZM27.107 29.3H28.007V26.6H28.907V23.9H28.007V23H30.707V25.7H31.607V26.6H30.707V27.5H29.807V29.3H28.907V32H27.107V29.3ZM33.407 29.3H34.307V26.6H35.207V24.8H34.307V23.9H33.407V23H36.107V23.9H37.007V26.6H36.107V29.3H35.207V31.1H36.107V32H33.407V29.3ZM32.507 23.9H33.407V24.8H32.507V23.9ZM27.107 23.9H28.007V24.8H27.107V23.9ZM31.607 24.8H32.507V25.7H31.607V24.8ZM36.107 30.2H37.007V31.1H36.107V30.2ZM38.8141 29.3H39.7141V26.6H40.6141V23.9H39.7141V23H42.4141V25.7H43.3141V26.6H42.4141V27.5H41.5141V29.3H40.6141V32H38.8141V29.3ZM45.1141 29.3H46.0141V26.6H46.9141V24.8H46.0141V23.9H45.1141V23H47.8141V23.9H48.7141V26.6H47.8141V29.3H46.9141V31.1H47.8141V32H45.1141V29.3ZM44.2141 23.9H45.1141V24.8H44.2141V23.9ZM38.8141 23.9H39.7141V24.8H38.8141V23.9ZM43.3141 24.8H44.2141V25.7H43.3141V24.8ZM47.8141 30.2H48.7141V31.1H47.8141V30.2ZM55.9211 26.6H56.8211V23.9H54.1211V23H57.7211V23.9H58.6211V26.6H57.7211V27.5H55.9211V26.6ZM51.4211 30.2H50.5211V26.6H51.4211V24.8H52.3211V23.9H54.1211V24.8H53.2211V26.6H52.3211V28.4H54.1211V29.3H52.3211V30.2H53.2211V31.1H55.9211V32H52.3211V31.1H51.4211V30.2ZM54.1211 27.5H55.9211V28.4H54.1211V27.5ZM57.7211 29.3H58.6211V30.2H57.7211V29.3ZM55.9211 30.2H57.7211V31.1H55.9211V30.2ZM60.4176 29.3H61.3176V26.6H62.2176V23.9H61.3176V23H64.0176V24.8H64.9176V25.7H64.0176V27.5H63.1176V29.3H62.2176V32H60.4176V29.3ZM65.8176 23H67.6176V23.9H68.5176V25.7H66.7176V23.9H65.8176V23ZM64.9176 23.9H65.8176V24.8H64.9176V23.9ZM60.4176 23.9H61.3176V24.8H60.4176V23.9ZM69.4176 31.1H68.5176V29.3H70.3176V31.1H73.0176V29.3H72.1176V27.5H71.2176V25.7H70.3176V23.9H71.2176V23H75.7176V23.9H76.6176V25.7H74.8176V23.9H72.1176V25.7H73.0176V27.5H73.9176V29.3H74.8176V31.1H73.9176V32H69.4176V31.1Z"/>
</mask>
<path d="M6.4 1.4H10V2.3H6.4V1.4ZM10 2.3H10.9V3.2H10V2.3ZM4.6 2.3H6.4V3.2H4.6V2.3ZM3.7 3.2H4.6V5H3.7V3.2ZM4.6 13.1H2.8V11.3H1.9V5.9H2.8V5H3.7V12.2H4.6V13.1ZM5.5 5.9H9.1V6.8H10V7.7H10.9V11.3H10V12.2H9.1V7.7H8.2V6.8H5.5V5.9ZM4.6 6.8H5.5V7.7H4.6V6.8ZM8.2 12.2H9.1V13.1H8.2V12.2ZM4.6 13.1H8.2V14H4.6V13.1ZM16.293 1.4H20.793V2.3H21.693V5H20.793V5.9H19.893V2.3H16.293V1.4ZM14.493 3.2H15.393V2.3H16.293V6.8H15.393V5.9H14.493V3.2ZM17.193 5.9H19.893V6.8H20.793V7.7H21.693V11.3H20.793V12.2H19.893V7.7H18.993V6.8H17.193V5.9ZM14.493 6.8H15.393V7.7H14.493V6.8ZM13.593 12.2H12.693V8.6H13.593V7.7H14.493V12.2H15.393V13.1H18.993V14H14.493V13.1H13.593V12.2ZM18.993 12.2H19.893V13.1H18.993V12.2ZM27.0859 2.3H25.2859V1.4H27.0859V2.3ZM35.1859 1.4H36.0859V2.3H35.1859V1.4ZM25.2859 4.1H24.3859V2.3H25.2859V4.1ZM34.2859 2.3H35.1859V3.2H34.2859V2.3ZM27.0859 2.3H27.9859V4.1H27.0859V2.3ZM33.3859 3.2H34.2859V4.1H33.3859V3.2ZM25.2859 4.1H27.0859V5H25.2859V4.1ZM32.4859 4.1H33.3859V5H32.4859V4.1ZM31.5859 5H32.4859V5.9H31.5859V5ZM30.6859 5.9H31.5859V6.8H30.6859V5.9ZM29.7859 6.8H30.6859V7.7H29.7859V6.8ZM28.8859 7.7H29.7859V8.6H28.8859V7.7ZM27.9859 8.6H28.8859V9.5H27.9859V8.6ZM27.0859 9.5H27.9859V10.4H27.0859V9.5ZM26.1859 10.4H27.0859V11.3H26.1859V10.4ZM31.5859 10.4H33.3859V11.3H31.5859V10.4ZM25.2859 11.3H26.1859V12.2H25.2859V11.3ZM33.3859 11.3H34.2859V13.1H33.3859V11.3ZM30.6859 11.3H31.5859V13.1H30.6859V11.3ZM24.3859 12.2H25.2859V13.1H24.3859V12.2ZM23.4859 13.1H24.3859V14H23.4859V13.1ZM31.5859 13.1H33.3859V14H31.5859V13.1ZM47.7824 12.2H48.6824V10.4H49.5824V6.8H48.6824V5.9H45.9824V5H49.5824V5.9H50.4824V6.8H51.3824V10.4H50.4824V12.2H49.5824V13.1H47.7824V12.2ZM43.2824 12.2H42.3824V8.6H43.2824V6.8H44.1824V5.9H45.9824V6.8H45.0824V8.6H44.1824V12.2H45.0824V13.1H47.7824V14H44.1824V13.1H43.2824V12.2ZM57.6754 1.4H61.2754V3.2H59.4754V2.3H57.6754V1.4ZM52.2754 14H53.1754V11.3H54.0754V8.6H54.9754V5.9H53.1754V5H55.8754V3.2H56.7754V2.3H57.6754V5H59.4754V5.9H56.7754V8.6H55.8754V11.3H54.9754V14H54.0754V15.8H53.1754V16.7H52.2754V14ZM48.6754 14.9H50.4754V16.7H52.2754V17.6H49.5754V16.7H48.6754V14.9ZM69.3824 1.4H73.8824V2.3H74.7824V1.4H75.6824V5.9H74.7824V4.1H73.8824V3.2H72.9824V2.3H69.3824V1.4ZM66.6824 10.4H67.5824V12.2H68.4824V13.1H66.6824V12.2H65.7824V10.4H64.8824V5.9H65.7824V4.1H66.6824V3.2H67.5824V2.3H69.3824V3.2H68.4824V4.1H67.5824V5.9H66.6824V10.4ZM72.0824 12.2H72.9824V10.4H73.8824V8.6H71.1824V7.7H76.5824V8.6H75.6824V10.4H74.7824V14H73.8824V13.1H72.0824V12.2ZM68.4824 14V13.1H72.0824V14H68.4824ZM82.8859 8.6H83.7859V5.9H81.0859V5H84.6859V5.9H85.5859V8.6H84.6859V9.5H82.8859V8.6ZM78.3859 12.2H77.4859V8.6H78.3859V6.8H79.2859V5.9H81.0859V6.8H80.1859V8.6H79.2859V10.4H81.0859V11.3H79.2859V12.2H80.1859V13.1H82.8859V14H79.2859V13.1H78.3859V12.2ZM81.0859 9.5H82.8859V10.4H81.0859V9.5ZM84.6859 11.3H85.5859V12.2H84.6859V11.3ZM82.8859 12.2H84.6859V13.1H82.8859V12.2ZM87.3824 11.3H88.2824V8.6H89.1824V5.9H88.2824V5H90.9824V7.7H91.8824V8.6H90.9824V9.5H90.0824V11.3H89.1824V14H87.3824V11.3ZM93.6824 11.3H94.5824V8.6H95.4824V6.8H94.5824V5.9H93.6824V5H96.3824V5.9H97.2824V8.6H96.3824V11.3H95.4824V13.1H96.3824V14H93.6824V11.3ZM92.7824 5.9H93.6824V6.8H92.7824V5.9ZM87.3824 5.9H88.2824V6.8H87.3824V5.9ZM91.8824 6.8H92.7824V7.7H91.8824V6.8ZM96.3824 12.2H97.2824V13.1H96.3824V12.2ZM101.789 13.1H102.689V12.2H103.589V11.3H104.489V10.4H105.389V9.5H106.289V8.6H107.189V7.7H108.089V6.8H108.989V5.9H109.889V5H110.789V4.1H111.689V3.2H112.589V2.3H106.289V3.2H105.389V1.4H115.289V2.3H114.389V3.2H113.489V4.1H112.589V5H111.689V5.9H110.789V6.8H109.889V7.7H108.989V8.6H108.089V9.5H107.189V10.4H106.289V11.3H105.389V12.2H104.489V13.1H110.789V12.2H111.689V13.1H112.589V14H101.789V13.1ZM104.489 3.2H105.389V4.1H104.489V3.2ZM111.689 11.3H112.589V12.2H111.689V11.3ZM1.9 31.1H2.8V29.3H3.7V25.7H4.6V23H5.5V20.3H4.6V19.4H12.7V20.3H13.6V23.9H12.7V24.8H11.8V25.7H10.9V23.9H11.8V21.2H10.9V20.3H7.3V23H6.4V25.7H5.5V26.6H8.2V27.5H9.1V28.4H10V29.3H10.9V30.2H11.8V31.1H12.7V32H10V31.1H9.1V30.2H8.2V29.3H7.3V28.4H6.4V27.5H5.5V29.3H4.6V31.1H5.5V32H1.9V31.1ZM8.2 25.7H10.9V26.6H8.2V25.7ZM19 32H16.3V31.1H15.4V28.4H16.3V25.7H17.2V23.9H16.3V23H19V25.7H18.1V28.4H17.2V30.2H18.1V31.1H19V32ZM21.7 29.3H20.8V28.4H21.7V27.5H22.6V25.7H23.5V23H25.3V25.7H24.4V28.4H23.5V31.1H24.4V32H21.7V29.3ZM16.3 24.8H15.4V23.9H16.3V24.8ZM20.8 30.2H19.9V29.3H20.8V30.2ZM19.9 31.1H19V30.2H19.9V31.1ZM25.3 31.1H24.4V30.2H25.3V31.1ZM27.107 29.3H28.007V26.6H28.907V23.9H28.007V23H30.707V25.7H31.607V26.6H30.707V27.5H29.807V29.3H28.907V32H27.107V29.3ZM33.407 29.3H34.307V26.6H35.207V24.8H34.307V23.9H33.407V23H36.107V23.9H37.007V26.6H36.107V29.3H35.207V31.1H36.107V32H33.407V29.3ZM32.507 23.9H33.407V24.8H32.507V23.9ZM27.107 23.9H28.007V24.8H27.107V23.9ZM31.607 24.8H32.507V25.7H31.607V24.8ZM36.107 30.2H37.007V31.1H36.107V30.2ZM38.8141 29.3H39.7141V26.6H40.6141V23.9H39.7141V23H42.4141V25.7H43.3141V26.6H42.4141V27.5H41.5141V29.3H40.6141V32H38.8141V29.3ZM45.1141 29.3H46.0141V26.6H46.9141V24.8H46.0141V23.9H45.1141V23H47.8141V23.9H48.7141V26.6H47.8141V29.3H46.9141V31.1H47.8141V32H45.1141V29.3ZM44.2141 23.9H45.1141V24.8H44.2141V23.9ZM38.8141 23.9H39.7141V24.8H38.8141V23.9ZM43.3141 24.8H44.2141V25.7H43.3141V24.8ZM47.8141 30.2H48.7141V31.1H47.8141V30.2ZM55.9211 26.6H56.8211V23.9H54.1211V23H57.7211V23.9H58.6211V26.6H57.7211V27.5H55.9211V26.6ZM51.4211 30.2H50.5211V26.6H51.4211V24.8H52.3211V23.9H54.1211V24.8H53.2211V26.6H52.3211V28.4H54.1211V29.3H52.3211V30.2H53.2211V31.1H55.9211V32H52.3211V31.1H51.4211V30.2ZM54.1211 27.5H55.9211V28.4H54.1211V27.5ZM57.7211 29.3H58.6211V30.2H57.7211V29.3ZM55.9211 30.2H57.7211V31.1H55.9211V30.2ZM60.4176 29.3H61.3176V26.6H62.2176V23.9H61.3176V23H64.0176V24.8H64.9176V25.7H64.0176V27.5H63.1176V29.3H62.2176V32H60.4176V29.3ZM65.8176 23H67.6176V23.9H68.5176V25.7H66.7176V23.9H65.8176V23ZM64.9176 23.9H65.8176V24.8H64.9176V23.9ZM60.4176 23.9H61.3176V24.8H60.4176V23.9ZM69.4176 31.1H68.5176V29.3H70.3176V31.1H73.0176V29.3H72.1176V27.5H71.2176V25.7H70.3176V23.9H71.2176V23H75.7176V23.9H76.6176V25.7H74.8176V23.9H72.1176V25.7H73.0176V27.5H73.9176V29.3H74.8176V31.1H73.9176V32H69.4176V31.1Z" fill="#FFF32E"/>
<path d="M6.4 1.4V0.399999H5.4V1.4H6.4ZM10 1.4H11V0.399999H10V1.4ZM10 2.3V3.3H11V2.3H10ZM6.4 2.3H5.4V3.3H6.4V2.3ZM10 2.3V1.3H9V2.3H10ZM10.9 2.3H11.9V1.3H10.9V2.3ZM10.9 3.2V4.2H11.9V3.2H10.9ZM10 3.2H9V4.2H10V3.2ZM4.6 2.3V1.3H3.6V2.3H4.6ZM6.4 2.3H7.4V1.3H6.4V2.3ZM6.4 3.2V4.2H7.4V3.2H6.4ZM4.6 3.2H3.6V4.2H4.6V3.2ZM3.7 3.2V2.2H2.7V3.2H3.7ZM4.6 3.2H5.6V2.2H4.6V3.2ZM4.6 5V6H5.6V5H4.6ZM3.7 5H2.7V6H3.7V5ZM4.6 13.1V14.1H5.6V13.1H4.6ZM2.8 13.1H1.8V14.1H2.8V13.1ZM2.8 11.3H3.8V10.3H2.8V11.3ZM1.9 11.3H0.9V12.3H1.9V11.3ZM1.9 5.9V4.9H0.9V5.9H1.9ZM2.8 5.9V6.9H3.8V5.9H2.8ZM2.8 5V4H1.8V5H2.8ZM3.7 5H4.7V4H3.7V5ZM3.7 12.2H2.7V13.2H3.7V12.2ZM4.6 12.2H5.6V11.2H4.6V12.2ZM5.5 5.9V4.9H4.5V5.9H5.5ZM9.1 5.9H10.1V4.9H9.1V5.9ZM9.1 6.8H8.1V7.8H9.1V6.8ZM10 6.8H11V5.8H10V6.8ZM10 7.7H9V8.7H10V7.7ZM10.9 7.7H11.9V6.7H10.9V7.7ZM10.9 11.3V12.3H11.9V11.3H10.9ZM10 11.3V10.3H9V11.3H10ZM10 12.2V13.2H11V12.2H10ZM9.1 12.2H8.1V13.2H9.1V12.2ZM9.1 7.7H10.1V6.7H9.1V7.7ZM8.2 7.7H7.2V8.7H8.2V7.7ZM8.2 6.8H9.2V5.8H8.2V6.8ZM5.5 6.8H4.5V7.8H5.5V6.8ZM4.6 6.8V5.8H3.6V6.8H4.6ZM5.5 6.8H6.5V5.8H5.5V6.8ZM5.5 7.7V8.7H6.5V7.7H5.5ZM4.6 7.7H3.6V8.7H4.6V7.7ZM8.2 12.2V11.2H7.2V12.2H8.2ZM9.1 12.2H10.1V11.2H9.1V12.2ZM9.1 13.1V14.1H10.1V13.1H9.1ZM8.2 13.1H7.2V14.1H8.2V13.1ZM4.6 13.1V12.1H3.6V13.1H4.6ZM8.2 13.1H9.2V12.1H8.2V13.1ZM8.2 14V15H9.2V14H8.2ZM4.6 14H3.6V15H4.6V14ZM6.4 1.4V2.4H10V1.4V0.399999H6.4V1.4ZM10 1.4H9V2.3H10H11V1.4H10ZM10 2.3V1.3H6.4V2.3V3.3H10V2.3ZM6.4 2.3H7.4V1.4H6.4H5.4V2.3H6.4ZM10 2.3V3.3H10.9V2.3V1.3H10V2.3ZM10.9 2.3H9.9V3.2H10.9H11.9V2.3H10.9ZM10.9 3.2V2.2H10V3.2V4.2H10.9V3.2ZM10 3.2H11V2.3H10H9V3.2H10ZM4.6 2.3V3.3H6.4V2.3V1.3H4.6V2.3ZM6.4 2.3H5.4V3.2H6.4H7.4V2.3H6.4ZM6.4 3.2V2.2H4.6V3.2V4.2H6.4V3.2ZM4.6 3.2H5.6V2.3H4.6H3.6V3.2H4.6ZM3.7 3.2V4.2H4.6V3.2V2.2H3.7V3.2ZM4.6 3.2H3.6V5H4.6H5.6V3.2H4.6ZM4.6 5V4H3.7V5V6H4.6V5ZM3.7 5H4.7V3.2H3.7H2.7V5H3.7ZM4.6 13.1V12.1H2.8V13.1V14.1H4.6V13.1ZM2.8 13.1H3.8V11.3H2.8H1.8V13.1H2.8ZM2.8 11.3V10.3H1.9V11.3V12.3H2.8V11.3ZM1.9 11.3H2.9V5.9H1.9H0.9V11.3H1.9ZM1.9 5.9V6.9H2.8V5.9V4.9H1.9V5.9ZM2.8 5.9H3.8V5H2.8H1.8V5.9H2.8ZM2.8 5V6H3.7V5V4H2.8V5ZM3.7 5H2.7V12.2H3.7H4.7V5H3.7ZM3.7 12.2V13.2H4.6V12.2V11.2H3.7V12.2ZM4.6 12.2H3.6V13.1H4.6H5.6V12.2H4.6ZM5.5 5.9V6.9H9.1V5.9V4.9H5.5V5.9ZM9.1 5.9H8.1V6.8H9.1H10.1V5.9H9.1ZM9.1 6.8V7.8H10V6.8V5.8H9.1V6.8ZM10 6.8H9V7.7H10H11V6.8H10ZM10 7.7V8.7H10.9V7.7V6.7H10V7.7ZM10.9 7.7H9.9V11.3H10.9H11.9V7.7H10.9ZM10.9 11.3V10.3H10V11.3V12.3H10.9V11.3ZM10 11.3H9V12.2H10H11V11.3H10ZM10 12.2V11.2H9.1V12.2V13.2H10V12.2ZM9.1 12.2H10.1V7.7H9.1H8.1V12.2H9.1ZM9.1 7.7V6.7H8.2V7.7V8.7H9.1V7.7ZM8.2 7.7H9.2V6.8H8.2H7.2V7.7H8.2ZM8.2 6.8V5.8H5.5V6.8V7.8H8.2V6.8ZM5.5 6.8H6.5V5.9H5.5H4.5V6.8H5.5ZM4.6 6.8V7.8H5.5V6.8V5.8H4.6V6.8ZM5.5 6.8H4.5V7.7H5.5H6.5V6.8H5.5ZM5.5 7.7V6.7H4.6V7.7V8.7H5.5V7.7ZM4.6 7.7H5.6V6.8H4.6H3.6V7.7H4.6ZM8.2 12.2V13.2H9.1V12.2V11.2H8.2V12.2ZM9.1 12.2H8.1V13.1H9.1H10.1V12.2H9.1ZM9.1 13.1V12.1H8.2V13.1V14.1H9.1V13.1ZM8.2 13.1H9.2V12.2H8.2H7.2V13.1H8.2ZM4.6 13.1V14.1H8.2V13.1V12.1H4.6V13.1ZM8.2 13.1H7.2V14H8.2H9.2V13.1H8.2ZM8.2 14V13H4.6V14V15H8.2V14ZM4.6 14H5.6V13.1H4.6H3.6V14H4.6ZM16.293 1.4V0.399999H15.293V1.4H16.293ZM20.793 1.4H21.793V0.399999H20.793V1.4ZM20.793 2.3H19.793V3.3H20.793V2.3ZM21.693 2.3H22.693V1.3H21.693V2.3ZM21.693 5V6H22.693V5H21.693ZM20.793 5V4H19.793V5H20.793ZM20.793 5.9V6.9H21.793V5.9H20.793ZM19.893 5.9H18.893V6.9H19.893V5.9ZM19.893 2.3H20.893V1.3H19.893V2.3ZM16.293 2.3H15.293V3.3H16.293V2.3ZM14.493 3.2V2.2H13.493V3.2H14.493ZM15.393 3.2V4.2H16.393V3.2H15.393ZM15.393 2.3V1.3H14.393V2.3H15.393ZM16.293 2.3H17.293V1.3H16.293V2.3ZM16.293 6.8V7.8H17.293V6.8H16.293ZM15.393 6.8H14.393V7.8H15.393V6.8ZM15.393 5.9H16.393V4.9H15.393V5.9ZM14.493 5.9H13.493V6.9H14.493V5.9ZM17.193 5.9V4.9H16.193V5.9H17.193ZM19.893 5.9H20.893V4.9H19.893V5.9ZM19.893 6.8H18.893V7.8H19.893V6.8ZM20.793 6.8H21.793V5.8H20.793V6.8ZM20.793 7.7H19.793V8.7H20.793V7.7ZM21.693 7.7H22.693V6.7H21.693V7.7ZM21.693 11.3V12.3H22.693V11.3H21.693ZM20.793 11.3V10.3H19.793V11.3H20.793ZM20.793 12.2V13.2H21.793V12.2H20.793ZM19.893 12.2H18.893V13.2H19.893V12.2ZM19.893 7.7H20.893V6.7H19.893V7.7ZM18.993 7.7H17.993V8.7H18.993V7.7ZM18.993 6.8H19.993V5.8H18.993V6.8ZM17.193 6.8H16.193V7.8H17.193V6.8ZM14.493 6.8V5.8H13.493V6.8H14.493ZM15.393 6.8H16.393V5.8H15.393V6.8ZM15.393 7.7V8.7H16.393V7.7H15.393ZM14.493 7.7H13.493V8.7H14.493V7.7ZM13.593 12.2H14.593V11.2H13.593V12.2ZM12.693 12.2H11.693V13.2H12.693V12.2ZM12.693 8.6V7.6H11.693V8.6H12.693ZM13.593 8.6V9.6H14.593V8.6H13.593ZM13.593 7.7V6.7H12.593V7.7H13.593ZM14.493 7.7H15.493V6.7H14.493V7.7ZM14.493 12.2H13.493V13.2H14.493V12.2ZM15.393 12.2H16.393V11.2H15.393V12.2ZM15.393 13.1H14.393V14.1H15.393V13.1ZM18.993 13.1H19.993V12.1H18.993V13.1ZM18.993 14V15H19.993V14H18.993ZM14.493 14H13.493V15H14.493V14ZM14.493 13.1H15.493V12.1H14.493V13.1ZM13.593 13.1H12.593V14.1H13.593V13.1ZM18.993 12.2V11.2H17.993V12.2H18.993ZM19.893 12.2H20.893V11.2H19.893V12.2ZM19.893 13.1V14.1H20.893V13.1H19.893ZM18.993 13.1H17.993V14.1H18.993V13.1ZM16.293 1.4V2.4H20.793V1.4V0.399999H16.293V1.4ZM20.793 1.4H19.793V2.3H20.793H21.793V1.4H20.793ZM20.793 2.3V3.3H21.693V2.3V1.3H20.793V2.3ZM21.693 2.3H20.693V5H21.693H22.693V2.3H21.693ZM21.693 5V4H20.793V5V6H21.693V5ZM20.793 5H19.793V5.9H20.793H21.793V5H20.793ZM20.793 5.9V4.9H19.893V5.9V6.9H20.793V5.9ZM19.893 5.9H20.893V2.3H19.893H18.893V5.9H19.893ZM19.893 2.3V1.3H16.293V2.3V3.3H19.893V2.3ZM16.293 2.3H17.293V1.4H16.293H15.293V2.3H16.293ZM14.493 3.2V4.2H15.393V3.2V2.2H14.493V3.2ZM15.393 3.2H16.393V2.3H15.393H14.393V3.2H15.393ZM15.393 2.3V3.3H16.293V2.3V1.3H15.393V2.3ZM16.293 2.3H15.293V6.8H16.293H17.293V2.3H16.293ZM16.293 6.8V5.8H15.393V6.8V7.8H16.293V6.8ZM15.393 6.8H16.393V5.9H15.393H14.393V6.8H15.393ZM15.393 5.9V4.9H14.493V5.9V6.9H15.393V5.9ZM14.493 5.9H15.493V3.2H14.493H13.493V5.9H14.493ZM17.193 5.9V6.9H19.893V5.9V4.9H17.193V5.9ZM19.893 5.9H18.893V6.8H19.893H20.893V5.9H19.893ZM19.893 6.8V7.8H20.793V6.8V5.8H19.893V6.8ZM20.793 6.8H19.793V7.7H20.793H21.793V6.8H20.793ZM20.793 7.7V8.7H21.693V7.7V6.7H20.793V7.7ZM21.693 7.7H20.693V11.3H21.693H22.693V7.7H21.693ZM21.693 11.3V10.3H20.793V11.3V12.3H21.693V11.3ZM20.793 11.3H19.793V12.2H20.793H21.793V11.3H20.793ZM20.793 12.2V11.2H19.893V12.2V13.2H20.793V12.2ZM19.893 12.2H20.893V7.7H19.893H18.893V12.2H19.893ZM19.893 7.7V6.7H18.993V7.7V8.7H19.893V7.7ZM18.993 7.7H19.993V6.8H18.993H17.993V7.7H18.993ZM18.993 6.8V5.8H17.193V6.8V7.8H18.993V6.8ZM17.193 6.8H18.193V5.9H17.193H16.193V6.8H17.193ZM14.493 6.8V7.8H15.393V6.8V5.8H14.493V6.8ZM15.393 6.8H14.393V7.7H15.393H16.393V6.8H15.393ZM15.393 7.7V6.7H14.493V7.7V8.7H15.393V7.7ZM14.493 7.7H15.493V6.8H14.493H13.493V7.7H14.493ZM13.593 12.2V11.2H12.693V12.2V13.2H13.593V12.2ZM12.693 12.2H13.693V8.6H12.693H11.693V12.2H12.693ZM12.693 8.6V9.6H13.593V8.6V7.6H12.693V8.6ZM13.593 8.6H14.593V7.7H13.593H12.593V8.6H13.593ZM13.593 7.7V8.7H14.493V7.7V6.7H13.593V7.7ZM14.493 7.7H13.493V12.2H14.493H15.493V7.7H14.493ZM14.493 12.2V13.2H15.393V12.2V11.2H14.493V12.2ZM15.393 12.2H14.393V13.1H15.393H16.393V12.2H15.393ZM15.393 13.1V14.1H18.993V13.1V12.1H15.393V13.1ZM18.993 13.1H17.993V14H18.993H19.993V13.1H18.993ZM18.993 14V13H14.493V14V15H18.993V14ZM14.493 14H15.493V13.1H14.493H13.493V14H14.493ZM14.493 13.1V12.1H13.593V13.1V14.1H14.493V13.1ZM13.593 13.1H14.593V12.2H13.593H12.593V13.1H13.593ZM18.993 12.2V13.2H19.893V12.2V11.2H18.993V12.2ZM19.893 12.2H18.893V13.1H19.893H20.893V12.2H19.893ZM19.893 13.1V12.1H18.993V13.1V14.1H19.893V13.1ZM18.993 13.1H19.993V12.2H18.993H17.993V13.1H18.993ZM27.0859 2.3V3.3H28.0859V2.3H27.0859ZM25.2859 2.3H24.2859V3.3H25.2859V2.3ZM25.2859 1.4V0.399999H24.2859V1.4H25.2859ZM27.0859 1.4H28.0859V0.399999H27.0859V1.4ZM35.1859 1.4V0.399999H34.1859V1.4H35.1859ZM36.0859 1.4H37.0859V0.399999H36.0859V1.4ZM36.0859 2.3V3.3H37.0859V2.3H36.0859ZM35.1859 2.3H34.1859V3.3H35.1859V2.3ZM25.2859 4.1V5.1H26.2859V4.1H25.2859ZM24.3859 4.1H23.3859V5.1H24.3859V4.1ZM24.3859 2.3V1.3H23.3859V2.3H24.3859ZM25.2859 2.3H26.2859V1.3H25.2859V2.3ZM34.2859 2.3V1.3H33.2859V2.3H34.2859ZM35.1859 2.3H36.1859V1.3H35.1859V2.3ZM35.1859 3.2V4.2H36.1859V3.2H35.1859ZM34.2859 3.2H33.2859V4.2H34.2859V3.2ZM27.0859 2.3V1.3H26.0859V2.3H27.0859ZM27.9859 2.3H28.9859V1.3H27.9859V2.3ZM27.9859 4.1V5.1H28.9859V4.1H27.9859ZM27.0859 4.1H26.0859V5.1H27.0859V4.1ZM33.3859 3.2V2.2H32.3859V3.2H33.3859ZM34.2859 3.2H35.2859V2.2H34.2859V3.2ZM34.2859 4.1V5.1H35.2859V4.1H34.2859ZM33.3859 4.1H32.3859V5.1H33.3859V4.1ZM25.2859 4.1V3.1H24.2859V4.1H25.2859ZM27.0859 4.1H28.0859V3.1H27.0859V4.1ZM27.0859 5V6H28.0859V5H27.0859ZM25.2859 5H24.2859V6H25.2859V5ZM32.4859 4.1V3.1H31.4859V4.1H32.4859ZM33.3859 4.1H34.3859V3.1H33.3859V4.1ZM33.3859 5V6H34.3859V5H33.3859ZM32.4859 5H31.4859V6H32.4859V5ZM31.5859 5V4H30.5859V5H31.5859ZM32.4859 5H33.4859V4H32.4859V5ZM32.4859 5.9V6.9H33.4859V5.9H32.4859ZM31.5859 5.9H30.5859V6.9H31.5859V5.9ZM30.6859 5.9V4.9H29.6859V5.9H30.6859ZM31.5859 5.9H32.5859V4.9H31.5859V5.9ZM31.5859 6.8V7.8H32.5859V6.8H31.5859ZM30.6859 6.8H29.6859V7.8H30.6859V6.8ZM29.7859 6.8V5.8H28.7859V6.8H29.7859ZM30.6859 6.8H31.6859V5.8H30.6859V6.8ZM30.6859 7.7V8.7H31.6859V7.7H30.6859ZM29.7859 7.7H28.7859V8.7H29.7859V7.7ZM28.8859 7.7V6.7H27.8859V7.7H28.8859ZM29.7859 7.7H30.7859V6.7H29.7859V7.7ZM29.7859 8.6V9.6H30.7859V8.6H29.7859ZM28.8859 8.6H27.8859V9.6H28.8859V8.6ZM27.9859 8.6V7.6H26.9859V8.6H27.9859ZM28.8859 8.6H29.8859V7.6H28.8859V8.6ZM28.8859 9.5V10.5H29.8859V9.5H28.8859ZM27.9859 9.5H26.9859V10.5H27.9859V9.5ZM27.0859 9.5V8.5H26.0859V9.5H27.0859ZM27.9859 9.5H28.9859V8.5H27.9859V9.5ZM27.9859 10.4V11.4H28.9859V10.4H27.9859ZM27.0859 10.4H26.0859V11.4H27.0859V10.4ZM26.1859 10.4V9.4H25.1859V10.4H26.1859ZM27.0859 10.4H28.0859V9.4H27.0859V10.4ZM27.0859 11.3V12.3H28.0859V11.3H27.0859ZM26.1859 11.3H25.1859V12.3H26.1859V11.3ZM31.5859 10.4V9.4H30.5859V10.4H31.5859ZM33.3859 10.4H34.3859V9.4H33.3859V10.4ZM33.3859 11.3V12.3H34.3859V11.3H33.3859ZM31.5859 11.3H30.5859V12.3H31.5859V11.3ZM25.2859 11.3V10.3H24.2859V11.3H25.2859ZM26.1859 11.3H27.1859V10.3H26.1859V11.3ZM26.1859 12.2V13.2H27.1859V12.2H26.1859ZM25.2859 12.2H24.2859V13.2H25.2859V12.2ZM33.3859 11.3V10.3H32.3859V11.3H33.3859ZM34.2859 11.3H35.2859V10.3H34.2859V11.3ZM34.2859 13.1V14.1H35.2859V13.1H34.2859ZM33.3859 13.1H32.3859V14.1H33.3859V13.1ZM30.6859 11.3V10.3H29.6859V11.3H30.6859ZM31.5859 11.3H32.5859V10.3H31.5859V11.3ZM31.5859 13.1V14.1H32.5859V13.1H31.5859ZM30.6859 13.1H29.6859V14.1H30.6859V13.1ZM24.3859 12.2V11.2H23.3859V12.2H24.3859ZM25.2859 12.2H26.2859V11.2H25.2859V12.2ZM25.2859 13.1V14.1H26.2859V13.1H25.2859ZM24.3859 13.1H23.3859V14.1H24.3859V13.1ZM23.4859 13.1V12.1H22.4859V13.1H23.4859ZM24.3859 13.1H25.3859V12.1H24.3859V13.1ZM24.3859 14V15H25.3859V14H24.3859ZM23.4859 14H22.4859V15H23.4859V14ZM31.5859 13.1V12.1H30.5859V13.1H31.5859ZM33.3859 13.1H34.3859V12.1H33.3859V13.1ZM33.3859 14V15H34.3859V14H33.3859ZM31.5859 14H30.5859V15H31.5859V14ZM27.0859 2.3V1.3H25.2859V2.3V3.3H27.0859V2.3ZM25.2859 2.3H26.2859V1.4H25.2859H24.2859V2.3H25.2859ZM25.2859 1.4V2.4H27.0859V1.4V0.399999H25.2859V1.4ZM27.0859 1.4H26.0859V2.3H27.0859H28.0859V1.4H27.0859ZM35.1859 1.4V2.4H36.0859V1.4V0.399999H35.1859V1.4ZM36.0859 1.4H35.0859V2.3H36.0859H37.0859V1.4H36.0859ZM36.0859 2.3V1.3H35.1859V2.3V3.3H36.0859V2.3ZM35.1859 2.3H36.1859V1.4H35.1859H34.1859V2.3H35.1859ZM25.2859 4.1V3.1H24.3859V4.1V5.1H25.2859V4.1ZM24.3859 4.1H25.3859V2.3H24.3859H23.3859V4.1H24.3859ZM24.3859 2.3V3.3H25.2859V2.3V1.3H24.3859V2.3ZM25.2859 2.3H24.2859V4.1H25.2859H26.2859V2.3H25.2859ZM34.2859 2.3V3.3H35.1859V2.3V1.3H34.2859V2.3ZM35.1859 2.3H34.1859V3.2H35.1859H36.1859V2.3H35.1859ZM35.1859 3.2V2.2H34.2859V3.2V4.2H35.1859V3.2ZM34.2859 3.2H35.2859V2.3H34.2859H33.2859V3.2H34.2859ZM27.0859 2.3V3.3H27.9859V2.3V1.3H27.0859V2.3ZM27.9859 2.3H26.9859V4.1H27.9859H28.9859V2.3H27.9859ZM27.9859 4.1V3.1H27.0859V4.1V5.1H27.9859V4.1ZM27.0859 4.1H28.0859V2.3H27.0859H26.0859V4.1H27.0859ZM33.3859 3.2V4.2H34.2859V3.2V2.2H33.3859V3.2ZM34.2859 3.2H33.2859V4.1H34.2859H35.2859V3.2H34.2859ZM34.2859 4.1V3.1H33.3859V4.1V5.1H34.2859V4.1ZM33.3859 4.1H34.3859V3.2H33.3859H32.3859V4.1H33.3859ZM25.2859 4.1V5.1H27.0859V4.1V3.1H25.2859V4.1ZM27.0859 4.1H26.0859V5H27.0859H28.0859V4.1H27.0859ZM27.0859 5V4H25.2859V5V6H27.0859V5ZM25.2859 5H26.2859V4.1H25.2859H24.2859V5H25.2859ZM32.4859 4.1V5.1H33.3859V4.1V3.1H32.4859V4.1ZM33.3859 4.1H32.3859V5H33.3859H34.3859V4.1H33.3859ZM33.3859 5V4H32.4859V5V6H33.3859V5ZM32.4859 5H33.4859V4.1H32.4859H31.4859V5H32.4859ZM31.5859 5V6H32.4859V5V4H31.5859V5ZM32.4859 5H31.4859V5.9H32.4859H33.4859V5H32.4859ZM32.4859 5.9V4.9H31.5859V5.9V6.9H32.4859V5.9ZM31.5859 5.9H32.5859V5H31.5859H30.5859V5.9H31.5859ZM30.6859 5.9V6.9H31.5859V5.9V4.9H30.6859V5.9ZM31.5859 5.9H30.5859V6.8H31.5859H32.5859V5.9H31.5859ZM31.5859 6.8V5.8H30.6859V6.8V7.8H31.5859V6.8ZM30.6859 6.8H31.6859V5.9H30.6859H29.6859V6.8H30.6859ZM29.7859 6.8V7.8H30.6859V6.8V5.8H29.7859V6.8ZM30.6859 6.8H29.6859V7.7H30.6859H31.6859V6.8H30.6859ZM30.6859 7.7V6.7H29.7859V7.7V8.7H30.6859V7.7ZM29.7859 7.7H30.7859V6.8H29.7859H28.7859V7.7H29.7859ZM28.8859 7.7V8.7H29.7859V7.7V6.7H28.8859V7.7ZM29.7859 7.7H28.7859V8.6H29.7859H30.7859V7.7H29.7859ZM29.7859 8.6V7.6H28.8859V8.6V9.6H29.7859V8.6ZM28.8859 8.6H29.8859V7.7H28.8859H27.8859V8.6H28.8859ZM27.9859 8.6V9.6H28.8859V8.6V7.6H27.9859V8.6ZM28.8859 8.6H27.8859V9.5H28.8859H29.8859V8.6H28.8859ZM28.8859 9.5V8.5H27.9859V9.5V10.5H28.8859V9.5ZM27.9859 9.5H28.9859V8.6H27.9859H26.9859V9.5H27.9859ZM27.0859 9.5V10.5H27.9859V9.5V8.5H27.0859V9.5ZM27.9859 9.5H26.9859V10.4H27.9859H28.9859V9.5H27.9859ZM27.9859 10.4V9.4H27.0859V10.4V11.4H27.9859V10.4ZM27.0859 10.4H28.0859V9.5H27.0859H26.0859V10.4H27.0859ZM26.1859 10.4V11.4H27.0859V10.4V9.4H26.1859V10.4ZM27.0859 10.4H26.0859V11.3H27.0859H28.0859V10.4H27.0859ZM27.0859 11.3V10.3H26.1859V11.3V12.3H27.0859V11.3ZM26.1859 11.3H27.1859V10.4H26.1859H25.1859V11.3H26.1859ZM31.5859 10.4V11.4H33.3859V10.4V9.4H31.5859V10.4ZM33.3859 10.4H32.3859V11.3H33.3859H34.3859V10.4H33.3859ZM33.3859 11.3V10.3H31.5859V11.3V12.3H33.3859V11.3ZM31.5859 11.3H32.5859V10.4H31.5859H30.5859V11.3H31.5859ZM25.2859 11.3V12.3H26.1859V11.3V10.3H25.2859V11.3ZM26.1859 11.3H25.1859V12.2H26.1859H27.1859V11.3H26.1859ZM26.1859 12.2V11.2H25.2859V12.2V13.2H26.1859V12.2ZM25.2859 12.2H26.2859V11.3H25.2859H24.2859V12.2H25.2859ZM33.3859 11.3V12.3H34.2859V11.3V10.3H33.3859V11.3ZM34.2859 11.3H33.2859V13.1H34.2859H35.2859V11.3H34.2859ZM34.2859 13.1V12.1H33.3859V13.1V14.1H34.2859V13.1ZM33.3859 13.1H34.3859V11.3H33.3859H32.3859V13.1H33.3859ZM30.6859 11.3V12.3H31.5859V11.3V10.3H30.6859V11.3ZM31.5859 11.3H30.5859V13.1H31.5859H32.5859V11.3H31.5859ZM31.5859 13.1V12.1H30.6859V13.1V14.1H31.5859V13.1ZM30.6859 13.1H31.6859V11.3H30.6859H29.6859V13.1H30.6859ZM24.3859 12.2V13.2H25.2859V12.2V11.2H24.3859V12.2ZM25.2859 12.2H24.2859V13.1H25.2859H26.2859V12.2H25.2859ZM25.2859 13.1V12.1H24.3859V13.1V14.1H25.2859V13.1ZM24.3859 13.1H25.3859V12.2H24.3859H23.3859V13.1H24.3859ZM23.4859 13.1V14.1H24.3859V13.1V12.1H23.4859V13.1ZM24.3859 13.1H23.3859V14H24.3859H25.3859V13.1H24.3859ZM24.3859 14V13H23.4859V14V15H24.3859V14ZM23.4859 14H24.4859V13.1H23.4859H22.4859V14H23.4859ZM31.5859 13.1V14.1H33.3859V13.1V12.1H31.5859V13.1ZM33.3859 13.1H32.3859V14H33.3859H34.3859V13.1H33.3859ZM33.3859 14V13H31.5859V14V15H33.3859V14ZM31.5859 14H32.5859V13.1H31.5859H30.5859V14H31.5859ZM47.7824 12.2V11.2H46.7824V12.2H47.7824ZM48.6824 12.2V13.2H49.6824V12.2H48.6824ZM48.6824 10.4V9.4H47.6824V10.4H48.6824ZM49.5824 10.4V11.4H50.5824V10.4H49.5824ZM49.5824 6.8H50.5824V5.8H49.5824V6.8ZM48.6824 6.8H47.6824V7.8H48.6824V6.8ZM48.6824 5.9H49.6824V4.9H48.6824V5.9ZM45.9824 5.9H44.9824V6.9H45.9824V5.9ZM45.9824 5V4H44.9824V5H45.9824ZM49.5824 5H50.5824V4H49.5824V5ZM49.5824 5.9H48.5824V6.9H49.5824V5.9ZM50.4824 5.9H51.4824V4.9H50.4824V5.9ZM50.4824 6.8H49.4824V7.8H50.4824V6.8ZM51.3824 6.8H52.3824V5.8H51.3824V6.8ZM51.3824 10.4V11.4H52.3824V10.4H51.3824ZM50.4824 10.4V9.4H49.4824V10.4H50.4824ZM50.4824 12.2V13.2H51.4824V12.2H50.4824ZM49.5824 12.2V11.2H48.5824V12.2H49.5824ZM49.5824 13.1V14.1H50.5824V13.1H49.5824ZM47.7824 13.1H46.7824V14.1H47.7824V13.1ZM43.2824 12.2H44.2824V11.2H43.2824V12.2ZM42.3824 12.2H41.3824V13.2H42.3824V12.2ZM42.3824 8.6V7.6H41.3824V8.6H42.3824ZM43.2824 8.6V9.6H44.2824V8.6H43.2824ZM43.2824 6.8V5.8H42.2824V6.8H43.2824ZM44.1824 6.8V7.8H45.1824V6.8H44.1824ZM44.1824 5.9V4.9H43.1824V5.9H44.1824ZM45.9824 5.9H46.9824V4.9H45.9824V5.9ZM45.9824 6.8V7.8H46.9824V6.8H45.9824ZM45.0824 6.8V5.8H44.0824V6.8H45.0824ZM45.0824 8.6V9.6H46.0824V8.6H45.0824ZM44.1824 8.6V7.6H43.1824V8.6H44.1824ZM44.1824 12.2H43.1824V13.2H44.1824V12.2ZM45.0824 12.2H46.0824V11.2H45.0824V12.2ZM45.0824 13.1H44.0824V14.1H45.0824V13.1ZM47.7824 13.1H48.7824V12.1H47.7824V13.1ZM47.7824 14V15H48.7824V14H47.7824ZM44.1824 14H43.1824V15H44.1824V14ZM44.1824 13.1H45.1824V12.1H44.1824V13.1ZM43.2824 13.1H42.2824V14.1H43.2824V13.1ZM47.7824 12.2V13.2H48.6824V12.2V11.2H47.7824V12.2ZM48.6824 12.2H49.6824V10.4H48.6824H47.6824V12.2H48.6824ZM48.6824 10.4V11.4H49.5824V10.4V9.4H48.6824V10.4ZM49.5824 10.4H50.5824V6.8H49.5824H48.5824V10.4H49.5824ZM49.5824 6.8V5.8H48.6824V6.8V7.8H49.5824V6.8ZM48.6824 6.8H49.6824V5.9H48.6824H47.6824V6.8H48.6824ZM48.6824 5.9V4.9H45.9824V5.9V6.9H48.6824V5.9ZM45.9824 5.9H46.9824V5H45.9824H44.9824V5.9H45.9824ZM45.9824 5V6H49.5824V5V4H45.9824V5ZM49.5824 5H48.5824V5.9H49.5824H50.5824V5H49.5824ZM49.5824 5.9V6.9H50.4824V5.9V4.9H49.5824V5.9ZM50.4824 5.9H49.4824V6.8H50.4824H51.4824V5.9H50.4824ZM50.4824 6.8V7.8H51.3824V6.8V5.8H50.4824V6.8ZM51.3824 6.8H50.3824V10.4H51.3824H52.3824V6.8H51.3824ZM51.3824 10.4V9.4H50.4824V10.4V11.4H51.3824V10.4ZM50.4824 10.4H49.4824V12.2H50.4824H51.4824V10.4H50.4824ZM50.4824 12.2V11.2H49.5824V12.2V13.2H50.4824V12.2ZM49.5824 12.2H48.5824V13.1H49.5824H50.5824V12.2H49.5824ZM49.5824 13.1V12.1H47.7824V13.1V14.1H49.5824V13.1ZM47.7824 13.1H48.7824V12.2H47.7824H46.7824V13.1H47.7824ZM43.2824 12.2V11.2H42.3824V12.2V13.2H43.2824V12.2ZM42.3824 12.2H43.3824V8.6H42.3824H41.3824V12.2H42.3824ZM42.3824 8.6V9.6H43.2824V8.6V7.6H42.3824V8.6ZM43.2824 8.6H44.2824V6.8H43.2824H42.2824V8.6H43.2824ZM43.2824 6.8V7.8H44.1824V6.8V5.8H43.2824V6.8ZM44.1824 6.8H45.1824V5.9H44.1824H43.1824V6.8H44.1824ZM44.1824 5.9V6.9H45.9824V5.9V4.9H44.1824V5.9ZM45.9824 5.9H44.9824V6.8H45.9824H46.9824V5.9H45.9824ZM45.9824 6.8V5.8H45.0824V6.8V7.8H45.9824V6.8ZM45.0824 6.8H44.0824V8.6H45.0824H46.0824V6.8H45.0824ZM45.0824 8.6V7.6H44.1824V8.6V9.6H45.0824V8.6ZM44.1824 8.6H43.1824V12.2H44.1824H45.1824V8.6H44.1824ZM44.1824 12.2V13.2H45.0824V12.2V11.2H44.1824V12.2ZM45.0824 12.2H44.0824V13.1H45.0824H46.0824V12.2H45.0824ZM45.0824 13.1V14.1H47.7824V13.1V12.1H45.0824V13.1ZM47.7824 13.1H46.7824V14H47.7824H48.7824V13.1H47.7824ZM47.7824 14V13H44.1824V14V15H47.7824V14ZM44.1824 14H45.1824V13.1H44.1824H43.1824V14H44.1824ZM44.1824 13.1V12.1H43.2824V13.1V14.1H44.1824V13.1ZM43.2824 13.1H44.2824V12.2H43.2824H42.2824V13.1H43.2824ZM57.6754 1.4V0.399999H56.6754V1.4H57.6754ZM61.2754 1.4H62.2754V0.399999H61.2754V1.4ZM61.2754 3.2V4.2H62.2754V3.2H61.2754ZM59.4754 3.2H58.4754V4.2H59.4754V3.2ZM59.4754 2.3H60.4754V1.3H59.4754V2.3ZM57.6754 2.3H56.6754V3.3H57.6754V2.3ZM52.2754 14V13H51.2754V14H52.2754ZM53.1754 14V15H54.1754V14H53.1754ZM53.1754 11.3V10.3H52.1754V11.3H53.1754ZM54.0754 11.3V12.3H55.0754V11.3H54.0754ZM54.0754 8.6V7.6H53.0754V8.6H54.0754ZM54.9754 8.6V9.6H55.9754V8.6H54.9754ZM54.9754 5.9H55.9754V4.9H54.9754V5.9ZM53.1754 5.9H52.1754V6.9H53.1754V5.9ZM53.1754 5V4H52.1754V5H53.1754ZM55.8754 5V6H56.8754V5H55.8754ZM55.8754 3.2V2.2H54.8754V3.2H55.8754ZM56.7754 3.2V4.2H57.7754V3.2H56.7754ZM56.7754 2.3V1.3H55.7754V2.3H56.7754ZM57.6754 2.3H58.6754V1.3H57.6754V2.3ZM57.6754 5H56.6754V6H57.6754V5ZM59.4754 5H60.4754V4H59.4754V5ZM59.4754 5.9V6.9H60.4754V5.9H59.4754ZM56.7754 5.9V4.9H55.7754V5.9H56.7754ZM56.7754 8.6V9.6H57.7754V8.6H56.7754ZM55.8754 8.6V7.6H54.8754V8.6H55.8754ZM55.8754 11.3V12.3H56.8754V11.3H55.8754ZM54.9754 11.3V10.3H53.9754V11.3H54.9754ZM54.9754 14V15H55.9754V14H54.9754ZM54.0754 14V13H53.0754V14H54.0754ZM54.0754 15.8V16.8H55.0754V15.8H54.0754ZM53.1754 15.8V14.8H52.1754V15.8H53.1754ZM53.1754 16.7V17.7H54.1754V16.7H53.1754ZM52.2754 16.7H51.2754V17.7H52.2754V16.7ZM48.6754 14.9V13.9H47.6754V14.9H48.6754ZM50.4754 14.9H51.4754V13.9H50.4754V14.9ZM50.4754 16.7H49.4754V17.7H50.4754V16.7ZM52.2754 16.7H53.2754V15.7H52.2754V16.7ZM52.2754 17.6V18.6H53.2754V17.6H52.2754ZM49.5754 17.6H48.5754V18.6H49.5754V17.6ZM49.5754 16.7H50.5754V15.7H49.5754V16.7ZM48.6754 16.7H47.6754V17.7H48.6754V16.7ZM57.6754 1.4V2.4H61.2754V1.4V0.399999H57.6754V1.4ZM61.2754 1.4H60.2754V3.2H61.2754H62.2754V1.4H61.2754ZM61.2754 3.2V2.2H59.4754V3.2V4.2H61.2754V3.2ZM59.4754 3.2H60.4754V2.3H59.4754H58.4754V3.2H59.4754ZM59.4754 2.3V1.3H57.6754V2.3V3.3H59.4754V2.3ZM57.6754 2.3H58.6754V1.4H57.6754H56.6754V2.3H57.6754ZM52.2754 14V15H53.1754V14V13H52.2754V14ZM53.1754 14H54.1754V11.3H53.1754H52.1754V14H53.1754ZM53.1754 11.3V12.3H54.0754V11.3V10.3H53.1754V11.3ZM54.0754 11.3H55.0754V8.6H54.0754H53.0754V11.3H54.0754ZM54.0754 8.6V9.6H54.9754V8.6V7.6H54.0754V8.6ZM54.9754 8.6H55.9754V5.9H54.9754H53.9754V8.6H54.9754ZM54.9754 5.9V4.9H53.1754V5.9V6.9H54.9754V5.9ZM53.1754 5.9H54.1754V5H53.1754H52.1754V5.9H53.1754ZM53.1754 5V6H55.8754V5V4H53.1754V5ZM55.8754 5H56.8754V3.2H55.8754H54.8754V5H55.8754ZM55.8754 3.2V4.2H56.7754V3.2V2.2H55.8754V3.2ZM56.7754 3.2H57.7754V2.3H56.7754H55.7754V3.2H56.7754ZM56.7754 2.3V3.3H57.6754V2.3V1.3H56.7754V2.3ZM57.6754 2.3H56.6754V5H57.6754H58.6754V2.3H57.6754ZM57.6754 5V6H59.4754V5V4H57.6754V5ZM59.4754 5H58.4754V5.9H59.4754H60.4754V5H59.4754ZM59.4754 5.9V4.9H56.7754V5.9V6.9H59.4754V5.9ZM56.7754 5.9H55.7754V8.6H56.7754H57.7754V5.9H56.7754ZM56.7754 8.6V7.6H55.8754V8.6V9.6H56.7754V8.6ZM55.8754 8.6H54.8754V11.3H55.8754H56.8754V8.6H55.8754ZM55.8754 11.3V10.3H54.9754V11.3V12.3H55.8754V11.3ZM54.9754 11.3H53.9754V14H54.9754H55.9754V11.3H54.9754ZM54.9754 14V13H54.0754V14V15H54.9754V14ZM54.0754 14H53.0754V15.8H54.0754H55.0754V14H54.0754ZM54.0754 15.8V14.8H53.1754V15.8V16.8H54.0754V15.8ZM53.1754 15.8H52.1754V16.7H53.1754H54.1754V15.8H53.1754ZM53.1754 16.7V15.7H52.2754V16.7V17.7H53.1754V16.7ZM52.2754 16.7H53.2754V14H52.2754H51.2754V16.7H52.2754ZM48.6754 14.9V15.9H50.4754V14.9V13.9H48.6754V14.9ZM50.4754 14.9H49.4754V16.7H50.4754H51.4754V14.9H50.4754ZM50.4754 16.7V17.7H52.2754V16.7V15.7H50.4754V16.7ZM52.2754 16.7H51.2754V17.6H52.2754H53.2754V16.7H52.2754ZM52.2754 17.6V16.6H49.5754V17.6V18.6H52.2754V17.6ZM49.5754 17.6H50.5754V16.7H49.5754H48.5754V17.6H49.5754ZM49.5754 16.7V15.7H48.6754V16.7V17.7H49.5754V16.7ZM48.6754 16.7H49.6754V14.9H48.6754H47.6754V16.7H48.6754ZM69.3824 1.4V0.399999H68.3824V1.4H69.3824ZM73.8824 1.4H74.8824V0.399999H73.8824V1.4ZM73.8824 2.3H72.8824V3.3H73.8824V2.3ZM74.7824 2.3V3.3H75.7824V2.3H74.7824ZM74.7824 1.4V0.399999H73.7824V1.4H74.7824ZM75.6824 1.4H76.6824V0.399999H75.6824V1.4ZM75.6824 5.9V6.9H76.6824V5.9H75.6824ZM74.7824 5.9H73.7824V6.9H74.7824V5.9ZM74.7824 4.1H75.7824V3.1H74.7824V4.1ZM73.8824 4.1H72.8824V5.1H73.8824V4.1ZM73.8824 3.2H74.8824V2.2H73.8824V3.2ZM72.9824 3.2H71.9824V4.2H72.9824V3.2ZM72.9824 2.3H73.9824V1.3H72.9824V2.3ZM69.3824 2.3H68.3824V3.3H69.3824V2.3ZM66.6824 10.4H65.6824V11.4H66.6824V10.4ZM67.5824 10.4H68.5824V9.4H67.5824V10.4ZM67.5824 12.2H66.5824V13.2H67.5824V12.2ZM68.4824 12.2H69.4824V11.2H68.4824V12.2ZM68.4824 13.1V14.1H69.4824V13.1H68.4824ZM66.6824 13.1H65.6824V14.1H66.6824V13.1ZM66.6824 12.2H67.6824V11.2H66.6824V12.2ZM65.7824 12.2H64.7824V13.2H65.7824V12.2ZM65.7824 10.4H66.7824V9.4H65.7824V10.4ZM64.8824 10.4H63.8824V11.4H64.8824V10.4ZM64.8824 5.9V4.9H63.8824V5.9H64.8824ZM65.7824 5.9V6.9H66.7824V5.9H65.7824ZM65.7824 4.1V3.1H64.7824V4.1H65.7824ZM66.6824 4.1V5.1H67.6824V4.1H66.6824ZM66.6824 3.2V2.2H65.6824V3.2H66.6824ZM67.5824 3.2V4.2H68.5824V3.2H67.5824ZM67.5824 2.3V1.3H66.5824V2.3H67.5824ZM69.3824 2.3H70.3824V1.3H69.3824V2.3ZM69.3824 3.2V4.2H70.3824V3.2H69.3824ZM68.4824 3.2V2.2H67.4824V3.2H68.4824ZM68.4824 4.1V5.1H69.4824V4.1H68.4824ZM67.5824 4.1V3.1H66.5824V4.1H67.5824ZM67.5824 5.9V6.9H68.5824V5.9H67.5824ZM66.6824 5.9V4.9H65.6824V5.9H66.6824ZM72.0824 12.2V11.2H71.0824V12.2H72.0824ZM72.9824 12.2V13.2H73.9824V12.2H72.9824ZM72.9824 10.4V9.4H71.9824V10.4H72.9824ZM73.8824 10.4V11.4H74.8824V10.4H73.8824ZM73.8824 8.6H74.8824V7.6H73.8824V8.6ZM71.1824 8.6H70.1824V9.6H71.1824V8.6ZM71.1824 7.7V6.7H70.1824V7.7H71.1824ZM76.5824 7.7H77.5824V6.7H76.5824V7.7ZM76.5824 8.6V9.6H77.5824V8.6H76.5824ZM75.6824 8.6V7.6H74.6824V8.6H75.6824ZM75.6824 10.4V11.4H76.6824V10.4H75.6824ZM74.7824 10.4V9.4H73.7824V10.4H74.7824ZM74.7824 14V15H75.7824V14H74.7824ZM73.8824 14H72.8824V15H73.8824V14ZM73.8824 13.1H74.8824V12.1H73.8824V13.1ZM72.0824 13.1H71.0824V14.1H72.0824V13.1ZM68.4824 14H67.4824V15H68.4824V14ZM68.4824 13.1V12.1H67.4824V13.1H68.4824ZM72.0824 13.1H73.0824V12.1H72.0824V13.1ZM72.0824 14V15H73.0824V14H72.0824ZM69.3824 1.4V2.4H73.8824V1.4V0.399999H69.3824V1.4ZM73.8824 1.4H72.8824V2.3H73.8824H74.8824V1.4H73.8824ZM73.8824 2.3V3.3H74.7824V2.3V1.3H73.8824V2.3ZM74.7824 2.3H75.7824V1.4H74.7824H73.7824V2.3H74.7824ZM74.7824 1.4V2.4H75.6824V1.4V0.399999H74.7824V1.4ZM75.6824 1.4H74.6824V5.9H75.6824H76.6824V1.4H75.6824ZM75.6824 5.9V4.9H74.7824V5.9V6.9H75.6824V5.9ZM74.7824 5.9H75.7824V4.1H74.7824H73.7824V5.9H74.7824ZM74.7824 4.1V3.1H73.8824V4.1V5.1H74.7824V4.1ZM73.8824 4.1H74.8824V3.2H73.8824H72.8824V4.1H73.8824ZM73.8824 3.2V2.2H72.9824V3.2V4.2H73.8824V3.2ZM72.9824 3.2H73.9824V2.3H72.9824H71.9824V3.2H72.9824ZM72.9824 2.3V1.3H69.3824V2.3V3.3H72.9824V2.3ZM69.3824 2.3H70.3824V1.4H69.3824H68.3824V2.3H69.3824ZM66.6824 10.4V11.4H67.5824V10.4V9.4H66.6824V10.4ZM67.5824 10.4H66.5824V12.2H67.5824H68.5824V10.4H67.5824ZM67.5824 12.2V13.2H68.4824V12.2V11.2H67.5824V12.2ZM68.4824 12.2H67.4824V13.1H68.4824H69.4824V12.2H68.4824ZM68.4824 13.1V12.1H66.6824V13.1V14.1H68.4824V13.1ZM66.6824 13.1H67.6824V12.2H66.6824H65.6824V13.1H66.6824ZM66.6824 12.2V11.2H65.7824V12.2V13.2H66.6824V12.2ZM65.7824 12.2H66.7824V10.4H65.7824H64.7824V12.2H65.7824ZM65.7824 10.4V9.4H64.8824V10.4V11.4H65.7824V10.4ZM64.8824 10.4H65.8824V5.9H64.8824H63.8824V10.4H64.8824ZM64.8824 5.9V6.9H65.7824V5.9V4.9H64.8824V5.9ZM65.7824 5.9H66.7824V4.1H65.7824H64.7824V5.9H65.7824ZM65.7824 4.1V5.1H66.6824V4.1V3.1H65.7824V4.1ZM66.6824 4.1H67.6824V3.2H66.6824H65.6824V4.1H66.6824ZM66.6824 3.2V4.2H67.5824V3.2V2.2H66.6824V3.2ZM67.5824 3.2H68.5824V2.3H67.5824H66.5824V3.2H67.5824ZM67.5824 2.3V3.3H69.3824V2.3V1.3H67.5824V2.3ZM69.3824 2.3H68.3824V3.2H69.3824H70.3824V2.3H69.3824ZM69.3824 3.2V2.2H68.4824V3.2V4.2H69.3824V3.2ZM68.4824 3.2H67.4824V4.1H68.4824H69.4824V3.2H68.4824ZM68.4824 4.1V3.1H67.5824V4.1V5.1H68.4824V4.1ZM67.5824 4.1H66.5824V5.9H67.5824H68.5824V4.1H67.5824ZM67.5824 5.9V4.9H66.6824V5.9V6.9H67.5824V5.9ZM66.6824 5.9H65.6824V10.4H66.6824H67.6824V5.9H66.6824ZM72.0824 12.2V13.2H72.9824V12.2V11.2H72.0824V12.2ZM72.9824 12.2H73.9824V10.4H72.9824H71.9824V12.2H72.9824ZM72.9824 10.4V11.4H73.8824V10.4V9.4H72.9824V10.4ZM73.8824 10.4H74.8824V8.6H73.8824H72.8824V10.4H73.8824ZM73.8824 8.6V7.6H71.1824V8.6V9.6H73.8824V8.6ZM71.1824 8.6H72.1824V7.7H71.1824H70.1824V8.6H71.1824ZM71.1824 7.7V8.7H76.5824V7.7V6.7H71.1824V7.7ZM76.5824 7.7H75.5824V8.6H76.5824H77.5824V7.7H76.5824ZM76.5824 8.6V7.6H75.6824V8.6V9.6H76.5824V8.6ZM75.6824 8.6H74.6824V10.4H75.6824H76.6824V8.6H75.6824ZM75.6824 10.4V9.4H74.7824V10.4V11.4H75.6824V10.4ZM74.7824 10.4H73.7824V14H74.7824H75.7824V10.4H74.7824ZM74.7824 14V13H73.8824V14V15H74.7824V14ZM73.8824 14H74.8824V13.1H73.8824H72.8824V14H73.8824ZM73.8824 13.1V12.1H72.0824V13.1V14.1H73.8824V13.1ZM72.0824 13.1H73.0824V12.2H72.0824H71.0824V13.1H72.0824ZM68.4824 14H69.4824V13.1H68.4824H67.4824V14H68.4824ZM68.4824 13.1V14.1H72.0824V13.1V12.1H68.4824V13.1ZM72.0824 13.1H71.0824V14H72.0824H73.0824V13.1H72.0824ZM72.0824 14V13H68.4824V14V15H72.0824V14ZM82.8859 8.6V7.6H81.8859V8.6H82.8859ZM83.7859 8.6V9.6H84.7859V8.6H83.7859ZM83.7859 5.9H84.7859V4.9H83.7859V5.9ZM81.0859 5.9H80.0859V6.9H81.0859V5.9ZM81.0859 5V4H80.0859V5H81.0859ZM84.6859 5H85.6859V4H84.6859V5ZM84.6859 5.9H83.6859V6.9H84.6859V5.9ZM85.5859 5.9H86.5859V4.9H85.5859V5.9ZM85.5859 8.6V9.6H86.5859V8.6H85.5859ZM84.6859 8.6V7.6H83.6859V8.6H84.6859ZM84.6859 9.5V10.5H85.6859V9.5H84.6859ZM82.8859 9.5H81.8859V10.5H82.8859V9.5ZM78.3859 12.2H79.3859V11.2H78.3859V12.2ZM77.4859 12.2H76.4859V13.2H77.4859V12.2ZM77.4859 8.6V7.6H76.4859V8.6H77.4859ZM78.3859 8.6V9.6H79.3859V8.6H78.3859ZM78.3859 6.8V5.8H77.3859V6.8H78.3859ZM79.2859 6.8V7.8H80.2859V6.8H79.2859ZM79.2859 5.9V4.9H78.2859V5.9H79.2859ZM81.0859 5.9H82.0859V4.9H81.0859V5.9ZM81.0859 6.8V7.8H82.0859V6.8H81.0859ZM80.1859 6.8V5.8H79.1859V6.8H80.1859ZM80.1859 8.6V9.6H81.1859V8.6H80.1859ZM79.2859 8.6V7.6H78.2859V8.6H79.2859ZM79.2859 10.4H78.2859V11.4H79.2859V10.4ZM81.0859 10.4H82.0859V9.4H81.0859V10.4ZM81.0859 11.3V12.3H82.0859V11.3H81.0859ZM79.2859 11.3V10.3H78.2859V11.3H79.2859ZM79.2859 12.2H78.2859V13.2H79.2859V12.2ZM80.1859 12.2H81.1859V11.2H80.1859V12.2ZM80.1859 13.1H79.1859V14.1H80.1859V13.1ZM82.8859 13.1H83.8859V12.1H82.8859V13.1ZM82.8859 14V15H83.8859V14H82.8859ZM79.2859 14H78.2859V15H79.2859V14ZM79.2859 13.1H80.2859V12.1H79.2859V13.1ZM78.3859 13.1H77.3859V14.1H78.3859V13.1ZM81.0859 9.5V8.5H80.0859V9.5H81.0859ZM82.8859 9.5H83.8859V8.5H82.8859V9.5ZM82.8859 10.4V11.4H83.8859V10.4H82.8859ZM81.0859 10.4H80.0859V11.4H81.0859V10.4ZM84.6859 11.3V10.3H83.6859V11.3H84.6859ZM85.5859 11.3H86.5859V10.3H85.5859V11.3ZM85.5859 12.2V13.2H86.5859V12.2H85.5859ZM84.6859 12.2H83.6859V13.2H84.6859V12.2ZM82.8859 12.2V11.2H81.8859V12.2H82.8859ZM84.6859 12.2H85.6859V11.2H84.6859V12.2ZM84.6859 13.1V14.1H85.6859V13.1H84.6859ZM82.8859 13.1H81.8859V14.1H82.8859V13.1ZM82.8859 8.6V9.6H83.7859V8.6V7.6H82.8859V8.6ZM83.7859 8.6H84.7859V5.9H83.7859H82.7859V8.6H83.7859ZM83.7859 5.9V4.9H81.0859V5.9V6.9H83.7859V5.9ZM81.0859 5.9H82.0859V5H81.0859H80.0859V5.9H81.0859ZM81.0859 5V6H84.6859V5V4H81.0859V5ZM84.6859 5H83.6859V5.9H84.6859H85.6859V5H84.6859ZM84.6859 5.9V6.9H85.5859V5.9V4.9H84.6859V5.9ZM85.5859 5.9H84.5859V8.6H85.5859H86.5859V5.9H85.5859ZM85.5859 8.6V7.6H84.6859V8.6V9.6H85.5859V8.6ZM84.6859 8.6H83.6859V9.5H84.6859H85.6859V8.6H84.6859ZM84.6859 9.5V8.5H82.8859V9.5V10.5H84.6859V9.5ZM82.8859 9.5H83.8859V8.6H82.8859H81.8859V9.5H82.8859ZM78.3859 12.2V11.2H77.4859V12.2V13.2H78.3859V12.2ZM77.4859 12.2H78.4859V8.6H77.4859H76.4859V12.2H77.4859ZM77.4859 8.6V9.6H78.3859V8.6V7.6H77.4859V8.6ZM78.3859 8.6H79.3859V6.8H78.3859H77.3859V8.6H78.3859ZM78.3859 6.8V7.8H79.2859V6.8V5.8H78.3859V6.8ZM79.2859 6.8H80.2859V5.9H79.2859H78.2859V6.8H79.2859ZM79.2859 5.9V6.9H81.0859V5.9V4.9H79.2859V5.9ZM81.0859 5.9H80.0859V6.8H81.0859H82.0859V5.9H81.0859ZM81.0859 6.8V5.8H80.1859V6.8V7.8H81.0859V6.8ZM80.1859 6.8H79.1859V8.6H80.1859H81.1859V6.8H80.1859ZM80.1859 8.6V7.6H79.2859V8.6V9.6H80.1859V8.6ZM79.2859 8.6H78.2859V10.4H79.2859H80.2859V8.6H79.2859ZM79.2859 10.4V11.4H81.0859V10.4V9.4H79.2859V10.4ZM81.0859 10.4H80.0859V11.3H81.0859H82.0859V10.4H81.0859ZM81.0859 11.3V10.3H79.2859V11.3V12.3H81.0859V11.3ZM79.2859 11.3H78.2859V12.2H79.2859H80.2859V11.3H79.2859ZM79.2859 12.2V13.2H80.1859V12.2V11.2H79.2859V12.2ZM80.1859 12.2H79.1859V13.1H80.1859H81.1859V12.2H80.1859ZM80.1859 13.1V14.1H82.8859V13.1V12.1H80.1859V13.1ZM82.8859 13.1H81.8859V14H82.8859H83.8859V13.1H82.8859ZM82.8859 14V13H79.2859V14V15H82.8859V14ZM79.2859 14H80.2859V13.1H79.2859H78.2859V14H79.2859ZM79.2859 13.1V12.1H78.3859V13.1V14.1H79.2859V13.1ZM78.3859 13.1H79.3859V12.2H78.3859H77.3859V13.1H78.3859ZM81.0859 9.5V10.5H82.8859V9.5V8.5H81.0859V9.5ZM82.8859 9.5H81.8859V10.4H82.8859H83.8859V9.5H82.8859ZM82.8859 10.4V9.4H81.0859V10.4V11.4H82.8859V10.4ZM81.0859 10.4H82.0859V9.5H81.0859H80.0859V10.4H81.0859ZM84.6859 11.3V12.3H85.5859V11.3V10.3H84.6859V11.3ZM85.5859 11.3H84.5859V12.2H85.5859H86.5859V11.3H85.5859ZM85.5859 12.2V11.2H84.6859V12.2V13.2H85.5859V12.2ZM84.6859 12.2H85.6859V11.3H84.6859H83.6859V12.2H84.6859ZM82.8859 12.2V13.2H84.6859V12.2V11.2H82.8859V12.2ZM84.6859 12.2H83.6859V13.1H84.6859H85.6859V12.2H84.6859ZM84.6859 13.1V12.1H82.8859V13.1V14.1H84.6859V13.1ZM82.8859 13.1H83.8859V12.2H82.8859H81.8859V13.1H82.8859ZM87.3824 11.3V10.3H86.3824V11.3H87.3824ZM88.2824 11.3V12.3H89.2824V11.3H88.2824ZM88.2824 8.6V7.6H87.2824V8.6H88.2824ZM89.1824 8.6V9.6H90.1824V8.6H89.1824ZM89.1824 5.9H90.1824V4.9H89.1824V5.9ZM88.2824 5.9H87.2824V6.9H88.2824V5.9ZM88.2824 5V4H87.2824V5H88.2824ZM90.9824 5H91.9824V4H90.9824V5ZM90.9824 7.7H89.9824V8.7H90.9824V7.7ZM91.8824 7.7H92.8824V6.7H91.8824V7.7ZM91.8824 8.6V9.6H92.8824V8.6H91.8824ZM90.9824 8.6V7.6H89.9824V8.6H90.9824ZM90.9824 9.5V10.5H91.9824V9.5H90.9824ZM90.0824 9.5V8.5H89.0824V9.5H90.0824ZM90.0824 11.3V12.3H91.0824V11.3H90.0824ZM89.1824 11.3V10.3H88.1824V11.3H89.1824ZM89.1824 14V15H90.1824V14H89.1824ZM87.3824 14H86.3824V15H87.3824V14ZM93.6824 11.3V10.3H92.6824V11.3H93.6824ZM94.5824 11.3V12.3H95.5824V11.3H94.5824ZM94.5824 8.6V7.6H93.5824V8.6H94.5824ZM95.4824 8.6V9.6H96.4824V8.6H95.4824ZM95.4824 6.8H96.4824V5.8H95.4824V6.8ZM94.5824 6.8H93.5824V7.8H94.5824V6.8ZM94.5824 5.9H95.5824V4.9H94.5824V5.9ZM93.6824 5.9H92.6824V6.9H93.6824V5.9ZM93.6824 5V4H92.6824V5H93.6824ZM96.3824 5H97.3824V4H96.3824V5ZM96.3824 5.9H95.3824V6.9H96.3824V5.9ZM97.2824 5.9H98.2824V4.9H97.2824V5.9ZM97.2824 8.6V9.6H98.2824V8.6H97.2824ZM96.3824 8.6V7.6H95.3824V8.6H96.3824ZM96.3824 11.3V12.3H97.3824V11.3H96.3824ZM95.4824 11.3V10.3H94.4824V11.3H95.4824ZM95.4824 13.1H94.4824V14.1H95.4824V13.1ZM96.3824 13.1H97.3824V12.1H96.3824V13.1ZM96.3824 14V15H97.3824V14H96.3824ZM93.6824 14H92.6824V15H93.6824V14ZM92.7824 5.9V4.9H91.7824V5.9H92.7824ZM93.6824 5.9H94.6824V4.9H93.6824V5.9ZM93.6824 6.8V7.8H94.6824V6.8H93.6824ZM92.7824 6.8H91.7824V7.8H92.7824V6.8ZM87.3824 5.9V4.9H86.3824V5.9H87.3824ZM88.2824 5.9H89.2824V4.9H88.2824V5.9ZM88.2824 6.8V7.8H89.2824V6.8H88.2824ZM87.3824 6.8H86.3824V7.8H87.3824V6.8ZM91.8824 6.8V5.8H90.8824V6.8H91.8824ZM92.7824 6.8H93.7824V5.8H92.7824V6.8ZM92.7824 7.7V8.7H93.7824V7.7H92.7824ZM91.8824 7.7H90.8824V8.7H91.8824V7.7ZM96.3824 12.2V11.2H95.3824V12.2H96.3824ZM97.2824 12.2H98.2824V11.2H97.2824V12.2ZM97.2824 13.1V14.1H98.2824V13.1H97.2824ZM96.3824 13.1H95.3824V14.1H96.3824V13.1ZM87.3824 11.3V12.3H88.2824V11.3V10.3H87.3824V11.3ZM88.2824 11.3H89.2824V8.6H88.2824H87.2824V11.3H88.2824ZM88.2824 8.6V9.6H89.1824V8.6V7.6H88.2824V8.6ZM89.1824 8.6H90.1824V5.9H89.1824H88.1824V8.6H89.1824ZM89.1824 5.9V4.9H88.2824V5.9V6.9H89.1824V5.9ZM88.2824 5.9H89.2824V5H88.2824H87.2824V5.9H88.2824ZM88.2824 5V6H90.9824V5V4H88.2824V5ZM90.9824 5H89.9824V7.7H90.9824H91.9824V5H90.9824ZM90.9824 7.7V8.7H91.8824V7.7V6.7H90.9824V7.7ZM91.8824 7.7H90.8824V8.6H91.8824H92.8824V7.7H91.8824ZM91.8824 8.6V7.6H90.9824V8.6V9.6H91.8824V8.6ZM90.9824 8.6H89.9824V9.5H90.9824H91.9824V8.6H90.9824ZM90.9824 9.5V8.5H90.0824V9.5V10.5H90.9824V9.5ZM90.0824 9.5H89.0824V11.3H90.0824H91.0824V9.5H90.0824ZM90.0824 11.3V10.3H89.1824V11.3V12.3H90.0824V11.3ZM89.1824 11.3H88.1824V14H89.1824H90.1824V11.3H89.1824ZM89.1824 14V13H87.3824V14V15H89.1824V14ZM87.3824 14H88.3824V11.3H87.3824H86.3824V14H87.3824ZM93.6824 11.3V12.3H94.5824V11.3V10.3H93.6824V11.3ZM94.5824 11.3H95.5824V8.6H94.5824H93.5824V11.3H94.5824ZM94.5824 8.6V9.6H95.4824V8.6V7.6H94.5824V8.6ZM95.4824 8.6H96.4824V6.8H95.4824H94.4824V8.6H95.4824ZM95.4824 6.8V5.8H94.5824V6.8V7.8H95.4824V6.8ZM94.5824 6.8H95.5824V5.9H94.5824H93.5824V6.8H94.5824ZM94.5824 5.9V4.9H93.6824V5.9V6.9H94.5824V5.9ZM93.6824 5.9H94.6824V5H93.6824H92.6824V5.9H93.6824ZM93.6824 5V6H96.3824V5V4H93.6824V5ZM96.3824 5H95.3824V5.9H96.3824H97.3824V5H96.3824ZM96.3824 5.9V6.9H97.2824V5.9V4.9H96.3824V5.9ZM97.2824 5.9H96.2824V8.6H97.2824H98.2824V5.9H97.2824ZM97.2824 8.6V7.6H96.3824V8.6V9.6H97.2824V8.6ZM96.3824 8.6H95.3824V11.3H96.3824H97.3824V8.6H96.3824ZM96.3824 11.3V10.3H95.4824V11.3V12.3H96.3824V11.3ZM95.4824 11.3H94.4824V13.1H95.4824H96.4824V11.3H95.4824ZM95.4824 13.1V14.1H96.3824V13.1V12.1H95.4824V13.1ZM96.3824 13.1H95.3824V14H96.3824H97.3824V13.1H96.3824ZM96.3824 14V13H93.6824V14V15H96.3824V14ZM93.6824 14H94.6824V11.3H93.6824H92.6824V14H93.6824ZM92.7824 5.9V6.9H93.6824V5.9V4.9H92.7824V5.9ZM93.6824 5.9H92.6824V6.8H93.6824H94.6824V5.9H93.6824ZM93.6824 6.8V5.8H92.7824V6.8V7.8H93.6824V6.8ZM92.7824 6.8H93.7824V5.9H92.7824H91.7824V6.8H92.7824ZM87.3824 5.9V6.9H88.2824V5.9V4.9H87.3824V5.9ZM88.2824 5.9H87.2824V6.8H88.2824H89.2824V5.9H88.2824ZM88.2824 6.8V5.8H87.3824V6.8V7.8H88.2824V6.8ZM87.3824 6.8H88.3824V5.9H87.3824H86.3824V6.8H87.3824ZM91.8824 6.8V7.8H92.7824V6.8V5.8H91.8824V6.8ZM92.7824 6.8H91.7824V7.7H92.7824H93.7824V6.8H92.7824ZM92.7824 7.7V6.7H91.8824V7.7V8.7H92.7824V7.7ZM91.8824 7.7H92.8824V6.8H91.8824H90.8824V7.7H91.8824ZM96.3824 12.2V13.2H97.2824V12.2V11.2H96.3824V12.2ZM97.2824 12.2H96.2824V13.1H97.2824H98.2824V12.2H97.2824ZM97.2824 13.1V12.1H96.3824V13.1V14.1H97.2824V13.1ZM96.3824 13.1H97.3824V12.2H96.3824H95.3824V13.1H96.3824ZM101.789 13.1V12.1H100.789V13.1H101.789ZM102.689 13.1V14.1H103.689V13.1H102.689ZM102.689 12.2V11.2H101.689V12.2H102.689ZM103.589 12.2V13.2H104.589V12.2H103.589ZM103.589 11.3V10.3H102.589V11.3H103.589ZM104.489 11.3V12.3H105.489V11.3H104.489ZM104.489 10.4V9.4H103.489V10.4H104.489ZM105.389 10.4V11.4H106.389V10.4H105.389ZM105.389 9.5V8.5H104.389V9.5H105.389ZM106.289 9.5V10.5H107.289V9.5H106.289ZM106.289 8.6V7.6H105.289V8.6H106.289ZM107.189 8.6V9.6H108.189V8.6H107.189ZM107.189 7.7V6.7H106.189V7.7H107.189ZM108.089 7.7V8.7H109.089V7.7H108.089ZM108.089 6.8V5.8H107.089V6.8H108.089ZM108.989 6.8V7.8H109.989V6.8H108.989ZM108.989 5.9V4.9H107.989V5.9H108.989ZM109.889 5.9V6.9H110.889V5.9H109.889ZM109.889 5V4H108.889V5H109.889ZM110.789 5V6H111.789V5H110.789ZM110.789 4.1V3.1H109.789V4.1H110.789ZM111.689 4.1V5.1H112.689V4.1H111.689ZM111.689 3.2V2.2H110.689V3.2H111.689ZM112.589 3.2V4.2H113.589V3.2H112.589ZM112.589 2.3H113.589V1.3H112.589V2.3ZM106.289 2.3V1.3H105.289V2.3H106.289ZM106.289 3.2V4.2H107.289V3.2H106.289ZM105.389 3.2H104.389V4.2H105.389V3.2ZM105.389 1.4V0.399999H104.389V1.4H105.389ZM115.289 1.4H116.289V0.399999H115.289V1.4ZM115.289 2.3V3.3H116.289V2.3H115.289ZM114.389 2.3V1.3H113.389V2.3H114.389ZM114.389 3.2V4.2H115.389V3.2H114.389ZM113.489 3.2V2.2H112.489V3.2H113.489ZM113.489 4.1V5.1H114.489V4.1H113.489ZM112.589 4.1V3.1H111.589V4.1H112.589ZM112.589 5V6H113.589V5H112.589ZM111.689 5V4H110.689V5H111.689ZM111.689 5.9V6.9H112.689V5.9H111.689ZM110.789 5.9V4.9H109.789V5.9H110.789ZM110.789 6.8V7.8H111.789V6.8H110.789ZM109.889 6.8V5.8H108.889V6.8H109.889ZM109.889 7.7V8.7H110.889V7.7H109.889ZM108.989 7.7V6.7H107.989V7.7H108.989ZM108.989 8.6V9.6H109.989V8.6H108.989ZM108.089 8.6V7.6H107.089V8.6H108.089ZM108.089 9.5V10.5H109.089V9.5H108.089ZM107.189 9.5V8.5H106.189V9.5H107.189ZM107.189 10.4V11.4H108.189V10.4H107.189ZM106.289 10.4V9.4H105.289V10.4H106.289ZM106.289 11.3V12.3H107.289V11.3H106.289ZM105.389 11.3V10.3H104.389V11.3H105.389ZM105.389 12.2V13.2H106.389V12.2H105.389ZM104.489 12.2V11.2H103.489V12.2H104.489ZM104.489 13.1H103.489V14.1H104.489V13.1ZM110.789 13.1V14.1H111.789V13.1H110.789ZM110.789 12.2V11.2H109.789V12.2H110.789ZM111.689 12.2H112.689V11.2H111.689V12.2ZM111.689 13.1H110.689V14.1H111.689V13.1ZM112.589 13.1H113.589V12.1H112.589V13.1ZM112.589 14V15H113.589V14H112.589ZM101.789 14H100.789V15H101.789V14ZM104.489 3.2V2.2H103.489V3.2H104.489ZM105.389 3.2H106.389V2.2H105.389V3.2ZM105.389 4.1V5.1H106.389V4.1H105.389ZM104.489 4.1H103.489V5.1H104.489V4.1ZM111.689 11.3V10.3H110.689V11.3H111.689ZM112.589 11.3H113.589V10.3H112.589V11.3ZM112.589 12.2V13.2H113.589V12.2H112.589ZM111.689 12.2H110.689V13.2H111.689V12.2ZM101.789 13.1V14.1H102.689V13.1V12.1H101.789V13.1ZM102.689 13.1H103.689V12.2H102.689H101.689V13.1H102.689ZM102.689 12.2V13.2H103.589V12.2V11.2H102.689V12.2ZM103.589 12.2H104.589V11.3H103.589H102.589V12.2H103.589ZM103.589 11.3V12.3H104.489V11.3V10.3H103.589V11.3ZM104.489 11.3H105.489V10.4H104.489H103.489V11.3H104.489ZM104.489 10.4V11.4H105.389V10.4V9.4H104.489V10.4ZM105.389 10.4H106.389V9.5H105.389H104.389V10.4H105.389ZM105.389 9.5V10.5H106.289V9.5V8.5H105.389V9.5ZM106.289 9.5H107.289V8.6H106.289H105.289V9.5H106.289ZM106.289 8.6V9.6H107.189V8.6V7.6H106.289V8.6ZM107.189 8.6H108.189V7.7H107.189H106.189V8.6H107.189ZM107.189 7.7V8.7H108.089V7.7V6.7H107.189V7.7ZM108.089 7.7H109.089V6.8H108.089H107.089V7.7H108.089ZM108.089 6.8V7.8H108.989V6.8V5.8H108.089V6.8ZM108.989 6.8H109.989V5.9H108.989H107.989V6.8H108.989ZM108.989 5.9V6.9H109.889V5.9V4.9H108.989V5.9ZM109.889 5.9H110.889V5H109.889H108.889V5.9H109.889ZM109.889 5V6H110.789V5V4H109.889V5ZM110.789 5H111.789V4.1H110.789H109.789V5H110.789ZM110.789 4.1V5.1H111.689V4.1V3.1H110.789V4.1ZM111.689 4.1H112.689V3.2H111.689H110.689V4.1H111.689ZM111.689 3.2V4.2H112.589V3.2V2.2H111.689V3.2ZM112.589 3.2H113.589V2.3H112.589H111.589V3.2H112.589ZM112.589 2.3V1.3H106.289V2.3V3.3H112.589V2.3ZM106.289 2.3H105.289V3.2H106.289H107.289V2.3H106.289ZM106.289 3.2V2.2H105.389V3.2V4.2H106.289V3.2ZM105.389 3.2H106.389V1.4H105.389H104.389V3.2H105.389ZM105.389 1.4V2.4H115.289V1.4V0.399999H105.389V1.4ZM115.289 1.4H114.289V2.3H115.289H116.289V1.4H115.289ZM115.289 2.3V1.3H114.389V2.3V3.3H115.289V2.3ZM114.389 2.3H113.389V3.2H114.389H115.389V2.3H114.389ZM114.389 3.2V2.2H113.489V3.2V4.2H114.389V3.2ZM113.489 3.2H112.489V4.1H113.489H114.489V3.2H113.489ZM113.489 4.1V3.1H112.589V4.1V5.1H113.489V4.1ZM112.589 4.1H111.589V5H112.589H113.589V4.1H112.589ZM112.589 5V4H111.689V5V6H112.589V5ZM111.689 5H110.689V5.9H111.689H112.689V5H111.689ZM111.689 5.9V4.9H110.789V5.9V6.9H111.689V5.9ZM110.789 5.9H109.789V6.8H110.789H111.789V5.9H110.789ZM110.789 6.8V5.8H109.889V6.8V7.8H110.789V6.8ZM109.889 6.8H108.889V7.7H109.889H110.889V6.8H109.889ZM109.889 7.7V6.7H108.989V7.7V8.7H109.889V7.7ZM108.989 7.7H107.989V8.6H108.989H109.989V7.7H108.989ZM108.989 8.6V7.6H108.089V8.6V9.6H108.989V8.6ZM108.089 8.6H107.089V9.5H108.089H109.089V8.6H108.089ZM108.089 9.5V8.5H107.189V9.5V10.5H108.089V9.5ZM107.189 9.5H106.189V10.4H107.189H108.189V9.5H107.189ZM107.189 10.4V9.4H106.289V10.4V11.4H107.189V10.4ZM106.289 10.4H105.289V11.3H106.289H107.289V10.4H106.289ZM106.289 11.3V10.3H105.389V11.3V12.3H106.289V11.3ZM105.389 11.3H104.389V12.2H105.389H106.389V11.3H105.389ZM105.389 12.2V11.2H104.489V12.2V13.2H105.389V12.2ZM104.489 12.2H103.489V13.1H104.489H105.489V12.2H104.489ZM104.489 13.1V14.1H110.789V13.1V12.1H104.489V13.1ZM110.789 13.1H111.789V12.2H110.789H109.789V13.1H110.789ZM110.789 12.2V13.2H111.689V12.2V11.2H110.789V12.2ZM111.689 12.2H110.689V13.1H111.689H112.689V12.2H111.689ZM111.689 13.1V14.1H112.589V13.1V12.1H111.689V13.1ZM112.589 13.1H111.589V14H112.589H113.589V13.1H112.589ZM112.589 14V13H101.789V14V15H112.589V14ZM101.789 14H102.789V13.1H101.789H100.789V14H101.789ZM104.489 3.2V4.2H105.389V3.2V2.2H104.489V3.2ZM105.389 3.2H104.389V4.1H105.389H106.389V3.2H105.389ZM105.389 4.1V3.1H104.489V4.1V5.1H105.389V4.1ZM104.489 4.1H105.489V3.2H104.489H103.489V4.1H104.489ZM111.689 11.3V12.3H112.589V11.3V10.3H111.689V11.3ZM112.589 11.3H111.589V12.2H112.589H113.589V11.3H112.589ZM112.589 12.2V11.2H111.689V12.2V13.2H112.589V12.2ZM111.689 12.2H112.689V11.3H111.689H110.689V12.2H111.689ZM1.9 31.1V30.1H0.9V31.1H1.9ZM2.8 31.1V32.1H3.8V31.1H2.8ZM2.8 29.3V28.3H1.8V29.3H2.8ZM3.7 29.3V30.3H4.7V29.3H3.7ZM3.7 25.7V24.7H2.7V25.7H3.7ZM4.6 25.7V26.7H5.6V25.7H4.6ZM4.6 23V22H3.6V23H4.6ZM5.5 23V24H6.5V23H5.5ZM5.5 20.3H6.5V19.3H5.5V20.3ZM4.6 20.3H3.6V21.3H4.6V20.3ZM4.6 19.4V18.4H3.6V19.4H4.6ZM12.7 19.4H13.7V18.4H12.7V19.4ZM12.7 20.3H11.7V21.3H12.7V20.3ZM13.6 20.3H14.6V19.3H13.6V20.3ZM13.6 23.9V24.9H14.6V23.9H13.6ZM12.7 23.9V22.9H11.7V23.9H12.7ZM12.7 24.8V25.8H13.7V24.8H12.7ZM11.8 24.8V23.8H10.8V24.8H11.8ZM11.8 25.7V26.7H12.8V25.7H11.8ZM10.9 25.7H9.9V26.7H10.9V25.7ZM10.9 23.9V22.9H9.9V23.9H10.9ZM11.8 23.9V24.9H12.8V23.9H11.8ZM11.8 21.2H12.8V20.2H11.8V21.2ZM10.9 21.2H9.9V22.2H10.9V21.2ZM10.9 20.3H11.9V19.3H10.9V20.3ZM7.3 20.3V19.3H6.3V20.3H7.3ZM7.3 23V24H8.3V23H7.3ZM6.4 23V22H5.4V23H6.4ZM6.4 25.7V26.7H7.4V25.7H6.4ZM5.5 25.7V24.7H4.5V25.7H5.5ZM5.5 26.6H4.5V27.6H5.5V26.6ZM8.2 26.6H9.2V25.6H8.2V26.6ZM8.2 27.5H7.2V28.5H8.2V27.5ZM9.1 27.5H10.1V26.5H9.1V27.5ZM9.1 28.4H8.1V29.4H9.1V28.4ZM10 28.4H11V27.4H10V28.4ZM10 29.3H9V30.3H10V29.3ZM10.9 29.3H11.9V28.3H10.9V29.3ZM10.9 30.2H9.9V31.2H10.9V30.2ZM11.8 30.2H12.8V29.2H11.8V30.2ZM11.8 31.1H10.8V32.1H11.8V31.1ZM12.7 31.1H13.7V30.1H12.7V31.1ZM12.7 32V33H13.7V32H12.7ZM10 32H9V33H10V32ZM10 31.1H11V30.1H10V31.1ZM9.1 31.1H8.1V32.1H9.1V31.1ZM9.1 30.2H10.1V29.2H9.1V30.2ZM8.2 30.2H7.2V31.2H8.2V30.2ZM8.2 29.3H9.2V28.3H8.2V29.3ZM7.3 29.3H6.3V30.3H7.3V29.3ZM7.3 28.4H8.3V27.4H7.3V28.4ZM6.4 28.4H5.4V29.4H6.4V28.4ZM6.4 27.5H7.4V26.5H6.4V27.5ZM5.5 27.5V26.5H4.5V27.5H5.5ZM5.5 29.3V30.3H6.5V29.3H5.5ZM4.6 29.3V28.3H3.6V29.3H4.6ZM4.6 31.1H3.6V32.1H4.6V31.1ZM5.5 31.1H6.5V30.1H5.5V31.1ZM5.5 32V33H6.5V32H5.5ZM1.9 32H0.9V33H1.9V32ZM8.2 25.7V24.7H7.2V25.7H8.2ZM10.9 25.7H11.9V24.7H10.9V25.7ZM10.9 26.6V27.6H11.9V26.6H10.9ZM8.2 26.6H7.2V27.6H8.2V26.6ZM1.9 31.1V32.1H2.8V31.1V30.1H1.9V31.1ZM2.8 31.1H3.8V29.3H2.8H1.8V31.1H2.8ZM2.8 29.3V30.3H3.7V29.3V28.3H2.8V29.3ZM3.7 29.3H4.7V25.7H3.7H2.7V29.3H3.7ZM3.7 25.7V26.7H4.6V25.7V24.7H3.7V25.7ZM4.6 25.7H5.6V23H4.6H3.6V25.7H4.6ZM4.6 23V24H5.5V23V22H4.6V23ZM5.5 23H6.5V20.3H5.5H4.5V23H5.5ZM5.5 20.3V19.3H4.6V20.3V21.3H5.5V20.3ZM4.6 20.3H5.6V19.4H4.6H3.6V20.3H4.6ZM4.6 19.4V20.4H12.7V19.4V18.4H4.6V19.4ZM12.7 19.4H11.7V20.3H12.7H13.7V19.4H12.7ZM12.7 20.3V21.3H13.6V20.3V19.3H12.7V20.3ZM13.6 20.3H12.6V23.9H13.6H14.6V20.3H13.6ZM13.6 23.9V22.9H12.7V23.9V24.9H13.6V23.9ZM12.7 23.9H11.7V24.8H12.7H13.7V23.9H12.7ZM12.7 24.8V23.8H11.8V24.8V25.8H12.7V24.8ZM11.8 24.8H10.8V25.7H11.8H12.8V24.8H11.8ZM11.8 25.7V24.7H10.9V25.7V26.7H11.8V25.7ZM10.9 25.7H11.9V23.9H10.9H9.9V25.7H10.9ZM10.9 23.9V24.9H11.8V23.9V22.9H10.9V23.9ZM11.8 23.9H12.8V21.2H11.8H10.8V23.9H11.8ZM11.8 21.2V20.2H10.9V21.2V22.2H11.8V21.2ZM10.9 21.2H11.9V20.3H10.9H9.9V21.2H10.9ZM10.9 20.3V19.3H7.3V20.3V21.3H10.9V20.3ZM7.3 20.3H6.3V23H7.3H8.3V20.3H7.3ZM7.3 23V22H6.4V23V24H7.3V23ZM6.4 23H5.4V25.7H6.4H7.4V23H6.4ZM6.4 25.7V24.7H5.5V25.7V26.7H6.4V25.7ZM5.5 25.7H4.5V26.6H5.5H6.5V25.7H5.5ZM5.5 26.6V27.6H8.2V26.6V25.6H5.5V26.6ZM8.2 26.6H7.2V27.5H8.2H9.2V26.6H8.2ZM8.2 27.5V28.5H9.1V27.5V26.5H8.2V27.5ZM9.1 27.5H8.1V28.4H9.1H10.1V27.5H9.1ZM9.1 28.4V29.4H10V28.4V27.4H9.1V28.4ZM10 28.4H9V29.3H10H11V28.4H10ZM10 29.3V30.3H10.9V29.3V28.3H10V29.3ZM10.9 29.3H9.9V30.2H10.9H11.9V29.3H10.9ZM10.9 30.2V31.2H11.8V30.2V29.2H10.9V30.2ZM11.8 30.2H10.8V31.1H11.8H12.8V30.2H11.8ZM11.8 31.1V32.1H12.7V31.1V30.1H11.8V31.1ZM12.7 31.1H11.7V32H12.7H13.7V31.1H12.7ZM12.7 32V31H10V32V33H12.7V32ZM10 32H11V31.1H10H9V32H10ZM10 31.1V30.1H9.1V31.1V32.1H10V31.1ZM9.1 31.1H10.1V30.2H9.1H8.1V31.1H9.1ZM9.1 30.2V29.2H8.2V30.2V31.2H9.1V30.2ZM8.2 30.2H9.2V29.3H8.2H7.2V30.2H8.2ZM8.2 29.3V28.3H7.3V29.3V30.3H8.2V29.3ZM7.3 29.3H8.3V28.4H7.3H6.3V29.3H7.3ZM7.3 28.4V27.4H6.4V28.4V29.4H7.3V28.4ZM6.4 28.4H7.4V27.5H6.4H5.4V28.4H6.4ZM6.4 27.5V26.5H5.5V27.5V28.5H6.4V27.5ZM5.5 27.5H4.5V29.3H5.5H6.5V27.5H5.5ZM5.5 29.3V28.3H4.6V29.3V30.3H5.5V29.3ZM4.6 29.3H3.6V31.1H4.6H5.6V29.3H4.6ZM4.6 31.1V32.1H5.5V31.1V30.1H4.6V31.1ZM5.5 31.1H4.5V32H5.5H6.5V31.1H5.5ZM5.5 32V31H1.9V32V33H5.5V32ZM1.9 32H2.9V31.1H1.9H0.9V32H1.9ZM8.2 25.7V26.7H10.9V25.7V24.7H8.2V25.7ZM10.9 25.7H9.9V26.6H10.9H11.9V25.7H10.9ZM10.9 26.6V25.6H8.2V26.6V27.6H10.9V26.6ZM8.2 26.6H9.2V25.7H8.2H7.2V26.6H8.2ZM19 32V33H20V32H19ZM16.3 32H15.3V33H16.3V32ZM16.3 31.1H17.3V30.1H16.3V31.1ZM15.4 31.1H14.4V32.1H15.4V31.1ZM15.4 28.4V27.4H14.4V28.4H15.4ZM16.3 28.4V29.4H17.3V28.4H16.3ZM16.3 25.7V24.7H15.3V25.7H16.3ZM17.2 25.7V26.7H18.2V25.7H17.2ZM17.2 23.9H18.2V22.9H17.2V23.9ZM16.3 23.9H15.3V24.9H16.3V23.9ZM16.3 23V22H15.3V23H16.3ZM19 23H20V22H19V23ZM19 25.7V26.7H20V25.7H19ZM18.1 25.7V24.7H17.1V25.7H18.1ZM18.1 28.4V29.4H19.1V28.4H18.1ZM17.2 28.4V27.4H16.2V28.4H17.2ZM17.2 30.2H16.2V31.2H17.2V30.2ZM18.1 30.2H19.1V29.2H18.1V30.2ZM18.1 31.1H17.1V32.1H18.1V31.1ZM19 31.1H20V30.1H19V31.1ZM21.7 29.3H22.7V28.3H21.7V29.3ZM20.8 29.3H19.8V30.3H20.8V29.3ZM20.8 28.4V27.4H19.8V28.4H20.8ZM21.7 28.4V29.4H22.7V28.4H21.7ZM21.7 27.5V26.5H20.7V27.5H21.7ZM22.6 27.5V28.5H23.6V27.5H22.6ZM22.6 25.7V24.7H21.6V25.7H22.6ZM23.5 25.7V26.7H24.5V25.7H23.5ZM23.5 23V22H22.5V23H23.5ZM25.3 23H26.3V22H25.3V23ZM25.3 25.7V26.7H26.3V25.7H25.3ZM24.4 25.7V24.7H23.4V25.7H24.4ZM24.4 28.4V29.4H25.4V28.4H24.4ZM23.5 28.4V27.4H22.5V28.4H23.5ZM23.5 31.1H22.5V32.1H23.5V31.1ZM24.4 31.1H25.4V30.1H24.4V31.1ZM24.4 32V33H25.4V32H24.4ZM21.7 32H20.7V33H21.7V32ZM16.3 24.8V25.8H17.3V24.8H16.3ZM15.4 24.8H14.4V25.8H15.4V24.8ZM15.4 23.9V22.9H14.4V23.9H15.4ZM16.3 23.9H17.3V22.9H16.3V23.9ZM20.8 30.2V31.2H21.8V30.2H20.8ZM19.9 30.2H18.9V31.2H19.9V30.2ZM19.9 29.3V28.3H18.9V29.3H19.9ZM20.8 29.3H21.8V28.3H20.8V29.3ZM19.9 31.1V32.1H20.9V31.1H19.9ZM19 31.1H18V32.1H19V31.1ZM19 30.2V29.2H18V30.2H19ZM19.9 30.2H20.9V29.2H19.9V30.2ZM25.3 31.1V32.1H26.3V31.1H25.3ZM24.4 31.1H23.4V32.1H24.4V31.1ZM24.4 30.2V29.2H23.4V30.2H24.4ZM25.3 30.2H26.3V29.2H25.3V30.2ZM19 32V31H16.3V32V33H19V32ZM16.3 32H17.3V31.1H16.3H15.3V32H16.3ZM16.3 31.1V30.1H15.4V31.1V32.1H16.3V31.1ZM15.4 31.1H16.4V28.4H15.4H14.4V31.1H15.4ZM15.4 28.4V29.4H16.3V28.4V27.4H15.4V28.4ZM16.3 28.4H17.3V25.7H16.3H15.3V28.4H16.3ZM16.3 25.7V26.7H17.2V25.7V24.7H16.3V25.7ZM17.2 25.7H18.2V23.9H17.2H16.2V25.7H17.2ZM17.2 23.9V22.9H16.3V23.9V24.9H17.2V23.9ZM16.3 23.9H17.3V23H16.3H15.3V23.9H16.3ZM16.3 23V24H19V23V22H16.3V23ZM19 23H18V25.7H19H20V23H19ZM19 25.7V24.7H18.1V25.7V26.7H19V25.7ZM18.1 25.7H17.1V28.4H18.1H19.1V25.7H18.1ZM18.1 28.4V27.4H17.2V28.4V29.4H18.1V28.4ZM17.2 28.4H16.2V30.2H17.2H18.2V28.4H17.2ZM17.2 30.2V31.2H18.1V30.2V29.2H17.2V30.2ZM18.1 30.2H17.1V31.1H18.1H19.1V30.2H18.1ZM18.1 31.1V32.1H19V31.1V30.1H18.1V31.1ZM19 31.1H18V32H19H20V31.1H19ZM21.7 29.3V28.3H20.8V29.3V30.3H21.7V29.3ZM20.8 29.3H21.8V28.4H20.8H19.8V29.3H20.8ZM20.8 28.4V29.4H21.7V28.4V27.4H20.8V28.4ZM21.7 28.4H22.7V27.5H21.7H20.7V28.4H21.7ZM21.7 27.5V28.5H22.6V27.5V26.5H21.7V27.5ZM22.6 27.5H23.6V25.7H22.6H21.6V27.5H22.6ZM22.6 25.7V26.7H23.5V25.7V24.7H22.6V25.7ZM23.5 25.7H24.5V23H23.5H22.5V25.7H23.5ZM23.5 23V24H25.3V23V22H23.5V23ZM25.3 23H24.3V25.7H25.3H26.3V23H25.3ZM25.3 25.7V24.7H24.4V25.7V26.7H25.3V25.7ZM24.4 25.7H23.4V28.4H24.4H25.4V25.7H24.4ZM24.4 28.4V27.4H23.5V28.4V29.4H24.4V28.4ZM23.5 28.4H22.5V31.1H23.5H24.5V28.4H23.5ZM23.5 31.1V32.1H24.4V31.1V30.1H23.5V31.1ZM24.4 31.1H23.4V32H24.4H25.4V31.1H24.4ZM24.4 32V31H21.7V32V33H24.4V32ZM21.7 32H22.7V29.3H21.7H20.7V32H21.7ZM16.3 24.8V23.8H15.4V24.8V25.8H16.3V24.8ZM15.4 24.8H16.4V23.9H15.4H14.4V24.8H15.4ZM15.4 23.9V24.9H16.3V23.9V22.9H15.4V23.9ZM16.3 23.9H15.3V24.8H16.3H17.3V23.9H16.3ZM20.8 30.2V29.2H19.9V30.2V31.2H20.8V30.2ZM19.9 30.2H20.9V29.3H19.9H18.9V30.2H19.9ZM19.9 29.3V30.3H20.8V29.3V28.3H19.9V29.3ZM20.8 29.3H19.8V30.2H20.8H21.8V29.3H20.8ZM19.9 31.1V30.1H19V31.1V32.1H19.9V31.1ZM19 31.1H20V30.2H19H18V31.1H19ZM19 30.2V31.2H19.9V30.2V29.2H19V30.2ZM19.9 30.2H18.9V31.1H19.9H20.9V30.2H19.9ZM25.3 31.1V30.1H24.4V31.1V32.1H25.3V31.1ZM24.4 31.1H25.4V30.2H24.4H23.4V31.1H24.4ZM24.4 30.2V31.2H25.3V30.2V29.2H24.4V30.2ZM25.3 30.2H24.3V31.1H25.3H26.3V30.2H25.3ZM27.107 29.3V28.3H26.107V29.3H27.107ZM28.007 29.3V30.3H29.007V29.3H28.007ZM28.007 26.6V25.6H27.007V26.6H28.007ZM28.907 26.6V27.6H29.907V26.6H28.907ZM28.907 23.9H29.907V22.9H28.907V23.9ZM28.007 23.9H27.007V24.9H28.007V23.9ZM28.007 23V22H27.007V23H28.007ZM30.707 23H31.707V22H30.707V23ZM30.707 25.7H29.707V26.7H30.707V25.7ZM31.607 25.7H32.607V24.7H31.607V25.7ZM31.607 26.6V27.6H32.607V26.6H31.607ZM30.707 26.6V25.6H29.707V26.6H30.707ZM30.707 27.5V28.5H31.707V27.5H30.707ZM29.807 27.5V26.5H28.807V27.5H29.807ZM29.807 29.3V30.3H30.807V29.3H29.807ZM28.907 29.3V28.3H27.907V29.3H28.907ZM28.907 32V33H29.907V32H28.907ZM27.107 32H26.107V33H27.107V32ZM33.407 29.3V28.3H32.407V29.3H33.407ZM34.307 29.3V30.3H35.307V29.3H34.307ZM34.307 26.6V25.6H33.307V26.6H34.307ZM35.207 26.6V27.6H36.207V26.6H35.207ZM35.207 24.8H36.207V23.8H35.207V24.8ZM34.307 24.8H33.307V25.8H34.307V24.8ZM34.307 23.9H35.307V22.9H34.307V23.9ZM33.407 23.9H32.407V24.9H33.407V23.9ZM33.407 23V22H32.407V23H33.407ZM36.107 23H37.107V22H36.107V23ZM36.107 23.9H35.107V24.9H36.107V23.9ZM37.007 23.9H38.007V22.9H37.007V23.9ZM37.007 26.6V27.6H38.007V26.6H37.007ZM36.107 26.6V25.6H35.107V26.6H36.107ZM36.107 29.3V30.3H37.107V29.3H36.107ZM35.207 29.3V28.3H34.207V29.3H35.207ZM35.207 31.1H34.207V32.1H35.207V31.1ZM36.107 31.1H37.107V30.1H36.107V31.1ZM36.107 32V33H37.107V32H36.107ZM33.407 32H32.407V33H33.407V32ZM32.507 23.9V22.9H31.507V23.9H32.507ZM33.407 23.9H34.407V22.9H33.407V23.9ZM33.407 24.8V25.8H34.407V24.8H33.407ZM32.507 24.8H31.507V25.8H32.507V24.8ZM27.107 23.9V22.9H26.107V23.9H27.107ZM28.007 23.9H29.007V22.9H28.007V23.9ZM28.007 24.8V25.8H29.007V24.8H28.007ZM27.107 24.8H26.107V25.8H27.107V24.8ZM31.607 24.8V23.8H30.607V24.8H31.607ZM32.507 24.8H33.507V23.8H32.507V24.8ZM32.507 25.7V26.7H33.507V25.7H32.507ZM31.607 25.7H30.607V26.7H31.607V25.7ZM36.107 30.2V29.2H35.107V30.2H36.107ZM37.007 30.2H38.007V29.2H37.007V30.2ZM37.007 31.1V32.1H38.007V31.1H37.007ZM36.107 31.1H35.107V32.1H36.107V31.1ZM27.107 29.3V30.3H28.007V29.3V28.3H27.107V29.3ZM28.007 29.3H29.007V26.6H28.007H27.007V29.3H28.007ZM28.007 26.6V27.6H28.907V26.6V25.6H28.007V26.6ZM28.907 26.6H29.907V23.9H28.907H27.907V26.6H28.907ZM28.907 23.9V22.9H28.007V23.9V24.9H28.907V23.9ZM28.007 23.9H29.007V23H28.007H27.007V23.9H28.007ZM28.007 23V24H30.707V23V22H28.007V23ZM30.707 23H29.707V25.7H30.707H31.707V23H30.707ZM30.707 25.7V26.7H31.607V25.7V24.7H30.707V25.7ZM31.607 25.7H30.607V26.6H31.607H32.607V25.7H31.607ZM31.607 26.6V25.6H30.707V26.6V27.6H31.607V26.6ZM30.707 26.6H29.707V27.5H30.707H31.707V26.6H30.707ZM30.707 27.5V26.5H29.807V27.5V28.5H30.707V27.5ZM29.807 27.5H28.807V29.3H29.807H30.807V27.5H29.807ZM29.807 29.3V28.3H28.907V29.3V30.3H29.807V29.3ZM28.907 29.3H27.907V32H28.907H29.907V29.3H28.907ZM28.907 32V31H27.107V32V33H28.907V32ZM27.107 32H28.107V29.3H27.107H26.107V32H27.107ZM33.407 29.3V30.3H34.307V29.3V28.3H33.407V29.3ZM34.307 29.3H35.307V26.6H34.307H33.307V29.3H34.307ZM34.307 26.6V27.6H35.207V26.6V25.6H34.307V26.6ZM35.207 26.6H36.207V24.8H35.207H34.207V26.6H35.207ZM35.207 24.8V23.8H34.307V24.8V25.8H35.207V24.8ZM34.307 24.8H35.307V23.9H34.307H33.307V24.8H34.307ZM34.307 23.9V22.9H33.407V23.9V24.9H34.307V23.9ZM33.407 23.9H34.407V23H33.407H32.407V23.9H33.407ZM33.407 23V24H36.107V23V22H33.407V23ZM36.107 23H35.107V23.9H36.107H37.107V23H36.107ZM36.107 23.9V24.9H37.007V23.9V22.9H36.107V23.9ZM37.007 23.9H36.007V26.6H37.007H38.007V23.9H37.007ZM37.007 26.6V25.6H36.107V26.6V27.6H37.007V26.6ZM36.107 26.6H35.107V29.3H36.107H37.107V26.6H36.107ZM36.107 29.3V28.3H35.207V29.3V30.3H36.107V29.3ZM35.207 29.3H34.207V31.1H35.207H36.207V29.3H35.207ZM35.207 31.1V32.1H36.107V31.1V30.1H35.207V31.1ZM36.107 31.1H35.107V32H36.107H37.107V31.1H36.107ZM36.107 32V31H33.407V32V33H36.107V32ZM33.407 32H34.407V29.3H33.407H32.407V32H33.407ZM32.507 23.9V24.9H33.407V23.9V22.9H32.507V23.9ZM33.407 23.9H32.407V24.8H33.407H34.407V23.9H33.407ZM33.407 24.8V23.8H32.507V24.8V25.8H33.407V24.8ZM32.507 24.8H33.507V23.9H32.507H31.507V24.8H32.507ZM27.107 23.9V24.9H28.007V23.9V22.9H27.107V23.9ZM28.007 23.9H27.007V24.8H28.007H29.007V23.9H28.007ZM28.007 24.8V23.8H27.107V24.8V25.8H28.007V24.8ZM27.107 24.8H28.107V23.9H27.107H26.107V24.8H27.107ZM31.607 24.8V25.8H32.507V24.8V23.8H31.607V24.8ZM32.507 24.8H31.507V25.7H32.507H33.507V24.8H32.507ZM32.507 25.7V24.7H31.607V25.7V26.7H32.507V25.7ZM31.607 25.7H32.607V24.8H31.607H30.607V25.7H31.607ZM36.107 30.2V31.2H37.007V30.2V29.2H36.107V30.2ZM37.007 30.2H36.007V31.1H37.007H38.007V30.2H37.007ZM37.007 31.1V30.1H36.107V31.1V32.1H37.007V31.1ZM36.107 31.1H37.107V30.2H36.107H35.107V31.1H36.107ZM38.8141 29.3V28.3H37.8141V29.3H38.8141ZM39.7141 29.3V30.3H40.7141V29.3H39.7141ZM39.7141 26.6V25.6H38.7141V26.6H39.7141ZM40.6141 26.6V27.6H41.6141V26.6H40.6141ZM40.6141 23.9H41.6141V22.9H40.6141V23.9ZM39.7141 23.9H38.7141V24.9H39.7141V23.9ZM39.7141 23V22H38.7141V23H39.7141ZM42.4141 23H43.4141V22H42.4141V23ZM42.4141 25.7H41.4141V26.7H42.4141V25.7ZM43.3141 25.7H44.3141V24.7H43.3141V25.7ZM43.3141 26.6V27.6H44.3141V26.6H43.3141ZM42.4141 26.6V25.6H41.4141V26.6H42.4141ZM42.4141 27.5V28.5H43.4141V27.5H42.4141ZM41.5141 27.5V26.5H40.5141V27.5H41.5141ZM41.5141 29.3V30.3H42.5141V29.3H41.5141ZM40.6141 29.3V28.3H39.6141V29.3H40.6141ZM40.6141 32V33H41.6141V32H40.6141ZM38.8141 32H37.8141V33H38.8141V32ZM45.1141 29.3V28.3H44.1141V29.3H45.1141ZM46.0141 29.3V30.3H47.0141V29.3H46.0141ZM46.0141 26.6V25.6H45.0141V26.6H46.0141ZM46.9141 26.6V27.6H47.9141V26.6H46.9141ZM46.9141 24.8H47.9141V23.8H46.9141V24.8ZM46.0141 24.8H45.0141V25.8H46.0141V24.8ZM46.0141 23.9H47.0141V22.9H46.0141V23.9ZM45.1141 23.9H44.1141V24.9H45.1141V23.9ZM45.1141 23V22H44.1141V23H45.1141ZM47.8141 23H48.8141V22H47.8141V23ZM47.8141 23.9H46.8141V24.9H47.8141V23.9ZM48.7141 23.9H49.7141V22.9H48.7141V23.9ZM48.7141 26.6V27.6H49.7141V26.6H48.7141ZM47.8141 26.6V25.6H46.8141V26.6H47.8141ZM47.8141 29.3V30.3H48.8141V29.3H47.8141ZM46.9141 29.3V28.3H45.9141V29.3H46.9141ZM46.9141 31.1H45.9141V32.1H46.9141V31.1ZM47.8141 31.1H48.8141V30.1H47.8141V31.1ZM47.8141 32V33H48.8141V32H47.8141ZM45.1141 32H44.1141V33H45.1141V32ZM44.2141 23.9V22.9H43.2141V23.9H44.2141ZM45.1141 23.9H46.1141V22.9H45.1141V23.9ZM45.1141 24.8V25.8H46.1141V24.8H45.1141ZM44.2141 24.8H43.2141V25.8H44.2141V24.8ZM38.8141 23.9V22.9H37.8141V23.9H38.8141ZM39.7141 23.9H40.7141V22.9H39.7141V23.9ZM39.7141 24.8V25.8H40.7141V24.8H39.7141ZM38.8141 24.8H37.8141V25.8H38.8141V24.8ZM43.3141 24.8V23.8H42.3141V24.8H43.3141ZM44.2141 24.8H45.2141V23.8H44.2141V24.8ZM44.2141 25.7V26.7H45.2141V25.7H44.2141ZM43.3141 25.7H42.3141V26.7H43.3141V25.7ZM47.8141 30.2V29.2H46.8141V30.2H47.8141ZM48.7141 30.2H49.7141V29.2H48.7141V30.2ZM48.7141 31.1V32.1H49.7141V31.1H48.7141ZM47.8141 31.1H46.8141V32.1H47.8141V31.1ZM38.8141 29.3V30.3H39.7141V29.3V28.3H38.8141V29.3ZM39.7141 29.3H40.7141V26.6H39.7141H38.7141V29.3H39.7141ZM39.7141 26.6V27.6H40.6141V26.6V25.6H39.7141V26.6ZM40.6141 26.6H41.6141V23.9H40.6141H39.6141V26.6H40.6141ZM40.6141 23.9V22.9H39.7141V23.9V24.9H40.6141V23.9ZM39.7141 23.9H40.7141V23H39.7141H38.7141V23.9H39.7141ZM39.7141 23V24H42.4141V23V22H39.7141V23ZM42.4141 23H41.4141V25.7H42.4141H43.4141V23H42.4141ZM42.4141 25.7V26.7H43.3141V25.7V24.7H42.4141V25.7ZM43.3141 25.7H42.3141V26.6H43.3141H44.3141V25.7H43.3141ZM43.3141 26.6V25.6H42.4141V26.6V27.6H43.3141V26.6ZM42.4141 26.6H41.4141V27.5H42.4141H43.4141V26.6H42.4141ZM42.4141 27.5V26.5H41.5141V27.5V28.5H42.4141V27.5ZM41.5141 27.5H40.5141V29.3H41.5141H42.5141V27.5H41.5141ZM41.5141 29.3V28.3H40.6141V29.3V30.3H41.5141V29.3ZM40.6141 29.3H39.6141V32H40.6141H41.6141V29.3H40.6141ZM40.6141 32V31H38.8141V32V33H40.6141V32ZM38.8141 32H39.8141V29.3H38.8141H37.8141V32H38.8141ZM45.1141 29.3V30.3H46.0141V29.3V28.3H45.1141V29.3ZM46.0141 29.3H47.0141V26.6H46.0141H45.0141V29.3H46.0141ZM46.0141 26.6V27.6H46.9141V26.6V25.6H46.0141V26.6ZM46.9141 26.6H47.9141V24.8H46.9141H45.9141V26.6H46.9141ZM46.9141 24.8V23.8H46.0141V24.8V25.8H46.9141V24.8ZM46.0141 24.8H47.0141V23.9H46.0141H45.0141V24.8H46.0141ZM46.0141 23.9V22.9H45.1141V23.9V24.9H46.0141V23.9ZM45.1141 23.9H46.1141V23H45.1141H44.1141V23.9H45.1141ZM45.1141 23V24H47.8141V23V22H45.1141V23ZM47.8141 23H46.8141V23.9H47.8141H48.8141V23H47.8141ZM47.8141 23.9V24.9H48.7141V23.9V22.9H47.8141V23.9ZM48.7141 23.9H47.7141V26.6H48.7141H49.7141V23.9H48.7141ZM48.7141 26.6V25.6H47.8141V26.6V27.6H48.7141V26.6ZM47.8141 26.6H46.8141V29.3H47.8141H48.8141V26.6H47.8141ZM47.8141 29.3V28.3H46.9141V29.3V30.3H47.8141V29.3ZM46.9141 29.3H45.9141V31.1H46.9141H47.9141V29.3H46.9141ZM46.9141 31.1V32.1H47.8141V31.1V30.1H46.9141V31.1ZM47.8141 31.1H46.8141V32H47.8141H48.8141V31.1H47.8141ZM47.8141 32V31H45.1141V32V33H47.8141V32ZM45.1141 32H46.1141V29.3H45.1141H44.1141V32H45.1141ZM44.2141 23.9V24.9H45.1141V23.9V22.9H44.2141V23.9ZM45.1141 23.9H44.1141V24.8H45.1141H46.1141V23.9H45.1141ZM45.1141 24.8V23.8H44.2141V24.8V25.8H45.1141V24.8ZM44.2141 24.8H45.2141V23.9H44.2141H43.2141V24.8H44.2141ZM38.8141 23.9V24.9H39.7141V23.9V22.9H38.8141V23.9ZM39.7141 23.9H38.7141V24.8H39.7141H40.7141V23.9H39.7141ZM39.7141 24.8V23.8H38.8141V24.8V25.8H39.7141V24.8ZM38.8141 24.8H39.8141V23.9H38.8141H37.8141V24.8H38.8141ZM43.3141 24.8V25.8H44.2141V24.8V23.8H43.3141V24.8ZM44.2141 24.8H43.2141V25.7H44.2141H45.2141V24.8H44.2141ZM44.2141 25.7V24.7H43.3141V25.7V26.7H44.2141V25.7ZM43.3141 25.7H44.3141V24.8H43.3141H42.3141V25.7H43.3141ZM47.8141 30.2V31.2H48.7141V30.2V29.2H47.8141V30.2ZM48.7141 30.2H47.7141V31.1H48.7141H49.7141V30.2H48.7141ZM48.7141 31.1V30.1H47.8141V31.1V32.1H48.7141V31.1ZM47.8141 31.1H48.8141V30.2H47.8141H46.8141V31.1H47.8141ZM55.9211 26.6V25.6H54.9211V26.6H55.9211ZM56.8211 26.6V27.6H57.8211V26.6H56.8211ZM56.8211 23.9H57.8211V22.9H56.8211V23.9ZM54.1211 23.9H53.1211V24.9H54.1211V23.9ZM54.1211 23V22H53.1211V23H54.1211ZM57.7211 23H58.7211V22H57.7211V23ZM57.7211 23.9H56.7211V24.9H57.7211V23.9ZM58.6211 23.9H59.6211V22.9H58.6211V23.9ZM58.6211 26.6V27.6H59.6211V26.6H58.6211ZM57.7211 26.6V25.6H56.7211V26.6H57.7211ZM57.7211 27.5V28.5H58.7211V27.5H57.7211ZM55.9211 27.5H54.9211V28.5H55.9211V27.5ZM51.4211 30.2H52.4211V29.2H51.4211V30.2ZM50.5211 30.2H49.5211V31.2H50.5211V30.2ZM50.5211 26.6V25.6H49.5211V26.6H50.5211ZM51.4211 26.6V27.6H52.4211V26.6H51.4211ZM51.4211 24.8V23.8H50.4211V24.8H51.4211ZM52.3211 24.8V25.8H53.3211V24.8H52.3211ZM52.3211 23.9V22.9H51.3211V23.9H52.3211ZM54.1211 23.9H55.1211V22.9H54.1211V23.9ZM54.1211 24.8V25.8H55.1211V24.8H54.1211ZM53.2211 24.8V23.8H52.2211V24.8H53.2211ZM53.2211 26.6V27.6H54.2211V26.6H53.2211ZM52.3211 26.6V25.6H51.3211V26.6H52.3211ZM52.3211 28.4H51.3211V29.4H52.3211V28.4ZM54.1211 28.4H55.1211V27.4H54.1211V28.4ZM54.1211 29.3V30.3H55.1211V29.3H54.1211ZM52.3211 29.3V28.3H51.3211V29.3H52.3211ZM52.3211 30.2H51.3211V31.2H52.3211V30.2ZM53.2211 30.2H54.2211V29.2H53.2211V30.2ZM53.2211 31.1H52.2211V32.1H53.2211V31.1ZM55.9211 31.1H56.9211V30.1H55.9211V31.1ZM55.9211 32V33H56.9211V32H55.9211ZM52.3211 32H51.3211V33H52.3211V32ZM52.3211 31.1H53.3211V30.1H52.3211V31.1ZM51.4211 31.1H50.4211V32.1H51.4211V31.1ZM54.1211 27.5V26.5H53.1211V27.5H54.1211ZM55.9211 27.5H56.9211V26.5H55.9211V27.5ZM55.9211 28.4V29.4H56.9211V28.4H55.9211ZM54.1211 28.4H53.1211V29.4H54.1211V28.4ZM57.7211 29.3V28.3H56.7211V29.3H57.7211ZM58.6211 29.3H59.6211V28.3H58.6211V29.3ZM58.6211 30.2V31.2H59.6211V30.2H58.6211ZM57.7211 30.2H56.7211V31.2H57.7211V30.2ZM55.9211 30.2V29.2H54.9211V30.2H55.9211ZM57.7211 30.2H58.7211V29.2H57.7211V30.2ZM57.7211 31.1V32.1H58.7211V31.1H57.7211ZM55.9211 31.1H54.9211V32.1H55.9211V31.1ZM55.9211 26.6V27.6H56.8211V26.6V25.6H55.9211V26.6ZM56.8211 26.6H57.8211V23.9H56.8211H55.8211V26.6H56.8211ZM56.8211 23.9V22.9H54.1211V23.9V24.9H56.8211V23.9ZM54.1211 23.9H55.1211V23H54.1211H53.1211V23.9H54.1211ZM54.1211 23V24H57.7211V23V22H54.1211V23ZM57.7211 23H56.7211V23.9H57.7211H58.7211V23H57.7211ZM57.7211 23.9V24.9H58.6211V23.9V22.9H57.7211V23.9ZM58.6211 23.9H57.6211V26.6H58.6211H59.6211V23.9H58.6211ZM58.6211 26.6V25.6H57.7211V26.6V27.6H58.6211V26.6ZM57.7211 26.6H56.7211V27.5H57.7211H58.7211V26.6H57.7211ZM57.7211 27.5V26.5H55.9211V27.5V28.5H57.7211V27.5ZM55.9211 27.5H56.9211V26.6H55.9211H54.9211V27.5H55.9211ZM51.4211 30.2V29.2H50.5211V30.2V31.2H51.4211V30.2ZM50.5211 30.2H51.5211V26.6H50.5211H49.5211V30.2H50.5211ZM50.5211 26.6V27.6H51.4211V26.6V25.6H50.5211V26.6ZM51.4211 26.6H52.4211V24.8H51.4211H50.4211V26.6H51.4211ZM51.4211 24.8V25.8H52.3211V24.8V23.8H51.4211V24.8ZM52.3211 24.8H53.3211V23.9H52.3211H51.3211V24.8H52.3211ZM52.3211 23.9V24.9H54.1211V23.9V22.9H52.3211V23.9ZM54.1211 23.9H53.1211V24.8H54.1211H55.1211V23.9H54.1211ZM54.1211 24.8V23.8H53.2211V24.8V25.8H54.1211V24.8ZM53.2211 24.8H52.2211V26.6H53.2211H54.2211V24.8H53.2211ZM53.2211 26.6V25.6H52.3211V26.6V27.6H53.2211V26.6ZM52.3211 26.6H51.3211V28.4H52.3211H53.3211V26.6H52.3211ZM52.3211 28.4V29.4H54.1211V28.4V27.4H52.3211V28.4ZM54.1211 28.4H53.1211V29.3H54.1211H55.1211V28.4H54.1211ZM54.1211 29.3V28.3H52.3211V29.3V30.3H54.1211V29.3ZM52.3211 29.3H51.3211V30.2H52.3211H53.3211V29.3H52.3211ZM52.3211 30.2V31.2H53.2211V30.2V29.2H52.3211V30.2ZM53.2211 30.2H52.2211V31.1H53.2211H54.2211V30.2H53.2211ZM53.2211 31.1V32.1H55.9211V31.1V30.1H53.2211V31.1ZM55.9211 31.1H54.9211V32H55.9211H56.9211V31.1H55.9211ZM55.9211 32V31H52.3211V32V33H55.9211V32ZM52.3211 32H53.3211V31.1H52.3211H51.3211V32H52.3211ZM52.3211 31.1V30.1H51.4211V31.1V32.1H52.3211V31.1ZM51.4211 31.1H52.4211V30.2H51.4211H50.4211V31.1H51.4211ZM54.1211 27.5V28.5H55.9211V27.5V26.5H54.1211V27.5ZM55.9211 27.5H54.9211V28.4H55.9211H56.9211V27.5H55.9211ZM55.9211 28.4V27.4H54.1211V28.4V29.4H55.9211V28.4ZM54.1211 28.4H55.1211V27.5H54.1211H53.1211V28.4H54.1211ZM57.7211 29.3V30.3H58.6211V29.3V28.3H57.7211V29.3ZM58.6211 29.3H57.6211V30.2H58.6211H59.6211V29.3H58.6211ZM58.6211 30.2V29.2H57.7211V30.2V31.2H58.6211V30.2ZM57.7211 30.2H58.7211V29.3H57.7211H56.7211V30.2H57.7211ZM55.9211 30.2V31.2H57.7211V30.2V29.2H55.9211V30.2ZM57.7211 30.2H56.7211V31.1H57.7211H58.7211V30.2H57.7211ZM57.7211 31.1V30.1H55.9211V31.1V32.1H57.7211V31.1ZM55.9211 31.1H56.9211V30.2H55.9211H54.9211V31.1H55.9211ZM60.4176 29.3V28.3H59.4176V29.3H60.4176ZM61.3176 29.3V30.3H62.3176V29.3H61.3176ZM61.3176 26.6V25.6H60.3176V26.6H61.3176ZM62.2176 26.6V27.6H63.2176V26.6H62.2176ZM62.2176 23.9H63.2176V22.9H62.2176V23.9ZM61.3176 23.9H60.3176V24.9H61.3176V23.9ZM61.3176 23V22H60.3176V23H61.3176ZM64.0176 23H65.0176V22H64.0176V23ZM64.0176 24.8H63.0176V25.8H64.0176V24.8ZM64.9176 24.8H65.9176V23.8H64.9176V24.8ZM64.9176 25.7V26.7H65.9176V25.7H64.9176ZM64.0176 25.7V24.7H63.0176V25.7H64.0176ZM64.0176 27.5V28.5H65.0176V27.5H64.0176ZM63.1176 27.5V26.5H62.1176V27.5H63.1176ZM63.1176 29.3V30.3H64.1176V29.3H63.1176ZM62.2176 29.3V28.3H61.2176V29.3H62.2176ZM62.2176 32V33H63.2176V32H62.2176ZM60.4176 32H59.4176V33H60.4176V32ZM65.8176 23V22H64.8176V23H65.8176ZM67.6176 23H68.6176V22H67.6176V23ZM67.6176 23.9H66.6176V24.9H67.6176V23.9ZM68.5176 23.9H69.5176V22.9H68.5176V23.9ZM68.5176 25.7V26.7H69.5176V25.7H68.5176ZM66.7176 25.7H65.7176V26.7H66.7176V25.7ZM66.7176 23.9H67.7176V22.9H66.7176V23.9ZM65.8176 23.9H64.8176V24.9H65.8176V23.9ZM64.9176 23.9V22.9H63.9176V23.9H64.9176ZM65.8176 23.9H66.8176V22.9H65.8176V23.9ZM65.8176 24.8V25.8H66.8176V24.8H65.8176ZM64.9176 24.8H63.9176V25.8H64.9176V24.8ZM60.4176 23.9V22.9H59.4176V23.9H60.4176ZM61.3176 23.9H62.3176V22.9H61.3176V23.9ZM61.3176 24.8V25.8H62.3176V24.8H61.3176ZM60.4176 24.8H59.4176V25.8H60.4176V24.8ZM60.4176 29.3V30.3H61.3176V29.3V28.3H60.4176V29.3ZM61.3176 29.3H62.3176V26.6H61.3176H60.3176V29.3H61.3176ZM61.3176 26.6V27.6H62.2176V26.6V25.6H61.3176V26.6ZM62.2176 26.6H63.2176V23.9H62.2176H61.2176V26.6H62.2176ZM62.2176 23.9V22.9H61.3176V23.9V24.9H62.2176V23.9ZM61.3176 23.9H62.3176V23H61.3176H60.3176V23.9H61.3176ZM61.3176 23V24H64.0176V23V22H61.3176V23ZM64.0176 23H63.0176V24.8H64.0176H65.0176V23H64.0176ZM64.0176 24.8V25.8H64.9176V24.8V23.8H64.0176V24.8ZM64.9176 24.8H63.9176V25.7H64.9176H65.9176V24.8H64.9176ZM64.9176 25.7V24.7H64.0176V25.7V26.7H64.9176V25.7ZM64.0176 25.7H63.0176V27.5H64.0176H65.0176V25.7H64.0176ZM64.0176 27.5V26.5H63.1176V27.5V28.5H64.0176V27.5ZM63.1176 27.5H62.1176V29.3H63.1176H64.1176V27.5H63.1176ZM63.1176 29.3V28.3H62.2176V29.3V30.3H63.1176V29.3ZM62.2176 29.3H61.2176V32H62.2176H63.2176V29.3H62.2176ZM62.2176 32V31H60.4176V32V33H62.2176V32ZM60.4176 32H61.4176V29.3H60.4176H59.4176V32H60.4176ZM65.8176 23V24H67.6176V23V22H65.8176V23ZM67.6176 23H66.6176V23.9H67.6176H68.6176V23H67.6176ZM67.6176 23.9V24.9H68.5176V23.9V22.9H67.6176V23.9ZM68.5176 23.9H67.5176V25.7H68.5176H69.5176V23.9H68.5176ZM68.5176 25.7V24.7H66.7176V25.7V26.7H68.5176V25.7ZM66.7176 25.7H67.7176V23.9H66.7176H65.7176V25.7H66.7176ZM66.7176 23.9V22.9H65.8176V23.9V24.9H66.7176V23.9ZM65.8176 23.9H66.8176V23H65.8176H64.8176V23.9H65.8176ZM64.9176 23.9V24.9H65.8176V23.9V22.9H64.9176V23.9ZM65.8176 23.9H64.8176V24.8H65.8176H66.8176V23.9H65.8176ZM65.8176 24.8V23.8H64.9176V24.8V25.8H65.8176V24.8ZM64.9176 24.8H65.9176V23.9H64.9176H63.9176V24.8H64.9176ZM60.4176 23.9V24.9H61.3176V23.9V22.9H60.4176V23.9ZM61.3176 23.9H60.3176V24.8H61.3176H62.3176V23.9H61.3176ZM61.3176 24.8V23.8H60.4176V24.8V25.8H61.3176V24.8ZM60.4176 24.8H61.4176V23.9H60.4176H59.4176V24.8H60.4176ZM69.4176 31.1H70.4176V30.1H69.4176V31.1ZM68.5176 31.1H67.5176V32.1H68.5176V31.1ZM68.5176 29.3V28.3H67.5176V29.3H68.5176ZM70.3176 29.3H71.3176V28.3H70.3176V29.3ZM70.3176 31.1H69.3176V32.1H70.3176V31.1ZM73.0176 31.1V32.1H74.0176V31.1H73.0176ZM73.0176 29.3H74.0176V28.3H73.0176V29.3ZM72.1176 29.3H71.1176V30.3H72.1176V29.3ZM72.1176 27.5H73.1176V26.5H72.1176V27.5ZM71.2176 27.5H70.2176V28.5H71.2176V27.5ZM71.2176 25.7H72.2176V24.7H71.2176V25.7ZM70.3176 25.7H69.3176V26.7H70.3176V25.7ZM70.3176 23.9V22.9H69.3176V23.9H70.3176ZM71.2176 23.9V24.9H72.2176V23.9H71.2176ZM71.2176 23V22H70.2176V23H71.2176ZM75.7176 23H76.7176V22H75.7176V23ZM75.7176 23.9H74.7176V24.9H75.7176V23.9ZM76.6176 23.9H77.6176V22.9H76.6176V23.9ZM76.6176 25.7V26.7H77.6176V25.7H76.6176ZM74.8176 25.7H73.8176V26.7H74.8176V25.7ZM74.8176 23.9H75.8176V22.9H74.8176V23.9ZM72.1176 23.9V22.9H71.1176V23.9H72.1176ZM72.1176 25.7H71.1176V26.7H72.1176V25.7ZM73.0176 25.7H74.0176V24.7H73.0176V25.7ZM73.0176 27.5H72.0176V28.5H73.0176V27.5ZM73.9176 27.5H74.9176V26.5H73.9176V27.5ZM73.9176 29.3H72.9176V30.3H73.9176V29.3ZM74.8176 29.3H75.8176V28.3H74.8176V29.3ZM74.8176 31.1V32.1H75.8176V31.1H74.8176ZM73.9176 31.1V30.1H72.9176V31.1H73.9176ZM73.9176 32V33H74.9176V32H73.9176ZM69.4176 32H68.4176V33H69.4176V32ZM69.4176 31.1V30.1H68.5176V31.1V32.1H69.4176V31.1ZM68.5176 31.1H69.5176V29.3H68.5176H67.5176V31.1H68.5176ZM68.5176 29.3V30.3H70.3176V29.3V28.3H68.5176V29.3ZM70.3176 29.3H69.3176V31.1H70.3176H71.3176V29.3H70.3176ZM70.3176 31.1V32.1H73.0176V31.1V30.1H70.3176V31.1ZM73.0176 31.1H74.0176V29.3H73.0176H72.0176V31.1H73.0176ZM73.0176 29.3V28.3H72.1176V29.3V30.3H73.0176V29.3ZM72.1176 29.3H73.1176V27.5H72.1176H71.1176V29.3H72.1176ZM72.1176 27.5V26.5H71.2176V27.5V28.5H72.1176V27.5ZM71.2176 27.5H72.2176V25.7H71.2176H70.2176V27.5H71.2176ZM71.2176 25.7V24.7H70.3176V25.7V26.7H71.2176V25.7ZM70.3176 25.7H71.3176V23.9H70.3176H69.3176V25.7H70.3176ZM70.3176 23.9V24.9H71.2176V23.9V22.9H70.3176V23.9ZM71.2176 23.9H72.2176V23H71.2176H70.2176V23.9H71.2176ZM71.2176 23V24H75.7176V23V22H71.2176V23ZM75.7176 23H74.7176V23.9H75.7176H76.7176V23H75.7176ZM75.7176 23.9V24.9H76.6176V23.9V22.9H75.7176V23.9ZM76.6176 23.9H75.6176V25.7H76.6176H77.6176V23.9H76.6176ZM76.6176 25.7V24.7H74.8176V25.7V26.7H76.6176V25.7ZM74.8176 25.7H75.8176V23.9H74.8176H73.8176V25.7H74.8176ZM74.8176 23.9V22.9H72.1176V23.9V24.9H74.8176V23.9ZM72.1176 23.9H71.1176V25.7H72.1176H73.1176V23.9H72.1176ZM72.1176 25.7V26.7H73.0176V25.7V24.7H72.1176V25.7ZM73.0176 25.7H72.0176V27.5H73.0176H74.0176V25.7H73.0176ZM73.0176 27.5V28.5H73.9176V27.5V26.5H73.0176V27.5ZM73.9176 27.5H72.9176V29.3H73.9176H74.9176V27.5H73.9176ZM73.9176 29.3V30.3H74.8176V29.3V28.3H73.9176V29.3ZM74.8176 29.3H73.8176V31.1H74.8176H75.8176V29.3H74.8176ZM74.8176 31.1V30.1H73.9176V31.1V32.1H74.8176V31.1ZM73.9176 31.1H72.9176V32H73.9176H74.9176V31.1H73.9176ZM73.9176 32V31H69.4176V32V33H73.9176V32ZM69.4176 32H70.4176V31.1H69.4176H68.4176V32H69.4176Z" fill="black" mask="url(#path-1-outside-1_1_43)"/>
</svg>
