<svg width="74" height="15" viewBox="0 0 74 15" fill="none" xmlns="http://www.w3.org/2000/svg">
<mask id="path-1-outside-1_1_107" maskUnits="userSpaceOnUse" x="0" y="0" width="74" height="15" fill="black">
<rect fill="white" width="74" height="15"/>
<path d="M1.9 13.1H2.8V11.3H3.7V7.7H4.6V5H5.5V2.3H4.6V1.4H8.2V2.3H7.3V5H6.4V7.7H5.5V11.3H4.6V13.1H5.5V14H1.9V13.1ZM9.10703 11.3H10.007V8.6H10.907V5.9H10.007V5H12.707V7.7H13.607V8.6H12.707V9.5H11.807V11.3H10.907V14H9.10703V11.3ZM15.407 11.3H16.307V8.6H17.207V6.8H16.307V5.9H15.407V5H18.107V5.9H19.007V8.6H18.107V11.3H17.207V13.1H18.107V14H15.407V11.3ZM14.507 5.9H15.407V6.8H14.507V5.9ZM9.10703 5.9H10.007V6.8H9.10703V5.9ZM13.607 6.8H14.507V7.7H13.607V6.8ZM18.107 12.2H19.007V13.1H18.107V12.2ZM25.3141 13.1H26.2141V11.3H27.1141V8.6H28.0141V5H28.9141V2.3H28.0141V1.4H36.1141V2.3H37.0141V5.9H36.1141V6.8H35.2141V7.7H34.3141V5.9H35.2141V3.2H34.3141V2.3H30.7141V5H29.8141V8.6H31.6141V9.5H28.9141V11.3H28.0141V13.1H28.9141V14H25.3141V13.1ZM31.6141 7.7H34.3141V8.6H31.6141V7.7ZM37.9176 11.3H38.8176V8.6H39.7176V5.9H38.8176V5H41.5176V6.8H42.4176V7.7H41.5176V9.5H40.6176V11.3H39.7176V14H37.9176V11.3ZM43.3176 5H45.1176V5.9H46.0176V7.7H44.2176V5.9H43.3176V5ZM42.4176 5.9H43.3176V6.8H42.4176V5.9ZM37.9176 5.9H38.8176V6.8H37.9176V5.9ZM52.3176 8.6H53.2176V5.9H50.5176V5H54.1176V5.9H55.0176V8.6H54.1176V9.5H52.3176V8.6ZM47.8176 12.2H46.9176V8.6H47.8176V6.8H48.7176V5.9H50.5176V6.8H49.6176V8.6H48.7176V10.4H50.5176V11.3H48.7176V12.2H49.6176V13.1H52.3176V14H48.7176V13.1H47.8176V12.2ZM50.5176 9.5H52.3176V10.4H50.5176V9.5ZM54.1176 11.3H55.0176V12.2H54.1176V11.3ZM52.3176 12.2H54.1176V13.1H52.3176V12.2ZM56.8141 13.1H55.9141V11.3H57.7141V13.1H60.4141V11.3H59.5141V9.5H58.6141V7.7H57.7141V5.9H58.6141V5H63.1141V5.9H64.0141V7.7H62.2141V5.9H59.5141V7.7H60.4141V9.5H61.3141V11.3H62.2141V13.1H61.3141V14H56.8141V13.1ZM64.9176 13.1H64.0176V11.3H65.8176V13.1H68.5176V11.3H67.6176V9.5H66.7176V7.7H65.8176V5.9H66.7176V5H71.2176V5.9H72.1176V7.7H70.3176V5.9H67.6176V7.7H68.5176V9.5H69.4176V11.3H70.3176V13.1H69.4176V14H64.9176V13.1Z"/>
</mask>
<path d="M1.9 13.1H2.8V11.3H3.7V7.7H4.6V5H5.5V2.3H4.6V1.4H8.2V2.3H7.3V5H6.4V7.7H5.5V11.3H4.6V13.1H5.5V14H1.9V13.1ZM9.10703 11.3H10.007V8.6H10.907V5.9H10.007V5H12.707V7.7H13.607V8.6H12.707V9.5H11.807V11.3H10.907V14H9.10703V11.3ZM15.407 11.3H16.307V8.6H17.207V6.8H16.307V5.9H15.407V5H18.107V5.9H19.007V8.6H18.107V11.3H17.207V13.1H18.107V14H15.407V11.3ZM14.507 5.9H15.407V6.8H14.507V5.9ZM9.10703 5.9H10.007V6.8H9.10703V5.9ZM13.607 6.8H14.507V7.7H13.607V6.8ZM18.107 12.2H19.007V13.1H18.107V12.2ZM25.3141 13.1H26.2141V11.3H27.1141V8.6H28.0141V5H28.9141V2.3H28.0141V1.4H36.1141V2.3H37.0141V5.9H36.1141V6.8H35.2141V7.7H34.3141V5.9H35.2141V3.2H34.3141V2.3H30.7141V5H29.8141V8.6H31.6141V9.5H28.9141V11.3H28.0141V13.1H28.9141V14H25.3141V13.1ZM31.6141 7.7H34.3141V8.6H31.6141V7.7ZM37.9176 11.3H38.8176V8.6H39.7176V5.9H38.8176V5H41.5176V6.8H42.4176V7.7H41.5176V9.5H40.6176V11.3H39.7176V14H37.9176V11.3ZM43.3176 5H45.1176V5.9H46.0176V7.7H44.2176V5.9H43.3176V5ZM42.4176 5.9H43.3176V6.8H42.4176V5.9ZM37.9176 5.9H38.8176V6.8H37.9176V5.9ZM52.3176 8.6H53.2176V5.9H50.5176V5H54.1176V5.9H55.0176V8.6H54.1176V9.5H52.3176V8.6ZM47.8176 12.2H46.9176V8.6H47.8176V6.8H48.7176V5.9H50.5176V6.8H49.6176V8.6H48.7176V10.4H50.5176V11.3H48.7176V12.2H49.6176V13.1H52.3176V14H48.7176V13.1H47.8176V12.2ZM50.5176 9.5H52.3176V10.4H50.5176V9.5ZM54.1176 11.3H55.0176V12.2H54.1176V11.3ZM52.3176 12.2H54.1176V13.1H52.3176V12.2ZM56.8141 13.1H55.9141V11.3H57.7141V13.1H60.4141V11.3H59.5141V9.5H58.6141V7.7H57.7141V5.9H58.6141V5H63.1141V5.9H64.0141V7.7H62.2141V5.9H59.5141V7.7H60.4141V9.5H61.3141V11.3H62.2141V13.1H61.3141V14H56.8141V13.1ZM64.9176 13.1H64.0176V11.3H65.8176V13.1H68.5176V11.3H67.6176V9.5H66.7176V7.7H65.8176V5.9H66.7176V5H71.2176V5.9H72.1176V7.7H70.3176V5.9H67.6176V7.7H68.5176V9.5H69.4176V11.3H70.3176V13.1H69.4176V14H64.9176V13.1Z" fill="#FFF32E"/>
<path d="M1.9 13.1V12.1H0.9V13.1H1.9ZM2.8 13.1V14.1H3.8V13.1H2.8ZM2.8 11.3V10.3H1.8V11.3H2.8ZM3.7 11.3V12.3H4.7V11.3H3.7ZM3.7 7.7V6.7H2.7V7.7H3.7ZM4.6 7.7V8.7H5.6V7.7H4.6ZM4.6 5V4H3.6V5H4.6ZM5.5 5V6H6.5V5H5.5ZM5.5 2.3H6.5V1.3H5.5V2.3ZM4.6 2.3H3.6V3.3H4.6V2.3ZM4.6 1.4V0.399999H3.6V1.4H4.6ZM8.2 1.4H9.2V0.399999H8.2V1.4ZM8.2 2.3V3.3H9.2V2.3H8.2ZM7.3 2.3V1.3H6.3V2.3H7.3ZM7.3 5V6H8.3V5H7.3ZM6.4 5V4H5.4V5H6.4ZM6.4 7.7V8.7H7.4V7.7H6.4ZM5.5 7.7V6.7H4.5V7.7H5.5ZM5.5 11.3V12.3H6.5V11.3H5.5ZM4.6 11.3V10.3H3.6V11.3H4.6ZM4.6 13.1H3.6V14.1H4.6V13.1ZM5.5 13.1H6.5V12.1H5.5V13.1ZM5.5 14V15H6.5V14H5.5ZM1.9 14H0.9V15H1.9V14ZM1.9 13.1V14.1H2.8V13.1V12.1H1.9V13.1ZM2.8 13.1H3.8V11.3H2.8H1.8V13.1H2.8ZM2.8 11.3V12.3H3.7V11.3V10.3H2.8V11.3ZM3.7 11.3H4.7V7.7H3.7H2.7V11.3H3.7ZM3.7 7.7V8.7H4.6V7.7V6.7H3.7V7.7ZM4.6 7.7H5.6V5H4.6H3.6V7.7H4.6ZM4.6 5V6H5.5V5V4H4.6V5ZM5.5 5H6.5V2.3H5.5H4.5V5H5.5ZM5.5 2.3V1.3H4.6V2.3V3.3H5.5V2.3ZM4.6 2.3H5.6V1.4H4.6H3.6V2.3H4.6ZM4.6 1.4V2.4H8.2V1.4V0.399999H4.6V1.4ZM8.2 1.4H7.2V2.3H8.2H9.2V1.4H8.2ZM8.2 2.3V1.3H7.3V2.3V3.3H8.2V2.3ZM7.3 2.3H6.3V5H7.3H8.3V2.3H7.3ZM7.3 5V4H6.4V5V6H7.3V5ZM6.4 5H5.4V7.7H6.4H7.4V5H6.4ZM6.4 7.7V6.7H5.5V7.7V8.7H6.4V7.7ZM5.5 7.7H4.5V11.3H5.5H6.5V7.7H5.5ZM5.5 11.3V10.3H4.6V11.3V12.3H5.5V11.3ZM4.6 11.3H3.6V13.1H4.6H5.6V11.3H4.6ZM4.6 13.1V14.1H5.5V13.1V12.1H4.6V13.1ZM5.5 13.1H4.5V14H5.5H6.5V13.1H5.5ZM5.5 14V13H1.9V14V15H5.5V14ZM1.9 14H2.9V13.1H1.9H0.9V14H1.9ZM9.10703 11.3V10.3H8.10703V11.3H9.10703ZM10.007 11.3V12.3H11.007V11.3H10.007ZM10.007 8.6V7.6H9.00703V8.6H10.007ZM10.907 8.6V9.6H11.907V8.6H10.907ZM10.907 5.9H11.907V4.9H10.907V5.9ZM10.007 5.9H9.00703V6.9H10.007V5.9ZM10.007 5V4H9.00703V5H10.007ZM12.707 5H13.707V4H12.707V5ZM12.707 7.7H11.707V8.7H12.707V7.7ZM13.607 7.7H14.607V6.7H13.607V7.7ZM13.607 8.6V9.6H14.607V8.6H13.607ZM12.707 8.6V7.6H11.707V8.6H12.707ZM12.707 9.5V10.5H13.707V9.5H12.707ZM11.807 9.5V8.5H10.807V9.5H11.807ZM11.807 11.3V12.3H12.807V11.3H11.807ZM10.907 11.3V10.3H9.90703V11.3H10.907ZM10.907 14V15H11.907V14H10.907ZM9.10703 14H8.10703V15H9.10703V14ZM15.407 11.3V10.3H14.407V11.3H15.407ZM16.307 11.3V12.3H17.307V11.3H16.307ZM16.307 8.6V7.6H15.307V8.6H16.307ZM17.207 8.6V9.6H18.207V8.6H17.207ZM17.207 6.8H18.207V5.8H17.207V6.8ZM16.307 6.8H15.307V7.8H16.307V6.8ZM16.307 5.9H17.307V4.9H16.307V5.9ZM15.407 5.9H14.407V6.9H15.407V5.9ZM15.407 5V4H14.407V5H15.407ZM18.107 5H19.107V4H18.107V5ZM18.107 5.9H17.107V6.9H18.107V5.9ZM19.007 5.9H20.007V4.9H19.007V5.9ZM19.007 8.6V9.6H20.007V8.6H19.007ZM18.107 8.6V7.6H17.107V8.6H18.107ZM18.107 11.3V12.3H19.107V11.3H18.107ZM17.207 11.3V10.3H16.207V11.3H17.207ZM17.207 13.1H16.207V14.1H17.207V13.1ZM18.107 13.1H19.107V12.1H18.107V13.1ZM18.107 14V15H19.107V14H18.107ZM15.407 14H14.407V15H15.407V14ZM14.507 5.9V4.9H13.507V5.9H14.507ZM15.407 5.9H16.407V4.9H15.407V5.9ZM15.407 6.8V7.8H16.407V6.8H15.407ZM14.507 6.8H13.507V7.8H14.507V6.8ZM9.10703 5.9V4.9H8.10703V5.9H9.10703ZM10.007 5.9H11.007V4.9H10.007V5.9ZM10.007 6.8V7.8H11.007V6.8H10.007ZM9.10703 6.8H8.10703V7.8H9.10703V6.8ZM13.607 6.8V5.8H12.607V6.8H13.607ZM14.507 6.8H15.507V5.8H14.507V6.8ZM14.507 7.7V8.7H15.507V7.7H14.507ZM13.607 7.7H12.607V8.7H13.607V7.7ZM18.107 12.2V11.2H17.107V12.2H18.107ZM19.007 12.2H20.007V11.2H19.007V12.2ZM19.007 13.1V14.1H20.007V13.1H19.007ZM18.107 13.1H17.107V14.1H18.107V13.1ZM9.10703 11.3V12.3H10.007V11.3V10.3H9.10703V11.3ZM10.007 11.3H11.007V8.6H10.007H9.00703V11.3H10.007ZM10.007 8.6V9.6H10.907V8.6V7.6H10.007V8.6ZM10.907 8.6H11.907V5.9H10.907H9.90703V8.6H10.907ZM10.907 5.9V4.9H10.007V5.9V6.9H10.907V5.9ZM10.007 5.9H11.007V5H10.007H9.00703V5.9H10.007ZM10.007 5V6H12.707V5V4H10.007V5ZM12.707 5H11.707V7.7H12.707H13.707V5H12.707ZM12.707 7.7V8.7H13.607V7.7V6.7H12.707V7.7ZM13.607 7.7H12.607V8.6H13.607H14.607V7.7H13.607ZM13.607 8.6V7.6H12.707V8.6V9.6H13.607V8.6ZM12.707 8.6H11.707V9.5H12.707H13.707V8.6H12.707ZM12.707 9.5V8.5H11.807V9.5V10.5H12.707V9.5ZM11.807 9.5H10.807V11.3H11.807H12.807V9.5H11.807ZM11.807 11.3V10.3H10.907V11.3V12.3H11.807V11.3ZM10.907 11.3H9.90703V14H10.907H11.907V11.3H10.907ZM10.907 14V13H9.10703V14V15H10.907V14ZM9.10703 14H10.107V11.3H9.10703H8.10703V14H9.10703ZM15.407 11.3V12.3H16.307V11.3V10.3H15.407V11.3ZM16.307 11.3H17.307V8.6H16.307H15.307V11.3H16.307ZM16.307 8.6V9.6H17.207V8.6V7.6H16.307V8.6ZM17.207 8.6H18.207V6.8H17.207H16.207V8.6H17.207ZM17.207 6.8V5.8H16.307V6.8V7.8H17.207V6.8ZM16.307 6.8H17.307V5.9H16.307H15.307V6.8H16.307ZM16.307 5.9V4.9H15.407V5.9V6.9H16.307V5.9ZM15.407 5.9H16.407V5H15.407H14.407V5.9H15.407ZM15.407 5V6H18.107V5V4H15.407V5ZM18.107 5H17.107V5.9H18.107H19.107V5H18.107ZM18.107 5.9V6.9H19.007V5.9V4.9H18.107V5.9ZM19.007 5.9H18.007V8.6H19.007H20.007V5.9H19.007ZM19.007 8.6V7.6H18.107V8.6V9.6H19.007V8.6ZM18.107 8.6H17.107V11.3H18.107H19.107V8.6H18.107ZM18.107 11.3V10.3H17.207V11.3V12.3H18.107V11.3ZM17.207 11.3H16.207V13.1H17.207H18.207V11.3H17.207ZM17.207 13.1V14.1H18.107V13.1V12.1H17.207V13.1ZM18.107 13.1H17.107V14H18.107H19.107V13.1H18.107ZM18.107 14V13H15.407V14V15H18.107V14ZM15.407 14H16.407V11.3H15.407H14.407V14H15.407ZM14.507 5.9V6.9H15.407V5.9V4.9H14.507V5.9ZM15.407 5.9H14.407V6.8H15.407H16.407V5.9H15.407ZM15.407 6.8V5.8H14.507V6.8V7.8H15.407V6.8ZM14.507 6.8H15.507V5.9H14.507H13.507V6.8H14.507ZM9.10703 5.9V6.9H10.007V5.9V4.9H9.10703V5.9ZM10.007 5.9H9.00703V6.8H10.007H11.007V5.9H10.007ZM10.007 6.8V5.8H9.10703V6.8V7.8H10.007V6.8ZM9.10703 6.8H10.107V5.9H9.10703H8.10703V6.8H9.10703ZM13.607 6.8V7.8H14.507V6.8V5.8H13.607V6.8ZM14.507 6.8H13.507V7.7H14.507H15.507V6.8H14.507ZM14.507 7.7V6.7H13.607V7.7V8.7H14.507V7.7ZM13.607 7.7H14.607V6.8H13.607H12.607V7.7H13.607ZM18.107 12.2V13.2H19.007V12.2V11.2H18.107V12.2ZM19.007 12.2H18.007V13.1H19.007H20.007V12.2H19.007ZM19.007 13.1V12.1H18.107V13.1V14.1H19.007V13.1ZM18.107 13.1H19.107V12.2H18.107H17.107V13.1H18.107ZM25.3141 13.1V12.1H24.3141V13.1H25.3141ZM26.2141 13.1V14.1H27.2141V13.1H26.2141ZM26.2141 11.3V10.3H25.2141V11.3H26.2141ZM27.1141 11.3V12.3H28.1141V11.3H27.1141ZM27.1141 8.6V7.6H26.1141V8.6H27.1141ZM28.0141 8.6V9.6H29.0141V8.6H28.0141ZM28.0141 5V4H27.0141V5H28.0141ZM28.9141 5V6H29.9141V5H28.9141ZM28.9141 2.3H29.9141V1.3H28.9141V2.3ZM28.0141 2.3H27.0141V3.3H28.0141V2.3ZM28.0141 1.4V0.399999H27.0141V1.4H28.0141ZM36.1141 1.4H37.1141V0.399999H36.1141V1.4ZM36.1141 2.3H35.1141V3.3H36.1141V2.3ZM37.0141 2.3H38.0141V1.3H37.0141V2.3ZM37.0141 5.9V6.9H38.0141V5.9H37.0141ZM36.1141 5.9V4.9H35.1141V5.9H36.1141ZM36.1141 6.8V7.8H37.1141V6.8H36.1141ZM35.2141 6.8V5.8H34.2141V6.8H35.2141ZM35.2141 7.7V8.7H36.2141V7.7H35.2141ZM34.3141 7.7H33.3141V8.7H34.3141V7.7ZM34.3141 5.9V4.9H33.3141V5.9H34.3141ZM35.2141 5.9V6.9H36.2141V5.9H35.2141ZM35.2141 3.2H36.2141V2.2H35.2141V3.2ZM34.3141 3.2H33.3141V4.2H34.3141V3.2ZM34.3141 2.3H35.3141V1.3H34.3141V2.3ZM30.7141 2.3V1.3H29.7141V2.3H30.7141ZM30.7141 5V6H31.7141V5H30.7141ZM29.8141 5V4H28.8141V5H29.8141ZM29.8141 8.6H28.8141V9.6H29.8141V8.6ZM31.6141 8.6H32.6141V7.6H31.6141V8.6ZM31.6141 9.5V10.5H32.6141V9.5H31.6141ZM28.9141 9.5V8.5H27.9141V9.5H28.9141ZM28.9141 11.3V12.3H29.9141V11.3H28.9141ZM28.0141 11.3V10.3H27.0141V11.3H28.0141ZM28.0141 13.1H27.0141V14.1H28.0141V13.1ZM28.9141 13.1H29.9141V12.1H28.9141V13.1ZM28.9141 14V15H29.9141V14H28.9141ZM25.3141 14H24.3141V15H25.3141V14ZM31.6141 7.7V6.7H30.6141V7.7H31.6141ZM34.3141 7.7H35.3141V6.7H34.3141V7.7ZM34.3141 8.6V9.6H35.3141V8.6H34.3141ZM31.6141 8.6H30.6141V9.6H31.6141V8.6ZM25.3141 13.1V14.1H26.2141V13.1V12.1H25.3141V13.1ZM26.2141 13.1H27.2141V11.3H26.2141H25.2141V13.1H26.2141ZM26.2141 11.3V12.3H27.1141V11.3V10.3H26.2141V11.3ZM27.1141 11.3H28.1141V8.6H27.1141H26.1141V11.3H27.1141ZM27.1141 8.6V9.6H28.0141V8.6V7.6H27.1141V8.6ZM28.0141 8.6H29.0141V5H28.0141H27.0141V8.6H28.0141ZM28.0141 5V6H28.9141V5V4H28.0141V5ZM28.9141 5H29.9141V2.3H28.9141H27.9141V5H28.9141ZM28.9141 2.3V1.3H28.0141V2.3V3.3H28.9141V2.3ZM28.0141 2.3H29.0141V1.4H28.0141H27.0141V2.3H28.0141ZM28.0141 1.4V2.4H36.1141V1.4V0.399999H28.0141V1.4ZM36.1141 1.4H35.1141V2.3H36.1141H37.1141V1.4H36.1141ZM36.1141 2.3V3.3H37.0141V2.3V1.3H36.1141V2.3ZM37.0141 2.3H36.0141V5.9H37.0141H38.0141V2.3H37.0141ZM37.0141 5.9V4.9H36.1141V5.9V6.9H37.0141V5.9ZM36.1141 5.9H35.1141V6.8H36.1141H37.1141V5.9H36.1141ZM36.1141 6.8V5.8H35.2141V6.8V7.8H36.1141V6.8ZM35.2141 6.8H34.2141V7.7H35.2141H36.2141V6.8H35.2141ZM35.2141 7.7V6.7H34.3141V7.7V8.7H35.2141V7.7ZM34.3141 7.7H35.3141V5.9H34.3141H33.3141V7.7H34.3141ZM34.3141 5.9V6.9H35.2141V5.9V4.9H34.3141V5.9ZM35.2141 5.9H36.2141V3.2H35.2141H34.2141V5.9H35.2141ZM35.2141 3.2V2.2H34.3141V3.2V4.2H35.2141V3.2ZM34.3141 3.2H35.3141V2.3H34.3141H33.3141V3.2H34.3141ZM34.3141 2.3V1.3H30.7141V2.3V3.3H34.3141V2.3ZM30.7141 2.3H29.7141V5H30.7141H31.7141V2.3H30.7141ZM30.7141 5V4H29.8141V5V6H30.7141V5ZM29.8141 5H28.8141V8.6H29.8141H30.8141V5H29.8141ZM29.8141 8.6V9.6H31.6141V8.6V7.6H29.8141V8.6ZM31.6141 8.6H30.6141V9.5H31.6141H32.6141V8.6H31.6141ZM31.6141 9.5V8.5H28.9141V9.5V10.5H31.6141V9.5ZM28.9141 9.5H27.9141V11.3H28.9141H29.9141V9.5H28.9141ZM28.9141 11.3V10.3H28.0141V11.3V12.3H28.9141V11.3ZM28.0141 11.3H27.0141V13.1H28.0141H29.0141V11.3H28.0141ZM28.0141 13.1V14.1H28.9141V13.1V12.1H28.0141V13.1ZM28.9141 13.1H27.9141V14H28.9141H29.9141V13.1H28.9141ZM28.9141 14V13H25.3141V14V15H28.9141V14ZM25.3141 14H26.3141V13.1H25.3141H24.3141V14H25.3141ZM31.6141 7.7V8.7H34.3141V7.7V6.7H31.6141V7.7ZM34.3141 7.7H33.3141V8.6H34.3141H35.3141V7.7H34.3141ZM34.3141 8.6V7.6H31.6141V8.6V9.6H34.3141V8.6ZM31.6141 8.6H32.6141V7.7H31.6141H30.6141V8.6H31.6141ZM37.9176 11.3V10.3H36.9176V11.3H37.9176ZM38.8176 11.3V12.3H39.8176V11.3H38.8176ZM38.8176 8.6V7.6H37.8176V8.6H38.8176ZM39.7176 8.6V9.6H40.7176V8.6H39.7176ZM39.7176 5.9H40.7176V4.9H39.7176V5.9ZM38.8176 5.9H37.8176V6.9H38.8176V5.9ZM38.8176 5V4H37.8176V5H38.8176ZM41.5176 5H42.5176V4H41.5176V5ZM41.5176 6.8H40.5176V7.8H41.5176V6.8ZM42.4176 6.8H43.4176V5.8H42.4176V6.8ZM42.4176 7.7V8.7H43.4176V7.7H42.4176ZM41.5176 7.7V6.7H40.5176V7.7H41.5176ZM41.5176 9.5V10.5H42.5176V9.5H41.5176ZM40.6176 9.5V8.5H39.6176V9.5H40.6176ZM40.6176 11.3V12.3H41.6176V11.3H40.6176ZM39.7176 11.3V10.3H38.7176V11.3H39.7176ZM39.7176 14V15H40.7176V14H39.7176ZM37.9176 14H36.9176V15H37.9176V14ZM43.3176 5V4H42.3176V5H43.3176ZM45.1176 5H46.1176V4H45.1176V5ZM45.1176 5.9H44.1176V6.9H45.1176V5.9ZM46.0176 5.9H47.0176V4.9H46.0176V5.9ZM46.0176 7.7V8.7H47.0176V7.7H46.0176ZM44.2176 7.7H43.2176V8.7H44.2176V7.7ZM44.2176 5.9H45.2176V4.9H44.2176V5.9ZM43.3176 5.9H42.3176V6.9H43.3176V5.9ZM42.4176 5.9V4.9H41.4176V5.9H42.4176ZM43.3176 5.9H44.3176V4.9H43.3176V5.9ZM43.3176 6.8V7.8H44.3176V6.8H43.3176ZM42.4176 6.8H41.4176V7.8H42.4176V6.8ZM37.9176 5.9V4.9H36.9176V5.9H37.9176ZM38.8176 5.9H39.8176V4.9H38.8176V5.9ZM38.8176 6.8V7.8H39.8176V6.8H38.8176ZM37.9176 6.8H36.9176V7.8H37.9176V6.8ZM37.9176 11.3V12.3H38.8176V11.3V10.3H37.9176V11.3ZM38.8176 11.3H39.8176V8.6H38.8176H37.8176V11.3H38.8176ZM38.8176 8.6V9.6H39.7176V8.6V7.6H38.8176V8.6ZM39.7176 8.6H40.7176V5.9H39.7176H38.7176V8.6H39.7176ZM39.7176 5.9V4.9H38.8176V5.9V6.9H39.7176V5.9ZM38.8176 5.9H39.8176V5H38.8176H37.8176V5.9H38.8176ZM38.8176 5V6H41.5176V5V4H38.8176V5ZM41.5176 5H40.5176V6.8H41.5176H42.5176V5H41.5176ZM41.5176 6.8V7.8H42.4176V6.8V5.8H41.5176V6.8ZM42.4176 6.8H41.4176V7.7H42.4176H43.4176V6.8H42.4176ZM42.4176 7.7V6.7H41.5176V7.7V8.7H42.4176V7.7ZM41.5176 7.7H40.5176V9.5H41.5176H42.5176V7.7H41.5176ZM41.5176 9.5V8.5H40.6176V9.5V10.5H41.5176V9.5ZM40.6176 9.5H39.6176V11.3H40.6176H41.6176V9.5H40.6176ZM40.6176 11.3V10.3H39.7176V11.3V12.3H40.6176V11.3ZM39.7176 11.3H38.7176V14H39.7176H40.7176V11.3H39.7176ZM39.7176 14V13H37.9176V14V15H39.7176V14ZM37.9176 14H38.9176V11.3H37.9176H36.9176V14H37.9176ZM43.3176 5V6H45.1176V5V4H43.3176V5ZM45.1176 5H44.1176V5.9H45.1176H46.1176V5H45.1176ZM45.1176 5.9V6.9H46.0176V5.9V4.9H45.1176V5.9ZM46.0176 5.9H45.0176V7.7H46.0176H47.0176V5.9H46.0176ZM46.0176 7.7V6.7H44.2176V7.7V8.7H46.0176V7.7ZM44.2176 7.7H45.2176V5.9H44.2176H43.2176V7.7H44.2176ZM44.2176 5.9V4.9H43.3176V5.9V6.9H44.2176V5.9ZM43.3176 5.9H44.3176V5H43.3176H42.3176V5.9H43.3176ZM42.4176 5.9V6.9H43.3176V5.9V4.9H42.4176V5.9ZM43.3176 5.9H42.3176V6.8H43.3176H44.3176V5.9H43.3176ZM43.3176 6.8V5.8H42.4176V6.8V7.8H43.3176V6.8ZM42.4176 6.8H43.4176V5.9H42.4176H41.4176V6.8H42.4176ZM37.9176 5.9V6.9H38.8176V5.9V4.9H37.9176V5.9ZM38.8176 5.9H37.8176V6.8H38.8176H39.8176V5.9H38.8176ZM38.8176 6.8V5.8H37.9176V6.8V7.8H38.8176V6.8ZM37.9176 6.8H38.9176V5.9H37.9176H36.9176V6.8H37.9176ZM52.3176 8.6V7.6H51.3176V8.6H52.3176ZM53.2176 8.6V9.6H54.2176V8.6H53.2176ZM53.2176 5.9H54.2176V4.9H53.2176V5.9ZM50.5176 5.9H49.5176V6.9H50.5176V5.9ZM50.5176 5V4H49.5176V5H50.5176ZM54.1176 5H55.1176V4H54.1176V5ZM54.1176 5.9H53.1176V6.9H54.1176V5.9ZM55.0176 5.9H56.0176V4.9H55.0176V5.9ZM55.0176 8.6V9.6H56.0176V8.6H55.0176ZM54.1176 8.6V7.6H53.1176V8.6H54.1176ZM54.1176 9.5V10.5H55.1176V9.5H54.1176ZM52.3176 9.5H51.3176V10.5H52.3176V9.5ZM47.8176 12.2H48.8176V11.2H47.8176V12.2ZM46.9176 12.2H45.9176V13.2H46.9176V12.2ZM46.9176 8.6V7.6H45.9176V8.6H46.9176ZM47.8176 8.6V9.6H48.8176V8.6H47.8176ZM47.8176 6.8V5.8H46.8176V6.8H47.8176ZM48.7176 6.8V7.8H49.7176V6.8H48.7176ZM48.7176 5.9V4.9H47.7176V5.9H48.7176ZM50.5176 5.9H51.5176V4.9H50.5176V5.9ZM50.5176 6.8V7.8H51.5176V6.8H50.5176ZM49.6176 6.8V5.8H48.6176V6.8H49.6176ZM49.6176 8.6V9.6H50.6176V8.6H49.6176ZM48.7176 8.6V7.6H47.7176V8.6H48.7176ZM48.7176 10.4H47.7176V11.4H48.7176V10.4ZM50.5176 10.4H51.5176V9.4H50.5176V10.4ZM50.5176 11.3V12.3H51.5176V11.3H50.5176ZM48.7176 11.3V10.3H47.7176V11.3H48.7176ZM48.7176 12.2H47.7176V13.2H48.7176V12.2ZM49.6176 12.2H50.6176V11.2H49.6176V12.2ZM49.6176 13.1H48.6176V14.1H49.6176V13.1ZM52.3176 13.1H53.3176V12.1H52.3176V13.1ZM52.3176 14V15H53.3176V14H52.3176ZM48.7176 14H47.7176V15H48.7176V14ZM48.7176 13.1H49.7176V12.1H48.7176V13.1ZM47.8176 13.1H46.8176V14.1H47.8176V13.1ZM50.5176 9.5V8.5H49.5176V9.5H50.5176ZM52.3176 9.5H53.3176V8.5H52.3176V9.5ZM52.3176 10.4V11.4H53.3176V10.4H52.3176ZM50.5176 10.4H49.5176V11.4H50.5176V10.4ZM54.1176 11.3V10.3H53.1176V11.3H54.1176ZM55.0176 11.3H56.0176V10.3H55.0176V11.3ZM55.0176 12.2V13.2H56.0176V12.2H55.0176ZM54.1176 12.2H53.1176V13.2H54.1176V12.2ZM52.3176 12.2V11.2H51.3176V12.2H52.3176ZM54.1176 12.2H55.1176V11.2H54.1176V12.2ZM54.1176 13.1V14.1H55.1176V13.1H54.1176ZM52.3176 13.1H51.3176V14.1H52.3176V13.1ZM52.3176 8.6V9.6H53.2176V8.6V7.6H52.3176V8.6ZM53.2176 8.6H54.2176V5.9H53.2176H52.2176V8.6H53.2176ZM53.2176 5.9V4.9H50.5176V5.9V6.9H53.2176V5.9ZM50.5176 5.9H51.5176V5H50.5176H49.5176V5.9H50.5176ZM50.5176 5V6H54.1176V5V4H50.5176V5ZM54.1176 5H53.1176V5.9H54.1176H55.1176V5H54.1176ZM54.1176 5.9V6.9H55.0176V5.9V4.9H54.1176V5.9ZM55.0176 5.9H54.0176V8.6H55.0176H56.0176V5.9H55.0176ZM55.0176 8.6V7.6H54.1176V8.6V9.6H55.0176V8.6ZM54.1176 8.6H53.1176V9.5H54.1176H55.1176V8.6H54.1176ZM54.1176 9.5V8.5H52.3176V9.5V10.5H54.1176V9.5ZM52.3176 9.5H53.3176V8.6H52.3176H51.3176V9.5H52.3176ZM47.8176 12.2V11.2H46.9176V12.2V13.2H47.8176V12.2ZM46.9176 12.2H47.9176V8.6H46.9176H45.9176V12.2H46.9176ZM46.9176 8.6V9.6H47.8176V8.6V7.6H46.9176V8.6ZM47.8176 8.6H48.8176V6.8H47.8176H46.8176V8.6H47.8176ZM47.8176 6.8V7.8H48.7176V6.8V5.8H47.8176V6.8ZM48.7176 6.8H49.7176V5.9H48.7176H47.7176V6.8H48.7176ZM48.7176 5.9V6.9H50.5176V5.9V4.9H48.7176V5.9ZM50.5176 5.9H49.5176V6.8H50.5176H51.5176V5.9H50.5176ZM50.5176 6.8V5.8H49.6176V6.8V7.8H50.5176V6.8ZM49.6176 6.8H48.6176V8.6H49.6176H50.6176V6.8H49.6176ZM49.6176 8.6V7.6H48.7176V8.6V9.6H49.6176V8.6ZM48.7176 8.6H47.7176V10.4H48.7176H49.7176V8.6H48.7176ZM48.7176 10.4V11.4H50.5176V10.4V9.4H48.7176V10.4ZM50.5176 10.4H49.5176V11.3H50.5176H51.5176V10.4H50.5176ZM50.5176 11.3V10.3H48.7176V11.3V12.3H50.5176V11.3ZM48.7176 11.3H47.7176V12.2H48.7176H49.7176V11.3H48.7176ZM48.7176 12.2V13.2H49.6176V12.2V11.2H48.7176V12.2ZM49.6176 12.2H48.6176V13.1H49.6176H50.6176V12.2H49.6176ZM49.6176 13.1V14.1H52.3176V13.1V12.1H49.6176V13.1ZM52.3176 13.1H51.3176V14H52.3176H53.3176V13.1H52.3176ZM52.3176 14V13H48.7176V14V15H52.3176V14ZM48.7176 14H49.7176V13.1H48.7176H47.7176V14H48.7176ZM48.7176 13.1V12.1H47.8176V13.1V14.1H48.7176V13.1ZM47.8176 13.1H48.8176V12.2H47.8176H46.8176V13.1H47.8176ZM50.5176 9.5V10.5H52.3176V9.5V8.5H50.5176V9.5ZM52.3176 9.5H51.3176V10.4H52.3176H53.3176V9.5H52.3176ZM52.3176 10.4V9.4H50.5176V10.4V11.4H52.3176V10.4ZM50.5176 10.4H51.5176V9.5H50.5176H49.5176V10.4H50.5176ZM54.1176 11.3V12.3H55.0176V11.3V10.3H54.1176V11.3ZM55.0176 11.3H54.0176V12.2H55.0176H56.0176V11.3H55.0176ZM55.0176 12.2V11.2H54.1176V12.2V13.2H55.0176V12.2ZM54.1176 12.2H55.1176V11.3H54.1176H53.1176V12.2H54.1176ZM52.3176 12.2V13.2H54.1176V12.2V11.2H52.3176V12.2ZM54.1176 12.2H53.1176V13.1H54.1176H55.1176V12.2H54.1176ZM54.1176 13.1V12.1H52.3176V13.1V14.1H54.1176V13.1ZM52.3176 13.1H53.3176V12.2H52.3176H51.3176V13.1H52.3176ZM56.8141 13.1H57.8141V12.1H56.8141V13.1ZM55.9141 13.1H54.9141V14.1H55.9141V13.1ZM55.9141 11.3V10.3H54.9141V11.3H55.9141ZM57.7141 11.3H58.7141V10.3H57.7141V11.3ZM57.7141 13.1H56.7141V14.1H57.7141V13.1ZM60.4141 13.1V14.1H61.4141V13.1H60.4141ZM60.4141 11.3H61.4141V10.3H60.4141V11.3ZM59.5141 11.3H58.5141V12.3H59.5141V11.3ZM59.5141 9.5H60.5141V8.5H59.5141V9.5ZM58.6141 9.5H57.6141V10.5H58.6141V9.5ZM58.6141 7.7H59.6141V6.7H58.6141V7.7ZM57.7141 7.7H56.7141V8.7H57.7141V7.7ZM57.7141 5.9V4.9H56.7141V5.9H57.7141ZM58.6141 5.9V6.9H59.6141V5.9H58.6141ZM58.6141 5V4H57.6141V5H58.6141ZM63.1141 5H64.1141V4H63.1141V5ZM63.1141 5.9H62.1141V6.9H63.1141V5.9ZM64.0141 5.9H65.0141V4.9H64.0141V5.9ZM64.0141 7.7V8.7H65.0141V7.7H64.0141ZM62.2141 7.7H61.2141V8.7H62.2141V7.7ZM62.2141 5.9H63.2141V4.9H62.2141V5.9ZM59.5141 5.9V4.9H58.5141V5.9H59.5141ZM59.5141 7.7H58.5141V8.7H59.5141V7.7ZM60.4141 7.7H61.4141V6.7H60.4141V7.7ZM60.4141 9.5H59.4141V10.5H60.4141V9.5ZM61.3141 9.5H62.3141V8.5H61.3141V9.5ZM61.3141 11.3H60.3141V12.3H61.3141V11.3ZM62.2141 11.3H63.2141V10.3H62.2141V11.3ZM62.2141 13.1V14.1H63.2141V13.1H62.2141ZM61.3141 13.1V12.1H60.3141V13.1H61.3141ZM61.3141 14V15H62.3141V14H61.3141ZM56.8141 14H55.8141V15H56.8141V14ZM56.8141 13.1V12.1H55.9141V13.1V14.1H56.8141V13.1ZM55.9141 13.1H56.9141V11.3H55.9141H54.9141V13.1H55.9141ZM55.9141 11.3V12.3H57.7141V11.3V10.3H55.9141V11.3ZM57.7141 11.3H56.7141V13.1H57.7141H58.7141V11.3H57.7141ZM57.7141 13.1V14.1H60.4141V13.1V12.1H57.7141V13.1ZM60.4141 13.1H61.4141V11.3H60.4141H59.4141V13.1H60.4141ZM60.4141 11.3V10.3H59.5141V11.3V12.3H60.4141V11.3ZM59.5141 11.3H60.5141V9.5H59.5141H58.5141V11.3H59.5141ZM59.5141 9.5V8.5H58.6141V9.5V10.5H59.5141V9.5ZM58.6141 9.5H59.6141V7.7H58.6141H57.6141V9.5H58.6141ZM58.6141 7.7V6.7H57.7141V7.7V8.7H58.6141V7.7ZM57.7141 7.7H58.7141V5.9H57.7141H56.7141V7.7H57.7141ZM57.7141 5.9V6.9H58.6141V5.9V4.9H57.7141V5.9ZM58.6141 5.9H59.6141V5H58.6141H57.6141V5.9H58.6141ZM58.6141 5V6H63.1141V5V4H58.6141V5ZM63.1141 5H62.1141V5.9H63.1141H64.1141V5H63.1141ZM63.1141 5.9V6.9H64.0141V5.9V4.9H63.1141V5.9ZM64.0141 5.9H63.0141V7.7H64.0141H65.0141V5.9H64.0141ZM64.0141 7.7V6.7H62.2141V7.7V8.7H64.0141V7.7ZM62.2141 7.7H63.2141V5.9H62.2141H61.2141V7.7H62.2141ZM62.2141 5.9V4.9H59.5141V5.9V6.9H62.2141V5.9ZM59.5141 5.9H58.5141V7.7H59.5141H60.5141V5.9H59.5141ZM59.5141 7.7V8.7H60.4141V7.7V6.7H59.5141V7.7ZM60.4141 7.7H59.4141V9.5H60.4141H61.4141V7.7H60.4141ZM60.4141 9.5V10.5H61.3141V9.5V8.5H60.4141V9.5ZM61.3141 9.5H60.3141V11.3H61.3141H62.3141V9.5H61.3141ZM61.3141 11.3V12.3H62.2141V11.3V10.3H61.3141V11.3ZM62.2141 11.3H61.2141V13.1H62.2141H63.2141V11.3H62.2141ZM62.2141 13.1V12.1H61.3141V13.1V14.1H62.2141V13.1ZM61.3141 13.1H60.3141V14H61.3141H62.3141V13.1H61.3141ZM61.3141 14V13H56.8141V14V15H61.3141V14ZM56.8141 14H57.8141V13.1H56.8141H55.8141V14H56.8141ZM64.9176 13.1H65.9176V12.1H64.9176V13.1ZM64.0176 13.1H63.0176V14.1H64.0176V13.1ZM64.0176 11.3V10.3H63.0176V11.3H64.0176ZM65.8176 11.3H66.8176V10.3H65.8176V11.3ZM65.8176 13.1H64.8176V14.1H65.8176V13.1ZM68.5176 13.1V14.1H69.5176V13.1H68.5176ZM68.5176 11.3H69.5176V10.3H68.5176V11.3ZM67.6176 11.3H66.6176V12.3H67.6176V11.3ZM67.6176 9.5H68.6176V8.5H67.6176V9.5ZM66.7176 9.5H65.7176V10.5H66.7176V9.5ZM66.7176 7.7H67.7176V6.7H66.7176V7.7ZM65.8176 7.7H64.8176V8.7H65.8176V7.7ZM65.8176 5.9V4.9H64.8176V5.9H65.8176ZM66.7176 5.9V6.9H67.7176V5.9H66.7176ZM66.7176 5V4H65.7176V5H66.7176ZM71.2176 5H72.2176V4H71.2176V5ZM71.2176 5.9H70.2176V6.9H71.2176V5.9ZM72.1176 5.9H73.1176V4.9H72.1176V5.9ZM72.1176 7.7V8.7H73.1176V7.7H72.1176ZM70.3176 7.7H69.3176V8.7H70.3176V7.7ZM70.3176 5.9H71.3176V4.9H70.3176V5.9ZM67.6176 5.9V4.9H66.6176V5.9H67.6176ZM67.6176 7.7H66.6176V8.7H67.6176V7.7ZM68.5176 7.7H69.5176V6.7H68.5176V7.7ZM68.5176 9.5H67.5176V10.5H68.5176V9.5ZM69.4176 9.5H70.4176V8.5H69.4176V9.5ZM69.4176 11.3H68.4176V12.3H69.4176V11.3ZM70.3176 11.3H71.3176V10.3H70.3176V11.3ZM70.3176 13.1V14.1H71.3176V13.1H70.3176ZM69.4176 13.1V12.1H68.4176V13.1H69.4176ZM69.4176 14V15H70.4176V14H69.4176ZM64.9176 14H63.9176V15H64.9176V14ZM64.9176 13.1V12.1H64.0176V13.1V14.1H64.9176V13.1ZM64.0176 13.1H65.0176V11.3H64.0176H63.0176V13.1H64.0176ZM64.0176 11.3V12.3H65.8176V11.3V10.3H64.0176V11.3ZM65.8176 11.3H64.8176V13.1H65.8176H66.8176V11.3H65.8176ZM65.8176 13.1V14.1H68.5176V13.1V12.1H65.8176V13.1ZM68.5176 13.1H69.5176V11.3H68.5176H67.5176V13.1H68.5176ZM68.5176 11.3V10.3H67.6176V11.3V12.3H68.5176V11.3ZM67.6176 11.3H68.6176V9.5H67.6176H66.6176V11.3H67.6176ZM67.6176 9.5V8.5H66.7176V9.5V10.5H67.6176V9.5ZM66.7176 9.5H67.7176V7.7H66.7176H65.7176V9.5H66.7176ZM66.7176 7.7V6.7H65.8176V7.7V8.7H66.7176V7.7ZM65.8176 7.7H66.8176V5.9H65.8176H64.8176V7.7H65.8176ZM65.8176 5.9V6.9H66.7176V5.9V4.9H65.8176V5.9ZM66.7176 5.9H67.7176V5H66.7176H65.7176V5.9H66.7176ZM66.7176 5V6H71.2176V5V4H66.7176V5ZM71.2176 5H70.2176V5.9H71.2176H72.2176V5H71.2176ZM71.2176 5.9V6.9H72.1176V5.9V4.9H71.2176V5.9ZM72.1176 5.9H71.1176V7.7H72.1176H73.1176V5.9H72.1176ZM72.1176 7.7V6.7H70.3176V7.7V8.7H72.1176V7.7ZM70.3176 7.7H71.3176V5.9H70.3176H69.3176V7.7H70.3176ZM70.3176 5.9V4.9H67.6176V5.9V6.9H70.3176V5.9ZM67.6176 5.9H66.6176V7.7H67.6176H68.6176V5.9H67.6176ZM67.6176 7.7V8.7H68.5176V7.7V6.7H67.6176V7.7ZM68.5176 7.7H67.5176V9.5H68.5176H69.5176V7.7H68.5176ZM68.5176 9.5V10.5H69.4176V9.5V8.5H68.5176V9.5ZM69.4176 9.5H68.4176V11.3H69.4176H70.4176V9.5H69.4176ZM69.4176 11.3V12.3H70.3176V11.3V10.3H69.4176V11.3ZM70.3176 11.3H69.3176V13.1H70.3176H71.3176V11.3H70.3176ZM70.3176 13.1V12.1H69.4176V13.1V14.1H70.3176V13.1ZM69.4176 13.1H68.4176V14H69.4176H70.4176V13.1H69.4176ZM69.4176 14V13H64.9176V14V15H69.4176V14ZM64.9176 14H65.9176V13.1H64.9176H63.9176V14H64.9176Z" fill="black" mask="url(#path-1-outside-1_1_107)"/>
</svg>
