<svg width="68" height="19" viewBox="0 0 68 19" fill="none" xmlns="http://www.w3.org/2000/svg">
<g filter="url(#filter0_g_1_52)">
<mask id="path-1-outside-1_1_52" maskUnits="userSpaceOnUse" x="2" y="2" width="64" height="14" fill="black">
<rect fill="white" x="2" y="2" width="64" height="14"/>
<path d="M2.95623 3.338H5.08871V15H2.95623V3.338ZM9.21792 6.71998V15H7.08544V3.338H9.3512L14.949 11.618V3.338H17.0814V15H14.8157L9.21792 6.71998ZM18.4064 11.2515H20.5223C20.5334 11.507 20.5833 11.7569 20.6722 12.0012C20.7722 12.2344 20.9221 12.4788 21.122 12.7342C21.333 12.9897 21.644 13.1952 22.055 13.3507C22.477 13.5062 22.9768 13.5839 23.5544 13.5839C25.1982 13.5839 26.0201 13.0008 26.0201 11.8346C26.0201 11.5014 25.9479 11.2182 25.8035 10.9849C25.6702 10.7517 25.4758 10.574 25.2204 10.4518C24.9649 10.3296 24.7483 10.2408 24.5706 10.1853C24.404 10.1297 24.1875 10.0797 23.9209 10.0353C23.3322 9.93536 22.8769 9.84095 22.5548 9.7521C21.9883 9.61882 21.5219 9.49109 21.1553 9.36892C20.7999 9.23564 20.4334 9.04683 20.0558 8.80248C19.6781 8.55813 19.3949 8.23604 19.2061 7.8362C19.0284 7.43636 18.9396 6.95322 18.9396 6.38678C18.9396 5.86477 19.0229 5.40384 19.1895 5.004C19.3672 4.59305 19.6115 4.27096 19.9225 4.03772C20.2335 3.80448 20.5445 3.61011 20.8555 3.45462C21.1775 3.29913 21.533 3.19361 21.9217 3.13808C22.3104 3.07144 22.6159 3.03257 22.838 3.02146C23.0601 2.99925 23.2878 2.98814 23.5211 2.98814C24.9649 2.98814 26.0589 3.31579 26.8031 3.97108C27.5472 4.61527 27.9582 5.43161 28.0359 6.4201H25.9201C25.7757 5.30943 24.9594 4.7541 23.4711 4.7541C23.2934 4.7541 23.1212 4.76521 22.9546 4.78742C22.7991 4.80963 22.5659 4.86517 22.2549 4.95402C21.9439 5.03177 21.694 5.18726 21.5052 5.4205C21.3164 5.65374 21.222 5.94807 21.222 6.30348C21.222 6.49229 21.2497 6.66445 21.3053 6.81994C21.3719 6.97543 21.4774 7.10871 21.6218 7.21978C21.7662 7.33085 21.8995 7.42525 22.0217 7.503C22.1549 7.56964 22.3382 7.63628 22.5714 7.70292C22.8158 7.75845 23.0157 7.80288 23.1712 7.8362C23.3267 7.86952 23.5433 7.90839 23.8209 7.95282C24.5873 8.0861 25.2093 8.22493 25.6869 8.36932C26.1644 8.51371 26.6198 8.71918 27.053 8.98574C27.4861 9.2523 27.8027 9.60216 28.0026 10.0353C28.2025 10.4685 28.3025 10.996 28.3025 11.618C28.3025 14.1059 26.6753 15.3499 23.4211 15.3499C22.477 15.3499 21.6607 15.2277 20.9721 14.9833C20.2946 14.739 19.7781 14.4058 19.4227 13.9837C19.0784 13.5617 18.8229 13.1285 18.6563 12.6843C18.5008 12.24 18.4175 11.7624 18.4064 11.2515ZM29.6285 3.338H31.761V15H29.6285V3.338ZM39.2055 8.7525H43.9703V15H42.4376V13.4173H42.4042C41.7378 14.7057 40.5328 15.3499 38.789 15.3499C38.0671 15.3499 37.384 15.2499 36.7398 15.05C36.1068 14.8501 35.507 14.5335 34.9406 14.1004C34.3741 13.6561 33.9243 13.0341 33.5911 12.2344C33.2579 11.4237 33.0913 10.4685 33.0913 9.36892C33.0913 8.32489 33.2246 7.40859 33.4911 6.62002C33.7577 5.82034 34.0909 5.19837 34.4907 4.7541C34.8906 4.30983 35.3626 3.94887 35.9068 3.6712C36.4511 3.39353 36.9509 3.21027 37.4062 3.12142C37.8616 3.03257 38.3337 2.98814 38.8223 2.98814C39.5887 2.98814 40.2662 3.07699 40.8549 3.2547C41.4435 3.4213 41.9156 3.63788 42.271 3.90444C42.6264 4.171 42.9207 4.48754 43.1539 4.85406C43.3872 5.22058 43.5482 5.57044 43.6371 5.90364C43.737 6.22573 43.8037 6.57004 43.837 6.93656H41.7212C41.6323 6.35901 41.3658 5.85366 40.9215 5.4205C40.4883 4.97623 39.7886 4.7541 38.8223 4.7541C38.2559 4.7541 37.7561 4.85961 37.3229 5.07064C36.9009 5.27056 36.5677 5.52601 36.3233 5.837C36.079 6.13688 35.8791 6.49785 35.7236 6.9199C35.5792 7.34195 35.4848 7.74179 35.4404 8.11942C35.3959 8.48594 35.3737 8.87467 35.3737 9.28562C35.3737 10.1075 35.4903 10.8183 35.7236 11.4181C35.9679 12.0068 36.2789 12.451 36.6565 12.7509C37.0453 13.0397 37.4285 13.2507 37.8061 13.384C38.1948 13.5173 38.5836 13.5839 38.9723 13.5839C39.2722 13.5839 39.5776 13.545 39.8886 13.4673C40.1996 13.3784 40.5217 13.234 40.8549 13.0341C41.1992 12.8342 41.4824 12.5177 41.7045 12.0845C41.9267 11.6513 42.0433 11.1293 42.0544 10.5185H39.2055V8.7525ZM47.6498 9.76876V15H45.5173V3.338H47.6498V8.0028H52.8477V3.338H54.9802V15H52.8477V9.76876H47.6498ZM59.4498 5.10396H55.7846V3.338H65.2475V5.10396H61.5823V15H59.4498V5.10396Z"/>
</mask>
<path d="M2.95623 3.338H5.08871V15H2.95623V3.338ZM9.21792 6.71998V15H7.08544V3.338H9.3512L14.949 11.618V3.338H17.0814V15H14.8157L9.21792 6.71998ZM18.4064 11.2515H20.5223C20.5334 11.507 20.5833 11.7569 20.6722 12.0012C20.7722 12.2344 20.9221 12.4788 21.122 12.7342C21.333 12.9897 21.644 13.1952 22.055 13.3507C22.477 13.5062 22.9768 13.5839 23.5544 13.5839C25.1982 13.5839 26.0201 13.0008 26.0201 11.8346C26.0201 11.5014 25.9479 11.2182 25.8035 10.9849C25.6702 10.7517 25.4758 10.574 25.2204 10.4518C24.9649 10.3296 24.7483 10.2408 24.5706 10.1853C24.404 10.1297 24.1875 10.0797 23.9209 10.0353C23.3322 9.93536 22.8769 9.84095 22.5548 9.7521C21.9883 9.61882 21.5219 9.49109 21.1553 9.36892C20.7999 9.23564 20.4334 9.04683 20.0558 8.80248C19.6781 8.55813 19.3949 8.23604 19.2061 7.8362C19.0284 7.43636 18.9396 6.95322 18.9396 6.38678C18.9396 5.86477 19.0229 5.40384 19.1895 5.004C19.3672 4.59305 19.6115 4.27096 19.9225 4.03772C20.2335 3.80448 20.5445 3.61011 20.8555 3.45462C21.1775 3.29913 21.533 3.19361 21.9217 3.13808C22.3104 3.07144 22.6159 3.03257 22.838 3.02146C23.0601 2.99925 23.2878 2.98814 23.5211 2.98814C24.9649 2.98814 26.0589 3.31579 26.8031 3.97108C27.5472 4.61527 27.9582 5.43161 28.0359 6.4201H25.9201C25.7757 5.30943 24.9594 4.7541 23.4711 4.7541C23.2934 4.7541 23.1212 4.76521 22.9546 4.78742C22.7991 4.80963 22.5659 4.86517 22.2549 4.95402C21.9439 5.03177 21.694 5.18726 21.5052 5.4205C21.3164 5.65374 21.222 5.94807 21.222 6.30348C21.222 6.49229 21.2497 6.66445 21.3053 6.81994C21.3719 6.97543 21.4774 7.10871 21.6218 7.21978C21.7662 7.33085 21.8995 7.42525 22.0217 7.503C22.1549 7.56964 22.3382 7.63628 22.5714 7.70292C22.8158 7.75845 23.0157 7.80288 23.1712 7.8362C23.3267 7.86952 23.5433 7.90839 23.8209 7.95282C24.5873 8.0861 25.2093 8.22493 25.6869 8.36932C26.1644 8.51371 26.6198 8.71918 27.053 8.98574C27.4861 9.2523 27.8027 9.60216 28.0026 10.0353C28.2025 10.4685 28.3025 10.996 28.3025 11.618C28.3025 14.1059 26.6753 15.3499 23.4211 15.3499C22.477 15.3499 21.6607 15.2277 20.9721 14.9833C20.2946 14.739 19.7781 14.4058 19.4227 13.9837C19.0784 13.5617 18.8229 13.1285 18.6563 12.6843C18.5008 12.24 18.4175 11.7624 18.4064 11.2515ZM29.6285 3.338H31.761V15H29.6285V3.338ZM39.2055 8.7525H43.9703V15H42.4376V13.4173H42.4042C41.7378 14.7057 40.5328 15.3499 38.789 15.3499C38.0671 15.3499 37.384 15.2499 36.7398 15.05C36.1068 14.8501 35.507 14.5335 34.9406 14.1004C34.3741 13.6561 33.9243 13.0341 33.5911 12.2344C33.2579 11.4237 33.0913 10.4685 33.0913 9.36892C33.0913 8.32489 33.2246 7.40859 33.4911 6.62002C33.7577 5.82034 34.0909 5.19837 34.4907 4.7541C34.8906 4.30983 35.3626 3.94887 35.9068 3.6712C36.4511 3.39353 36.9509 3.21027 37.4062 3.12142C37.8616 3.03257 38.3337 2.98814 38.8223 2.98814C39.5887 2.98814 40.2662 3.07699 40.8549 3.2547C41.4435 3.4213 41.9156 3.63788 42.271 3.90444C42.6264 4.171 42.9207 4.48754 43.1539 4.85406C43.3872 5.22058 43.5482 5.57044 43.6371 5.90364C43.737 6.22573 43.8037 6.57004 43.837 6.93656H41.7212C41.6323 6.35901 41.3658 5.85366 40.9215 5.4205C40.4883 4.97623 39.7886 4.7541 38.8223 4.7541C38.2559 4.7541 37.7561 4.85961 37.3229 5.07064C36.9009 5.27056 36.5677 5.52601 36.3233 5.837C36.079 6.13688 35.8791 6.49785 35.7236 6.9199C35.5792 7.34195 35.4848 7.74179 35.4404 8.11942C35.3959 8.48594 35.3737 8.87467 35.3737 9.28562C35.3737 10.1075 35.4903 10.8183 35.7236 11.4181C35.9679 12.0068 36.2789 12.451 36.6565 12.7509C37.0453 13.0397 37.4285 13.2507 37.8061 13.384C38.1948 13.5173 38.5836 13.5839 38.9723 13.5839C39.2722 13.5839 39.5776 13.545 39.8886 13.4673C40.1996 13.3784 40.5217 13.234 40.8549 13.0341C41.1992 12.8342 41.4824 12.5177 41.7045 12.0845C41.9267 11.6513 42.0433 11.1293 42.0544 10.5185H39.2055V8.7525ZM47.6498 9.76876V15H45.5173V3.338H47.6498V8.0028H52.8477V3.338H54.9802V15H52.8477V9.76876H47.6498ZM59.4498 5.10396H55.7846V3.338H65.2475V5.10396H61.5823V15H59.4498V5.10396Z" fill="black"/>
<path d="M2.95623 3.338V3.138H2.75623V3.338H2.95623ZM5.08871 3.338H5.28871V3.138H5.08871V3.338ZM5.08871 15V15.2H5.28871V15H5.08871ZM2.95623 15H2.75623V15.2H2.95623V15ZM2.95623 3.338V3.538H5.08871V3.338V3.138H2.95623V3.338ZM5.08871 3.338H4.88871V15H5.08871H5.28871V3.338H5.08871ZM5.08871 15V14.8H2.95623V15V15.2H5.08871V15ZM2.95623 15H3.15623V3.338H2.95623H2.75623V15H2.95623ZM9.21792 6.71998L9.38361 6.60796L9.01792 6.06705V6.71998H9.21792ZM9.21792 15V15.2H9.41792V15H9.21792ZM7.08544 15H6.88544V15.2H7.08544V15ZM7.08544 3.338V3.138H6.88544V3.338H7.08544ZM9.3512 3.338L9.51689 3.22598L9.4574 3.138H9.3512V3.338ZM14.949 11.618L14.7833 11.73L15.149 12.2709V11.618H14.949ZM14.949 3.338V3.138H14.749V3.338H14.949ZM17.0814 3.338H17.2814V3.138H17.0814V3.338ZM17.0814 15V15.2H17.2814V15H17.0814ZM14.8157 15L14.65 15.112L14.7095 15.2H14.8157V15ZM9.21792 6.71998H9.01792V15H9.21792H9.41792V6.71998H9.21792ZM9.21792 15V14.8H7.08544V15V15.2H9.21792V15ZM7.08544 15H7.28544V3.338H7.08544H6.88544V15H7.08544ZM7.08544 3.338V3.538H9.3512V3.338V3.138H7.08544V3.338ZM9.3512 3.338L9.18551 3.45001L14.7833 11.73L14.949 11.618L15.1146 11.506L9.51689 3.22598L9.3512 3.338ZM14.949 11.618H15.149V3.338H14.949H14.749V11.618H14.949ZM14.949 3.338V3.538H17.0814V3.338V3.138H14.949V3.338ZM17.0814 3.338H16.8814V15H17.0814H17.2814V3.338H17.0814ZM17.0814 15V14.8H14.8157V15V15.2H17.0814V15ZM14.8157 15L14.9814 14.888L9.38361 6.60796L9.21792 6.71998L9.05223 6.83199L14.65 15.112L14.8157 15ZM18.4064 11.2515V11.0515H18.202L18.2065 11.2558L18.4064 11.2515ZM20.5223 11.2515L20.7221 11.2428L20.7137 11.0515H20.5223V11.2515ZM20.6722 12.0012L20.4839 12.0697L20.4884 12.08L20.6722 12.0012ZM21.122 12.7342L20.9645 12.8575L20.9678 12.8616L21.122 12.7342ZM22.055 13.3507L21.9842 13.5377L21.9858 13.5383L22.055 13.3507ZM25.8035 10.9849L25.6297 11.0842L25.6334 11.0902L25.8035 10.9849ZM25.2204 10.4518L25.1341 10.6322L25.2204 10.4518ZM24.5706 10.1853L24.5074 10.375L24.511 10.3762L24.5706 10.1853ZM23.9209 10.0353L23.8874 10.2325L23.888 10.2326L23.9209 10.0353ZM22.5548 9.7521L22.608 9.55916L22.6006 9.55742L22.5548 9.7521ZM21.1553 9.36892L21.0851 9.55631L21.0921 9.55866L21.1553 9.36892ZM20.0558 8.80248L19.9471 8.97039L20.0558 8.80248ZM19.2061 7.8362L19.0233 7.91745L19.0253 7.9216L19.2061 7.8362ZM19.1894 5.004L19.0059 4.92461L19.0048 4.92708L19.1894 5.004ZM19.9225 4.03772L19.8025 3.87772V3.87772L19.9225 4.03772ZM20.8554 3.45462L20.7685 3.27449L20.766 3.27573L20.8554 3.45462ZM21.9217 3.13808L21.95 3.33615L21.9555 3.3352L21.9217 3.13808ZM22.838 3.02146L22.848 3.22146L22.8579 3.22047L22.838 3.02146ZM26.8031 3.97108L26.6709 4.12118L26.6722 4.12229L26.8031 3.97108ZM28.0359 6.4201V6.6201H28.2523L28.2353 6.40442L28.0359 6.4201ZM25.9201 6.4201L25.7218 6.44588L25.7444 6.6201H25.9201V6.4201ZM22.9546 4.78742L22.9282 4.58917L22.9263 4.58943L22.9546 4.78742ZM22.2549 4.95402L22.3034 5.14816L22.3098 5.14632L22.2549 4.95402ZM21.5052 5.4205L21.3497 5.29466L21.5052 5.4205ZM21.3053 6.81994L21.1166 6.88734L21.1214 6.89872L21.3053 6.81994ZM21.6218 7.21978L21.4999 7.3783L21.4999 7.3783L21.6218 7.21978ZM22.0217 7.503L21.9143 7.67173L21.923 7.67727L21.9322 7.68189L22.0217 7.503ZM22.5714 7.70292L22.5164 7.89551L22.5271 7.89795L22.5714 7.70292ZM23.1712 7.8362L23.1293 8.03176L23.1712 7.8362ZM23.8209 7.95282L23.8552 7.75576L23.8525 7.75533L23.8209 7.95282ZM25.6869 8.36932L25.7447 8.17788L25.6869 8.36932ZM27.053 8.98574L26.9482 9.15607L27.053 8.98574ZM20.9721 14.9833L20.9042 15.1715L20.9052 15.1718L20.9721 14.9833ZM19.4227 13.9837L19.2677 14.1102L19.2697 14.1126L19.4227 13.9837ZM18.6563 12.6843L18.4675 12.7503L18.4691 12.7545L18.6563 12.6843ZM18.4064 11.2515V11.4515H20.5223V11.2515V11.0515H18.4064V11.2515ZM20.5223 11.2515L20.3224 11.2602C20.3344 11.5364 20.3885 11.8064 20.4842 12.0695L20.6722 12.0012L20.8601 11.9329C20.7781 11.7073 20.7323 11.4775 20.7221 11.2428L20.5223 11.2515ZM20.6722 12.0012L20.4884 12.08C20.5967 12.3328 20.7567 12.592 20.9645 12.8575L21.122 12.7342L21.2795 12.611C21.0875 12.3656 20.9476 12.1361 20.856 11.9224L20.6722 12.0012ZM21.122 12.7342L20.9678 12.8616C21.2071 13.1512 21.551 13.3738 21.9842 13.5377L22.055 13.3507L22.1257 13.1636C21.7371 13.0165 21.459 12.8282 21.2762 12.6069L21.122 12.7342ZM22.055 13.3507L21.9858 13.5383C22.4353 13.7039 22.9596 13.7839 23.5544 13.7839V13.5839V13.3839C22.994 13.3839 22.5187 13.3084 22.1241 13.163L22.055 13.3507ZM23.5544 13.5839V13.7839C24.3938 13.7839 25.0593 13.6361 25.5194 13.3097C25.992 12.9743 26.2201 12.4708 26.2201 11.8346H26.0201H25.82C25.82 12.3646 25.6371 12.7357 25.2879 12.9835C24.9261 13.2401 24.3587 13.3839 23.5544 13.3839V13.5839ZM26.0201 11.8346H26.2201C26.2201 11.4722 26.1413 11.1507 25.9735 10.8797L25.8035 10.9849L25.6334 11.0902C25.7544 11.2856 25.82 11.5306 25.82 11.8346H26.0201ZM25.8035 10.9849L25.9771 10.8857C25.8225 10.6152 25.5967 10.4101 25.3067 10.2714L25.2204 10.4518L25.1341 10.6322C25.3549 10.7379 25.5179 10.8882 25.6298 11.0842L25.8035 10.9849ZM25.2204 10.4518L25.3067 10.2714C25.0465 10.147 24.8205 10.0538 24.6303 9.99436L24.5706 10.1853L24.511 10.3762C24.6762 10.4278 24.8833 10.5123 25.1341 10.6322L25.2204 10.4518ZM24.5706 10.1853L24.6339 9.99552C24.4536 9.93543 24.2258 9.88338 23.9538 9.83804L23.9209 10.0353L23.888 10.2326C24.1491 10.2761 24.3545 10.324 24.5074 10.375L24.5706 10.1853ZM23.9209 10.0353L23.9544 9.83814C23.3681 9.73858 22.9204 9.64549 22.608 9.5593L22.5548 9.7521L22.5016 9.9449C22.8333 10.0364 23.2964 10.1321 23.8874 10.2325L23.9209 10.0353ZM22.5548 9.7521L22.6006 9.55742C22.0374 9.4249 21.5773 9.29875 21.2186 9.17918L21.1553 9.36892L21.0921 9.55866C21.4664 9.68344 21.9393 9.81274 22.509 9.94678L22.5548 9.7521ZM21.1553 9.36892L21.2256 9.18165C20.8858 9.05425 20.5321 8.87249 20.1644 8.63457L20.0558 8.80248L19.9471 8.97039C20.3347 9.22116 20.714 9.41703 21.0851 9.55619L21.1553 9.36892ZM20.0558 8.80248L20.1644 8.63457C19.8175 8.41009 19.5596 8.11634 19.387 7.7508L19.2061 7.8362L19.0253 7.9216C19.2303 8.35574 19.5388 8.70617 19.9471 8.97039L20.0558 8.80248ZM19.2061 7.8362L19.3889 7.75497C19.2254 7.38705 19.1395 6.93314 19.1395 6.38678H18.9396H18.7396C18.7396 6.9733 18.8315 7.48567 19.0233 7.91743L19.2061 7.8362ZM18.9396 6.38678H19.1395C19.1395 5.88588 19.2195 5.45194 19.3741 5.08092L19.1894 5.004L19.0048 4.92708C18.8262 5.35574 18.7396 5.84366 18.7396 6.38678H18.9396ZM19.1894 5.004L19.373 5.08338C19.539 4.69947 19.7633 4.40709 20.0425 4.19772L19.9225 4.03772L19.8025 3.87772C19.4597 4.13483 19.1953 4.48663 19.0059 4.92462L19.1894 5.004ZM19.9225 4.03772L20.0425 4.19772C20.345 3.97085 20.6458 3.78305 20.9449 3.63351L20.8554 3.45462L20.766 3.27573C20.4431 3.43718 20.122 3.63811 19.8025 3.87772L19.9225 4.03772ZM20.8554 3.45462L20.9424 3.63473C21.2443 3.48901 21.5796 3.38898 21.95 3.33607L21.9217 3.13808L21.8934 2.94009C21.4863 2.99825 21.1108 3.10925 20.7685 3.27451L20.8554 3.45462ZM21.9217 3.13808L21.9555 3.3352C22.3414 3.26905 22.6377 3.23173 22.848 3.22121L22.838 3.02146L22.828 2.82171C22.5941 2.83341 22.2795 2.87383 21.8879 2.94096L21.9217 3.13808ZM22.838 3.02146L22.8579 3.22047C23.0731 3.19894 23.2942 3.18814 23.521 3.18814V2.98814V2.78814C23.2815 2.78814 23.0471 2.79955 22.8181 2.82245L22.838 3.02146ZM23.521 2.98814V3.18814C24.938 3.18814 25.9768 3.51 26.6709 4.12118L26.8031 3.97108L26.9352 3.82098C26.141 3.12157 24.9918 2.78814 23.521 2.78814V2.98814ZM26.8031 3.97108L26.6722 4.12229C27.3762 4.73178 27.7629 5.49927 27.8365 6.43578L28.0359 6.4201L28.2353 6.40442C28.1535 5.36394 27.7182 4.49876 26.934 3.81987L26.8031 3.97108ZM28.0359 6.4201V6.2201H25.9201V6.4201V6.6201H28.0359V6.4201ZM25.9201 6.4201L26.1184 6.39432C26.04 5.79078 25.7741 5.31954 25.312 5.00524C24.8578 4.69623 24.2362 4.5541 23.4711 4.5541V4.7541V4.9541C24.1942 4.9541 24.725 5.08964 25.0871 5.33596C25.4414 5.577 25.6558 5.93875 25.7218 6.44588L25.9201 6.4201ZM23.4711 4.7541V4.5541C23.285 4.5541 23.104 4.56573 22.9282 4.58917L22.9546 4.78742L22.981 4.98567C23.1384 4.96468 23.3017 4.9541 23.4711 4.9541V4.7541ZM22.9546 4.78742L22.9263 4.58943C22.7567 4.61367 22.5126 4.6724 22.1999 4.76171L22.2549 4.95402L22.3098 5.14632C22.6192 5.05793 22.8416 5.0056 22.9829 4.98541L22.9546 4.78742ZM22.2549 4.95402L22.2064 4.75999C21.8564 4.8475 21.5678 5.02532 21.3497 5.29466L21.5052 5.4205L21.6606 5.54634C21.8202 5.3492 22.0315 5.21603 22.3034 5.14805L22.2549 4.95402ZM21.5052 5.4205L21.3497 5.29466C21.127 5.5698 21.022 5.91106 21.022 6.30348H21.222H21.422C21.422 5.98507 21.5057 5.73768 21.6606 5.54634L21.5052 5.4205ZM21.222 6.30348H21.022C21.022 6.51197 21.0527 6.70727 21.1169 6.88721L21.3053 6.81994L21.4936 6.75267C21.4468 6.62163 21.422 6.47261 21.422 6.30348H21.222ZM21.3053 6.81994L21.1214 6.89872C21.2026 7.08805 21.3305 7.24804 21.4999 7.3783L21.6218 7.21978L21.7438 7.06126C21.6243 6.96939 21.5412 6.86282 21.4891 6.74116L21.3053 6.81994ZM21.6218 7.21978L21.4999 7.3783C21.6478 7.49211 21.786 7.59011 21.9143 7.67173L22.0217 7.503L22.129 7.33427C22.0129 7.26039 21.8846 7.16958 21.7438 7.06125L21.6218 7.21978ZM22.0217 7.503L21.9322 7.68189C22.0812 7.7564 22.2778 7.82702 22.5165 7.89522L22.5714 7.70292L22.6264 7.51061C22.3986 7.44554 22.2286 7.38288 22.1111 7.32411L22.0217 7.503ZM22.5714 7.70292L22.5271 7.89795C22.7719 7.95357 22.9727 7.9982 23.1293 8.03176L23.1712 7.8362L23.2131 7.64064C23.0587 7.60756 22.8597 7.56333 22.6158 7.50789L22.5714 7.70292ZM23.1712 7.8362L23.1293 8.03176C23.2898 8.06616 23.5104 8.10568 23.7893 8.15031L23.8209 7.95282L23.8525 7.75533C23.5761 7.71111 23.3635 7.67288 23.2131 7.64064L23.1712 7.8362ZM23.8209 7.95282L23.7867 8.14986C24.5489 8.28243 25.1622 8.41963 25.629 8.56076L25.6869 8.36932L25.7447 8.17788C25.2564 8.03023 24.6257 7.88977 23.8552 7.75578L23.8209 7.95282ZM25.6869 8.36932L25.629 8.56076C26.0897 8.70007 26.5294 8.89836 26.9482 9.15607L27.053 8.98574L27.1578 8.81541C26.7102 8.54 26.2391 8.32735 25.7447 8.17788L25.6869 8.36932ZM27.053 8.98574L26.9482 9.15607C27.3501 9.40342 27.6387 9.72415 27.821 10.1191L28.0026 10.0353L28.1842 9.95151C27.9666 9.48017 27.6222 9.10118 27.1578 8.81541L27.053 8.98574ZM28.0026 10.0353L27.821 10.1191C28.0057 10.5193 28.1025 11.0166 28.1025 11.618H28.3025H28.5025C28.5025 10.9755 28.3993 10.4176 28.1842 9.95151L28.0026 10.0353ZM28.3025 11.618H28.1025C28.1025 12.8146 27.714 13.6821 26.9607 14.258C26.1972 14.8417 25.0284 15.1499 23.4211 15.1499V15.3499V15.5499C25.0681 15.5499 26.3399 15.2361 27.2036 14.5758C28.0774 13.9077 28.5025 12.9093 28.5025 11.618H28.3025ZM23.4211 15.3499V15.1499C22.4935 15.1499 21.7009 15.0297 21.039 14.7949L20.9721 14.9833L20.9052 15.1718C21.6205 15.4257 22.4605 15.5499 23.4211 15.5499V15.3499ZM20.9721 14.9833L21.0399 14.7952C20.3857 14.5592 19.9025 14.243 19.5757 13.8549L19.4227 13.9837L19.2697 14.1126C19.6537 14.5685 20.2035 14.9187 20.9042 15.1715L20.9721 14.9833ZM19.4227 13.9837L19.5777 13.8573C19.2451 13.4497 19.0015 13.0352 18.8436 12.614L18.6563 12.6843L18.4691 12.7545C18.6443 13.2219 18.9117 13.6737 19.2677 14.1102L19.4227 13.9837ZM18.6563 12.6843L18.8451 12.6182C18.6971 12.1954 18.6171 11.7388 18.6064 11.2472L18.4064 11.2515L18.2065 11.2558C18.218 11.786 18.3045 12.2846 18.4676 12.7503L18.6563 12.6843ZM29.6285 3.338V3.138H29.4285V3.338H29.6285ZM31.761 3.338H31.961V3.138H31.761V3.338ZM31.761 15V15.2H31.961V15H31.761ZM29.6285 15H29.4285V15.2H29.6285V15ZM29.6285 3.338V3.538H31.761V3.338V3.138H29.6285V3.338ZM31.761 3.338H31.561V15H31.761H31.961V3.338H31.761ZM31.761 15V14.8H29.6285V15V15.2H31.761V15ZM29.6285 15H29.8285V3.338H29.6285H29.4285V15H29.6285ZM39.2055 8.7525V8.5525H39.0055V8.7525H39.2055ZM43.9703 8.7525H44.1703V8.5525H43.9703V8.7525ZM43.9703 15V15.2H44.1703V15H43.9703ZM42.4376 15H42.2376V15.2H42.4376V15ZM42.4376 13.4173H42.6376V13.2173H42.4376V13.4173ZM42.4042 13.4173V13.2173H42.2825L42.2266 13.3254L42.4042 13.4173ZM36.7398 15.05L36.6796 15.2407L36.6806 15.241L36.7398 15.05ZM34.9406 14.1004L34.8171 14.2577L34.8191 14.2592L34.9406 14.1004ZM33.5911 12.2344L33.4061 12.3105L33.4065 12.3114L33.5911 12.2344ZM33.4911 6.62002L33.6806 6.68407L33.6809 6.68327L33.4911 6.62002ZM34.4907 4.7541L34.6394 4.88789V4.88789L34.4907 4.7541ZM35.9068 3.6712L35.9977 3.84935L35.9068 3.6712ZM37.4062 3.12142L37.3679 2.92512L37.4062 3.12142ZM40.8549 3.2547L40.7971 3.44619L40.8004 3.44714L40.8549 3.2547ZM42.271 3.90444L42.151 4.06444L42.271 3.90444ZM43.1539 4.85406L43.3227 4.74668L43.1539 4.85406ZM43.6371 5.90364L43.4437 5.95521L43.4461 5.96292L43.6371 5.90364ZM43.837 6.93656V7.13656H44.056L44.0362 6.91845L43.837 6.93656ZM41.7212 6.93656L41.5235 6.96697L41.5496 7.13656H41.7212V6.93656ZM40.9215 5.4205L40.7783 5.56016L40.7819 5.5637L40.9215 5.4205ZM37.3229 5.07064L37.4086 5.2514L37.4105 5.25044L37.3229 5.07064ZM36.3233 5.837L36.4784 5.96335L36.4806 5.96056L36.3233 5.837ZM35.7236 6.9199L35.5359 6.85074L35.5344 6.85516L35.7236 6.9199ZM35.4404 8.11942L35.6389 8.14349L35.639 8.14279L35.4404 8.11942ZM35.7236 11.4181L35.5371 11.4906L35.5389 11.4948L35.7236 11.4181ZM36.6565 12.7509L36.5321 12.9076L36.5373 12.9114L36.6565 12.7509ZM37.8061 13.384L37.7395 13.5726L37.7412 13.5732L37.8061 13.384ZM39.8886 13.4673L39.9371 13.6614L39.9435 13.6596L39.8886 13.4673ZM40.8549 13.0341L40.7544 12.8611L40.752 12.8626L40.8549 13.0341ZM42.0544 10.5185L42.2544 10.5221L42.2581 10.3185H42.0544V10.5185ZM39.2055 10.5185H39.0055V10.7185H39.2055V10.5185ZM39.2055 8.7525V8.9525H43.9703V8.7525V8.5525H39.2055V8.7525ZM43.9703 8.7525H43.7703V15H43.9703H44.1703V8.7525H43.9703ZM43.9703 15V14.8H42.4376V15V15.2H43.9703V15ZM42.4376 15H42.6376V13.4173H42.4376H42.2376V15H42.4376ZM42.4376 13.4173V13.2173H42.4042V13.4173V13.6173H42.4376V13.4173ZM42.4042 13.4173L42.2266 13.3254C41.6022 14.5326 40.4762 15.1499 38.789 15.1499V15.3499V15.5499C40.5893 15.5499 41.8735 14.8787 42.5819 13.5092L42.4042 13.4173ZM38.789 15.3499V15.1499C38.0858 15.1499 37.4228 15.0525 36.7991 14.859L36.7398 15.05L36.6806 15.241C37.3453 15.4473 38.0484 15.5499 38.789 15.5499V15.3499ZM36.7398 15.05L36.8001 14.8593C36.1907 14.6668 35.6114 14.3616 35.0621 13.9415L34.9406 14.1004L34.8191 14.2592C35.4026 14.7054 36.0228 15.0333 36.6796 15.2407L36.7398 15.05ZM34.9406 14.1004L35.064 13.943C34.5295 13.5238 34.0984 12.932 33.7757 12.1575L33.5911 12.2344L33.4065 12.3114C33.7502 13.1362 34.2188 13.7884 34.8171 14.2577L34.9406 14.1004ZM33.5911 12.2344L33.7761 12.1584C33.455 11.377 33.2913 10.4488 33.2913 9.36892H33.0913H32.8913C32.8913 10.4882 33.0608 11.4703 33.4061 12.3105L33.5911 12.2344ZM33.0913 9.36892H33.2913C33.2913 8.34138 33.4225 7.44753 33.6806 6.68407L33.4911 6.62002L33.3017 6.55597C33.0266 7.36966 32.8913 8.30841 32.8913 9.36892H33.0913ZM33.4911 6.62002L33.6809 6.68327C33.9421 5.89973 34.2639 5.30515 34.6394 4.88789L34.4907 4.7541L34.3421 4.62031C33.9179 5.09158 33.5734 5.74095 33.3014 6.55677L33.4911 6.62002ZM34.4907 4.7541L34.6394 4.88789C35.0225 4.46223 35.4748 4.11614 35.9977 3.84935L35.9068 3.6712L35.816 3.49305C35.2504 3.78159 34.7587 4.15744 34.3421 4.62031L34.4907 4.7541ZM35.9068 3.6712L35.9977 3.84935C36.5303 3.57764 37.0122 3.40208 37.4445 3.31772L37.4062 3.12142L37.3679 2.92512C36.8896 3.01847 36.3719 3.20942 35.816 3.49305L35.9068 3.6712ZM37.4062 3.12142L37.4445 3.31772C37.8867 3.23145 38.3458 3.18814 38.8223 3.18814V2.98814V2.78814C38.3215 2.78814 37.8366 2.83368 37.3679 2.92512L37.4062 3.12142ZM38.8223 2.98814V3.18814C39.5737 3.18814 40.2311 3.27531 40.7971 3.44617L40.8549 3.2547L40.9127 3.06323C40.3013 2.87868 39.6037 2.78814 38.8223 2.78814V2.98814ZM40.8549 3.2547L40.8004 3.44714C41.3737 3.6094 41.8211 3.81705 42.151 4.06444L42.271 3.90444L42.391 3.74444C42.01 3.45871 41.5133 3.2332 40.9093 3.06226L40.8549 3.2547ZM42.271 3.90444L42.151 4.06444C42.4875 4.31687 42.7652 4.61571 42.9852 4.96143L43.1539 4.85406L43.3227 4.74668C43.0762 4.35937 42.7652 4.02513 42.391 3.74444L42.271 3.90444ZM43.1539 4.85406L42.9852 4.96143C43.2102 5.31497 43.3614 5.64609 43.4438 5.95517L43.6371 5.90364L43.8303 5.85211C43.7351 5.49479 43.5642 5.12619 43.3227 4.74668L43.1539 4.85406ZM43.6371 5.90364L43.4461 5.96292C43.5415 6.27046 43.6057 6.60086 43.6378 6.95467L43.837 6.93656L44.0362 6.91845C44.0017 6.53922 43.9326 6.18101 43.8281 5.84436L43.6371 5.90364ZM43.837 6.93656V6.73656H41.7212V6.93656V7.13656H43.837V6.93656ZM41.7212 6.93656L41.9189 6.90615C41.823 6.28296 41.5344 5.73876 41.0611 5.2773L40.9215 5.4205L40.7819 5.5637C41.1971 5.96856 41.4417 6.43507 41.5235 6.96697L41.7212 6.93656ZM40.9215 5.4205L41.0647 5.28088C40.5774 4.78111 39.8132 4.5541 38.8223 4.5541V4.7541V4.9541C39.7641 4.9541 40.3993 5.17136 40.7783 5.56012L40.9215 5.4205ZM38.8223 4.7541V4.5541C38.2309 4.5541 37.7002 4.66438 37.2354 4.89084L37.3229 5.07064L37.4105 5.25044C37.812 5.05485 38.281 4.9541 38.8223 4.9541V4.7541ZM37.3229 5.07064L37.2373 4.88989C36.7923 5.10069 36.4327 5.37407 36.1661 5.71344L36.3233 5.837L36.4806 5.96056C36.7027 5.67796 37.0095 5.44043 37.4086 5.25139L37.3229 5.07064ZM36.3233 5.837L36.1683 5.71067C35.9079 6.03021 35.6978 6.41128 35.5359 6.85076L35.7236 6.9199L35.9113 6.98904C36.0603 6.58442 36.2501 6.24355 36.4784 5.96333L36.3233 5.837ZM35.7236 6.9199L35.5344 6.85516C35.3861 7.28839 35.2881 7.70217 35.2417 8.09605L35.4404 8.11942L35.639 8.14279C35.6815 7.78142 35.7723 7.39551 35.9128 6.98464L35.7236 6.9199ZM35.4404 8.11942L35.2418 8.09535C35.1963 8.47069 35.1737 8.86752 35.1737 9.28562H35.3737H35.5737C35.5737 8.88183 35.5956 8.50119 35.6389 8.14349L35.4404 8.11942ZM35.3737 9.28562H35.1737C35.1737 10.1257 35.2929 10.8623 35.5372 11.4906L35.7236 11.4181L35.91 11.3456C35.6878 10.7744 35.5737 10.0893 35.5737 9.28562H35.3737ZM35.7236 11.4181L35.5389 11.4948C35.7922 12.105 36.1208 12.5808 36.5322 12.9075L36.6565 12.7509L36.7809 12.5943C36.4371 12.3212 36.1437 11.9085 35.9083 11.3414L35.7236 11.4181ZM36.6565 12.7509L36.5373 12.9114C36.9388 13.2097 37.3396 13.4314 37.7395 13.5726L37.8061 13.384L37.8727 13.1954C37.5174 13.07 37.1517 12.8696 36.7758 12.5904L36.6565 12.7509ZM37.8061 13.384L37.7412 13.5732C38.1496 13.7132 38.5602 13.7839 38.9723 13.7839V13.5839V13.3839C38.6069 13.3839 38.24 13.3213 37.871 13.1948L37.8061 13.384ZM38.9723 13.5839V13.7839C39.2896 13.7839 39.6113 13.7427 39.9371 13.6613L39.8886 13.4673L39.8401 13.2733C39.5439 13.3473 39.2547 13.3839 38.9723 13.3839V13.5839ZM39.8886 13.4673L39.9435 13.6596C40.2743 13.5651 40.6125 13.4128 40.9578 13.2056L40.8549 13.0341L40.752 12.8626C40.4309 13.0553 40.1248 13.1918 39.8336 13.275L39.8886 13.4673ZM40.8549 13.0341L40.9553 13.2071C41.3394 12.984 41.6468 12.6354 41.8825 12.1758L41.7045 12.0845L41.5266 11.9932C41.318 12.3999 41.0589 12.6844 40.7544 12.8612L40.8549 13.0341ZM41.7045 12.0845L41.8825 12.1758C42.1216 11.7094 42.2428 11.1559 42.2544 10.5221L42.0544 10.5185L41.8544 10.5148C41.8437 11.1028 41.7317 11.5933 41.5266 11.9932L41.7045 12.0845ZM42.0544 10.5185V10.3185H39.2055V10.5185V10.7185H42.0544V10.5185ZM39.2055 10.5185H39.4055V8.7525H39.2055H39.0055V10.5185H39.2055ZM47.6498 9.76876V9.56876H47.4498V9.76876H47.6498ZM47.6498 15V15.2H47.8498V15H47.6498ZM45.5173 15H45.3173V15.2H45.5173V15ZM45.5173 3.338V3.138H45.3173V3.338H45.5173ZM47.6498 3.338H47.8498V3.138H47.6498V3.338ZM47.6498 8.0028H47.4498V8.2028H47.6498V8.0028ZM52.8477 8.0028V8.2028H53.0477V8.0028H52.8477ZM52.8477 3.338V3.138H52.6477V3.338H52.8477ZM54.9802 3.338H55.1802V3.138H54.9802V3.338ZM54.9802 15V15.2H55.1802V15H54.9802ZM52.8477 15H52.6477V15.2H52.8477V15ZM52.8477 9.76876H53.0477V9.56876H52.8477V9.76876ZM47.6498 9.76876H47.4498V15H47.6498H47.8498V9.76876H47.6498ZM47.6498 15V14.8H45.5173V15V15.2H47.6498V15ZM45.5173 15H45.7173V3.338H45.5173H45.3173V15H45.5173ZM45.5173 3.338V3.538H47.6498V3.338V3.138H45.5173V3.338ZM47.6498 3.338H47.4498V8.0028H47.6498H47.8498V3.338H47.6498ZM47.6498 8.0028V8.2028H52.8477V8.0028V7.8028H47.6498V8.0028ZM52.8477 8.0028H53.0477V3.338H52.8477H52.6477V8.0028H52.8477ZM52.8477 3.338V3.538H54.9802V3.338V3.138H52.8477V3.338ZM54.9802 3.338H54.7802V15H54.9802H55.1802V3.338H54.9802ZM54.9802 15V14.8H52.8477V15V15.2H54.9802V15ZM52.8477 15H53.0477V9.76876H52.8477H52.6477V15H52.8477ZM52.8477 9.76876V9.56876H47.6498V9.76876V9.96876H52.8477V9.76876ZM59.4498 5.10396H59.6498V4.90396H59.4498V5.10396ZM55.7846 5.10396H55.5846V5.30396H55.7846V5.10396ZM55.7846 3.338V3.138H55.5846V3.338H55.7846ZM65.2475 3.338H65.4475V3.138H65.2475V3.338ZM65.2475 5.10396V5.30396H65.4475V5.10396H65.2475ZM61.5823 5.10396V4.90396H61.3823V5.10396H61.5823ZM61.5823 15V15.2H61.7823V15H61.5823ZM59.4498 15H59.2498V15.2H59.4498V15ZM59.4498 5.10396V4.90396H55.7846V5.10396V5.30396H59.4498V5.10396ZM55.7846 5.10396H55.9846V3.338H55.7846H55.5846V5.10396H55.7846ZM55.7846 3.338V3.538H65.2475V3.338V3.138H55.7846V3.338ZM65.2475 3.338H65.0475V5.10396H65.2475H65.4475V3.338H65.2475ZM65.2475 5.10396V4.90396H61.5823V5.10396V5.30396H65.2475V5.10396ZM61.5823 5.10396H61.3823V15H61.5823H61.7823V5.10396H61.5823ZM61.5823 15V14.8H59.4498V15V15.2H61.5823V15ZM59.4498 15H59.6498V5.10396H59.4498H59.2498V15H59.4498Z" fill="black" mask="url(#path-1-outside-1_1_52)"/>
</g>
<defs>
<filter id="filter0_g_1_52" x="0.256233" y="0.288147" width="67.6912" height="17.7617" filterUnits="userSpaceOnUse" color-interpolation-filters="sRGB">
<feFlood flood-opacity="0" result="BackgroundImageFix"/>
<feBlend mode="normal" in="SourceGraphic" in2="BackgroundImageFix" result="shape"/>
<feTurbulence type="fractalNoise" baseFrequency="3.3333332538604736 3.3333332538604736" numOctaves="3" seed="4245" />
<feDisplacementMap in="shape" scale="5" xChannelSelector="R" yChannelSelector="G" result="displacedImage" width="100%" height="100%" />
<feMerge result="effect1_texture_1_52">
<feMergeNode in="displacedImage"/>
</feMerge>
</filter>
</defs>
</svg>
