<svg width="85" height="19" viewBox="0 0 85 19" fill="none" xmlns="http://www.w3.org/2000/svg">
<mask id="path-1-outside-1_1_65" maskUnits="userSpaceOnUse" x="0" y="0" width="86" height="19" fill="black">
<rect fill="white" width="86" height="19"/>
<path d="M6.69297 1.4H10.293V2.3H6.69297V1.4ZM4.89297 13.1H3.99297V12.2H3.09297V10.4H2.19297V5.9H3.09297V4.1H3.99297V3.2H4.89297V2.3H6.69297V3.2H5.79297V4.1H4.89297V5.9H3.99297V10.4H4.89297V12.2H5.79297V13.1H9.39297V14H4.89297V13.1ZM11.193 13.1H9.39297V12.2H10.293V11.3H11.193V9.5H12.093V5H11.193V3.2H10.293V2.3H12.093V3.2H12.993V5H13.893V9.5H12.993V11.3H12.093V12.2H11.193V13.1ZM3.99297 14H4.89297V14.9H3.99297V14ZM2.19297 14.9H3.99297V15.8H4.89297V16.7H3.09297V17.6H1.29297V15.8H2.19297V14.9ZM12.093 14.9H12.993V16.7H12.093V17.6H9.39297V16.7H8.49297V15.8H12.093V14.9ZM4.89297 14.9H8.49297V15.8H4.89297V14.9ZM19.293 14H16.593V13.1H15.693V10.4H16.593V7.7H17.493V5.9H16.593V5H19.293V7.7H18.393V10.4H17.493V12.2H18.393V13.1H19.293V14ZM21.993 11.3H21.093V10.4H21.993V9.5H22.893V7.7H23.793V5H25.593V7.7H24.693V10.4H23.793V13.1H24.693V14H21.993V11.3ZM16.593 6.8H15.693V5.9H16.593V6.8ZM21.093 12.2H20.193V11.3H21.093V12.2ZM20.193 13.1H19.293V12.2H20.193V13.1ZM25.593 13.1H24.693V12.2H25.593V13.1ZM32.8 8.6H33.7V5.9H31V5H34.6V5.9H35.5V8.6H34.6V9.5H32.8V8.6ZM28.3 12.2H27.4V8.6H28.3V6.8H29.2V5.9H31V6.8H30.1V8.6H29.2V10.4H31V11.3H29.2V12.2H30.1V13.1H32.8V14H29.2V13.1H28.3V12.2ZM31 9.5H32.8V10.4H31V9.5ZM34.6 11.3H35.5V12.2H34.6V11.3ZM32.8 12.2H34.6V13.1H32.8V12.2ZM37.2965 13.1H36.3965V11.3H38.1965V13.1H40.8965V11.3H39.9965V9.5H39.0965V7.7H38.1965V5.9H39.0965V5H43.5965V5.9H44.4965V7.7H42.6965V5.9H39.9965V7.7H40.8965V9.5H41.7965V11.3H42.6965V13.1H41.7965V14H37.2965V13.1ZM45.4 11.3H46.3V8.6H47.2V5.9H45.4V5H48.1V2.3H49.9V5H51.7V5.9H49V9.5H48.1V11.3H47.2V13.1H48.1V14H45.4V11.3ZM48.1 12.2H49V13.1H48.1V12.2ZM55.307 1.4H57.107V3.2H55.307V1.4ZM52.607 11.3H53.507V8.6H54.407V5.9H53.507V5H56.207V9.5H55.307V11.3H54.407V13.1H55.307V14H52.607V11.3ZM52.607 5.9H53.507V6.8H52.607V5.9ZM55.307 12.2H56.207V13.1H55.307V12.2ZM63.4035 12.2H64.3035V10.4H65.2035V6.8H64.3035V5.9H61.6035V5H65.2035V5.9H66.1035V6.8H67.0035V10.4H66.1035V12.2H65.2035V13.1H63.4035V12.2ZM58.9035 12.2H58.0035V8.6H58.9035V6.8H59.8035V5.9H61.6035V6.8H60.7035V8.6H59.8035V12.2H60.7035V13.1H63.4035V14H59.8035V13.1H58.9035V12.2ZM68.7965 11.3H69.6965V8.6H70.5965V5.9H69.6965V5H72.3965V7.7H73.2965V8.6H72.3965V9.5H71.4965V11.3H70.5965V14H68.7965V11.3ZM75.0965 11.3H75.9965V8.6H76.8965V6.8H75.9965V5.9H75.0965V5H77.7965V5.9H78.6965V8.6H77.7965V11.3H76.8965V13.1H77.7965V14H75.0965V11.3ZM74.1965 5.9H75.0965V6.8H74.1965V5.9ZM68.7965 5.9H69.6965V6.8H68.7965V5.9ZM73.2965 6.8H74.1965V7.7H73.2965V6.8ZM77.7965 12.2H78.6965V13.1H77.7965V12.2ZM82.3035 5H84.1035V6.8H82.3035V5ZM80.5035 12.2H82.3035V14H80.5035V12.2Z"/>
</mask>
<path d="M6.69297 1.4H10.293V2.3H6.69297V1.4ZM4.89297 13.1H3.99297V12.2H3.09297V10.4H2.19297V5.9H3.09297V4.1H3.99297V3.2H4.89297V2.3H6.69297V3.2H5.79297V4.1H4.89297V5.9H3.99297V10.4H4.89297V12.2H5.79297V13.1H9.39297V14H4.89297V13.1ZM11.193 13.1H9.39297V12.2H10.293V11.3H11.193V9.5H12.093V5H11.193V3.2H10.293V2.3H12.093V3.2H12.993V5H13.893V9.5H12.993V11.3H12.093V12.2H11.193V13.1ZM3.99297 14H4.89297V14.9H3.99297V14ZM2.19297 14.9H3.99297V15.8H4.89297V16.7H3.09297V17.6H1.29297V15.8H2.19297V14.9ZM12.093 14.9H12.993V16.7H12.093V17.6H9.39297V16.7H8.49297V15.8H12.093V14.9ZM4.89297 14.9H8.49297V15.8H4.89297V14.9ZM19.293 14H16.593V13.1H15.693V10.4H16.593V7.7H17.493V5.9H16.593V5H19.293V7.7H18.393V10.4H17.493V12.2H18.393V13.1H19.293V14ZM21.993 11.3H21.093V10.4H21.993V9.5H22.893V7.7H23.793V5H25.593V7.7H24.693V10.4H23.793V13.1H24.693V14H21.993V11.3ZM16.593 6.8H15.693V5.9H16.593V6.8ZM21.093 12.2H20.193V11.3H21.093V12.2ZM20.193 13.1H19.293V12.2H20.193V13.1ZM25.593 13.1H24.693V12.2H25.593V13.1ZM32.8 8.6H33.7V5.9H31V5H34.6V5.9H35.5V8.6H34.6V9.5H32.8V8.6ZM28.3 12.2H27.4V8.6H28.3V6.8H29.2V5.9H31V6.8H30.1V8.6H29.2V10.4H31V11.3H29.2V12.2H30.1V13.1H32.8V14H29.2V13.1H28.3V12.2ZM31 9.5H32.8V10.4H31V9.5ZM34.6 11.3H35.5V12.2H34.6V11.3ZM32.8 12.2H34.6V13.1H32.8V12.2ZM37.2965 13.1H36.3965V11.3H38.1965V13.1H40.8965V11.3H39.9965V9.5H39.0965V7.7H38.1965V5.9H39.0965V5H43.5965V5.9H44.4965V7.7H42.6965V5.9H39.9965V7.7H40.8965V9.5H41.7965V11.3H42.6965V13.1H41.7965V14H37.2965V13.1ZM45.4 11.3H46.3V8.6H47.2V5.9H45.4V5H48.1V2.3H49.9V5H51.7V5.9H49V9.5H48.1V11.3H47.2V13.1H48.1V14H45.4V11.3ZM48.1 12.2H49V13.1H48.1V12.2ZM55.307 1.4H57.107V3.2H55.307V1.4ZM52.607 11.3H53.507V8.6H54.407V5.9H53.507V5H56.207V9.5H55.307V11.3H54.407V13.1H55.307V14H52.607V11.3ZM52.607 5.9H53.507V6.8H52.607V5.9ZM55.307 12.2H56.207V13.1H55.307V12.2ZM63.4035 12.2H64.3035V10.4H65.2035V6.8H64.3035V5.9H61.6035V5H65.2035V5.9H66.1035V6.8H67.0035V10.4H66.1035V12.2H65.2035V13.1H63.4035V12.2ZM58.9035 12.2H58.0035V8.6H58.9035V6.8H59.8035V5.9H61.6035V6.8H60.7035V8.6H59.8035V12.2H60.7035V13.1H63.4035V14H59.8035V13.1H58.9035V12.2ZM68.7965 11.3H69.6965V8.6H70.5965V5.9H69.6965V5H72.3965V7.7H73.2965V8.6H72.3965V9.5H71.4965V11.3H70.5965V14H68.7965V11.3ZM75.0965 11.3H75.9965V8.6H76.8965V6.8H75.9965V5.9H75.0965V5H77.7965V5.9H78.6965V8.6H77.7965V11.3H76.8965V13.1H77.7965V14H75.0965V11.3ZM74.1965 5.9H75.0965V6.8H74.1965V5.9ZM68.7965 5.9H69.6965V6.8H68.7965V5.9ZM73.2965 6.8H74.1965V7.7H73.2965V6.8ZM77.7965 12.2H78.6965V13.1H77.7965V12.2ZM82.3035 5H84.1035V6.8H82.3035V5ZM80.5035 12.2H82.3035V14H80.5035V12.2Z" fill="#FFF32E"/>
<path d="M6.69297 1.4V0.399999H5.69297V1.4H6.69297ZM10.293 1.4H11.293V0.399999H10.293V1.4ZM10.293 2.3V3.3H11.293V2.3H10.293ZM6.69297 2.3H5.69297V3.3H6.69297V2.3ZM4.89297 13.1H5.89297V12.1H4.89297V13.1ZM3.99297 13.1H2.99297V14.1H3.99297V13.1ZM3.99297 12.2H4.99297V11.2H3.99297V12.2ZM3.09297 12.2H2.09297V13.2H3.09297V12.2ZM3.09297 10.4H4.09297V9.4H3.09297V10.4ZM2.19297 10.4H1.19297V11.4H2.19297V10.4ZM2.19297 5.9V4.9H1.19297V5.9H2.19297ZM3.09297 5.9V6.9H4.09297V5.9H3.09297ZM3.09297 4.1V3.1H2.09297V4.1H3.09297ZM3.99297 4.1V5.1H4.99297V4.1H3.99297ZM3.99297 3.2V2.2H2.99297V3.2H3.99297ZM4.89297 3.2V4.2H5.89297V3.2H4.89297ZM4.89297 2.3V1.3H3.89297V2.3H4.89297ZM6.69297 2.3H7.69297V1.3H6.69297V2.3ZM6.69297 3.2V4.2H7.69297V3.2H6.69297ZM5.79297 3.2V2.2H4.79297V3.2H5.79297ZM5.79297 4.1V5.1H6.79297V4.1H5.79297ZM4.89297 4.1V3.1H3.89297V4.1H4.89297ZM4.89297 5.9V6.9H5.89297V5.9H4.89297ZM3.99297 5.9V4.9H2.99297V5.9H3.99297ZM3.99297 10.4H2.99297V11.4H3.99297V10.4ZM4.89297 10.4H5.89297V9.4H4.89297V10.4ZM4.89297 12.2H3.89297V13.2H4.89297V12.2ZM5.79297 12.2H6.79297V11.2H5.79297V12.2ZM5.79297 13.1H4.79297V14.1H5.79297V13.1ZM9.39297 13.1H10.393V12.1H9.39297V13.1ZM9.39297 14V15H10.393V14H9.39297ZM4.89297 14H3.89297V15H4.89297V14ZM11.193 13.1V14.1H12.193V13.1H11.193ZM9.39297 13.1H8.39297V14.1H9.39297V13.1ZM9.39297 12.2V11.2H8.39297V12.2H9.39297ZM10.293 12.2V13.2H11.293V12.2H10.293ZM10.293 11.3V10.3H9.29297V11.3H10.293ZM11.193 11.3V12.3H12.193V11.3H11.193ZM11.193 9.5V8.5H10.193V9.5H11.193ZM12.093 9.5V10.5H13.093V9.5H12.093ZM12.093 5H13.093V4H12.093V5ZM11.193 5H10.193V6H11.193V5ZM11.193 3.2H12.193V2.2H11.193V3.2ZM10.293 3.2H9.29297V4.2H10.293V3.2ZM10.293 2.3V1.3H9.29297V2.3H10.293ZM12.093 2.3H13.093V1.3H12.093V2.3ZM12.093 3.2H11.093V4.2H12.093V3.2ZM12.993 3.2H13.993V2.2H12.993V3.2ZM12.993 5H11.993V6H12.993V5ZM13.893 5H14.893V4H13.893V5ZM13.893 9.5V10.5H14.893V9.5H13.893ZM12.993 9.5V8.5H11.993V9.5H12.993ZM12.993 11.3V12.3H13.993V11.3H12.993ZM12.093 11.3V10.3H11.093V11.3H12.093ZM12.093 12.2V13.2H13.093V12.2H12.093ZM11.193 12.2V11.2H10.193V12.2H11.193ZM3.99297 14V13H2.99297V14H3.99297ZM4.89297 14H5.89297V13H4.89297V14ZM4.89297 14.9V15.9H5.89297V14.9H4.89297ZM3.99297 14.9H2.99297V15.9H3.99297V14.9ZM2.19297 14.9V13.9H1.19297V14.9H2.19297ZM3.99297 14.9H4.99297V13.9H3.99297V14.9ZM3.99297 15.8H2.99297V16.8H3.99297V15.8ZM4.89297 15.8H5.89297V14.8H4.89297V15.8ZM4.89297 16.7V17.7H5.89297V16.7H4.89297ZM3.09297 16.7V15.7H2.09297V16.7H3.09297ZM3.09297 17.6V18.6H4.09297V17.6H3.09297ZM1.29297 17.6H0.292969V18.6H1.29297V17.6ZM1.29297 15.8V14.8H0.292969V15.8H1.29297ZM2.19297 15.8V16.8H3.19297V15.8H2.19297ZM12.093 14.9V13.9H11.093V14.9H12.093ZM12.993 14.9H13.993V13.9H12.993V14.9ZM12.993 16.7V17.7H13.993V16.7H12.993ZM12.093 16.7V15.7H11.093V16.7H12.093ZM12.093 17.6V18.6H13.093V17.6H12.093ZM9.39297 17.6H8.39297V18.6H9.39297V17.6ZM9.39297 16.7H10.393V15.7H9.39297V16.7ZM8.49297 16.7H7.49297V17.7H8.49297V16.7ZM8.49297 15.8V14.8H7.49297V15.8H8.49297ZM12.093 15.8V16.8H13.093V15.8H12.093ZM4.89297 14.9V13.9H3.89297V14.9H4.89297ZM8.49297 14.9H9.49297V13.9H8.49297V14.9ZM8.49297 15.8V16.8H9.49297V15.8H8.49297ZM4.89297 15.8H3.89297V16.8H4.89297V15.8ZM6.69297 1.4V2.4H10.293V1.4V0.399999H6.69297V1.4ZM10.293 1.4H9.29297V2.3H10.293H11.293V1.4H10.293ZM10.293 2.3V1.3H6.69297V2.3V3.3H10.293V2.3ZM6.69297 2.3H7.69297V1.4H6.69297H5.69297V2.3H6.69297ZM4.89297 13.1V12.1H3.99297V13.1V14.1H4.89297V13.1ZM3.99297 13.1H4.99297V12.2H3.99297H2.99297V13.1H3.99297ZM3.99297 12.2V11.2H3.09297V12.2V13.2H3.99297V12.2ZM3.09297 12.2H4.09297V10.4H3.09297H2.09297V12.2H3.09297ZM3.09297 10.4V9.4H2.19297V10.4V11.4H3.09297V10.4ZM2.19297 10.4H3.19297V5.9H2.19297H1.19297V10.4H2.19297ZM2.19297 5.9V6.9H3.09297V5.9V4.9H2.19297V5.9ZM3.09297 5.9H4.09297V4.1H3.09297H2.09297V5.9H3.09297ZM3.09297 4.1V5.1H3.99297V4.1V3.1H3.09297V4.1ZM3.99297 4.1H4.99297V3.2H3.99297H2.99297V4.1H3.99297ZM3.99297 3.2V4.2H4.89297V3.2V2.2H3.99297V3.2ZM4.89297 3.2H5.89297V2.3H4.89297H3.89297V3.2H4.89297ZM4.89297 2.3V3.3H6.69297V2.3V1.3H4.89297V2.3ZM6.69297 2.3H5.69297V3.2H6.69297H7.69297V2.3H6.69297ZM6.69297 3.2V2.2H5.79297V3.2V4.2H6.69297V3.2ZM5.79297 3.2H4.79297V4.1H5.79297H6.79297V3.2H5.79297ZM5.79297 4.1V3.1H4.89297V4.1V5.1H5.79297V4.1ZM4.89297 4.1H3.89297V5.9H4.89297H5.89297V4.1H4.89297ZM4.89297 5.9V4.9H3.99297V5.9V6.9H4.89297V5.9ZM3.99297 5.9H2.99297V10.4H3.99297H4.99297V5.9H3.99297ZM3.99297 10.4V11.4H4.89297V10.4V9.4H3.99297V10.4ZM4.89297 10.4H3.89297V12.2H4.89297H5.89297V10.4H4.89297ZM4.89297 12.2V13.2H5.79297V12.2V11.2H4.89297V12.2ZM5.79297 12.2H4.79297V13.1H5.79297H6.79297V12.2H5.79297ZM5.79297 13.1V14.1H9.39297V13.1V12.1H5.79297V13.1ZM9.39297 13.1H8.39297V14H9.39297H10.393V13.1H9.39297ZM9.39297 14V13H4.89297V14V15H9.39297V14ZM4.89297 14H5.89297V13.1H4.89297H3.89297V14H4.89297ZM11.193 13.1V12.1H9.39297V13.1V14.1H11.193V13.1ZM9.39297 13.1H10.393V12.2H9.39297H8.39297V13.1H9.39297ZM9.39297 12.2V13.2H10.293V12.2V11.2H9.39297V12.2ZM10.293 12.2H11.293V11.3H10.293H9.29297V12.2H10.293ZM10.293 11.3V12.3H11.193V11.3V10.3H10.293V11.3ZM11.193 11.3H12.193V9.5H11.193H10.193V11.3H11.193ZM11.193 9.5V10.5H12.093V9.5V8.5H11.193V9.5ZM12.093 9.5H13.093V5H12.093H11.093V9.5H12.093ZM12.093 5V4H11.193V5V6H12.093V5ZM11.193 5H12.193V3.2H11.193H10.193V5H11.193ZM11.193 3.2V2.2H10.293V3.2V4.2H11.193V3.2ZM10.293 3.2H11.293V2.3H10.293H9.29297V3.2H10.293ZM10.293 2.3V3.3H12.093V2.3V1.3H10.293V2.3ZM12.093 2.3H11.093V3.2H12.093H13.093V2.3H12.093ZM12.093 3.2V4.2H12.993V3.2V2.2H12.093V3.2ZM12.993 3.2H11.993V5H12.993H13.993V3.2H12.993ZM12.993 5V6H13.893V5V4H12.993V5ZM13.893 5H12.893V9.5H13.893H14.893V5H13.893ZM13.893 9.5V8.5H12.993V9.5V10.5H13.893V9.5ZM12.993 9.5H11.993V11.3H12.993H13.993V9.5H12.993ZM12.993 11.3V10.3H12.093V11.3V12.3H12.993V11.3ZM12.093 11.3H11.093V12.2H12.093H13.093V11.3H12.093ZM12.093 12.2V11.2H11.193V12.2V13.2H12.093V12.2ZM11.193 12.2H10.193V13.1H11.193H12.193V12.2H11.193ZM3.99297 14V15H4.89297V14V13H3.99297V14ZM4.89297 14H3.89297V14.9H4.89297H5.89297V14H4.89297ZM4.89297 14.9V13.9H3.99297V14.9V15.9H4.89297V14.9ZM3.99297 14.9H4.99297V14H3.99297H2.99297V14.9H3.99297ZM2.19297 14.9V15.9H3.99297V14.9V13.9H2.19297V14.9ZM3.99297 14.9H2.99297V15.8H3.99297H4.99297V14.9H3.99297ZM3.99297 15.8V16.8H4.89297V15.8V14.8H3.99297V15.8ZM4.89297 15.8H3.89297V16.7H4.89297H5.89297V15.8H4.89297ZM4.89297 16.7V15.7H3.09297V16.7V17.7H4.89297V16.7ZM3.09297 16.7H2.09297V17.6H3.09297H4.09297V16.7H3.09297ZM3.09297 17.6V16.6H1.29297V17.6V18.6H3.09297V17.6ZM1.29297 17.6H2.29297V15.8H1.29297H0.292969V17.6H1.29297ZM1.29297 15.8V16.8H2.19297V15.8V14.8H1.29297V15.8ZM2.19297 15.8H3.19297V14.9H2.19297H1.19297V15.8H2.19297ZM12.093 14.9V15.9H12.993V14.9V13.9H12.093V14.9ZM12.993 14.9H11.993V16.7H12.993H13.993V14.9H12.993ZM12.993 16.7V15.7H12.093V16.7V17.7H12.993V16.7ZM12.093 16.7H11.093V17.6H12.093H13.093V16.7H12.093ZM12.093 17.6V16.6H9.39297V17.6V18.6H12.093V17.6ZM9.39297 17.6H10.393V16.7H9.39297H8.39297V17.6H9.39297ZM9.39297 16.7V15.7H8.49297V16.7V17.7H9.39297V16.7ZM8.49297 16.7H9.49297V15.8H8.49297H7.49297V16.7H8.49297ZM8.49297 15.8V16.8H12.093V15.8V14.8H8.49297V15.8ZM12.093 15.8H13.093V14.9H12.093H11.093V15.8H12.093ZM4.89297 14.9V15.9H8.49297V14.9V13.9H4.89297V14.9ZM8.49297 14.9H7.49297V15.8H8.49297H9.49297V14.9H8.49297ZM8.49297 15.8V14.8H4.89297V15.8V16.8H8.49297V15.8ZM4.89297 15.8H5.89297V14.9H4.89297H3.89297V15.8H4.89297ZM19.293 14V15H20.293V14H19.293ZM16.593 14H15.593V15H16.593V14ZM16.593 13.1H17.593V12.1H16.593V13.1ZM15.693 13.1H14.693V14.1H15.693V13.1ZM15.693 10.4V9.4H14.693V10.4H15.693ZM16.593 10.4V11.4H17.593V10.4H16.593ZM16.593 7.7V6.7H15.593V7.7H16.593ZM17.493 7.7V8.7H18.493V7.7H17.493ZM17.493 5.9H18.493V4.9H17.493V5.9ZM16.593 5.9H15.593V6.9H16.593V5.9ZM16.593 5V4H15.593V5H16.593ZM19.293 5H20.293V4H19.293V5ZM19.293 7.7V8.7H20.293V7.7H19.293ZM18.393 7.7V6.7H17.393V7.7H18.393ZM18.393 10.4V11.4H19.393V10.4H18.393ZM17.493 10.4V9.4H16.493V10.4H17.493ZM17.493 12.2H16.493V13.2H17.493V12.2ZM18.393 12.2H19.393V11.2H18.393V12.2ZM18.393 13.1H17.393V14.1H18.393V13.1ZM19.293 13.1H20.293V12.1H19.293V13.1ZM21.993 11.3H22.993V10.3H21.993V11.3ZM21.093 11.3H20.093V12.3H21.093V11.3ZM21.093 10.4V9.4H20.093V10.4H21.093ZM21.993 10.4V11.4H22.993V10.4H21.993ZM21.993 9.5V8.5H20.993V9.5H21.993ZM22.893 9.5V10.5H23.893V9.5H22.893ZM22.893 7.7V6.7H21.893V7.7H22.893ZM23.793 7.7V8.7H24.793V7.7H23.793ZM23.793 5V4H22.793V5H23.793ZM25.593 5H26.593V4H25.593V5ZM25.593 7.7V8.7H26.593V7.7H25.593ZM24.693 7.7V6.7H23.693V7.7H24.693ZM24.693 10.4V11.4H25.693V10.4H24.693ZM23.793 10.4V9.4H22.793V10.4H23.793ZM23.793 13.1H22.793V14.1H23.793V13.1ZM24.693 13.1H25.693V12.1H24.693V13.1ZM24.693 14V15H25.693V14H24.693ZM21.993 14H20.993V15H21.993V14ZM16.593 6.8V7.8H17.593V6.8H16.593ZM15.693 6.8H14.693V7.8H15.693V6.8ZM15.693 5.9V4.9H14.693V5.9H15.693ZM16.593 5.9H17.593V4.9H16.593V5.9ZM21.093 12.2V13.2H22.093V12.2H21.093ZM20.193 12.2H19.193V13.2H20.193V12.2ZM20.193 11.3V10.3H19.193V11.3H20.193ZM21.093 11.3H22.093V10.3H21.093V11.3ZM20.193 13.1V14.1H21.193V13.1H20.193ZM19.293 13.1H18.293V14.1H19.293V13.1ZM19.293 12.2V11.2H18.293V12.2H19.293ZM20.193 12.2H21.193V11.2H20.193V12.2ZM25.593 13.1V14.1H26.593V13.1H25.593ZM24.693 13.1H23.693V14.1H24.693V13.1ZM24.693 12.2V11.2H23.693V12.2H24.693ZM25.593 12.2H26.593V11.2H25.593V12.2ZM19.293 14V13H16.593V14V15H19.293V14ZM16.593 14H17.593V13.1H16.593H15.593V14H16.593ZM16.593 13.1V12.1H15.693V13.1V14.1H16.593V13.1ZM15.693 13.1H16.693V10.4H15.693H14.693V13.1H15.693ZM15.693 10.4V11.4H16.593V10.4V9.4H15.693V10.4ZM16.593 10.4H17.593V7.7H16.593H15.593V10.4H16.593ZM16.593 7.7V8.7H17.493V7.7V6.7H16.593V7.7ZM17.493 7.7H18.493V5.9H17.493H16.493V7.7H17.493ZM17.493 5.9V4.9H16.593V5.9V6.9H17.493V5.9ZM16.593 5.9H17.593V5H16.593H15.593V5.9H16.593ZM16.593 5V6H19.293V5V4H16.593V5ZM19.293 5H18.293V7.7H19.293H20.293V5H19.293ZM19.293 7.7V6.7H18.393V7.7V8.7H19.293V7.7ZM18.393 7.7H17.393V10.4H18.393H19.393V7.7H18.393ZM18.393 10.4V9.4H17.493V10.4V11.4H18.393V10.4ZM17.493 10.4H16.493V12.2H17.493H18.493V10.4H17.493ZM17.493 12.2V13.2H18.393V12.2V11.2H17.493V12.2ZM18.393 12.2H17.393V13.1H18.393H19.393V12.2H18.393ZM18.393 13.1V14.1H19.293V13.1V12.1H18.393V13.1ZM19.293 13.1H18.293V14H19.293H20.293V13.1H19.293ZM21.993 11.3V10.3H21.093V11.3V12.3H21.993V11.3ZM21.093 11.3H22.093V10.4H21.093H20.093V11.3H21.093ZM21.093 10.4V11.4H21.993V10.4V9.4H21.093V10.4ZM21.993 10.4H22.993V9.5H21.993H20.993V10.4H21.993ZM21.993 9.5V10.5H22.893V9.5V8.5H21.993V9.5ZM22.893 9.5H23.893V7.7H22.893H21.893V9.5H22.893ZM22.893 7.7V8.7H23.793V7.7V6.7H22.893V7.7ZM23.793 7.7H24.793V5H23.793H22.793V7.7H23.793ZM23.793 5V6H25.593V5V4H23.793V5ZM25.593 5H24.593V7.7H25.593H26.593V5H25.593ZM25.593 7.7V6.7H24.693V7.7V8.7H25.593V7.7ZM24.693 7.7H23.693V10.4H24.693H25.693V7.7H24.693ZM24.693 10.4V9.4H23.793V10.4V11.4H24.693V10.4ZM23.793 10.4H22.793V13.1H23.793H24.793V10.4H23.793ZM23.793 13.1V14.1H24.693V13.1V12.1H23.793V13.1ZM24.693 13.1H23.693V14H24.693H25.693V13.1H24.693ZM24.693 14V13H21.993V14V15H24.693V14ZM21.993 14H22.993V11.3H21.993H20.993V14H21.993ZM16.593 6.8V5.8H15.693V6.8V7.8H16.593V6.8ZM15.693 6.8H16.693V5.9H15.693H14.693V6.8H15.693ZM15.693 5.9V6.9H16.593V5.9V4.9H15.693V5.9ZM16.593 5.9H15.593V6.8H16.593H17.593V5.9H16.593ZM21.093 12.2V11.2H20.193V12.2V13.2H21.093V12.2ZM20.193 12.2H21.193V11.3H20.193H19.193V12.2H20.193ZM20.193 11.3V12.3H21.093V11.3V10.3H20.193V11.3ZM21.093 11.3H20.093V12.2H21.093H22.093V11.3H21.093ZM20.193 13.1V12.1H19.293V13.1V14.1H20.193V13.1ZM19.293 13.1H20.293V12.2H19.293H18.293V13.1H19.293ZM19.293 12.2V13.2H20.193V12.2V11.2H19.293V12.2ZM20.193 12.2H19.193V13.1H20.193H21.193V12.2H20.193ZM25.593 13.1V12.1H24.693V13.1V14.1H25.593V13.1ZM24.693 13.1H25.693V12.2H24.693H23.693V13.1H24.693ZM24.693 12.2V13.2H25.593V12.2V11.2H24.693V12.2ZM25.593 12.2H24.593V13.1H25.593H26.593V12.2H25.593ZM32.8 8.6V7.6H31.8V8.6H32.8ZM33.7 8.6V9.6H34.7V8.6H33.7ZM33.7 5.9H34.7V4.9H33.7V5.9ZM31 5.9H30V6.9H31V5.9ZM31 5V4H30V5H31ZM34.6 5H35.6V4H34.6V5ZM34.6 5.9H33.6V6.9H34.6V5.9ZM35.5 5.9H36.5V4.9H35.5V5.9ZM35.5 8.6V9.6H36.5V8.6H35.5ZM34.6 8.6V7.6H33.6V8.6H34.6ZM34.6 9.5V10.5H35.6V9.5H34.6ZM32.8 9.5H31.8V10.5H32.8V9.5ZM28.3 12.2H29.3V11.2H28.3V12.2ZM27.4 12.2H26.4V13.2H27.4V12.2ZM27.4 8.6V7.6H26.4V8.6H27.4ZM28.3 8.6V9.6H29.3V8.6H28.3ZM28.3 6.8V5.8H27.3V6.8H28.3ZM29.2 6.8V7.8H30.2V6.8H29.2ZM29.2 5.9V4.9H28.2V5.9H29.2ZM31 5.9H32V4.9H31V5.9ZM31 6.8V7.8H32V6.8H31ZM30.1 6.8V5.8H29.1V6.8H30.1ZM30.1 8.6V9.6H31.1V8.6H30.1ZM29.2 8.6V7.6H28.2V8.6H29.2ZM29.2 10.4H28.2V11.4H29.2V10.4ZM31 10.4H32V9.4H31V10.4ZM31 11.3V12.3H32V11.3H31ZM29.2 11.3V10.3H28.2V11.3H29.2ZM29.2 12.2H28.2V13.2H29.2V12.2ZM30.1 12.2H31.1V11.2H30.1V12.2ZM30.1 13.1H29.1V14.1H30.1V13.1ZM32.8 13.1H33.8V12.1H32.8V13.1ZM32.8 14V15H33.8V14H32.8ZM29.2 14H28.2V15H29.2V14ZM29.2 13.1H30.2V12.1H29.2V13.1ZM28.3 13.1H27.3V14.1H28.3V13.1ZM31 9.5V8.5H30V9.5H31ZM32.8 9.5H33.8V8.5H32.8V9.5ZM32.8 10.4V11.4H33.8V10.4H32.8ZM31 10.4H30V11.4H31V10.4ZM34.6 11.3V10.3H33.6V11.3H34.6ZM35.5 11.3H36.5V10.3H35.5V11.3ZM35.5 12.2V13.2H36.5V12.2H35.5ZM34.6 12.2H33.6V13.2H34.6V12.2ZM32.8 12.2V11.2H31.8V12.2H32.8ZM34.6 12.2H35.6V11.2H34.6V12.2ZM34.6 13.1V14.1H35.6V13.1H34.6ZM32.8 13.1H31.8V14.1H32.8V13.1ZM32.8 8.6V9.6H33.7V8.6V7.6H32.8V8.6ZM33.7 8.6H34.7V5.9H33.7H32.7V8.6H33.7ZM33.7 5.9V4.9H31V5.9V6.9H33.7V5.9ZM31 5.9H32V5H31H30V5.9H31ZM31 5V6H34.6V5V4H31V5ZM34.6 5H33.6V5.9H34.6H35.6V5H34.6ZM34.6 5.9V6.9H35.5V5.9V4.9H34.6V5.9ZM35.5 5.9H34.5V8.6H35.5H36.5V5.9H35.5ZM35.5 8.6V7.6H34.6V8.6V9.6H35.5V8.6ZM34.6 8.6H33.6V9.5H34.6H35.6V8.6H34.6ZM34.6 9.5V8.5H32.8V9.5V10.5H34.6V9.5ZM32.8 9.5H33.8V8.6H32.8H31.8V9.5H32.8ZM28.3 12.2V11.2H27.4V12.2V13.2H28.3V12.2ZM27.4 12.2H28.4V8.6H27.4H26.4V12.2H27.4ZM27.4 8.6V9.6H28.3V8.6V7.6H27.4V8.6ZM28.3 8.6H29.3V6.8H28.3H27.3V8.6H28.3ZM28.3 6.8V7.8H29.2V6.8V5.8H28.3V6.8ZM29.2 6.8H30.2V5.9H29.2H28.2V6.8H29.2ZM29.2 5.9V6.9H31V5.9V4.9H29.2V5.9ZM31 5.9H30V6.8H31H32V5.9H31ZM31 6.8V5.8H30.1V6.8V7.8H31V6.8ZM30.1 6.8H29.1V8.6H30.1H31.1V6.8H30.1ZM30.1 8.6V7.6H29.2V8.6V9.6H30.1V8.6ZM29.2 8.6H28.2V10.4H29.2H30.2V8.6H29.2ZM29.2 10.4V11.4H31V10.4V9.4H29.2V10.4ZM31 10.4H30V11.3H31H32V10.4H31ZM31 11.3V10.3H29.2V11.3V12.3H31V11.3ZM29.2 11.3H28.2V12.2H29.2H30.2V11.3H29.2ZM29.2 12.2V13.2H30.1V12.2V11.2H29.2V12.2ZM30.1 12.2H29.1V13.1H30.1H31.1V12.2H30.1ZM30.1 13.1V14.1H32.8V13.1V12.1H30.1V13.1ZM32.8 13.1H31.8V14H32.8H33.8V13.1H32.8ZM32.8 14V13H29.2V14V15H32.8V14ZM29.2 14H30.2V13.1H29.2H28.2V14H29.2ZM29.2 13.1V12.1H28.3V13.1V14.1H29.2V13.1ZM28.3 13.1H29.3V12.2H28.3H27.3V13.1H28.3ZM31 9.5V10.5H32.8V9.5V8.5H31V9.5ZM32.8 9.5H31.8V10.4H32.8H33.8V9.5H32.8ZM32.8 10.4V9.4H31V10.4V11.4H32.8V10.4ZM31 10.4H32V9.5H31H30V10.4H31ZM34.6 11.3V12.3H35.5V11.3V10.3H34.6V11.3ZM35.5 11.3H34.5V12.2H35.5H36.5V11.3H35.5ZM35.5 12.2V11.2H34.6V12.2V13.2H35.5V12.2ZM34.6 12.2H35.6V11.3H34.6H33.6V12.2H34.6ZM32.8 12.2V13.2H34.6V12.2V11.2H32.8V12.2ZM34.6 12.2H33.6V13.1H34.6H35.6V12.2H34.6ZM34.6 13.1V12.1H32.8V13.1V14.1H34.6V13.1ZM32.8 13.1H33.8V12.2H32.8H31.8V13.1H32.8ZM37.2965 13.1H38.2965V12.1H37.2965V13.1ZM36.3965 13.1H35.3965V14.1H36.3965V13.1ZM36.3965 11.3V10.3H35.3965V11.3H36.3965ZM38.1965 11.3H39.1965V10.3H38.1965V11.3ZM38.1965 13.1H37.1965V14.1H38.1965V13.1ZM40.8965 13.1V14.1H41.8965V13.1H40.8965ZM40.8965 11.3H41.8965V10.3H40.8965V11.3ZM39.9965 11.3H38.9965V12.3H39.9965V11.3ZM39.9965 9.5H40.9965V8.5H39.9965V9.5ZM39.0965 9.5H38.0965V10.5H39.0965V9.5ZM39.0965 7.7H40.0965V6.7H39.0965V7.7ZM38.1965 7.7H37.1965V8.7H38.1965V7.7ZM38.1965 5.9V4.9H37.1965V5.9H38.1965ZM39.0965 5.9V6.9H40.0965V5.9H39.0965ZM39.0965 5V4H38.0965V5H39.0965ZM43.5965 5H44.5965V4H43.5965V5ZM43.5965 5.9H42.5965V6.9H43.5965V5.9ZM44.4965 5.9H45.4965V4.9H44.4965V5.9ZM44.4965 7.7V8.7H45.4965V7.7H44.4965ZM42.6965 7.7H41.6965V8.7H42.6965V7.7ZM42.6965 5.9H43.6965V4.9H42.6965V5.9ZM39.9965 5.9V4.9H38.9965V5.9H39.9965ZM39.9965 7.7H38.9965V8.7H39.9965V7.7ZM40.8965 7.7H41.8965V6.7H40.8965V7.7ZM40.8965 9.5H39.8965V10.5H40.8965V9.5ZM41.7965 9.5H42.7965V8.5H41.7965V9.5ZM41.7965 11.3H40.7965V12.3H41.7965V11.3ZM42.6965 11.3H43.6965V10.3H42.6965V11.3ZM42.6965 13.1V14.1H43.6965V13.1H42.6965ZM41.7965 13.1V12.1H40.7965V13.1H41.7965ZM41.7965 14V15H42.7965V14H41.7965ZM37.2965 14H36.2965V15H37.2965V14ZM37.2965 13.1V12.1H36.3965V13.1V14.1H37.2965V13.1ZM36.3965 13.1H37.3965V11.3H36.3965H35.3965V13.1H36.3965ZM36.3965 11.3V12.3H38.1965V11.3V10.3H36.3965V11.3ZM38.1965 11.3H37.1965V13.1H38.1965H39.1965V11.3H38.1965ZM38.1965 13.1V14.1H40.8965V13.1V12.1H38.1965V13.1ZM40.8965 13.1H41.8965V11.3H40.8965H39.8965V13.1H40.8965ZM40.8965 11.3V10.3H39.9965V11.3V12.3H40.8965V11.3ZM39.9965 11.3H40.9965V9.5H39.9965H38.9965V11.3H39.9965ZM39.9965 9.5V8.5H39.0965V9.5V10.5H39.9965V9.5ZM39.0965 9.5H40.0965V7.7H39.0965H38.0965V9.5H39.0965ZM39.0965 7.7V6.7H38.1965V7.7V8.7H39.0965V7.7ZM38.1965 7.7H39.1965V5.9H38.1965H37.1965V7.7H38.1965ZM38.1965 5.9V6.9H39.0965V5.9V4.9H38.1965V5.9ZM39.0965 5.9H40.0965V5H39.0965H38.0965V5.9H39.0965ZM39.0965 5V6H43.5965V5V4H39.0965V5ZM43.5965 5H42.5965V5.9H43.5965H44.5965V5H43.5965ZM43.5965 5.9V6.9H44.4965V5.9V4.9H43.5965V5.9ZM44.4965 5.9H43.4965V7.7H44.4965H45.4965V5.9H44.4965ZM44.4965 7.7V6.7H42.6965V7.7V8.7H44.4965V7.7ZM42.6965 7.7H43.6965V5.9H42.6965H41.6965V7.7H42.6965ZM42.6965 5.9V4.9H39.9965V5.9V6.9H42.6965V5.9ZM39.9965 5.9H38.9965V7.7H39.9965H40.9965V5.9H39.9965ZM39.9965 7.7V8.7H40.8965V7.7V6.7H39.9965V7.7ZM40.8965 7.7H39.8965V9.5H40.8965H41.8965V7.7H40.8965ZM40.8965 9.5V10.5H41.7965V9.5V8.5H40.8965V9.5ZM41.7965 9.5H40.7965V11.3H41.7965H42.7965V9.5H41.7965ZM41.7965 11.3V12.3H42.6965V11.3V10.3H41.7965V11.3ZM42.6965 11.3H41.6965V13.1H42.6965H43.6965V11.3H42.6965ZM42.6965 13.1V12.1H41.7965V13.1V14.1H42.6965V13.1ZM41.7965 13.1H40.7965V14H41.7965H42.7965V13.1H41.7965ZM41.7965 14V13H37.2965V14V15H41.7965V14ZM37.2965 14H38.2965V13.1H37.2965H36.2965V14H37.2965ZM45.4 11.3V10.3H44.4V11.3H45.4ZM46.3 11.3V12.3H47.3V11.3H46.3ZM46.3 8.6V7.6H45.3V8.6H46.3ZM47.2 8.6V9.6H48.2V8.6H47.2ZM47.2 5.9H48.2V4.9H47.2V5.9ZM45.4 5.9H44.4V6.9H45.4V5.9ZM45.4 5V4H44.4V5H45.4ZM48.1 5V6H49.1V5H48.1ZM48.1 2.3V1.3H47.1V2.3H48.1ZM49.9 2.3H50.9V1.3H49.9V2.3ZM49.9 5H48.9V6H49.9V5ZM51.7 5H52.7V4H51.7V5ZM51.7 5.9V6.9H52.7V5.9H51.7ZM49 5.9V4.9H48V5.9H49ZM49 9.5V10.5H50V9.5H49ZM48.1 9.5V8.5H47.1V9.5H48.1ZM48.1 11.3V12.3H49.1V11.3H48.1ZM47.2 11.3V10.3H46.2V11.3H47.2ZM47.2 13.1H46.2V14.1H47.2V13.1ZM48.1 13.1H49.1V12.1H48.1V13.1ZM48.1 14V15H49.1V14H48.1ZM45.4 14H44.4V15H45.4V14ZM48.1 12.2V11.2H47.1V12.2H48.1ZM49 12.2H50V11.2H49V12.2ZM49 13.1V14.1H50V13.1H49ZM48.1 13.1H47.1V14.1H48.1V13.1ZM45.4 11.3V12.3H46.3V11.3V10.3H45.4V11.3ZM46.3 11.3H47.3V8.6H46.3H45.3V11.3H46.3ZM46.3 8.6V9.6H47.2V8.6V7.6H46.3V8.6ZM47.2 8.6H48.2V5.9H47.2H46.2V8.6H47.2ZM47.2 5.9V4.9H45.4V5.9V6.9H47.2V5.9ZM45.4 5.9H46.4V5H45.4H44.4V5.9H45.4ZM45.4 5V6H48.1V5V4H45.4V5ZM48.1 5H49.1V2.3H48.1H47.1V5H48.1ZM48.1 2.3V3.3H49.9V2.3V1.3H48.1V2.3ZM49.9 2.3H48.9V5H49.9H50.9V2.3H49.9ZM49.9 5V6H51.7V5V4H49.9V5ZM51.7 5H50.7V5.9H51.7H52.7V5H51.7ZM51.7 5.9V4.9H49V5.9V6.9H51.7V5.9ZM49 5.9H48V9.5H49H50V5.9H49ZM49 9.5V8.5H48.1V9.5V10.5H49V9.5ZM48.1 9.5H47.1V11.3H48.1H49.1V9.5H48.1ZM48.1 11.3V10.3H47.2V11.3V12.3H48.1V11.3ZM47.2 11.3H46.2V13.1H47.2H48.2V11.3H47.2ZM47.2 13.1V14.1H48.1V13.1V12.1H47.2V13.1ZM48.1 13.1H47.1V14H48.1H49.1V13.1H48.1ZM48.1 14V13H45.4V14V15H48.1V14ZM45.4 14H46.4V11.3H45.4H44.4V14H45.4ZM48.1 12.2V13.2H49V12.2V11.2H48.1V12.2ZM49 12.2H48V13.1H49H50V12.2H49ZM49 13.1V12.1H48.1V13.1V14.1H49V13.1ZM48.1 13.1H49.1V12.2H48.1H47.1V13.1H48.1ZM55.307 1.4V0.399999H54.307V1.4H55.307ZM57.107 1.4H58.107V0.399999H57.107V1.4ZM57.107 3.2V4.2H58.107V3.2H57.107ZM55.307 3.2H54.307V4.2H55.307V3.2ZM52.607 11.3V10.3H51.607V11.3H52.607ZM53.507 11.3V12.3H54.507V11.3H53.507ZM53.507 8.6V7.6H52.507V8.6H53.507ZM54.407 8.6V9.6H55.407V8.6H54.407ZM54.407 5.9H55.407V4.9H54.407V5.9ZM53.507 5.9H52.507V6.9H53.507V5.9ZM53.507 5V4H52.507V5H53.507ZM56.207 5H57.207V4H56.207V5ZM56.207 9.5V10.5H57.207V9.5H56.207ZM55.307 9.5V8.5H54.307V9.5H55.307ZM55.307 11.3V12.3H56.307V11.3H55.307ZM54.407 11.3V10.3H53.407V11.3H54.407ZM54.407 13.1H53.407V14.1H54.407V13.1ZM55.307 13.1H56.307V12.1H55.307V13.1ZM55.307 14V15H56.307V14H55.307ZM52.607 14H51.607V15H52.607V14ZM52.607 5.9V4.9H51.607V5.9H52.607ZM53.507 5.9H54.507V4.9H53.507V5.9ZM53.507 6.8V7.8H54.507V6.8H53.507ZM52.607 6.8H51.607V7.8H52.607V6.8ZM55.307 12.2V11.2H54.307V12.2H55.307ZM56.207 12.2H57.207V11.2H56.207V12.2ZM56.207 13.1V14.1H57.207V13.1H56.207ZM55.307 13.1H54.307V14.1H55.307V13.1ZM55.307 1.4V2.4H57.107V1.4V0.399999H55.307V1.4ZM57.107 1.4H56.107V3.2H57.107H58.107V1.4H57.107ZM57.107 3.2V2.2H55.307V3.2V4.2H57.107V3.2ZM55.307 3.2H56.307V1.4H55.307H54.307V3.2H55.307ZM52.607 11.3V12.3H53.507V11.3V10.3H52.607V11.3ZM53.507 11.3H54.507V8.6H53.507H52.507V11.3H53.507ZM53.507 8.6V9.6H54.407V8.6V7.6H53.507V8.6ZM54.407 8.6H55.407V5.9H54.407H53.407V8.6H54.407ZM54.407 5.9V4.9H53.507V5.9V6.9H54.407V5.9ZM53.507 5.9H54.507V5H53.507H52.507V5.9H53.507ZM53.507 5V6H56.207V5V4H53.507V5ZM56.207 5H55.207V9.5H56.207H57.207V5H56.207ZM56.207 9.5V8.5H55.307V9.5V10.5H56.207V9.5ZM55.307 9.5H54.307V11.3H55.307H56.307V9.5H55.307ZM55.307 11.3V10.3H54.407V11.3V12.3H55.307V11.3ZM54.407 11.3H53.407V13.1H54.407H55.407V11.3H54.407ZM54.407 13.1V14.1H55.307V13.1V12.1H54.407V13.1ZM55.307 13.1H54.307V14H55.307H56.307V13.1H55.307ZM55.307 14V13H52.607V14V15H55.307V14ZM52.607 14H53.607V11.3H52.607H51.607V14H52.607ZM52.607 5.9V6.9H53.507V5.9V4.9H52.607V5.9ZM53.507 5.9H52.507V6.8H53.507H54.507V5.9H53.507ZM53.507 6.8V5.8H52.607V6.8V7.8H53.507V6.8ZM52.607 6.8H53.607V5.9H52.607H51.607V6.8H52.607ZM55.307 12.2V13.2H56.207V12.2V11.2H55.307V12.2ZM56.207 12.2H55.207V13.1H56.207H57.207V12.2H56.207ZM56.207 13.1V12.1H55.307V13.1V14.1H56.207V13.1ZM55.307 13.1H56.307V12.2H55.307H54.307V13.1H55.307ZM63.4035 12.2V11.2H62.4035V12.2H63.4035ZM64.3035 12.2V13.2H65.3035V12.2H64.3035ZM64.3035 10.4V9.4H63.3035V10.4H64.3035ZM65.2035 10.4V11.4H66.2035V10.4H65.2035ZM65.2035 6.8H66.2035V5.8H65.2035V6.8ZM64.3035 6.8H63.3035V7.8H64.3035V6.8ZM64.3035 5.9H65.3035V4.9H64.3035V5.9ZM61.6035 5.9H60.6035V6.9H61.6035V5.9ZM61.6035 5V4H60.6035V5H61.6035ZM65.2035 5H66.2035V4H65.2035V5ZM65.2035 5.9H64.2035V6.9H65.2035V5.9ZM66.1035 5.9H67.1035V4.9H66.1035V5.9ZM66.1035 6.8H65.1035V7.8H66.1035V6.8ZM67.0035 6.8H68.0035V5.8H67.0035V6.8ZM67.0035 10.4V11.4H68.0035V10.4H67.0035ZM66.1035 10.4V9.4H65.1035V10.4H66.1035ZM66.1035 12.2V13.2H67.1035V12.2H66.1035ZM65.2035 12.2V11.2H64.2035V12.2H65.2035ZM65.2035 13.1V14.1H66.2035V13.1H65.2035ZM63.4035 13.1H62.4035V14.1H63.4035V13.1ZM58.9035 12.2H59.9035V11.2H58.9035V12.2ZM58.0035 12.2H57.0035V13.2H58.0035V12.2ZM58.0035 8.6V7.6H57.0035V8.6H58.0035ZM58.9035 8.6V9.6H59.9035V8.6H58.9035ZM58.9035 6.8V5.8H57.9035V6.8H58.9035ZM59.8035 6.8V7.8H60.8035V6.8H59.8035ZM59.8035 5.9V4.9H58.8035V5.9H59.8035ZM61.6035 5.9H62.6035V4.9H61.6035V5.9ZM61.6035 6.8V7.8H62.6035V6.8H61.6035ZM60.7035 6.8V5.8H59.7035V6.8H60.7035ZM60.7035 8.6V9.6H61.7035V8.6H60.7035ZM59.8035 8.6V7.6H58.8035V8.6H59.8035ZM59.8035 12.2H58.8035V13.2H59.8035V12.2ZM60.7035 12.2H61.7035V11.2H60.7035V12.2ZM60.7035 13.1H59.7035V14.1H60.7035V13.1ZM63.4035 13.1H64.4035V12.1H63.4035V13.1ZM63.4035 14V15H64.4035V14H63.4035ZM59.8035 14H58.8035V15H59.8035V14ZM59.8035 13.1H60.8035V12.1H59.8035V13.1ZM58.9035 13.1H57.9035V14.1H58.9035V13.1ZM63.4035 12.2V13.2H64.3035V12.2V11.2H63.4035V12.2ZM64.3035 12.2H65.3035V10.4H64.3035H63.3035V12.2H64.3035ZM64.3035 10.4V11.4H65.2035V10.4V9.4H64.3035V10.4ZM65.2035 10.4H66.2035V6.8H65.2035H64.2035V10.4H65.2035ZM65.2035 6.8V5.8H64.3035V6.8V7.8H65.2035V6.8ZM64.3035 6.8H65.3035V5.9H64.3035H63.3035V6.8H64.3035ZM64.3035 5.9V4.9H61.6035V5.9V6.9H64.3035V5.9ZM61.6035 5.9H62.6035V5H61.6035H60.6035V5.9H61.6035ZM61.6035 5V6H65.2035V5V4H61.6035V5ZM65.2035 5H64.2035V5.9H65.2035H66.2035V5H65.2035ZM65.2035 5.9V6.9H66.1035V5.9V4.9H65.2035V5.9ZM66.1035 5.9H65.1035V6.8H66.1035H67.1035V5.9H66.1035ZM66.1035 6.8V7.8H67.0035V6.8V5.8H66.1035V6.8ZM67.0035 6.8H66.0035V10.4H67.0035H68.0035V6.8H67.0035ZM67.0035 10.4V9.4H66.1035V10.4V11.4H67.0035V10.4ZM66.1035 10.4H65.1035V12.2H66.1035H67.1035V10.4H66.1035ZM66.1035 12.2V11.2H65.2035V12.2V13.2H66.1035V12.2ZM65.2035 12.2H64.2035V13.1H65.2035H66.2035V12.2H65.2035ZM65.2035 13.1V12.1H63.4035V13.1V14.1H65.2035V13.1ZM63.4035 13.1H64.4035V12.2H63.4035H62.4035V13.1H63.4035ZM58.9035 12.2V11.2H58.0035V12.2V13.2H58.9035V12.2ZM58.0035 12.2H59.0035V8.6H58.0035H57.0035V12.2H58.0035ZM58.0035 8.6V9.6H58.9035V8.6V7.6H58.0035V8.6ZM58.9035 8.6H59.9035V6.8H58.9035H57.9035V8.6H58.9035ZM58.9035 6.8V7.8H59.8035V6.8V5.8H58.9035V6.8ZM59.8035 6.8H60.8035V5.9H59.8035H58.8035V6.8H59.8035ZM59.8035 5.9V6.9H61.6035V5.9V4.9H59.8035V5.9ZM61.6035 5.9H60.6035V6.8H61.6035H62.6035V5.9H61.6035ZM61.6035 6.8V5.8H60.7035V6.8V7.8H61.6035V6.8ZM60.7035 6.8H59.7035V8.6H60.7035H61.7035V6.8H60.7035ZM60.7035 8.6V7.6H59.8035V8.6V9.6H60.7035V8.6ZM59.8035 8.6H58.8035V12.2H59.8035H60.8035V8.6H59.8035ZM59.8035 12.2V13.2H60.7035V12.2V11.2H59.8035V12.2ZM60.7035 12.2H59.7035V13.1H60.7035H61.7035V12.2H60.7035ZM60.7035 13.1V14.1H63.4035V13.1V12.1H60.7035V13.1ZM63.4035 13.1H62.4035V14H63.4035H64.4035V13.1H63.4035ZM63.4035 14V13H59.8035V14V15H63.4035V14ZM59.8035 14H60.8035V13.1H59.8035H58.8035V14H59.8035ZM59.8035 13.1V12.1H58.9035V13.1V14.1H59.8035V13.1ZM58.9035 13.1H59.9035V12.2H58.9035H57.9035V13.1H58.9035ZM68.7965 11.3V10.3H67.7965V11.3H68.7965ZM69.6965 11.3V12.3H70.6965V11.3H69.6965ZM69.6965 8.6V7.6H68.6965V8.6H69.6965ZM70.5965 8.6V9.6H71.5965V8.6H70.5965ZM70.5965 5.9H71.5965V4.9H70.5965V5.9ZM69.6965 5.9H68.6965V6.9H69.6965V5.9ZM69.6965 5V4H68.6965V5H69.6965ZM72.3965 5H73.3965V4H72.3965V5ZM72.3965 7.7H71.3965V8.7H72.3965V7.7ZM73.2965 7.7H74.2965V6.7H73.2965V7.7ZM73.2965 8.6V9.6H74.2965V8.6H73.2965ZM72.3965 8.6V7.6H71.3965V8.6H72.3965ZM72.3965 9.5V10.5H73.3965V9.5H72.3965ZM71.4965 9.5V8.5H70.4965V9.5H71.4965ZM71.4965 11.3V12.3H72.4965V11.3H71.4965ZM70.5965 11.3V10.3H69.5965V11.3H70.5965ZM70.5965 14V15H71.5965V14H70.5965ZM68.7965 14H67.7965V15H68.7965V14ZM75.0965 11.3V10.3H74.0965V11.3H75.0965ZM75.9965 11.3V12.3H76.9965V11.3H75.9965ZM75.9965 8.6V7.6H74.9965V8.6H75.9965ZM76.8965 8.6V9.6H77.8965V8.6H76.8965ZM76.8965 6.8H77.8965V5.8H76.8965V6.8ZM75.9965 6.8H74.9965V7.8H75.9965V6.8ZM75.9965 5.9H76.9965V4.9H75.9965V5.9ZM75.0965 5.9H74.0965V6.9H75.0965V5.9ZM75.0965 5V4H74.0965V5H75.0965ZM77.7965 5H78.7965V4H77.7965V5ZM77.7965 5.9H76.7965V6.9H77.7965V5.9ZM78.6965 5.9H79.6965V4.9H78.6965V5.9ZM78.6965 8.6V9.6H79.6965V8.6H78.6965ZM77.7965 8.6V7.6H76.7965V8.6H77.7965ZM77.7965 11.3V12.3H78.7965V11.3H77.7965ZM76.8965 11.3V10.3H75.8965V11.3H76.8965ZM76.8965 13.1H75.8965V14.1H76.8965V13.1ZM77.7965 13.1H78.7965V12.1H77.7965V13.1ZM77.7965 14V15H78.7965V14H77.7965ZM75.0965 14H74.0965V15H75.0965V14ZM74.1965 5.9V4.9H73.1965V5.9H74.1965ZM75.0965 5.9H76.0965V4.9H75.0965V5.9ZM75.0965 6.8V7.8H76.0965V6.8H75.0965ZM74.1965 6.8H73.1965V7.8H74.1965V6.8ZM68.7965 5.9V4.9H67.7965V5.9H68.7965ZM69.6965 5.9H70.6965V4.9H69.6965V5.9ZM69.6965 6.8V7.8H70.6965V6.8H69.6965ZM68.7965 6.8H67.7965V7.8H68.7965V6.8ZM73.2965 6.8V5.8H72.2965V6.8H73.2965ZM74.1965 6.8H75.1965V5.8H74.1965V6.8ZM74.1965 7.7V8.7H75.1965V7.7H74.1965ZM73.2965 7.7H72.2965V8.7H73.2965V7.7ZM77.7965 12.2V11.2H76.7965V12.2H77.7965ZM78.6965 12.2H79.6965V11.2H78.6965V12.2ZM78.6965 13.1V14.1H79.6965V13.1H78.6965ZM77.7965 13.1H76.7965V14.1H77.7965V13.1ZM68.7965 11.3V12.3H69.6965V11.3V10.3H68.7965V11.3ZM69.6965 11.3H70.6965V8.6H69.6965H68.6965V11.3H69.6965ZM69.6965 8.6V9.6H70.5965V8.6V7.6H69.6965V8.6ZM70.5965 8.6H71.5965V5.9H70.5965H69.5965V8.6H70.5965ZM70.5965 5.9V4.9H69.6965V5.9V6.9H70.5965V5.9ZM69.6965 5.9H70.6965V5H69.6965H68.6965V5.9H69.6965ZM69.6965 5V6H72.3965V5V4H69.6965V5ZM72.3965 5H71.3965V7.7H72.3965H73.3965V5H72.3965ZM72.3965 7.7V8.7H73.2965V7.7V6.7H72.3965V7.7ZM73.2965 7.7H72.2965V8.6H73.2965H74.2965V7.7H73.2965ZM73.2965 8.6V7.6H72.3965V8.6V9.6H73.2965V8.6ZM72.3965 8.6H71.3965V9.5H72.3965H73.3965V8.6H72.3965ZM72.3965 9.5V8.5H71.4965V9.5V10.5H72.3965V9.5ZM71.4965 9.5H70.4965V11.3H71.4965H72.4965V9.5H71.4965ZM71.4965 11.3V10.3H70.5965V11.3V12.3H71.4965V11.3ZM70.5965 11.3H69.5965V14H70.5965H71.5965V11.3H70.5965ZM70.5965 14V13H68.7965V14V15H70.5965V14ZM68.7965 14H69.7965V11.3H68.7965H67.7965V14H68.7965ZM75.0965 11.3V12.3H75.9965V11.3V10.3H75.0965V11.3ZM75.9965 11.3H76.9965V8.6H75.9965H74.9965V11.3H75.9965ZM75.9965 8.6V9.6H76.8965V8.6V7.6H75.9965V8.6ZM76.8965 8.6H77.8965V6.8H76.8965H75.8965V8.6H76.8965ZM76.8965 6.8V5.8H75.9965V6.8V7.8H76.8965V6.8ZM75.9965 6.8H76.9965V5.9H75.9965H74.9965V6.8H75.9965ZM75.9965 5.9V4.9H75.0965V5.9V6.9H75.9965V5.9ZM75.0965 5.9H76.0965V5H75.0965H74.0965V5.9H75.0965ZM75.0965 5V6H77.7965V5V4H75.0965V5ZM77.7965 5H76.7965V5.9H77.7965H78.7965V5H77.7965ZM77.7965 5.9V6.9H78.6965V5.9V4.9H77.7965V5.9ZM78.6965 5.9H77.6965V8.6H78.6965H79.6965V5.9H78.6965ZM78.6965 8.6V7.6H77.7965V8.6V9.6H78.6965V8.6ZM77.7965 8.6H76.7965V11.3H77.7965H78.7965V8.6H77.7965ZM77.7965 11.3V10.3H76.8965V11.3V12.3H77.7965V11.3ZM76.8965 11.3H75.8965V13.1H76.8965H77.8965V11.3H76.8965ZM76.8965 13.1V14.1H77.7965V13.1V12.1H76.8965V13.1ZM77.7965 13.1H76.7965V14H77.7965H78.7965V13.1H77.7965ZM77.7965 14V13H75.0965V14V15H77.7965V14ZM75.0965 14H76.0965V11.3H75.0965H74.0965V14H75.0965ZM74.1965 5.9V6.9H75.0965V5.9V4.9H74.1965V5.9ZM75.0965 5.9H74.0965V6.8H75.0965H76.0965V5.9H75.0965ZM75.0965 6.8V5.8H74.1965V6.8V7.8H75.0965V6.8ZM74.1965 6.8H75.1965V5.9H74.1965H73.1965V6.8H74.1965ZM68.7965 5.9V6.9H69.6965V5.9V4.9H68.7965V5.9ZM69.6965 5.9H68.6965V6.8H69.6965H70.6965V5.9H69.6965ZM69.6965 6.8V5.8H68.7965V6.8V7.8H69.6965V6.8ZM68.7965 6.8H69.7965V5.9H68.7965H67.7965V6.8H68.7965ZM73.2965 6.8V7.8H74.1965V6.8V5.8H73.2965V6.8ZM74.1965 6.8H73.1965V7.7H74.1965H75.1965V6.8H74.1965ZM74.1965 7.7V6.7H73.2965V7.7V8.7H74.1965V7.7ZM73.2965 7.7H74.2965V6.8H73.2965H72.2965V7.7H73.2965ZM77.7965 12.2V13.2H78.6965V12.2V11.2H77.7965V12.2ZM78.6965 12.2H77.6965V13.1H78.6965H79.6965V12.2H78.6965ZM78.6965 13.1V12.1H77.7965V13.1V14.1H78.6965V13.1ZM77.7965 13.1H78.7965V12.2H77.7965H76.7965V13.1H77.7965ZM82.3035 5V4H81.3035V5H82.3035ZM84.1035 5H85.1035V4H84.1035V5ZM84.1035 6.8V7.8H85.1035V6.8H84.1035ZM82.3035 6.8H81.3035V7.8H82.3035V6.8ZM80.5035 12.2V11.2H79.5035V12.2H80.5035ZM82.3035 12.2H83.3035V11.2H82.3035V12.2ZM82.3035 14V15H83.3035V14H82.3035ZM80.5035 14H79.5035V15H80.5035V14ZM82.3035 5V6H84.1035V5V4H82.3035V5ZM84.1035 5H83.1035V6.8H84.1035H85.1035V5H84.1035ZM84.1035 6.8V5.8H82.3035V6.8V7.8H84.1035V6.8ZM82.3035 6.8H83.3035V5H82.3035H81.3035V6.8H82.3035ZM80.5035 12.2V13.2H82.3035V12.2V11.2H80.5035V12.2ZM82.3035 12.2H81.3035V14H82.3035H83.3035V12.2H82.3035ZM82.3035 14V13H80.5035V14V15H82.3035V14ZM80.5035 14H81.5035V12.2H80.5035H79.5035V14H80.5035Z" fill="black" mask="url(#path-1-outside-1_1_65)"/>
</svg>
