<svg width="65" height="33" viewBox="0 0 65 33" fill="none" xmlns="http://www.w3.org/2000/svg">
<mask id="path-1-outside-1_1_61" maskUnits="userSpaceOnUse" x="0" y="0" width="65" height="33" fill="black">
<rect fill="white" width="65" height="33"/>
<path d="M1.9 13.1H2.8V11.3H3.7V7.7H4.6V5H5.5V2.3H4.6V1.4H12.7V2.3H13.6V5.9H12.7V6.8H11.8V7.7H10.9V5.9H11.8V3.2H10.9V2.3H7.3V5H6.4V7.7H5.5V8.6H8.2V9.5H9.1V10.4H10V11.3H10.9V12.2H11.8V13.1H12.7V14H10V13.1H9.1V12.2H8.2V11.3H7.3V10.4H6.4V9.5H5.5V11.3H4.6V13.1H5.5V14H1.9V13.1ZM8.2 7.7H10.9V8.6H8.2V7.7ZM20.8 12.2H21.7V10.4H22.6V6.8H21.7V5.9H19V5H22.6V5.9H23.5V6.8H24.4V10.4H23.5V12.2H22.6V13.1H20.8V12.2ZM16.3 12.2H15.4V8.6H16.3V6.8H17.2V5.9H19V6.8H18.1V8.6H17.2V12.2H18.1V13.1H20.8V14H17.2V13.1H16.3V12.2ZM27.993 12.2H27.093V8.6H27.993V5H28.893V2.3H27.093V1.4H30.693V5H29.793V6.8H30.693V7.7H29.793V8.6H28.893V13.1H27.993V12.2ZM32.493 12.2H33.393V10.4H34.293V6.8H33.393V5.9H31.593V5H34.293V5.9H35.193V6.8H36.093V10.4H35.193V12.2H34.293V13.1H32.493V12.2ZM30.693 5.9H31.593V6.8H30.693V5.9ZM28.893 13.1H32.493V14H28.893V13.1ZM39.7 12.2H38.8V8.6H39.7V5H40.6V2.3H38.8V1.4H42.4V5H41.5V6.8H42.4V7.7H41.5V8.6H40.6V13.1H39.7V12.2ZM44.2 12.2H45.1V10.4H46V6.8H45.1V5.9H43.3V5H46V5.9H46.9V6.8H47.8V10.4H46.9V12.2H46V13.1H44.2V12.2ZM42.4 5.9H43.3V6.8H42.4V5.9ZM40.6 13.1H44.2V14H40.6V13.1ZM52.307 1.4H54.107V3.2H52.307V1.4ZM49.607 11.3H50.507V8.6H51.407V5.9H50.507V5H53.207V9.5H52.307V11.3H51.407V13.1H52.307V14H49.607V11.3ZM49.607 5.9H50.507V6.8H49.607V5.9ZM52.307 12.2H53.207V13.1H52.307V12.2ZM60.4035 8.6H61.3035V5.9H58.6035V5H62.2035V5.9H63.1035V8.6H62.2035V9.5H60.4035V8.6ZM55.9035 12.2H55.0035V8.6H55.9035V6.8H56.8035V5.9H58.6035V6.8H57.7035V8.6H56.8035V10.4H58.6035V11.3H56.8035V12.2H57.7035V13.1H60.4035V14H56.8035V13.1H55.9035V12.2ZM58.6035 9.5H60.4035V10.4H58.6035V9.5ZM62.2035 11.3H63.1035V12.2H62.2035V11.3ZM60.4035 12.2H62.2035V13.1H60.4035V12.2ZM1.9 31.1H2.8V29.3H3.7V26.6H4.6V23H5.5V20.3H4.6V19.4H13.6V20.3H14.5V23H13.6V23.9H12.7V21.2H11.8V20.3H7.3V23H6.4V25.7H9.1V26.6H5.5V29.3H4.6V31.1H10V32H1.9V31.1ZM11.8 23.9H12.7V24.8H11.8V23.9ZM10 30.2H10.9V29.3H11.8V26.6H10.9V25.7H9.1V24.8H11.8V25.7H12.7V26.6H13.6V29.3H12.7V30.2H11.8V31.1H10V30.2ZM20.8 26.6H21.7V23.9H19V23H22.6V23.9H23.5V26.6H22.6V27.5H20.8V26.6ZM16.3 30.2H15.4V26.6H16.3V24.8H17.2V23.9H19V24.8H18.1V26.6H17.2V28.4H19V29.3H17.2V30.2H18.1V31.1H20.8V32H17.2V31.1H16.3V30.2ZM19 27.5H20.8V28.4H19V27.5ZM22.6 29.3H23.5V30.2H22.6V29.3ZM20.8 30.2H22.6V31.1H20.8V30.2ZM25.2965 29.3H26.1965V26.6H27.0965V23.9H26.1965V23H28.8965V25.7H29.7965V26.6H28.8965V27.5H27.9965V29.3H27.0965V32H25.2965V29.3ZM31.5965 29.3H32.4965V26.6H33.3965V24.8H32.4965V23.9H31.5965V23H34.2965V23.9H35.1965V26.6H34.2965V29.3H33.3965V31.1H34.2965V32H31.5965V29.3ZM30.6965 23.9H31.5965V24.8H30.6965V23.9ZM25.2965 23.9H26.1965V24.8H25.2965V23.9ZM29.7965 24.8H30.6965V25.7H29.7965V24.8ZM34.2965 30.2H35.1965V31.1H34.2965V30.2ZM37.0035 29.3H37.9035V26.6H38.8035V23.9H37.0035V23H39.7035V20.3H41.5035V23H43.3035V23.9H40.6035V27.5H39.7035V29.3H38.8035V31.1H39.7035V32H37.0035V29.3ZM39.7035 30.2H40.6035V31.1H39.7035V30.2Z"/>
</mask>
<path d="M1.9 13.1H2.8V11.3H3.7V7.7H4.6V5H5.5V2.3H4.6V1.4H12.7V2.3H13.6V5.9H12.7V6.8H11.8V7.7H10.9V5.9H11.8V3.2H10.9V2.3H7.3V5H6.4V7.7H5.5V8.6H8.2V9.5H9.1V10.4H10V11.3H10.9V12.2H11.8V13.1H12.7V14H10V13.1H9.1V12.2H8.2V11.3H7.3V10.4H6.4V9.5H5.5V11.3H4.6V13.1H5.5V14H1.9V13.1ZM8.2 7.7H10.9V8.6H8.2V7.7ZM20.8 12.2H21.7V10.4H22.6V6.8H21.7V5.9H19V5H22.6V5.9H23.5V6.8H24.4V10.4H23.5V12.2H22.6V13.1H20.8V12.2ZM16.3 12.2H15.4V8.6H16.3V6.8H17.2V5.9H19V6.8H18.1V8.6H17.2V12.2H18.1V13.1H20.8V14H17.2V13.1H16.3V12.2ZM27.993 12.2H27.093V8.6H27.993V5H28.893V2.3H27.093V1.4H30.693V5H29.793V6.8H30.693V7.7H29.793V8.6H28.893V13.1H27.993V12.2ZM32.493 12.2H33.393V10.4H34.293V6.8H33.393V5.9H31.593V5H34.293V5.9H35.193V6.8H36.093V10.4H35.193V12.2H34.293V13.1H32.493V12.2ZM30.693 5.9H31.593V6.8H30.693V5.9ZM28.893 13.1H32.493V14H28.893V13.1ZM39.7 12.2H38.8V8.6H39.7V5H40.6V2.3H38.8V1.4H42.4V5H41.5V6.8H42.4V7.7H41.5V8.6H40.6V13.1H39.7V12.2ZM44.2 12.2H45.1V10.4H46V6.8H45.1V5.9H43.3V5H46V5.9H46.9V6.8H47.8V10.4H46.9V12.2H46V13.1H44.2V12.2ZM42.4 5.9H43.3V6.8H42.4V5.9ZM40.6 13.1H44.2V14H40.6V13.1ZM52.307 1.4H54.107V3.2H52.307V1.4ZM49.607 11.3H50.507V8.6H51.407V5.9H50.507V5H53.207V9.5H52.307V11.3H51.407V13.1H52.307V14H49.607V11.3ZM49.607 5.9H50.507V6.8H49.607V5.9ZM52.307 12.2H53.207V13.1H52.307V12.2ZM60.4035 8.6H61.3035V5.9H58.6035V5H62.2035V5.9H63.1035V8.6H62.2035V9.5H60.4035V8.6ZM55.9035 12.2H55.0035V8.6H55.9035V6.8H56.8035V5.9H58.6035V6.8H57.7035V8.6H56.8035V10.4H58.6035V11.3H56.8035V12.2H57.7035V13.1H60.4035V14H56.8035V13.1H55.9035V12.2ZM58.6035 9.5H60.4035V10.4H58.6035V9.5ZM62.2035 11.3H63.1035V12.2H62.2035V11.3ZM60.4035 12.2H62.2035V13.1H60.4035V12.2ZM1.9 31.1H2.8V29.3H3.7V26.6H4.6V23H5.5V20.3H4.6V19.4H13.6V20.3H14.5V23H13.6V23.9H12.7V21.2H11.8V20.3H7.3V23H6.4V25.7H9.1V26.6H5.5V29.3H4.6V31.1H10V32H1.9V31.1ZM11.8 23.9H12.7V24.8H11.8V23.9ZM10 30.2H10.9V29.3H11.8V26.6H10.9V25.7H9.1V24.8H11.8V25.7H12.7V26.6H13.6V29.3H12.7V30.2H11.8V31.1H10V30.2ZM20.8 26.6H21.7V23.9H19V23H22.6V23.9H23.5V26.6H22.6V27.5H20.8V26.6ZM16.3 30.2H15.4V26.6H16.3V24.8H17.2V23.9H19V24.8H18.1V26.6H17.2V28.4H19V29.3H17.2V30.2H18.1V31.1H20.8V32H17.2V31.1H16.3V30.2ZM19 27.5H20.8V28.4H19V27.5ZM22.6 29.3H23.5V30.2H22.6V29.3ZM20.8 30.2H22.6V31.1H20.8V30.2ZM25.2965 29.3H26.1965V26.6H27.0965V23.9H26.1965V23H28.8965V25.7H29.7965V26.6H28.8965V27.5H27.9965V29.3H27.0965V32H25.2965V29.3ZM31.5965 29.3H32.4965V26.6H33.3965V24.8H32.4965V23.9H31.5965V23H34.2965V23.9H35.1965V26.6H34.2965V29.3H33.3965V31.1H34.2965V32H31.5965V29.3ZM30.6965 23.9H31.5965V24.8H30.6965V23.9ZM25.2965 23.9H26.1965V24.8H25.2965V23.9ZM29.7965 24.8H30.6965V25.7H29.7965V24.8ZM34.2965 30.2H35.1965V31.1H34.2965V30.2ZM37.0035 29.3H37.9035V26.6H38.8035V23.9H37.0035V23H39.7035V20.3H41.5035V23H43.3035V23.9H40.6035V27.5H39.7035V29.3H38.8035V31.1H39.7035V32H37.0035V29.3ZM39.7035 30.2H40.6035V31.1H39.7035V30.2Z" fill="#FFF32E"/>
<path d="M1.9 13.1V12.1H0.9V13.1H1.9ZM2.8 13.1V14.1H3.8V13.1H2.8ZM2.8 11.3V10.3H1.8V11.3H2.8ZM3.7 11.3V12.3H4.7V11.3H3.7ZM3.7 7.7V6.7H2.7V7.7H3.7ZM4.6 7.7V8.7H5.6V7.7H4.6ZM4.6 5V4H3.6V5H4.6ZM5.5 5V6H6.5V5H5.5ZM5.5 2.3H6.5V1.3H5.5V2.3ZM4.6 2.3H3.6V3.3H4.6V2.3ZM4.6 1.4V0.399999H3.6V1.4H4.6ZM12.7 1.4H13.7V0.399999H12.7V1.4ZM12.7 2.3H11.7V3.3H12.7V2.3ZM13.6 2.3H14.6V1.3H13.6V2.3ZM13.6 5.9V6.9H14.6V5.9H13.6ZM12.7 5.9V4.9H11.7V5.9H12.7ZM12.7 6.8V7.8H13.7V6.8H12.7ZM11.8 6.8V5.8H10.8V6.8H11.8ZM11.8 7.7V8.7H12.8V7.7H11.8ZM10.9 7.7H9.9V8.7H10.9V7.7ZM10.9 5.9V4.9H9.9V5.9H10.9ZM11.8 5.9V6.9H12.8V5.9H11.8ZM11.8 3.2H12.8V2.2H11.8V3.2ZM10.9 3.2H9.9V4.2H10.9V3.2ZM10.9 2.3H11.9V1.3H10.9V2.3ZM7.3 2.3V1.3H6.3V2.3H7.3ZM7.3 5V6H8.3V5H7.3ZM6.4 5V4H5.4V5H6.4ZM6.4 7.7V8.7H7.4V7.7H6.4ZM5.5 7.7V6.7H4.5V7.7H5.5ZM5.5 8.6H4.5V9.6H5.5V8.6ZM8.2 8.6H9.2V7.6H8.2V8.6ZM8.2 9.5H7.2V10.5H8.2V9.5ZM9.1 9.5H10.1V8.5H9.1V9.5ZM9.1 10.4H8.1V11.4H9.1V10.4ZM10 10.4H11V9.4H10V10.4ZM10 11.3H9V12.3H10V11.3ZM10.9 11.3H11.9V10.3H10.9V11.3ZM10.9 12.2H9.9V13.2H10.9V12.2ZM11.8 12.2H12.8V11.2H11.8V12.2ZM11.8 13.1H10.8V14.1H11.8V13.1ZM12.7 13.1H13.7V12.1H12.7V13.1ZM12.7 14V15H13.7V14H12.7ZM10 14H9V15H10V14ZM10 13.1H11V12.1H10V13.1ZM9.1 13.1H8.1V14.1H9.1V13.1ZM9.1 12.2H10.1V11.2H9.1V12.2ZM8.2 12.2H7.2V13.2H8.2V12.2ZM8.2 11.3H9.2V10.3H8.2V11.3ZM7.3 11.3H6.3V12.3H7.3V11.3ZM7.3 10.4H8.3V9.4H7.3V10.4ZM6.4 10.4H5.4V11.4H6.4V10.4ZM6.4 9.5H7.4V8.5H6.4V9.5ZM5.5 9.5V8.5H4.5V9.5H5.5ZM5.5 11.3V12.3H6.5V11.3H5.5ZM4.6 11.3V10.3H3.6V11.3H4.6ZM4.6 13.1H3.6V14.1H4.6V13.1ZM5.5 13.1H6.5V12.1H5.5V13.1ZM5.5 14V15H6.5V14H5.5ZM1.9 14H0.9V15H1.9V14ZM8.2 7.7V6.7H7.2V7.7H8.2ZM10.9 7.7H11.9V6.7H10.9V7.7ZM10.9 8.6V9.6H11.9V8.6H10.9ZM8.2 8.6H7.2V9.6H8.2V8.6ZM1.9 13.1V14.1H2.8V13.1V12.1H1.9V13.1ZM2.8 13.1H3.8V11.3H2.8H1.8V13.1H2.8ZM2.8 11.3V12.3H3.7V11.3V10.3H2.8V11.3ZM3.7 11.3H4.7V7.7H3.7H2.7V11.3H3.7ZM3.7 7.7V8.7H4.6V7.7V6.7H3.7V7.7ZM4.6 7.7H5.6V5H4.6H3.6V7.7H4.6ZM4.6 5V6H5.5V5V4H4.6V5ZM5.5 5H6.5V2.3H5.5H4.5V5H5.5ZM5.5 2.3V1.3H4.6V2.3V3.3H5.5V2.3ZM4.6 2.3H5.6V1.4H4.6H3.6V2.3H4.6ZM4.6 1.4V2.4H12.7V1.4V0.399999H4.6V1.4ZM12.7 1.4H11.7V2.3H12.7H13.7V1.4H12.7ZM12.7 2.3V3.3H13.6V2.3V1.3H12.7V2.3ZM13.6 2.3H12.6V5.9H13.6H14.6V2.3H13.6ZM13.6 5.9V4.9H12.7V5.9V6.9H13.6V5.9ZM12.7 5.9H11.7V6.8H12.7H13.7V5.9H12.7ZM12.7 6.8V5.8H11.8V6.8V7.8H12.7V6.8ZM11.8 6.8H10.8V7.7H11.8H12.8V6.8H11.8ZM11.8 7.7V6.7H10.9V7.7V8.7H11.8V7.7ZM10.9 7.7H11.9V5.9H10.9H9.9V7.7H10.9ZM10.9 5.9V6.9H11.8V5.9V4.9H10.9V5.9ZM11.8 5.9H12.8V3.2H11.8H10.8V5.9H11.8ZM11.8 3.2V2.2H10.9V3.2V4.2H11.8V3.2ZM10.9 3.2H11.9V2.3H10.9H9.9V3.2H10.9ZM10.9 2.3V1.3H7.3V2.3V3.3H10.9V2.3ZM7.3 2.3H6.3V5H7.3H8.3V2.3H7.3ZM7.3 5V4H6.4V5V6H7.3V5ZM6.4 5H5.4V7.7H6.4H7.4V5H6.4ZM6.4 7.7V6.7H5.5V7.7V8.7H6.4V7.7ZM5.5 7.7H4.5V8.6H5.5H6.5V7.7H5.5ZM5.5 8.6V9.6H8.2V8.6V7.6H5.5V8.6ZM8.2 8.6H7.2V9.5H8.2H9.2V8.6H8.2ZM8.2 9.5V10.5H9.1V9.5V8.5H8.2V9.5ZM9.1 9.5H8.1V10.4H9.1H10.1V9.5H9.1ZM9.1 10.4V11.4H10V10.4V9.4H9.1V10.4ZM10 10.4H9V11.3H10H11V10.4H10ZM10 11.3V12.3H10.9V11.3V10.3H10V11.3ZM10.9 11.3H9.9V12.2H10.9H11.9V11.3H10.9ZM10.9 12.2V13.2H11.8V12.2V11.2H10.9V12.2ZM11.8 12.2H10.8V13.1H11.8H12.8V12.2H11.8ZM11.8 13.1V14.1H12.7V13.1V12.1H11.8V13.1ZM12.7 13.1H11.7V14H12.7H13.7V13.1H12.7ZM12.7 14V13H10V14V15H12.7V14ZM10 14H11V13.1H10H9V14H10ZM10 13.1V12.1H9.1V13.1V14.1H10V13.1ZM9.1 13.1H10.1V12.2H9.1H8.1V13.1H9.1ZM9.1 12.2V11.2H8.2V12.2V13.2H9.1V12.2ZM8.2 12.2H9.2V11.3H8.2H7.2V12.2H8.2ZM8.2 11.3V10.3H7.3V11.3V12.3H8.2V11.3ZM7.3 11.3H8.3V10.4H7.3H6.3V11.3H7.3ZM7.3 10.4V9.4H6.4V10.4V11.4H7.3V10.4ZM6.4 10.4H7.4V9.5H6.4H5.4V10.4H6.4ZM6.4 9.5V8.5H5.5V9.5V10.5H6.4V9.5ZM5.5 9.5H4.5V11.3H5.5H6.5V9.5H5.5ZM5.5 11.3V10.3H4.6V11.3V12.3H5.5V11.3ZM4.6 11.3H3.6V13.1H4.6H5.6V11.3H4.6ZM4.6 13.1V14.1H5.5V13.1V12.1H4.6V13.1ZM5.5 13.1H4.5V14H5.5H6.5V13.1H5.5ZM5.5 14V13H1.9V14V15H5.5V14ZM1.9 14H2.9V13.1H1.9H0.9V14H1.9ZM8.2 7.7V8.7H10.9V7.7V6.7H8.2V7.7ZM10.9 7.7H9.9V8.6H10.9H11.9V7.7H10.9ZM10.9 8.6V7.6H8.2V8.6V9.6H10.9V8.6ZM8.2 8.6H9.2V7.7H8.2H7.2V8.6H8.2ZM20.8 12.2V11.2H19.8V12.2H20.8ZM21.7 12.2V13.2H22.7V12.2H21.7ZM21.7 10.4V9.4H20.7V10.4H21.7ZM22.6 10.4V11.4H23.6V10.4H22.6ZM22.6 6.8H23.6V5.8H22.6V6.8ZM21.7 6.8H20.7V7.8H21.7V6.8ZM21.7 5.9H22.7V4.9H21.7V5.9ZM19 5.9H18V6.9H19V5.9ZM19 5V4H18V5H19ZM22.6 5H23.6V4H22.6V5ZM22.6 5.9H21.6V6.9H22.6V5.9ZM23.5 5.9H24.5V4.9H23.5V5.9ZM23.5 6.8H22.5V7.8H23.5V6.8ZM24.4 6.8H25.4V5.8H24.4V6.8ZM24.4 10.4V11.4H25.4V10.4H24.4ZM23.5 10.4V9.4H22.5V10.4H23.5ZM23.5 12.2V13.2H24.5V12.2H23.5ZM22.6 12.2V11.2H21.6V12.2H22.6ZM22.6 13.1V14.1H23.6V13.1H22.6ZM20.8 13.1H19.8V14.1H20.8V13.1ZM16.3 12.2H17.3V11.2H16.3V12.2ZM15.4 12.2H14.4V13.2H15.4V12.2ZM15.4 8.6V7.6H14.4V8.6H15.4ZM16.3 8.6V9.6H17.3V8.6H16.3ZM16.3 6.8V5.8H15.3V6.8H16.3ZM17.2 6.8V7.8H18.2V6.8H17.2ZM17.2 5.9V4.9H16.2V5.9H17.2ZM19 5.9H20V4.9H19V5.9ZM19 6.8V7.8H20V6.8H19ZM18.1 6.8V5.8H17.1V6.8H18.1ZM18.1 8.6V9.6H19.1V8.6H18.1ZM17.2 8.6V7.6H16.2V8.6H17.2ZM17.2 12.2H16.2V13.2H17.2V12.2ZM18.1 12.2H19.1V11.2H18.1V12.2ZM18.1 13.1H17.1V14.1H18.1V13.1ZM20.8 13.1H21.8V12.1H20.8V13.1ZM20.8 14V15H21.8V14H20.8ZM17.2 14H16.2V15H17.2V14ZM17.2 13.1H18.2V12.1H17.2V13.1ZM16.3 13.1H15.3V14.1H16.3V13.1ZM20.8 12.2V13.2H21.7V12.2V11.2H20.8V12.2ZM21.7 12.2H22.7V10.4H21.7H20.7V12.2H21.7ZM21.7 10.4V11.4H22.6V10.4V9.4H21.7V10.4ZM22.6 10.4H23.6V6.8H22.6H21.6V10.4H22.6ZM22.6 6.8V5.8H21.7V6.8V7.8H22.6V6.8ZM21.7 6.8H22.7V5.9H21.7H20.7V6.8H21.7ZM21.7 5.9V4.9H19V5.9V6.9H21.7V5.9ZM19 5.9H20V5H19H18V5.9H19ZM19 5V6H22.6V5V4H19V5ZM22.6 5H21.6V5.9H22.6H23.6V5H22.6ZM22.6 5.9V6.9H23.5V5.9V4.9H22.6V5.9ZM23.5 5.9H22.5V6.8H23.5H24.5V5.9H23.5ZM23.5 6.8V7.8H24.4V6.8V5.8H23.5V6.8ZM24.4 6.8H23.4V10.4H24.4H25.4V6.8H24.4ZM24.4 10.4V9.4H23.5V10.4V11.4H24.4V10.4ZM23.5 10.4H22.5V12.2H23.5H24.5V10.4H23.5ZM23.5 12.2V11.2H22.6V12.2V13.2H23.5V12.2ZM22.6 12.2H21.6V13.1H22.6H23.6V12.2H22.6ZM22.6 13.1V12.1H20.8V13.1V14.1H22.6V13.1ZM20.8 13.1H21.8V12.2H20.8H19.8V13.1H20.8ZM16.3 12.2V11.2H15.4V12.2V13.2H16.3V12.2ZM15.4 12.2H16.4V8.6H15.4H14.4V12.2H15.4ZM15.4 8.6V9.6H16.3V8.6V7.6H15.4V8.6ZM16.3 8.6H17.3V6.8H16.3H15.3V8.6H16.3ZM16.3 6.8V7.8H17.2V6.8V5.8H16.3V6.8ZM17.2 6.8H18.2V5.9H17.2H16.2V6.8H17.2ZM17.2 5.9V6.9H19V5.9V4.9H17.2V5.9ZM19 5.9H18V6.8H19H20V5.9H19ZM19 6.8V5.8H18.1V6.8V7.8H19V6.8ZM18.1 6.8H17.1V8.6H18.1H19.1V6.8H18.1ZM18.1 8.6V7.6H17.2V8.6V9.6H18.1V8.6ZM17.2 8.6H16.2V12.2H17.2H18.2V8.6H17.2ZM17.2 12.2V13.2H18.1V12.2V11.2H17.2V12.2ZM18.1 12.2H17.1V13.1H18.1H19.1V12.2H18.1ZM18.1 13.1V14.1H20.8V13.1V12.1H18.1V13.1ZM20.8 13.1H19.8V14H20.8H21.8V13.1H20.8ZM20.8 14V13H17.2V14V15H20.8V14ZM17.2 14H18.2V13.1H17.2H16.2V14H17.2ZM17.2 13.1V12.1H16.3V13.1V14.1H17.2V13.1ZM16.3 13.1H17.3V12.2H16.3H15.3V13.1H16.3ZM27.993 12.2H28.993V11.2H27.993V12.2ZM27.093 12.2H26.093V13.2H27.093V12.2ZM27.093 8.6V7.6H26.093V8.6H27.093ZM27.993 8.6V9.6H28.993V8.6H27.993ZM27.993 5V4H26.993V5H27.993ZM28.893 5V6H29.893V5H28.893ZM28.893 2.3H29.893V1.3H28.893V2.3ZM27.093 2.3H26.093V3.3H27.093V2.3ZM27.093 1.4V0.399999H26.093V1.4H27.093ZM30.693 1.4H31.693V0.399999H30.693V1.4ZM30.693 5V6H31.693V5H30.693ZM29.793 5V4H28.793V5H29.793ZM29.793 6.8H28.793V7.8H29.793V6.8ZM30.693 6.8H31.693V5.8H30.693V6.8ZM30.693 7.7V8.7H31.693V7.7H30.693ZM29.793 7.7V6.7H28.793V7.7H29.793ZM29.793 8.6V9.6H30.793V8.6H29.793ZM28.893 8.6V7.6H27.893V8.6H28.893ZM28.893 13.1V14.1H29.893V13.1H28.893ZM27.993 13.1H26.993V14.1H27.993V13.1ZM32.493 12.2V11.2H31.493V12.2H32.493ZM33.393 12.2V13.2H34.393V12.2H33.393ZM33.393 10.4V9.4H32.393V10.4H33.393ZM34.293 10.4V11.4H35.293V10.4H34.293ZM34.293 6.8H35.293V5.8H34.293V6.8ZM33.393 6.8H32.393V7.8H33.393V6.8ZM33.393 5.9H34.393V4.9H33.393V5.9ZM31.593 5.9H30.593V6.9H31.593V5.9ZM31.593 5V4H30.593V5H31.593ZM34.293 5H35.293V4H34.293V5ZM34.293 5.9H33.293V6.9H34.293V5.9ZM35.193 5.9H36.193V4.9H35.193V5.9ZM35.193 6.8H34.193V7.8H35.193V6.8ZM36.093 6.8H37.093V5.8H36.093V6.8ZM36.093 10.4V11.4H37.093V10.4H36.093ZM35.193 10.4V9.4H34.193V10.4H35.193ZM35.193 12.2V13.2H36.193V12.2H35.193ZM34.293 12.2V11.2H33.293V12.2H34.293ZM34.293 13.1V14.1H35.293V13.1H34.293ZM32.493 13.1H31.493V14.1H32.493V13.1ZM30.693 5.9V4.9H29.693V5.9H30.693ZM31.593 5.9H32.593V4.9H31.593V5.9ZM31.593 6.8V7.8H32.593V6.8H31.593ZM30.693 6.8H29.693V7.8H30.693V6.8ZM28.893 13.1V12.1H27.893V13.1H28.893ZM32.493 13.1H33.493V12.1H32.493V13.1ZM32.493 14V15H33.493V14H32.493ZM28.893 14H27.893V15H28.893V14ZM27.993 12.2V11.2H27.093V12.2V13.2H27.993V12.2ZM27.093 12.2H28.093V8.6H27.093H26.093V12.2H27.093ZM27.093 8.6V9.6H27.993V8.6V7.6H27.093V8.6ZM27.993 8.6H28.993V5H27.993H26.993V8.6H27.993ZM27.993 5V6H28.893V5V4H27.993V5ZM28.893 5H29.893V2.3H28.893H27.893V5H28.893ZM28.893 2.3V1.3H27.093V2.3V3.3H28.893V2.3ZM27.093 2.3H28.093V1.4H27.093H26.093V2.3H27.093ZM27.093 1.4V2.4H30.693V1.4V0.399999H27.093V1.4ZM30.693 1.4H29.693V5H30.693H31.693V1.4H30.693ZM30.693 5V4H29.793V5V6H30.693V5ZM29.793 5H28.793V6.8H29.793H30.793V5H29.793ZM29.793 6.8V7.8H30.693V6.8V5.8H29.793V6.8ZM30.693 6.8H29.693V7.7H30.693H31.693V6.8H30.693ZM30.693 7.7V6.7H29.793V7.7V8.7H30.693V7.7ZM29.793 7.7H28.793V8.6H29.793H30.793V7.7H29.793ZM29.793 8.6V7.6H28.893V8.6V9.6H29.793V8.6ZM28.893 8.6H27.893V13.1H28.893H29.893V8.6H28.893ZM28.893 13.1V12.1H27.993V13.1V14.1H28.893V13.1ZM27.993 13.1H28.993V12.2H27.993H26.993V13.1H27.993ZM32.493 12.2V13.2H33.393V12.2V11.2H32.493V12.2ZM33.393 12.2H34.393V10.4H33.393H32.393V12.2H33.393ZM33.393 10.4V11.4H34.293V10.4V9.4H33.393V10.4ZM34.293 10.4H35.293V6.8H34.293H33.293V10.4H34.293ZM34.293 6.8V5.8H33.393V6.8V7.8H34.293V6.8ZM33.393 6.8H34.393V5.9H33.393H32.393V6.8H33.393ZM33.393 5.9V4.9H31.593V5.9V6.9H33.393V5.9ZM31.593 5.9H32.593V5H31.593H30.593V5.9H31.593ZM31.593 5V6H34.293V5V4H31.593V5ZM34.293 5H33.293V5.9H34.293H35.293V5H34.293ZM34.293 5.9V6.9H35.193V5.9V4.9H34.293V5.9ZM35.193 5.9H34.193V6.8H35.193H36.193V5.9H35.193ZM35.193 6.8V7.8H36.093V6.8V5.8H35.193V6.8ZM36.093 6.8H35.093V10.4H36.093H37.093V6.8H36.093ZM36.093 10.4V9.4H35.193V10.4V11.4H36.093V10.4ZM35.193 10.4H34.193V12.2H35.193H36.193V10.4H35.193ZM35.193 12.2V11.2H34.293V12.2V13.2H35.193V12.2ZM34.293 12.2H33.293V13.1H34.293H35.293V12.2H34.293ZM34.293 13.1V12.1H32.493V13.1V14.1H34.293V13.1ZM32.493 13.1H33.493V12.2H32.493H31.493V13.1H32.493ZM30.693 5.9V6.9H31.593V5.9V4.9H30.693V5.9ZM31.593 5.9H30.593V6.8H31.593H32.593V5.9H31.593ZM31.593 6.8V5.8H30.693V6.8V7.8H31.593V6.8ZM30.693 6.8H31.693V5.9H30.693H29.693V6.8H30.693ZM28.893 13.1V14.1H32.493V13.1V12.1H28.893V13.1ZM32.493 13.1H31.493V14H32.493H33.493V13.1H32.493ZM32.493 14V13H28.893V14V15H32.493V14ZM28.893 14H29.893V13.1H28.893H27.893V14H28.893ZM39.7 12.2H40.7V11.2H39.7V12.2ZM38.8 12.2H37.8V13.2H38.8V12.2ZM38.8 8.6V7.6H37.8V8.6H38.8ZM39.7 8.6V9.6H40.7V8.6H39.7ZM39.7 5V4H38.7V5H39.7ZM40.6 5V6H41.6V5H40.6ZM40.6 2.3H41.6V1.3H40.6V2.3ZM38.8 2.3H37.8V3.3H38.8V2.3ZM38.8 1.4V0.399999H37.8V1.4H38.8ZM42.4 1.4H43.4V0.399999H42.4V1.4ZM42.4 5V6H43.4V5H42.4ZM41.5 5V4H40.5V5H41.5ZM41.5 6.8H40.5V7.8H41.5V6.8ZM42.4 6.8H43.4V5.8H42.4V6.8ZM42.4 7.7V8.7H43.4V7.7H42.4ZM41.5 7.7V6.7H40.5V7.7H41.5ZM41.5 8.6V9.6H42.5V8.6H41.5ZM40.6 8.6V7.6H39.6V8.6H40.6ZM40.6 13.1V14.1H41.6V13.1H40.6ZM39.7 13.1H38.7V14.1H39.7V13.1ZM44.2 12.2V11.2H43.2V12.2H44.2ZM45.1 12.2V13.2H46.1V12.2H45.1ZM45.1 10.4V9.4H44.1V10.4H45.1ZM46 10.4V11.4H47V10.4H46ZM46 6.8H47V5.8H46V6.8ZM45.1 6.8H44.1V7.8H45.1V6.8ZM45.1 5.9H46.1V4.9H45.1V5.9ZM43.3 5.9H42.3V6.9H43.3V5.9ZM43.3 5V4H42.3V5H43.3ZM46 5H47V4H46V5ZM46 5.9H45V6.9H46V5.9ZM46.9 5.9H47.9V4.9H46.9V5.9ZM46.9 6.8H45.9V7.8H46.9V6.8ZM47.8 6.8H48.8V5.8H47.8V6.8ZM47.8 10.4V11.4H48.8V10.4H47.8ZM46.9 10.4V9.4H45.9V10.4H46.9ZM46.9 12.2V13.2H47.9V12.2H46.9ZM46 12.2V11.2H45V12.2H46ZM46 13.1V14.1H47V13.1H46ZM44.2 13.1H43.2V14.1H44.2V13.1ZM42.4 5.9V4.9H41.4V5.9H42.4ZM43.3 5.9H44.3V4.9H43.3V5.9ZM43.3 6.8V7.8H44.3V6.8H43.3ZM42.4 6.8H41.4V7.8H42.4V6.8ZM40.6 13.1V12.1H39.6V13.1H40.6ZM44.2 13.1H45.2V12.1H44.2V13.1ZM44.2 14V15H45.2V14H44.2ZM40.6 14H39.6V15H40.6V14ZM39.7 12.2V11.2H38.8V12.2V13.2H39.7V12.2ZM38.8 12.2H39.8V8.6H38.8H37.8V12.2H38.8ZM38.8 8.6V9.6H39.7V8.6V7.6H38.8V8.6ZM39.7 8.6H40.7V5H39.7H38.7V8.6H39.7ZM39.7 5V6H40.6V5V4H39.7V5ZM40.6 5H41.6V2.3H40.6H39.6V5H40.6ZM40.6 2.3V1.3H38.8V2.3V3.3H40.6V2.3ZM38.8 2.3H39.8V1.4H38.8H37.8V2.3H38.8ZM38.8 1.4V2.4H42.4V1.4V0.399999H38.8V1.4ZM42.4 1.4H41.4V5H42.4H43.4V1.4H42.4ZM42.4 5V4H41.5V5V6H42.4V5ZM41.5 5H40.5V6.8H41.5H42.5V5H41.5ZM41.5 6.8V7.8H42.4V6.8V5.8H41.5V6.8ZM42.4 6.8H41.4V7.7H42.4H43.4V6.8H42.4ZM42.4 7.7V6.7H41.5V7.7V8.7H42.4V7.7ZM41.5 7.7H40.5V8.6H41.5H42.5V7.7H41.5ZM41.5 8.6V7.6H40.6V8.6V9.6H41.5V8.6ZM40.6 8.6H39.6V13.1H40.6H41.6V8.6H40.6ZM40.6 13.1V12.1H39.7V13.1V14.1H40.6V13.1ZM39.7 13.1H40.7V12.2H39.7H38.7V13.1H39.7ZM44.2 12.2V13.2H45.1V12.2V11.2H44.2V12.2ZM45.1 12.2H46.1V10.4H45.1H44.1V12.2H45.1ZM45.1 10.4V11.4H46V10.4V9.4H45.1V10.4ZM46 10.4H47V6.8H46H45V10.4H46ZM46 6.8V5.8H45.1V6.8V7.8H46V6.8ZM45.1 6.8H46.1V5.9H45.1H44.1V6.8H45.1ZM45.1 5.9V4.9H43.3V5.9V6.9H45.1V5.9ZM43.3 5.9H44.3V5H43.3H42.3V5.9H43.3ZM43.3 5V6H46V5V4H43.3V5ZM46 5H45V5.9H46H47V5H46ZM46 5.9V6.9H46.9V5.9V4.9H46V5.9ZM46.9 5.9H45.9V6.8H46.9H47.9V5.9H46.9ZM46.9 6.8V7.8H47.8V6.8V5.8H46.9V6.8ZM47.8 6.8H46.8V10.4H47.8H48.8V6.8H47.8ZM47.8 10.4V9.4H46.9V10.4V11.4H47.8V10.4ZM46.9 10.4H45.9V12.2H46.9H47.9V10.4H46.9ZM46.9 12.2V11.2H46V12.2V13.2H46.9V12.2ZM46 12.2H45V13.1H46H47V12.2H46ZM46 13.1V12.1H44.2V13.1V14.1H46V13.1ZM44.2 13.1H45.2V12.2H44.2H43.2V13.1H44.2ZM42.4 5.9V6.9H43.3V5.9V4.9H42.4V5.9ZM43.3 5.9H42.3V6.8H43.3H44.3V5.9H43.3ZM43.3 6.8V5.8H42.4V6.8V7.8H43.3V6.8ZM42.4 6.8H43.4V5.9H42.4H41.4V6.8H42.4ZM40.6 13.1V14.1H44.2V13.1V12.1H40.6V13.1ZM44.2 13.1H43.2V14H44.2H45.2V13.1H44.2ZM44.2 14V13H40.6V14V15H44.2V14ZM40.6 14H41.6V13.1H40.6H39.6V14H40.6ZM52.307 1.4V0.399999H51.307V1.4H52.307ZM54.107 1.4H55.107V0.399999H54.107V1.4ZM54.107 3.2V4.2H55.107V3.2H54.107ZM52.307 3.2H51.307V4.2H52.307V3.2ZM49.607 11.3V10.3H48.607V11.3H49.607ZM50.507 11.3V12.3H51.507V11.3H50.507ZM50.507 8.6V7.6H49.507V8.6H50.507ZM51.407 8.6V9.6H52.407V8.6H51.407ZM51.407 5.9H52.407V4.9H51.407V5.9ZM50.507 5.9H49.507V6.9H50.507V5.9ZM50.507 5V4H49.507V5H50.507ZM53.207 5H54.207V4H53.207V5ZM53.207 9.5V10.5H54.207V9.5H53.207ZM52.307 9.5V8.5H51.307V9.5H52.307ZM52.307 11.3V12.3H53.307V11.3H52.307ZM51.407 11.3V10.3H50.407V11.3H51.407ZM51.407 13.1H50.407V14.1H51.407V13.1ZM52.307 13.1H53.307V12.1H52.307V13.1ZM52.307 14V15H53.307V14H52.307ZM49.607 14H48.607V15H49.607V14ZM49.607 5.9V4.9H48.607V5.9H49.607ZM50.507 5.9H51.507V4.9H50.507V5.9ZM50.507 6.8V7.8H51.507V6.8H50.507ZM49.607 6.8H48.607V7.8H49.607V6.8ZM52.307 12.2V11.2H51.307V12.2H52.307ZM53.207 12.2H54.207V11.2H53.207V12.2ZM53.207 13.1V14.1H54.207V13.1H53.207ZM52.307 13.1H51.307V14.1H52.307V13.1ZM52.307 1.4V2.4H54.107V1.4V0.399999H52.307V1.4ZM54.107 1.4H53.107V3.2H54.107H55.107V1.4H54.107ZM54.107 3.2V2.2H52.307V3.2V4.2H54.107V3.2ZM52.307 3.2H53.307V1.4H52.307H51.307V3.2H52.307ZM49.607 11.3V12.3H50.507V11.3V10.3H49.607V11.3ZM50.507 11.3H51.507V8.6H50.507H49.507V11.3H50.507ZM50.507 8.6V9.6H51.407V8.6V7.6H50.507V8.6ZM51.407 8.6H52.407V5.9H51.407H50.407V8.6H51.407ZM51.407 5.9V4.9H50.507V5.9V6.9H51.407V5.9ZM50.507 5.9H51.507V5H50.507H49.507V5.9H50.507ZM50.507 5V6H53.207V5V4H50.507V5ZM53.207 5H52.207V9.5H53.207H54.207V5H53.207ZM53.207 9.5V8.5H52.307V9.5V10.5H53.207V9.5ZM52.307 9.5H51.307V11.3H52.307H53.307V9.5H52.307ZM52.307 11.3V10.3H51.407V11.3V12.3H52.307V11.3ZM51.407 11.3H50.407V13.1H51.407H52.407V11.3H51.407ZM51.407 13.1V14.1H52.307V13.1V12.1H51.407V13.1ZM52.307 13.1H51.307V14H52.307H53.307V13.1H52.307ZM52.307 14V13H49.607V14V15H52.307V14ZM49.607 14H50.607V11.3H49.607H48.607V14H49.607ZM49.607 5.9V6.9H50.507V5.9V4.9H49.607V5.9ZM50.507 5.9H49.507V6.8H50.507H51.507V5.9H50.507ZM50.507 6.8V5.8H49.607V6.8V7.8H50.507V6.8ZM49.607 6.8H50.607V5.9H49.607H48.607V6.8H49.607ZM52.307 12.2V13.2H53.207V12.2V11.2H52.307V12.2ZM53.207 12.2H52.207V13.1H53.207H54.207V12.2H53.207ZM53.207 13.1V12.1H52.307V13.1V14.1H53.207V13.1ZM52.307 13.1H53.307V12.2H52.307H51.307V13.1H52.307ZM60.4035 8.6V7.6H59.4035V8.6H60.4035ZM61.3035 8.6V9.6H62.3035V8.6H61.3035ZM61.3035 5.9H62.3035V4.9H61.3035V5.9ZM58.6035 5.9H57.6035V6.9H58.6035V5.9ZM58.6035 5V4H57.6035V5H58.6035ZM62.2035 5H63.2035V4H62.2035V5ZM62.2035 5.9H61.2035V6.9H62.2035V5.9ZM63.1035 5.9H64.1035V4.9H63.1035V5.9ZM63.1035 8.6V9.6H64.1035V8.6H63.1035ZM62.2035 8.6V7.6H61.2035V8.6H62.2035ZM62.2035 9.5V10.5H63.2035V9.5H62.2035ZM60.4035 9.5H59.4035V10.5H60.4035V9.5ZM55.9035 12.2H56.9035V11.2H55.9035V12.2ZM55.0035 12.2H54.0035V13.2H55.0035V12.2ZM55.0035 8.6V7.6H54.0035V8.6H55.0035ZM55.9035 8.6V9.6H56.9035V8.6H55.9035ZM55.9035 6.8V5.8H54.9035V6.8H55.9035ZM56.8035 6.8V7.8H57.8035V6.8H56.8035ZM56.8035 5.9V4.9H55.8035V5.9H56.8035ZM58.6035 5.9H59.6035V4.9H58.6035V5.9ZM58.6035 6.8V7.8H59.6035V6.8H58.6035ZM57.7035 6.8V5.8H56.7035V6.8H57.7035ZM57.7035 8.6V9.6H58.7035V8.6H57.7035ZM56.8035 8.6V7.6H55.8035V8.6H56.8035ZM56.8035 10.4H55.8035V11.4H56.8035V10.4ZM58.6035 10.4H59.6035V9.4H58.6035V10.4ZM58.6035 11.3V12.3H59.6035V11.3H58.6035ZM56.8035 11.3V10.3H55.8035V11.3H56.8035ZM56.8035 12.2H55.8035V13.2H56.8035V12.2ZM57.7035 12.2H58.7035V11.2H57.7035V12.2ZM57.7035 13.1H56.7035V14.1H57.7035V13.1ZM60.4035 13.1H61.4035V12.1H60.4035V13.1ZM60.4035 14V15H61.4035V14H60.4035ZM56.8035 14H55.8035V15H56.8035V14ZM56.8035 13.1H57.8035V12.1H56.8035V13.1ZM55.9035 13.1H54.9035V14.1H55.9035V13.1ZM58.6035 9.5V8.5H57.6035V9.5H58.6035ZM60.4035 9.5H61.4035V8.5H60.4035V9.5ZM60.4035 10.4V11.4H61.4035V10.4H60.4035ZM58.6035 10.4H57.6035V11.4H58.6035V10.4ZM62.2035 11.3V10.3H61.2035V11.3H62.2035ZM63.1035 11.3H64.1035V10.3H63.1035V11.3ZM63.1035 12.2V13.2H64.1035V12.2H63.1035ZM62.2035 12.2H61.2035V13.2H62.2035V12.2ZM60.4035 12.2V11.2H59.4035V12.2H60.4035ZM62.2035 12.2H63.2035V11.2H62.2035V12.2ZM62.2035 13.1V14.1H63.2035V13.1H62.2035ZM60.4035 13.1H59.4035V14.1H60.4035V13.1ZM60.4035 8.6V9.6H61.3035V8.6V7.6H60.4035V8.6ZM61.3035 8.6H62.3035V5.9H61.3035H60.3035V8.6H61.3035ZM61.3035 5.9V4.9H58.6035V5.9V6.9H61.3035V5.9ZM58.6035 5.9H59.6035V5H58.6035H57.6035V5.9H58.6035ZM58.6035 5V6H62.2035V5V4H58.6035V5ZM62.2035 5H61.2035V5.9H62.2035H63.2035V5H62.2035ZM62.2035 5.9V6.9H63.1035V5.9V4.9H62.2035V5.9ZM63.1035 5.9H62.1035V8.6H63.1035H64.1035V5.9H63.1035ZM63.1035 8.6V7.6H62.2035V8.6V9.6H63.1035V8.6ZM62.2035 8.6H61.2035V9.5H62.2035H63.2035V8.6H62.2035ZM62.2035 9.5V8.5H60.4035V9.5V10.5H62.2035V9.5ZM60.4035 9.5H61.4035V8.6H60.4035H59.4035V9.5H60.4035ZM55.9035 12.2V11.2H55.0035V12.2V13.2H55.9035V12.2ZM55.0035 12.2H56.0035V8.6H55.0035H54.0035V12.2H55.0035ZM55.0035 8.6V9.6H55.9035V8.6V7.6H55.0035V8.6ZM55.9035 8.6H56.9035V6.8H55.9035H54.9035V8.6H55.9035ZM55.9035 6.8V7.8H56.8035V6.8V5.8H55.9035V6.8ZM56.8035 6.8H57.8035V5.9H56.8035H55.8035V6.8H56.8035ZM56.8035 5.9V6.9H58.6035V5.9V4.9H56.8035V5.9ZM58.6035 5.9H57.6035V6.8H58.6035H59.6035V5.9H58.6035ZM58.6035 6.8V5.8H57.7035V6.8V7.8H58.6035V6.8ZM57.7035 6.8H56.7035V8.6H57.7035H58.7035V6.8H57.7035ZM57.7035 8.6V7.6H56.8035V8.6V9.6H57.7035V8.6ZM56.8035 8.6H55.8035V10.4H56.8035H57.8035V8.6H56.8035ZM56.8035 10.4V11.4H58.6035V10.4V9.4H56.8035V10.4ZM58.6035 10.4H57.6035V11.3H58.6035H59.6035V10.4H58.6035ZM58.6035 11.3V10.3H56.8035V11.3V12.3H58.6035V11.3ZM56.8035 11.3H55.8035V12.2H56.8035H57.8035V11.3H56.8035ZM56.8035 12.2V13.2H57.7035V12.2V11.2H56.8035V12.2ZM57.7035 12.2H56.7035V13.1H57.7035H58.7035V12.2H57.7035ZM57.7035 13.1V14.1H60.4035V13.1V12.1H57.7035V13.1ZM60.4035 13.1H59.4035V14H60.4035H61.4035V13.1H60.4035ZM60.4035 14V13H56.8035V14V15H60.4035V14ZM56.8035 14H57.8035V13.1H56.8035H55.8035V14H56.8035ZM56.8035 13.1V12.1H55.9035V13.1V14.1H56.8035V13.1ZM55.9035 13.1H56.9035V12.2H55.9035H54.9035V13.1H55.9035ZM58.6035 9.5V10.5H60.4035V9.5V8.5H58.6035V9.5ZM60.4035 9.5H59.4035V10.4H60.4035H61.4035V9.5H60.4035ZM60.4035 10.4V9.4H58.6035V10.4V11.4H60.4035V10.4ZM58.6035 10.4H59.6035V9.5H58.6035H57.6035V10.4H58.6035ZM62.2035 11.3V12.3H63.1035V11.3V10.3H62.2035V11.3ZM63.1035 11.3H62.1035V12.2H63.1035H64.1035V11.3H63.1035ZM63.1035 12.2V11.2H62.2035V12.2V13.2H63.1035V12.2ZM62.2035 12.2H63.2035V11.3H62.2035H61.2035V12.2H62.2035ZM60.4035 12.2V13.2H62.2035V12.2V11.2H60.4035V12.2ZM62.2035 12.2H61.2035V13.1H62.2035H63.2035V12.2H62.2035ZM62.2035 13.1V12.1H60.4035V13.1V14.1H62.2035V13.1ZM60.4035 13.1H61.4035V12.2H60.4035H59.4035V13.1H60.4035ZM1.9 31.1V30.1H0.9V31.1H1.9ZM2.8 31.1V32.1H3.8V31.1H2.8ZM2.8 29.3V28.3H1.8V29.3H2.8ZM3.7 29.3V30.3H4.7V29.3H3.7ZM3.7 26.6V25.6H2.7V26.6H3.7ZM4.6 26.6V27.6H5.6V26.6H4.6ZM4.6 23V22H3.6V23H4.6ZM5.5 23V24H6.5V23H5.5ZM5.5 20.3H6.5V19.3H5.5V20.3ZM4.6 20.3H3.6V21.3H4.6V20.3ZM4.6 19.4V18.4H3.6V19.4H4.6ZM13.6 19.4H14.6V18.4H13.6V19.4ZM13.6 20.3H12.6V21.3H13.6V20.3ZM14.5 20.3H15.5V19.3H14.5V20.3ZM14.5 23V24H15.5V23H14.5ZM13.6 23V22H12.6V23H13.6ZM13.6 23.9V24.9H14.6V23.9H13.6ZM12.7 23.9H11.7V24.9H12.7V23.9ZM12.7 21.2H13.7V20.2H12.7V21.2ZM11.8 21.2H10.8V22.2H11.8V21.2ZM11.8 20.3H12.8V19.3H11.8V20.3ZM7.3 20.3V19.3H6.3V20.3H7.3ZM7.3 23V24H8.3V23H7.3ZM6.4 23V22H5.4V23H6.4ZM6.4 25.7H5.4V26.7H6.4V25.7ZM9.1 25.7H10.1V24.7H9.1V25.7ZM9.1 26.6V27.6H10.1V26.6H9.1ZM5.5 26.6V25.6H4.5V26.6H5.5ZM5.5 29.3V30.3H6.5V29.3H5.5ZM4.6 29.3V28.3H3.6V29.3H4.6ZM4.6 31.1H3.6V32.1H4.6V31.1ZM10 31.1H11V30.1H10V31.1ZM10 32V33H11V32H10ZM1.9 32H0.9V33H1.9V32ZM11.8 23.9V22.9H10.8V23.9H11.8ZM12.7 23.9H13.7V22.9H12.7V23.9ZM12.7 24.8V25.8H13.7V24.8H12.7ZM11.8 24.8H10.8V25.8H11.8V24.8ZM10 30.2V29.2H9V30.2H10ZM10.9 30.2V31.2H11.9V30.2H10.9ZM10.9 29.3V28.3H9.9V29.3H10.9ZM11.8 29.3V30.3H12.8V29.3H11.8ZM11.8 26.6H12.8V25.6H11.8V26.6ZM10.9 26.6H9.9V27.6H10.9V26.6ZM10.9 25.7H11.9V24.7H10.9V25.7ZM9.1 25.7H8.1V26.7H9.1V25.7ZM9.1 24.8V23.8H8.1V24.8H9.1ZM11.8 24.8H12.8V23.8H11.8V24.8ZM11.8 25.7H10.8V26.7H11.8V25.7ZM12.7 25.7H13.7V24.7H12.7V25.7ZM12.7 26.6H11.7V27.6H12.7V26.6ZM13.6 26.6H14.6V25.6H13.6V26.6ZM13.6 29.3V30.3H14.6V29.3H13.6ZM12.7 29.3V28.3H11.7V29.3H12.7ZM12.7 30.2V31.2H13.7V30.2H12.7ZM11.8 30.2V29.2H10.8V30.2H11.8ZM11.8 31.1V32.1H12.8V31.1H11.8ZM10 31.1H9V32.1H10V31.1ZM1.9 31.1V32.1H2.8V31.1V30.1H1.9V31.1ZM2.8 31.1H3.8V29.3H2.8H1.8V31.1H2.8ZM2.8 29.3V30.3H3.7V29.3V28.3H2.8V29.3ZM3.7 29.3H4.7V26.6H3.7H2.7V29.3H3.7ZM3.7 26.6V27.6H4.6V26.6V25.6H3.7V26.6ZM4.6 26.6H5.6V23H4.6H3.6V26.6H4.6ZM4.6 23V24H5.5V23V22H4.6V23ZM5.5 23H6.5V20.3H5.5H4.5V23H5.5ZM5.5 20.3V19.3H4.6V20.3V21.3H5.5V20.3ZM4.6 20.3H5.6V19.4H4.6H3.6V20.3H4.6ZM4.6 19.4V20.4H13.6V19.4V18.4H4.6V19.4ZM13.6 19.4H12.6V20.3H13.6H14.6V19.4H13.6ZM13.6 20.3V21.3H14.5V20.3V19.3H13.6V20.3ZM14.5 20.3H13.5V23H14.5H15.5V20.3H14.5ZM14.5 23V22H13.6V23V24H14.5V23ZM13.6 23H12.6V23.9H13.6H14.6V23H13.6ZM13.6 23.9V22.9H12.7V23.9V24.9H13.6V23.9ZM12.7 23.9H13.7V21.2H12.7H11.7V23.9H12.7ZM12.7 21.2V20.2H11.8V21.2V22.2H12.7V21.2ZM11.8 21.2H12.8V20.3H11.8H10.8V21.2H11.8ZM11.8 20.3V19.3H7.3V20.3V21.3H11.8V20.3ZM7.3 20.3H6.3V23H7.3H8.3V20.3H7.3ZM7.3 23V22H6.4V23V24H7.3V23ZM6.4 23H5.4V25.7H6.4H7.4V23H6.4ZM6.4 25.7V26.7H9.1V25.7V24.7H6.4V25.7ZM9.1 25.7H8.1V26.6H9.1H10.1V25.7H9.1ZM9.1 26.6V25.6H5.5V26.6V27.6H9.1V26.6ZM5.5 26.6H4.5V29.3H5.5H6.5V26.6H5.5ZM5.5 29.3V28.3H4.6V29.3V30.3H5.5V29.3ZM4.6 29.3H3.6V31.1H4.6H5.6V29.3H4.6ZM4.6 31.1V32.1H10V31.1V30.1H4.6V31.1ZM10 31.1H9V32H10H11V31.1H10ZM10 32V31H1.9V32V33H10V32ZM1.9 32H2.9V31.1H1.9H0.9V32H1.9ZM11.8 23.9V24.9H12.7V23.9V22.9H11.8V23.9ZM12.7 23.9H11.7V24.8H12.7H13.7V23.9H12.7ZM12.7 24.8V23.8H11.8V24.8V25.8H12.7V24.8ZM11.8 24.8H12.8V23.9H11.8H10.8V24.8H11.8ZM10 30.2V31.2H10.9V30.2V29.2H10V30.2ZM10.9 30.2H11.9V29.3H10.9H9.9V30.2H10.9ZM10.9 29.3V30.3H11.8V29.3V28.3H10.9V29.3ZM11.8 29.3H12.8V26.6H11.8H10.8V29.3H11.8ZM11.8 26.6V25.6H10.9V26.6V27.6H11.8V26.6ZM10.9 26.6H11.9V25.7H10.9H9.9V26.6H10.9ZM10.9 25.7V24.7H9.1V25.7V26.7H10.9V25.7ZM9.1 25.7H10.1V24.8H9.1H8.1V25.7H9.1ZM9.1 24.8V25.8H11.8V24.8V23.8H9.1V24.8ZM11.8 24.8H10.8V25.7H11.8H12.8V24.8H11.8ZM11.8 25.7V26.7H12.7V25.7V24.7H11.8V25.7ZM12.7 25.7H11.7V26.6H12.7H13.7V25.7H12.7ZM12.7 26.6V27.6H13.6V26.6V25.6H12.7V26.6ZM13.6 26.6H12.6V29.3H13.6H14.6V26.6H13.6ZM13.6 29.3V28.3H12.7V29.3V30.3H13.6V29.3ZM12.7 29.3H11.7V30.2H12.7H13.7V29.3H12.7ZM12.7 30.2V29.2H11.8V30.2V31.2H12.7V30.2ZM11.8 30.2H10.8V31.1H11.8H12.8V30.2H11.8ZM11.8 31.1V30.1H10V31.1V32.1H11.8V31.1ZM10 31.1H11V30.2H10H9V31.1H10ZM20.8 26.6V25.6H19.8V26.6H20.8ZM21.7 26.6V27.6H22.7V26.6H21.7ZM21.7 23.9H22.7V22.9H21.7V23.9ZM19 23.9H18V24.9H19V23.9ZM19 23V22H18V23H19ZM22.6 23H23.6V22H22.6V23ZM22.6 23.9H21.6V24.9H22.6V23.9ZM23.5 23.9H24.5V22.9H23.5V23.9ZM23.5 26.6V27.6H24.5V26.6H23.5ZM22.6 26.6V25.6H21.6V26.6H22.6ZM22.6 27.5V28.5H23.6V27.5H22.6ZM20.8 27.5H19.8V28.5H20.8V27.5ZM16.3 30.2H17.3V29.2H16.3V30.2ZM15.4 30.2H14.4V31.2H15.4V30.2ZM15.4 26.6V25.6H14.4V26.6H15.4ZM16.3 26.6V27.6H17.3V26.6H16.3ZM16.3 24.8V23.8H15.3V24.8H16.3ZM17.2 24.8V25.8H18.2V24.8H17.2ZM17.2 23.9V22.9H16.2V23.9H17.2ZM19 23.9H20V22.9H19V23.9ZM19 24.8V25.8H20V24.8H19ZM18.1 24.8V23.8H17.1V24.8H18.1ZM18.1 26.6V27.6H19.1V26.6H18.1ZM17.2 26.6V25.6H16.2V26.6H17.2ZM17.2 28.4H16.2V29.4H17.2V28.4ZM19 28.4H20V27.4H19V28.4ZM19 29.3V30.3H20V29.3H19ZM17.2 29.3V28.3H16.2V29.3H17.2ZM17.2 30.2H16.2V31.2H17.2V30.2ZM18.1 30.2H19.1V29.2H18.1V30.2ZM18.1 31.1H17.1V32.1H18.1V31.1ZM20.8 31.1H21.8V30.1H20.8V31.1ZM20.8 32V33H21.8V32H20.8ZM17.2 32H16.2V33H17.2V32ZM17.2 31.1H18.2V30.1H17.2V31.1ZM16.3 31.1H15.3V32.1H16.3V31.1ZM19 27.5V26.5H18V27.5H19ZM20.8 27.5H21.8V26.5H20.8V27.5ZM20.8 28.4V29.4H21.8V28.4H20.8ZM19 28.4H18V29.4H19V28.4ZM22.6 29.3V28.3H21.6V29.3H22.6ZM23.5 29.3H24.5V28.3H23.5V29.3ZM23.5 30.2V31.2H24.5V30.2H23.5ZM22.6 30.2H21.6V31.2H22.6V30.2ZM20.8 30.2V29.2H19.8V30.2H20.8ZM22.6 30.2H23.6V29.2H22.6V30.2ZM22.6 31.1V32.1H23.6V31.1H22.6ZM20.8 31.1H19.8V32.1H20.8V31.1ZM20.8 26.6V27.6H21.7V26.6V25.6H20.8V26.6ZM21.7 26.6H22.7V23.9H21.7H20.7V26.6H21.7ZM21.7 23.9V22.9H19V23.9V24.9H21.7V23.9ZM19 23.9H20V23H19H18V23.9H19ZM19 23V24H22.6V23V22H19V23ZM22.6 23H21.6V23.9H22.6H23.6V23H22.6ZM22.6 23.9V24.9H23.5V23.9V22.9H22.6V23.9ZM23.5 23.9H22.5V26.6H23.5H24.5V23.9H23.5ZM23.5 26.6V25.6H22.6V26.6V27.6H23.5V26.6ZM22.6 26.6H21.6V27.5H22.6H23.6V26.6H22.6ZM22.6 27.5V26.5H20.8V27.5V28.5H22.6V27.5ZM20.8 27.5H21.8V26.6H20.8H19.8V27.5H20.8ZM16.3 30.2V29.2H15.4V30.2V31.2H16.3V30.2ZM15.4 30.2H16.4V26.6H15.4H14.4V30.2H15.4ZM15.4 26.6V27.6H16.3V26.6V25.6H15.4V26.6ZM16.3 26.6H17.3V24.8H16.3H15.3V26.6H16.3ZM16.3 24.8V25.8H17.2V24.8V23.8H16.3V24.8ZM17.2 24.8H18.2V23.9H17.2H16.2V24.8H17.2ZM17.2 23.9V24.9H19V23.9V22.9H17.2V23.9ZM19 23.9H18V24.8H19H20V23.9H19ZM19 24.8V23.8H18.1V24.8V25.8H19V24.8ZM18.1 24.8H17.1V26.6H18.1H19.1V24.8H18.1ZM18.1 26.6V25.6H17.2V26.6V27.6H18.1V26.6ZM17.2 26.6H16.2V28.4H17.2H18.2V26.6H17.2ZM17.2 28.4V29.4H19V28.4V27.4H17.2V28.4ZM19 28.4H18V29.3H19H20V28.4H19ZM19 29.3V28.3H17.2V29.3V30.3H19V29.3ZM17.2 29.3H16.2V30.2H17.2H18.2V29.3H17.2ZM17.2 30.2V31.2H18.1V30.2V29.2H17.2V30.2ZM18.1 30.2H17.1V31.1H18.1H19.1V30.2H18.1ZM18.1 31.1V32.1H20.8V31.1V30.1H18.1V31.1ZM20.8 31.1H19.8V32H20.8H21.8V31.1H20.8ZM20.8 32V31H17.2V32V33H20.8V32ZM17.2 32H18.2V31.1H17.2H16.2V32H17.2ZM17.2 31.1V30.1H16.3V31.1V32.1H17.2V31.1ZM16.3 31.1H17.3V30.2H16.3H15.3V31.1H16.3ZM19 27.5V28.5H20.8V27.5V26.5H19V27.5ZM20.8 27.5H19.8V28.4H20.8H21.8V27.5H20.8ZM20.8 28.4V27.4H19V28.4V29.4H20.8V28.4ZM19 28.4H20V27.5H19H18V28.4H19ZM22.6 29.3V30.3H23.5V29.3V28.3H22.6V29.3ZM23.5 29.3H22.5V30.2H23.5H24.5V29.3H23.5ZM23.5 30.2V29.2H22.6V30.2V31.2H23.5V30.2ZM22.6 30.2H23.6V29.3H22.6H21.6V30.2H22.6ZM20.8 30.2V31.2H22.6V30.2V29.2H20.8V30.2ZM22.6 30.2H21.6V31.1H22.6H23.6V30.2H22.6ZM22.6 31.1V30.1H20.8V31.1V32.1H22.6V31.1ZM20.8 31.1H21.8V30.2H20.8H19.8V31.1H20.8ZM25.2965 29.3V28.3H24.2965V29.3H25.2965ZM26.1965 29.3V30.3H27.1965V29.3H26.1965ZM26.1965 26.6V25.6H25.1965V26.6H26.1965ZM27.0965 26.6V27.6H28.0965V26.6H27.0965ZM27.0965 23.9H28.0965V22.9H27.0965V23.9ZM26.1965 23.9H25.1965V24.9H26.1965V23.9ZM26.1965 23V22H25.1965V23H26.1965ZM28.8965 23H29.8965V22H28.8965V23ZM28.8965 25.7H27.8965V26.7H28.8965V25.7ZM29.7965 25.7H30.7965V24.7H29.7965V25.7ZM29.7965 26.6V27.6H30.7965V26.6H29.7965ZM28.8965 26.6V25.6H27.8965V26.6H28.8965ZM28.8965 27.5V28.5H29.8965V27.5H28.8965ZM27.9965 27.5V26.5H26.9965V27.5H27.9965ZM27.9965 29.3V30.3H28.9965V29.3H27.9965ZM27.0965 29.3V28.3H26.0965V29.3H27.0965ZM27.0965 32V33H28.0965V32H27.0965ZM25.2965 32H24.2965V33H25.2965V32ZM31.5965 29.3V28.3H30.5965V29.3H31.5965ZM32.4965 29.3V30.3H33.4965V29.3H32.4965ZM32.4965 26.6V25.6H31.4965V26.6H32.4965ZM33.3965 26.6V27.6H34.3965V26.6H33.3965ZM33.3965 24.8H34.3965V23.8H33.3965V24.8ZM32.4965 24.8H31.4965V25.8H32.4965V24.8ZM32.4965 23.9H33.4965V22.9H32.4965V23.9ZM31.5965 23.9H30.5965V24.9H31.5965V23.9ZM31.5965 23V22H30.5965V23H31.5965ZM34.2965 23H35.2965V22H34.2965V23ZM34.2965 23.9H33.2965V24.9H34.2965V23.9ZM35.1965 23.9H36.1965V22.9H35.1965V23.9ZM35.1965 26.6V27.6H36.1965V26.6H35.1965ZM34.2965 26.6V25.6H33.2965V26.6H34.2965ZM34.2965 29.3V30.3H35.2965V29.3H34.2965ZM33.3965 29.3V28.3H32.3965V29.3H33.3965ZM33.3965 31.1H32.3965V32.1H33.3965V31.1ZM34.2965 31.1H35.2965V30.1H34.2965V31.1ZM34.2965 32V33H35.2965V32H34.2965ZM31.5965 32H30.5965V33H31.5965V32ZM30.6965 23.9V22.9H29.6965V23.9H30.6965ZM31.5965 23.9H32.5965V22.9H31.5965V23.9ZM31.5965 24.8V25.8H32.5965V24.8H31.5965ZM30.6965 24.8H29.6965V25.8H30.6965V24.8ZM25.2965 23.9V22.9H24.2965V23.9H25.2965ZM26.1965 23.9H27.1965V22.9H26.1965V23.9ZM26.1965 24.8V25.8H27.1965V24.8H26.1965ZM25.2965 24.8H24.2965V25.8H25.2965V24.8ZM29.7965 24.8V23.8H28.7965V24.8H29.7965ZM30.6965 24.8H31.6965V23.8H30.6965V24.8ZM30.6965 25.7V26.7H31.6965V25.7H30.6965ZM29.7965 25.7H28.7965V26.7H29.7965V25.7ZM34.2965 30.2V29.2H33.2965V30.2H34.2965ZM35.1965 30.2H36.1965V29.2H35.1965V30.2ZM35.1965 31.1V32.1H36.1965V31.1H35.1965ZM34.2965 31.1H33.2965V32.1H34.2965V31.1ZM25.2965 29.3V30.3H26.1965V29.3V28.3H25.2965V29.3ZM26.1965 29.3H27.1965V26.6H26.1965H25.1965V29.3H26.1965ZM26.1965 26.6V27.6H27.0965V26.6V25.6H26.1965V26.6ZM27.0965 26.6H28.0965V23.9H27.0965H26.0965V26.6H27.0965ZM27.0965 23.9V22.9H26.1965V23.9V24.9H27.0965V23.9ZM26.1965 23.9H27.1965V23H26.1965H25.1965V23.9H26.1965ZM26.1965 23V24H28.8965V23V22H26.1965V23ZM28.8965 23H27.8965V25.7H28.8965H29.8965V23H28.8965ZM28.8965 25.7V26.7H29.7965V25.7V24.7H28.8965V25.7ZM29.7965 25.7H28.7965V26.6H29.7965H30.7965V25.7H29.7965ZM29.7965 26.6V25.6H28.8965V26.6V27.6H29.7965V26.6ZM28.8965 26.6H27.8965V27.5H28.8965H29.8965V26.6H28.8965ZM28.8965 27.5V26.5H27.9965V27.5V28.5H28.8965V27.5ZM27.9965 27.5H26.9965V29.3H27.9965H28.9965V27.5H27.9965ZM27.9965 29.3V28.3H27.0965V29.3V30.3H27.9965V29.3ZM27.0965 29.3H26.0965V32H27.0965H28.0965V29.3H27.0965ZM27.0965 32V31H25.2965V32V33H27.0965V32ZM25.2965 32H26.2965V29.3H25.2965H24.2965V32H25.2965ZM31.5965 29.3V30.3H32.4965V29.3V28.3H31.5965V29.3ZM32.4965 29.3H33.4965V26.6H32.4965H31.4965V29.3H32.4965ZM32.4965 26.6V27.6H33.3965V26.6V25.6H32.4965V26.6ZM33.3965 26.6H34.3965V24.8H33.3965H32.3965V26.6H33.3965ZM33.3965 24.8V23.8H32.4965V24.8V25.8H33.3965V24.8ZM32.4965 24.8H33.4965V23.9H32.4965H31.4965V24.8H32.4965ZM32.4965 23.9V22.9H31.5965V23.9V24.9H32.4965V23.9ZM31.5965 23.9H32.5965V23H31.5965H30.5965V23.9H31.5965ZM31.5965 23V24H34.2965V23V22H31.5965V23ZM34.2965 23H33.2965V23.9H34.2965H35.2965V23H34.2965ZM34.2965 23.9V24.9H35.1965V23.9V22.9H34.2965V23.9ZM35.1965 23.9H34.1965V26.6H35.1965H36.1965V23.9H35.1965ZM35.1965 26.6V25.6H34.2965V26.6V27.6H35.1965V26.6ZM34.2965 26.6H33.2965V29.3H34.2965H35.2965V26.6H34.2965ZM34.2965 29.3V28.3H33.3965V29.3V30.3H34.2965V29.3ZM33.3965 29.3H32.3965V31.1H33.3965H34.3965V29.3H33.3965ZM33.3965 31.1V32.1H34.2965V31.1V30.1H33.3965V31.1ZM34.2965 31.1H33.2965V32H34.2965H35.2965V31.1H34.2965ZM34.2965 32V31H31.5965V32V33H34.2965V32ZM31.5965 32H32.5965V29.3H31.5965H30.5965V32H31.5965ZM30.6965 23.9V24.9H31.5965V23.9V22.9H30.6965V23.9ZM31.5965 23.9H30.5965V24.8H31.5965H32.5965V23.9H31.5965ZM31.5965 24.8V23.8H30.6965V24.8V25.8H31.5965V24.8ZM30.6965 24.8H31.6965V23.9H30.6965H29.6965V24.8H30.6965ZM25.2965 23.9V24.9H26.1965V23.9V22.9H25.2965V23.9ZM26.1965 23.9H25.1965V24.8H26.1965H27.1965V23.9H26.1965ZM26.1965 24.8V23.8H25.2965V24.8V25.8H26.1965V24.8ZM25.2965 24.8H26.2965V23.9H25.2965H24.2965V24.8H25.2965ZM29.7965 24.8V25.8H30.6965V24.8V23.8H29.7965V24.8ZM30.6965 24.8H29.6965V25.7H30.6965H31.6965V24.8H30.6965ZM30.6965 25.7V24.7H29.7965V25.7V26.7H30.6965V25.7ZM29.7965 25.7H30.7965V24.8H29.7965H28.7965V25.7H29.7965ZM34.2965 30.2V31.2H35.1965V30.2V29.2H34.2965V30.2ZM35.1965 30.2H34.1965V31.1H35.1965H36.1965V30.2H35.1965ZM35.1965 31.1V30.1H34.2965V31.1V32.1H35.1965V31.1ZM34.2965 31.1H35.2965V30.2H34.2965H33.2965V31.1H34.2965ZM37.0035 29.3V28.3H36.0035V29.3H37.0035ZM37.9035 29.3V30.3H38.9035V29.3H37.9035ZM37.9035 26.6V25.6H36.9035V26.6H37.9035ZM38.8035 26.6V27.6H39.8035V26.6H38.8035ZM38.8035 23.9H39.8035V22.9H38.8035V23.9ZM37.0035 23.9H36.0035V24.9H37.0035V23.9ZM37.0035 23V22H36.0035V23H37.0035ZM39.7035 23V24H40.7035V23H39.7035ZM39.7035 20.3V19.3H38.7035V20.3H39.7035ZM41.5035 20.3H42.5035V19.3H41.5035V20.3ZM41.5035 23H40.5035V24H41.5035V23ZM43.3035 23H44.3035V22H43.3035V23ZM43.3035 23.9V24.9H44.3035V23.9H43.3035ZM40.6035 23.9V22.9H39.6035V23.9H40.6035ZM40.6035 27.5V28.5H41.6035V27.5H40.6035ZM39.7035 27.5V26.5H38.7035V27.5H39.7035ZM39.7035 29.3V30.3H40.7035V29.3H39.7035ZM38.8035 29.3V28.3H37.8035V29.3H38.8035ZM38.8035 31.1H37.8035V32.1H38.8035V31.1ZM39.7035 31.1H40.7035V30.1H39.7035V31.1ZM39.7035 32V33H40.7035V32H39.7035ZM37.0035 32H36.0035V33H37.0035V32ZM39.7035 30.2V29.2H38.7035V30.2H39.7035ZM40.6035 30.2H41.6035V29.2H40.6035V30.2ZM40.6035 31.1V32.1H41.6035V31.1H40.6035ZM39.7035 31.1H38.7035V32.1H39.7035V31.1ZM37.0035 29.3V30.3H37.9035V29.3V28.3H37.0035V29.3ZM37.9035 29.3H38.9035V26.6H37.9035H36.9035V29.3H37.9035ZM37.9035 26.6V27.6H38.8035V26.6V25.6H37.9035V26.6ZM38.8035 26.6H39.8035V23.9H38.8035H37.8035V26.6H38.8035ZM38.8035 23.9V22.9H37.0035V23.9V24.9H38.8035V23.9ZM37.0035 23.9H38.0035V23H37.0035H36.0035V23.9H37.0035ZM37.0035 23V24H39.7035V23V22H37.0035V23ZM39.7035 23H40.7035V20.3H39.7035H38.7035V23H39.7035ZM39.7035 20.3V21.3H41.5035V20.3V19.3H39.7035V20.3ZM41.5035 20.3H40.5035V23H41.5035H42.5035V20.3H41.5035ZM41.5035 23V24H43.3035V23V22H41.5035V23ZM43.3035 23H42.3035V23.9H43.3035H44.3035V23H43.3035ZM43.3035 23.9V22.9H40.6035V23.9V24.9H43.3035V23.9ZM40.6035 23.9H39.6035V27.5H40.6035H41.6035V23.9H40.6035ZM40.6035 27.5V26.5H39.7035V27.5V28.5H40.6035V27.5ZM39.7035 27.5H38.7035V29.3H39.7035H40.7035V27.5H39.7035ZM39.7035 29.3V28.3H38.8035V29.3V30.3H39.7035V29.3ZM38.8035 29.3H37.8035V31.1H38.8035H39.8035V29.3H38.8035ZM38.8035 31.1V32.1H39.7035V31.1V30.1H38.8035V31.1ZM39.7035 31.1H38.7035V32H39.7035H40.7035V31.1H39.7035ZM39.7035 32V31H37.0035V32V33H39.7035V32ZM37.0035 32H38.0035V29.3H37.0035H36.0035V32H37.0035ZM39.7035 30.2V31.2H40.6035V30.2V29.2H39.7035V30.2ZM40.6035 30.2H39.6035V31.1H40.6035H41.6035V30.2H40.6035ZM40.6035 31.1V30.1H39.7035V31.1V32.1H40.6035V31.1ZM39.7035 31.1H40.7035V30.2H39.7035H38.7035V31.1H39.7035Z" fill="black" mask="url(#path-1-outside-1_1_61)"/>
</svg>
