<svg width="139" height="33" viewBox="0 0 139 33" fill="none" xmlns="http://www.w3.org/2000/svg">
<mask id="path-1-outside-1_1_37" maskUnits="userSpaceOnUse" x="0" y="0" width="139" height="33" fill="black">
<rect fill="white" width="139" height="33"/>
<path d="M2.8 2.3V1.4H4.6V2.3H2.8ZM7.3 2.3H5.5V1.4H7.3V2.3ZM3.7 5H1.9V2.3H2.8V3.2H3.7V5ZM6.4 5H4.6V2.3H5.5V3.2H6.4V5ZM8.19297 13.1H9.09297V11.3H9.99297V7.7H10.893V5H11.793V2.3H10.893V1.4H18.993V2.3H19.893V5.9H18.993V6.8H18.093V7.7H17.193V5.9H18.093V3.2H17.193V2.3H13.593V5H12.693V7.7H11.793V8.6H14.493V9.5H15.393V10.4H16.293V11.3H17.193V12.2H18.093V13.1H18.993V14H16.293V13.1H15.393V12.2H14.493V11.3H13.593V10.4H12.693V9.5H11.793V11.3H10.893V13.1H11.793V14H8.19297V13.1ZM14.493 7.7H17.193V8.6H14.493V7.7ZM25.293 14H22.593V13.1H21.693V10.4H22.593V7.7H23.493V5.9H22.593V5H25.293V7.7H24.393V10.4H23.493V12.2H24.393V13.1H25.293V14ZM27.993 11.3H27.093V10.4H27.993V9.5H28.893V7.7H29.793V5H31.593V7.7H30.693V10.4H29.793V13.1H30.693V14H27.993V11.3ZM22.593 6.8H21.693V5.9H22.593V6.8ZM27.093 12.2H26.193V11.3H27.093V12.2ZM26.193 13.1H25.293V12.2H26.193V13.1ZM31.593 13.1H30.693V12.2H31.593V13.1ZM33.4 11.3H34.3V8.6H35.2V5.9H34.3V5H37V7.7H37.9V8.6H37V9.5H36.1V11.3H35.2V14H33.4V11.3ZM39.7 11.3H40.6V8.6H41.5V6.8H40.6V5.9H39.7V5H42.4V5.9H43.3V8.6H42.4V11.3H41.5V13.1H42.4V14H39.7V11.3ZM38.8 5.9H39.7V6.8H38.8V5.9ZM33.4 5.9H34.3V6.8H33.4V5.9ZM37.9 6.8H38.8V7.7H37.9V6.8ZM42.4 12.2H43.3V13.1H42.4V12.2ZM54.107 1.4H58.607V2.3H59.507V1.4H60.407V5.9H59.507V4.1H58.607V3.2H57.707V2.3H54.107V1.4ZM51.407 10.4H52.307V12.2H53.207V13.1H51.407V12.2H50.507V10.4H49.607V5.9H50.507V4.1H51.407V3.2H52.307V2.3H54.107V3.2H53.207V4.1H52.307V5.9H51.407V10.4ZM58.607 10.4H59.507V11.3H58.607V10.4ZM57.707 11.3H58.607V12.2H57.707V11.3ZM55.907 12.2H57.707V13.1H55.907V12.2ZM53.207 14V13.1H55.907V14H53.207ZM61.3141 11.3H62.2141V8.6H63.1141V5H64.0141V2.3H62.2141V1.4H65.8141V5H64.9141V8.6H64.0141V11.3H63.1141V13.1H64.0141V14H61.3141V11.3ZM64.0141 12.2H64.9141V13.1H64.0141V12.2ZM71.207 14H68.507V13.1H67.607V10.4H68.507V7.7H69.407V5.9H68.507V5H71.207V7.7H70.307V10.4H69.407V12.2H70.307V13.1H71.207V14ZM73.907 11.3H73.007V10.4H73.907V9.5H74.807V7.7H75.707V5H77.507V7.7H76.607V10.4H75.707V13.1H76.607V14H73.907V11.3ZM68.507 6.8H67.607V5.9H68.507V6.8ZM73.007 12.2H72.107V11.3H73.007V12.2ZM72.107 13.1H71.207V12.2H72.107V13.1ZM77.507 13.1H76.607V12.2H77.507V13.1ZM81.1141 12.2H80.2141V8.6H81.1141V5H82.0141V2.3H80.2141V1.4H83.8141V5H82.9141V6.8H83.8141V7.7H82.9141V8.6H82.0141V13.1H81.1141V12.2ZM85.6141 12.2H86.5141V10.4H87.4141V6.8H86.5141V5.9H84.7141V5H87.4141V5.9H88.3141V6.8H89.2141V10.4H88.3141V12.2H87.4141V13.1H85.6141V12.2ZM83.8141 5.9H84.7141V6.8H83.8141V5.9ZM82.0141 13.1H85.6141V14H82.0141V13.1ZM106.321 2.3H105.421V1.4H108.121V2.3H107.221V5H106.321V2.3ZM101.821 9.5H100.921V6.8H100.021V4.1H99.1211V2.3H98.2211V1.4H100.921V4.1H101.821V6.8H102.721V9.5H103.621V11.3H104.521V14H102.721V11.3H101.821V9.5ZM98.2211 4.1H99.1211V7.7H98.2211V4.1ZM105.421 5H106.321V8.6H105.421V5ZM97.3211 7.7H98.2211V11.3H97.3211V7.7ZM104.521 8.6H105.421V11.3H104.521V8.6ZM95.5211 13.1H96.4211V11.3H97.3211V13.1H98.2211V14H95.5211V13.1ZM113.525 8.6H114.425V5.9H111.725V5H115.325V5.9H116.225V8.6H115.325V9.5H113.525V8.6ZM109.025 12.2H108.125V8.6H109.025V6.8H109.925V5.9H111.725V6.8H110.825V8.6H109.925V10.4H111.725V11.3H109.925V12.2H110.825V13.1H113.525V14H109.925V13.1H109.025V12.2ZM111.725 9.5H113.525V10.4H111.725V9.5ZM115.325 11.3H116.225V12.2H115.325V11.3ZM113.525 12.2H115.325V13.1H113.525V12.2ZM123.421 11.3H124.321V10.4H125.221V8.6H126.121V5.9H123.421V5H127.921V8.6H127.021V11.3H126.121V13.1H127.021V14H124.321V12.2H123.421V11.3ZM121.621 5.9H123.421V6.8H121.621V5.9ZM118.921 13.1H118.021V9.5H118.921V7.7H119.821V6.8H121.621V7.7H120.721V9.5H119.821V12.2H120.721V13.1H122.521V14H118.921V13.1ZM127.021 12.2H127.921V13.1H127.021V12.2ZM122.521 12.2H123.421V13.1H122.521V12.2ZM129.728 11.3H130.628V8.6H131.528V5.9H130.628V5H133.328V6.8H134.228V7.7H133.328V9.5H132.428V11.3H131.528V14H129.728V11.3ZM135.128 5H136.928V5.9H137.828V7.7H136.028V5.9H135.128V5ZM134.228 5.9H135.128V6.8H134.228V5.9ZM129.728 5.9H130.628V6.8H129.728V5.9ZM12.7 31.1H13.6V29.3H14.5V26.6H15.4V23H16.3V21.2H15.4V19.4H19V20.3H18.1V23H17.2V26.6H16.3V29.3H15.4V31.1H16.3V32H12.7V31.1ZM10 28.4H10.9V30.2H10V32H8.2V29.3H7.3V25.7H6.4V23H5.5V20.3H4.6V19.4H7.3V22.1H8.2V25.7H9.1V29.3H10V28.4ZM14.5 21.2H15.4V22.1H14.5V21.2ZM13.6 22.1H14.5V23.9H13.6V22.1ZM4.6 23H5.5V26.6H4.6V23ZM12.7 23.9H13.6V25.7H12.7V23.9ZM11.8 25.7H12.7V26.6H11.8V25.7ZM10.9 26.6H11.8V28.4H10.9V26.6ZM3.7 26.6H4.6V29.3H3.7V26.6ZM1.9 31.1H2.8V29.3H3.7V31.1H4.6V32H1.9V31.1ZM24.4035 26.6H25.3035V23.9H22.6035V23H26.2035V23.9H27.1035V26.6H26.2035V27.5H24.4035V26.6ZM19.9035 30.2H19.0035V26.6H19.9035V24.8H20.8035V23.9H22.6035V24.8H21.7035V26.6H20.8035V28.4H22.6035V29.3H20.8035V30.2H21.7035V31.1H24.4035V32H20.8035V31.1H19.9035V30.2ZM22.6035 27.5H24.4035V28.4H22.6035V27.5ZM26.2035 29.3H27.1035V30.2H26.2035V29.3ZM24.4035 30.2H26.2035V31.1H24.4035V30.2ZM33.407 21.2H32.507V19.4H34.307V22.1H33.407V21.2ZM30.707 21.2H29.807V19.4H31.607V22.1H30.707V21.2ZM31.607 23V22.1H33.407V23H31.607ZM28.907 22.1H30.707V23H28.907V22.1Z"/>
</mask>
<path d="M2.8 2.3V1.4H4.6V2.3H2.8ZM7.3 2.3H5.5V1.4H7.3V2.3ZM3.7 5H1.9V2.3H2.8V3.2H3.7V5ZM6.4 5H4.6V2.3H5.5V3.2H6.4V5ZM8.19297 13.1H9.09297V11.3H9.99297V7.7H10.893V5H11.793V2.3H10.893V1.4H18.993V2.3H19.893V5.9H18.993V6.8H18.093V7.7H17.193V5.9H18.093V3.2H17.193V2.3H13.593V5H12.693V7.7H11.793V8.6H14.493V9.5H15.393V10.4H16.293V11.3H17.193V12.2H18.093V13.1H18.993V14H16.293V13.1H15.393V12.2H14.493V11.3H13.593V10.4H12.693V9.5H11.793V11.3H10.893V13.1H11.793V14H8.19297V13.1ZM14.493 7.7H17.193V8.6H14.493V7.7ZM25.293 14H22.593V13.1H21.693V10.4H22.593V7.7H23.493V5.9H22.593V5H25.293V7.7H24.393V10.4H23.493V12.2H24.393V13.1H25.293V14ZM27.993 11.3H27.093V10.4H27.993V9.5H28.893V7.7H29.793V5H31.593V7.7H30.693V10.4H29.793V13.1H30.693V14H27.993V11.3ZM22.593 6.8H21.693V5.9H22.593V6.8ZM27.093 12.2H26.193V11.3H27.093V12.2ZM26.193 13.1H25.293V12.2H26.193V13.1ZM31.593 13.1H30.693V12.2H31.593V13.1ZM33.4 11.3H34.3V8.6H35.2V5.9H34.3V5H37V7.7H37.9V8.6H37V9.5H36.1V11.3H35.2V14H33.4V11.3ZM39.7 11.3H40.6V8.6H41.5V6.8H40.6V5.9H39.7V5H42.4V5.9H43.3V8.6H42.4V11.3H41.5V13.1H42.4V14H39.7V11.3ZM38.8 5.9H39.7V6.8H38.8V5.9ZM33.4 5.9H34.3V6.8H33.4V5.9ZM37.9 6.8H38.8V7.7H37.9V6.8ZM42.4 12.2H43.3V13.1H42.4V12.2ZM54.107 1.4H58.607V2.3H59.507V1.4H60.407V5.9H59.507V4.1H58.607V3.2H57.707V2.3H54.107V1.4ZM51.407 10.4H52.307V12.2H53.207V13.1H51.407V12.2H50.507V10.4H49.607V5.9H50.507V4.1H51.407V3.2H52.307V2.3H54.107V3.2H53.207V4.1H52.307V5.9H51.407V10.4ZM58.607 10.4H59.507V11.3H58.607V10.4ZM57.707 11.3H58.607V12.2H57.707V11.3ZM55.907 12.2H57.707V13.1H55.907V12.2ZM53.207 14V13.1H55.907V14H53.207ZM61.3141 11.3H62.2141V8.6H63.1141V5H64.0141V2.3H62.2141V1.4H65.8141V5H64.9141V8.6H64.0141V11.3H63.1141V13.1H64.0141V14H61.3141V11.3ZM64.0141 12.2H64.9141V13.1H64.0141V12.2ZM71.207 14H68.507V13.1H67.607V10.4H68.507V7.7H69.407V5.9H68.507V5H71.207V7.7H70.307V10.4H69.407V12.2H70.307V13.1H71.207V14ZM73.907 11.3H73.007V10.4H73.907V9.5H74.807V7.7H75.707V5H77.507V7.7H76.607V10.4H75.707V13.1H76.607V14H73.907V11.3ZM68.507 6.8H67.607V5.9H68.507V6.8ZM73.007 12.2H72.107V11.3H73.007V12.2ZM72.107 13.1H71.207V12.2H72.107V13.1ZM77.507 13.1H76.607V12.2H77.507V13.1ZM81.1141 12.2H80.2141V8.6H81.1141V5H82.0141V2.3H80.2141V1.4H83.8141V5H82.9141V6.8H83.8141V7.7H82.9141V8.6H82.0141V13.1H81.1141V12.2ZM85.6141 12.2H86.5141V10.4H87.4141V6.8H86.5141V5.9H84.7141V5H87.4141V5.9H88.3141V6.8H89.2141V10.4H88.3141V12.2H87.4141V13.1H85.6141V12.2ZM83.8141 5.9H84.7141V6.8H83.8141V5.9ZM82.0141 13.1H85.6141V14H82.0141V13.1ZM106.321 2.3H105.421V1.4H108.121V2.3H107.221V5H106.321V2.3ZM101.821 9.5H100.921V6.8H100.021V4.1H99.1211V2.3H98.2211V1.4H100.921V4.1H101.821V6.8H102.721V9.5H103.621V11.3H104.521V14H102.721V11.3H101.821V9.5ZM98.2211 4.1H99.1211V7.7H98.2211V4.1ZM105.421 5H106.321V8.6H105.421V5ZM97.3211 7.7H98.2211V11.3H97.3211V7.7ZM104.521 8.6H105.421V11.3H104.521V8.6ZM95.5211 13.1H96.4211V11.3H97.3211V13.1H98.2211V14H95.5211V13.1ZM113.525 8.6H114.425V5.9H111.725V5H115.325V5.9H116.225V8.6H115.325V9.5H113.525V8.6ZM109.025 12.2H108.125V8.6H109.025V6.8H109.925V5.9H111.725V6.8H110.825V8.6H109.925V10.4H111.725V11.3H109.925V12.2H110.825V13.1H113.525V14H109.925V13.1H109.025V12.2ZM111.725 9.5H113.525V10.4H111.725V9.5ZM115.325 11.3H116.225V12.2H115.325V11.3ZM113.525 12.2H115.325V13.1H113.525V12.2ZM123.421 11.3H124.321V10.4H125.221V8.6H126.121V5.9H123.421V5H127.921V8.6H127.021V11.3H126.121V13.1H127.021V14H124.321V12.2H123.421V11.3ZM121.621 5.9H123.421V6.8H121.621V5.9ZM118.921 13.1H118.021V9.5H118.921V7.7H119.821V6.8H121.621V7.7H120.721V9.5H119.821V12.2H120.721V13.1H122.521V14H118.921V13.1ZM127.021 12.2H127.921V13.1H127.021V12.2ZM122.521 12.2H123.421V13.1H122.521V12.2ZM129.728 11.3H130.628V8.6H131.528V5.9H130.628V5H133.328V6.8H134.228V7.7H133.328V9.5H132.428V11.3H131.528V14H129.728V11.3ZM135.128 5H136.928V5.9H137.828V7.7H136.028V5.9H135.128V5ZM134.228 5.9H135.128V6.8H134.228V5.9ZM129.728 5.9H130.628V6.8H129.728V5.9ZM12.7 31.1H13.6V29.3H14.5V26.6H15.4V23H16.3V21.2H15.4V19.4H19V20.3H18.1V23H17.2V26.6H16.3V29.3H15.4V31.1H16.3V32H12.7V31.1ZM10 28.4H10.9V30.2H10V32H8.2V29.3H7.3V25.7H6.4V23H5.5V20.3H4.6V19.4H7.3V22.1H8.2V25.7H9.1V29.3H10V28.4ZM14.5 21.2H15.4V22.1H14.5V21.2ZM13.6 22.1H14.5V23.9H13.6V22.1ZM4.6 23H5.5V26.6H4.6V23ZM12.7 23.9H13.6V25.7H12.7V23.9ZM11.8 25.7H12.7V26.6H11.8V25.7ZM10.9 26.6H11.8V28.4H10.9V26.6ZM3.7 26.6H4.6V29.3H3.7V26.6ZM1.9 31.1H2.8V29.3H3.7V31.1H4.6V32H1.9V31.1ZM24.4035 26.6H25.3035V23.9H22.6035V23H26.2035V23.9H27.1035V26.6H26.2035V27.5H24.4035V26.6ZM19.9035 30.2H19.0035V26.6H19.9035V24.8H20.8035V23.9H22.6035V24.8H21.7035V26.6H20.8035V28.4H22.6035V29.3H20.8035V30.2H21.7035V31.1H24.4035V32H20.8035V31.1H19.9035V30.2ZM22.6035 27.5H24.4035V28.4H22.6035V27.5ZM26.2035 29.3H27.1035V30.2H26.2035V29.3ZM24.4035 30.2H26.2035V31.1H24.4035V30.2ZM33.407 21.2H32.507V19.4H34.307V22.1H33.407V21.2ZM30.707 21.2H29.807V19.4H31.607V22.1H30.707V21.2ZM31.607 23V22.1H33.407V23H31.607ZM28.907 22.1H30.707V23H28.907V22.1Z" fill="#FFF32E"/>
<path d="M2.8 2.3H1.8V3.3H2.8V2.3ZM2.8 1.4V0.399999H1.8V1.4H2.8ZM4.6 1.4H5.6V0.399999H4.6V1.4ZM4.6 2.3V3.3H5.6V2.3H4.6ZM7.3 2.3V3.3H8.3V2.3H7.3ZM5.5 2.3H4.5V3.3H5.5V2.3ZM5.5 1.4V0.399999H4.5V1.4H5.5ZM7.3 1.4H8.3V0.399999H7.3V1.4ZM3.7 5V6H4.7V5H3.7ZM1.9 5H0.9V6H1.9V5ZM1.9 2.3V1.3H0.9V2.3H1.9ZM2.8 2.3H3.8V1.3H2.8V2.3ZM2.8 3.2H1.8V4.2H2.8V3.2ZM3.7 3.2H4.7V2.2H3.7V3.2ZM6.4 5V6H7.4V5H6.4ZM4.6 5H3.6V6H4.6V5ZM4.6 2.3V1.3H3.6V2.3H4.6ZM5.5 2.3H6.5V1.3H5.5V2.3ZM5.5 3.2H4.5V4.2H5.5V3.2ZM6.4 3.2H7.4V2.2H6.4V3.2ZM2.8 2.3H3.8V1.4H2.8H1.8V2.3H2.8ZM2.8 1.4V2.4H4.6V1.4V0.399999H2.8V1.4ZM4.6 1.4H3.6V2.3H4.6H5.6V1.4H4.6ZM4.6 2.3V1.3H2.8V2.3V3.3H4.6V2.3ZM7.3 2.3V1.3H5.5V2.3V3.3H7.3V2.3ZM5.5 2.3H6.5V1.4H5.5H4.5V2.3H5.5ZM5.5 1.4V2.4H7.3V1.4V0.399999H5.5V1.4ZM7.3 1.4H6.3V2.3H7.3H8.3V1.4H7.3ZM3.7 5V4H1.9V5V6H3.7V5ZM1.9 5H2.9V2.3H1.9H0.9V5H1.9ZM1.9 2.3V3.3H2.8V2.3V1.3H1.9V2.3ZM2.8 2.3H1.8V3.2H2.8H3.8V2.3H2.8ZM2.8 3.2V4.2H3.7V3.2V2.2H2.8V3.2ZM3.7 3.2H2.7V5H3.7H4.7V3.2H3.7ZM6.4 5V4H4.6V5V6H6.4V5ZM4.6 5H5.6V2.3H4.6H3.6V5H4.6ZM4.6 2.3V3.3H5.5V2.3V1.3H4.6V2.3ZM5.5 2.3H4.5V3.2H5.5H6.5V2.3H5.5ZM5.5 3.2V4.2H6.4V3.2V2.2H5.5V3.2ZM6.4 3.2H5.4V5H6.4H7.4V3.2H6.4ZM8.19297 13.1V12.1H7.19297V13.1H8.19297ZM9.09297 13.1V14.1H10.093V13.1H9.09297ZM9.09297 11.3V10.3H8.09297V11.3H9.09297ZM9.99297 11.3V12.3H10.993V11.3H9.99297ZM9.99297 7.7V6.7H8.99297V7.7H9.99297ZM10.893 7.7V8.7H11.893V7.7H10.893ZM10.893 5V4H9.89297V5H10.893ZM11.793 5V6H12.793V5H11.793ZM11.793 2.3H12.793V1.3H11.793V2.3ZM10.893 2.3H9.89297V3.3H10.893V2.3ZM10.893 1.4V0.399999H9.89297V1.4H10.893ZM18.993 1.4H19.993V0.399999H18.993V1.4ZM18.993 2.3H17.993V3.3H18.993V2.3ZM19.893 2.3H20.893V1.3H19.893V2.3ZM19.893 5.9V6.9H20.893V5.9H19.893ZM18.993 5.9V4.9H17.993V5.9H18.993ZM18.993 6.8V7.8H19.993V6.8H18.993ZM18.093 6.8V5.8H17.093V6.8H18.093ZM18.093 7.7V8.7H19.093V7.7H18.093ZM17.193 7.7H16.193V8.7H17.193V7.7ZM17.193 5.9V4.9H16.193V5.9H17.193ZM18.093 5.9V6.9H19.093V5.9H18.093ZM18.093 3.2H19.093V2.2H18.093V3.2ZM17.193 3.2H16.193V4.2H17.193V3.2ZM17.193 2.3H18.193V1.3H17.193V2.3ZM13.593 2.3V1.3H12.593V2.3H13.593ZM13.593 5V6H14.593V5H13.593ZM12.693 5V4H11.693V5H12.693ZM12.693 7.7V8.7H13.693V7.7H12.693ZM11.793 7.7V6.7H10.793V7.7H11.793ZM11.793 8.6H10.793V9.6H11.793V8.6ZM14.493 8.6H15.493V7.6H14.493V8.6ZM14.493 9.5H13.493V10.5H14.493V9.5ZM15.393 9.5H16.393V8.5H15.393V9.5ZM15.393 10.4H14.393V11.4H15.393V10.4ZM16.293 10.4H17.293V9.4H16.293V10.4ZM16.293 11.3H15.293V12.3H16.293V11.3ZM17.193 11.3H18.193V10.3H17.193V11.3ZM17.193 12.2H16.193V13.2H17.193V12.2ZM18.093 12.2H19.093V11.2H18.093V12.2ZM18.093 13.1H17.093V14.1H18.093V13.1ZM18.993 13.1H19.993V12.1H18.993V13.1ZM18.993 14V15H19.993V14H18.993ZM16.293 14H15.293V15H16.293V14ZM16.293 13.1H17.293V12.1H16.293V13.1ZM15.393 13.1H14.393V14.1H15.393V13.1ZM15.393 12.2H16.393V11.2H15.393V12.2ZM14.493 12.2H13.493V13.2H14.493V12.2ZM14.493 11.3H15.493V10.3H14.493V11.3ZM13.593 11.3H12.593V12.3H13.593V11.3ZM13.593 10.4H14.593V9.4H13.593V10.4ZM12.693 10.4H11.693V11.4H12.693V10.4ZM12.693 9.5H13.693V8.5H12.693V9.5ZM11.793 9.5V8.5H10.793V9.5H11.793ZM11.793 11.3V12.3H12.793V11.3H11.793ZM10.893 11.3V10.3H9.89297V11.3H10.893ZM10.893 13.1H9.89297V14.1H10.893V13.1ZM11.793 13.1H12.793V12.1H11.793V13.1ZM11.793 14V15H12.793V14H11.793ZM8.19297 14H7.19297V15H8.19297V14ZM14.493 7.7V6.7H13.493V7.7H14.493ZM17.193 7.7H18.193V6.7H17.193V7.7ZM17.193 8.6V9.6H18.193V8.6H17.193ZM14.493 8.6H13.493V9.6H14.493V8.6ZM8.19297 13.1V14.1H9.09297V13.1V12.1H8.19297V13.1ZM9.09297 13.1H10.093V11.3H9.09297H8.09297V13.1H9.09297ZM9.09297 11.3V12.3H9.99297V11.3V10.3H9.09297V11.3ZM9.99297 11.3H10.993V7.7H9.99297H8.99297V11.3H9.99297ZM9.99297 7.7V8.7H10.893V7.7V6.7H9.99297V7.7ZM10.893 7.7H11.893V5H10.893H9.89297V7.7H10.893ZM10.893 5V6H11.793V5V4H10.893V5ZM11.793 5H12.793V2.3H11.793H10.793V5H11.793ZM11.793 2.3V1.3H10.893V2.3V3.3H11.793V2.3ZM10.893 2.3H11.893V1.4H10.893H9.89297V2.3H10.893ZM10.893 1.4V2.4H18.993V1.4V0.399999H10.893V1.4ZM18.993 1.4H17.993V2.3H18.993H19.993V1.4H18.993ZM18.993 2.3V3.3H19.893V2.3V1.3H18.993V2.3ZM19.893 2.3H18.893V5.9H19.893H20.893V2.3H19.893ZM19.893 5.9V4.9H18.993V5.9V6.9H19.893V5.9ZM18.993 5.9H17.993V6.8H18.993H19.993V5.9H18.993ZM18.993 6.8V5.8H18.093V6.8V7.8H18.993V6.8ZM18.093 6.8H17.093V7.7H18.093H19.093V6.8H18.093ZM18.093 7.7V6.7H17.193V7.7V8.7H18.093V7.7ZM17.193 7.7H18.193V5.9H17.193H16.193V7.7H17.193ZM17.193 5.9V6.9H18.093V5.9V4.9H17.193V5.9ZM18.093 5.9H19.093V3.2H18.093H17.093V5.9H18.093ZM18.093 3.2V2.2H17.193V3.2V4.2H18.093V3.2ZM17.193 3.2H18.193V2.3H17.193H16.193V3.2H17.193ZM17.193 2.3V1.3H13.593V2.3V3.3H17.193V2.3ZM13.593 2.3H12.593V5H13.593H14.593V2.3H13.593ZM13.593 5V4H12.693V5V6H13.593V5ZM12.693 5H11.693V7.7H12.693H13.693V5H12.693ZM12.693 7.7V6.7H11.793V7.7V8.7H12.693V7.7ZM11.793 7.7H10.793V8.6H11.793H12.793V7.7H11.793ZM11.793 8.6V9.6H14.493V8.6V7.6H11.793V8.6ZM14.493 8.6H13.493V9.5H14.493H15.493V8.6H14.493ZM14.493 9.5V10.5H15.393V9.5V8.5H14.493V9.5ZM15.393 9.5H14.393V10.4H15.393H16.393V9.5H15.393ZM15.393 10.4V11.4H16.293V10.4V9.4H15.393V10.4ZM16.293 10.4H15.293V11.3H16.293H17.293V10.4H16.293ZM16.293 11.3V12.3H17.193V11.3V10.3H16.293V11.3ZM17.193 11.3H16.193V12.2H17.193H18.193V11.3H17.193ZM17.193 12.2V13.2H18.093V12.2V11.2H17.193V12.2ZM18.093 12.2H17.093V13.1H18.093H19.093V12.2H18.093ZM18.093 13.1V14.1H18.993V13.1V12.1H18.093V13.1ZM18.993 13.1H17.993V14H18.993H19.993V13.1H18.993ZM18.993 14V13H16.293V14V15H18.993V14ZM16.293 14H17.293V13.1H16.293H15.293V14H16.293ZM16.293 13.1V12.1H15.393V13.1V14.1H16.293V13.1ZM15.393 13.1H16.393V12.2H15.393H14.393V13.1H15.393ZM15.393 12.2V11.2H14.493V12.2V13.2H15.393V12.2ZM14.493 12.2H15.493V11.3H14.493H13.493V12.2H14.493ZM14.493 11.3V10.3H13.593V11.3V12.3H14.493V11.3ZM13.593 11.3H14.593V10.4H13.593H12.593V11.3H13.593ZM13.593 10.4V9.4H12.693V10.4V11.4H13.593V10.4ZM12.693 10.4H13.693V9.5H12.693H11.693V10.4H12.693ZM12.693 9.5V8.5H11.793V9.5V10.5H12.693V9.5ZM11.793 9.5H10.793V11.3H11.793H12.793V9.5H11.793ZM11.793 11.3V10.3H10.893V11.3V12.3H11.793V11.3ZM10.893 11.3H9.89297V13.1H10.893H11.893V11.3H10.893ZM10.893 13.1V14.1H11.793V13.1V12.1H10.893V13.1ZM11.793 13.1H10.793V14H11.793H12.793V13.1H11.793ZM11.793 14V13H8.19297V14V15H11.793V14ZM8.19297 14H9.19297V13.1H8.19297H7.19297V14H8.19297ZM14.493 7.7V8.7H17.193V7.7V6.7H14.493V7.7ZM17.193 7.7H16.193V8.6H17.193H18.193V7.7H17.193ZM17.193 8.6V7.6H14.493V8.6V9.6H17.193V8.6ZM14.493 8.6H15.493V7.7H14.493H13.493V8.6H14.493ZM25.293 14V15H26.293V14H25.293ZM22.593 14H21.593V15H22.593V14ZM22.593 13.1H23.593V12.1H22.593V13.1ZM21.693 13.1H20.693V14.1H21.693V13.1ZM21.693 10.4V9.4H20.693V10.4H21.693ZM22.593 10.4V11.4H23.593V10.4H22.593ZM22.593 7.7V6.7H21.593V7.7H22.593ZM23.493 7.7V8.7H24.493V7.7H23.493ZM23.493 5.9H24.493V4.9H23.493V5.9ZM22.593 5.9H21.593V6.9H22.593V5.9ZM22.593 5V4H21.593V5H22.593ZM25.293 5H26.293V4H25.293V5ZM25.293 7.7V8.7H26.293V7.7H25.293ZM24.393 7.7V6.7H23.393V7.7H24.393ZM24.393 10.4V11.4H25.393V10.4H24.393ZM23.493 10.4V9.4H22.493V10.4H23.493ZM23.493 12.2H22.493V13.2H23.493V12.2ZM24.393 12.2H25.393V11.2H24.393V12.2ZM24.393 13.1H23.393V14.1H24.393V13.1ZM25.293 13.1H26.293V12.1H25.293V13.1ZM27.993 11.3H28.993V10.3H27.993V11.3ZM27.093 11.3H26.093V12.3H27.093V11.3ZM27.093 10.4V9.4H26.093V10.4H27.093ZM27.993 10.4V11.4H28.993V10.4H27.993ZM27.993 9.5V8.5H26.993V9.5H27.993ZM28.893 9.5V10.5H29.893V9.5H28.893ZM28.893 7.7V6.7H27.893V7.7H28.893ZM29.793 7.7V8.7H30.793V7.7H29.793ZM29.793 5V4H28.793V5H29.793ZM31.593 5H32.593V4H31.593V5ZM31.593 7.7V8.7H32.593V7.7H31.593ZM30.693 7.7V6.7H29.693V7.7H30.693ZM30.693 10.4V11.4H31.693V10.4H30.693ZM29.793 10.4V9.4H28.793V10.4H29.793ZM29.793 13.1H28.793V14.1H29.793V13.1ZM30.693 13.1H31.693V12.1H30.693V13.1ZM30.693 14V15H31.693V14H30.693ZM27.993 14H26.993V15H27.993V14ZM22.593 6.8V7.8H23.593V6.8H22.593ZM21.693 6.8H20.693V7.8H21.693V6.8ZM21.693 5.9V4.9H20.693V5.9H21.693ZM22.593 5.9H23.593V4.9H22.593V5.9ZM27.093 12.2V13.2H28.093V12.2H27.093ZM26.193 12.2H25.193V13.2H26.193V12.2ZM26.193 11.3V10.3H25.193V11.3H26.193ZM27.093 11.3H28.093V10.3H27.093V11.3ZM26.193 13.1V14.1H27.193V13.1H26.193ZM25.293 13.1H24.293V14.1H25.293V13.1ZM25.293 12.2V11.2H24.293V12.2H25.293ZM26.193 12.2H27.193V11.2H26.193V12.2ZM31.593 13.1V14.1H32.593V13.1H31.593ZM30.693 13.1H29.693V14.1H30.693V13.1ZM30.693 12.2V11.2H29.693V12.2H30.693ZM31.593 12.2H32.593V11.2H31.593V12.2ZM25.293 14V13H22.593V14V15H25.293V14ZM22.593 14H23.593V13.1H22.593H21.593V14H22.593ZM22.593 13.1V12.1H21.693V13.1V14.1H22.593V13.1ZM21.693 13.1H22.693V10.4H21.693H20.693V13.1H21.693ZM21.693 10.4V11.4H22.593V10.4V9.4H21.693V10.4ZM22.593 10.4H23.593V7.7H22.593H21.593V10.4H22.593ZM22.593 7.7V8.7H23.493V7.7V6.7H22.593V7.7ZM23.493 7.7H24.493V5.9H23.493H22.493V7.7H23.493ZM23.493 5.9V4.9H22.593V5.9V6.9H23.493V5.9ZM22.593 5.9H23.593V5H22.593H21.593V5.9H22.593ZM22.593 5V6H25.293V5V4H22.593V5ZM25.293 5H24.293V7.7H25.293H26.293V5H25.293ZM25.293 7.7V6.7H24.393V7.7V8.7H25.293V7.7ZM24.393 7.7H23.393V10.4H24.393H25.393V7.7H24.393ZM24.393 10.4V9.4H23.493V10.4V11.4H24.393V10.4ZM23.493 10.4H22.493V12.2H23.493H24.493V10.4H23.493ZM23.493 12.2V13.2H24.393V12.2V11.2H23.493V12.2ZM24.393 12.2H23.393V13.1H24.393H25.393V12.2H24.393ZM24.393 13.1V14.1H25.293V13.1V12.1H24.393V13.1ZM25.293 13.1H24.293V14H25.293H26.293V13.1H25.293ZM27.993 11.3V10.3H27.093V11.3V12.3H27.993V11.3ZM27.093 11.3H28.093V10.4H27.093H26.093V11.3H27.093ZM27.093 10.4V11.4H27.993V10.4V9.4H27.093V10.4ZM27.993 10.4H28.993V9.5H27.993H26.993V10.4H27.993ZM27.993 9.5V10.5H28.893V9.5V8.5H27.993V9.5ZM28.893 9.5H29.893V7.7H28.893H27.893V9.5H28.893ZM28.893 7.7V8.7H29.793V7.7V6.7H28.893V7.7ZM29.793 7.7H30.793V5H29.793H28.793V7.7H29.793ZM29.793 5V6H31.593V5V4H29.793V5ZM31.593 5H30.593V7.7H31.593H32.593V5H31.593ZM31.593 7.7V6.7H30.693V7.7V8.7H31.593V7.7ZM30.693 7.7H29.693V10.4H30.693H31.693V7.7H30.693ZM30.693 10.4V9.4H29.793V10.4V11.4H30.693V10.4ZM29.793 10.4H28.793V13.1H29.793H30.793V10.4H29.793ZM29.793 13.1V14.1H30.693V13.1V12.1H29.793V13.1ZM30.693 13.1H29.693V14H30.693H31.693V13.1H30.693ZM30.693 14V13H27.993V14V15H30.693V14ZM27.993 14H28.993V11.3H27.993H26.993V14H27.993ZM22.593 6.8V5.8H21.693V6.8V7.8H22.593V6.8ZM21.693 6.8H22.693V5.9H21.693H20.693V6.8H21.693ZM21.693 5.9V6.9H22.593V5.9V4.9H21.693V5.9ZM22.593 5.9H21.593V6.8H22.593H23.593V5.9H22.593ZM27.093 12.2V11.2H26.193V12.2V13.2H27.093V12.2ZM26.193 12.2H27.193V11.3H26.193H25.193V12.2H26.193ZM26.193 11.3V12.3H27.093V11.3V10.3H26.193V11.3ZM27.093 11.3H26.093V12.2H27.093H28.093V11.3H27.093ZM26.193 13.1V12.1H25.293V13.1V14.1H26.193V13.1ZM25.293 13.1H26.293V12.2H25.293H24.293V13.1H25.293ZM25.293 12.2V13.2H26.193V12.2V11.2H25.293V12.2ZM26.193 12.2H25.193V13.1H26.193H27.193V12.2H26.193ZM31.593 13.1V12.1H30.693V13.1V14.1H31.593V13.1ZM30.693 13.1H31.693V12.2H30.693H29.693V13.1H30.693ZM30.693 12.2V13.2H31.593V12.2V11.2H30.693V12.2ZM31.593 12.2H30.593V13.1H31.593H32.593V12.2H31.593ZM33.4 11.3V10.3H32.4V11.3H33.4ZM34.3 11.3V12.3H35.3V11.3H34.3ZM34.3 8.6V7.6H33.3V8.6H34.3ZM35.2 8.6V9.6H36.2V8.6H35.2ZM35.2 5.9H36.2V4.9H35.2V5.9ZM34.3 5.9H33.3V6.9H34.3V5.9ZM34.3 5V4H33.3V5H34.3ZM37 5H38V4H37V5ZM37 7.7H36V8.7H37V7.7ZM37.9 7.7H38.9V6.7H37.9V7.7ZM37.9 8.6V9.6H38.9V8.6H37.9ZM37 8.6V7.6H36V8.6H37ZM37 9.5V10.5H38V9.5H37ZM36.1 9.5V8.5H35.1V9.5H36.1ZM36.1 11.3V12.3H37.1V11.3H36.1ZM35.2 11.3V10.3H34.2V11.3H35.2ZM35.2 14V15H36.2V14H35.2ZM33.4 14H32.4V15H33.4V14ZM39.7 11.3V10.3H38.7V11.3H39.7ZM40.6 11.3V12.3H41.6V11.3H40.6ZM40.6 8.6V7.6H39.6V8.6H40.6ZM41.5 8.6V9.6H42.5V8.6H41.5ZM41.5 6.8H42.5V5.8H41.5V6.8ZM40.6 6.8H39.6V7.8H40.6V6.8ZM40.6 5.9H41.6V4.9H40.6V5.9ZM39.7 5.9H38.7V6.9H39.7V5.9ZM39.7 5V4H38.7V5H39.7ZM42.4 5H43.4V4H42.4V5ZM42.4 5.9H41.4V6.9H42.4V5.9ZM43.3 5.9H44.3V4.9H43.3V5.9ZM43.3 8.6V9.6H44.3V8.6H43.3ZM42.4 8.6V7.6H41.4V8.6H42.4ZM42.4 11.3V12.3H43.4V11.3H42.4ZM41.5 11.3V10.3H40.5V11.3H41.5ZM41.5 13.1H40.5V14.1H41.5V13.1ZM42.4 13.1H43.4V12.1H42.4V13.1ZM42.4 14V15H43.4V14H42.4ZM39.7 14H38.7V15H39.7V14ZM38.8 5.9V4.9H37.8V5.9H38.8ZM39.7 5.9H40.7V4.9H39.7V5.9ZM39.7 6.8V7.8H40.7V6.8H39.7ZM38.8 6.8H37.8V7.8H38.8V6.8ZM33.4 5.9V4.9H32.4V5.9H33.4ZM34.3 5.9H35.3V4.9H34.3V5.9ZM34.3 6.8V7.8H35.3V6.8H34.3ZM33.4 6.8H32.4V7.8H33.4V6.8ZM37.9 6.8V5.8H36.9V6.8H37.9ZM38.8 6.8H39.8V5.8H38.8V6.8ZM38.8 7.7V8.7H39.8V7.7H38.8ZM37.9 7.7H36.9V8.7H37.9V7.7ZM42.4 12.2V11.2H41.4V12.2H42.4ZM43.3 12.2H44.3V11.2H43.3V12.2ZM43.3 13.1V14.1H44.3V13.1H43.3ZM42.4 13.1H41.4V14.1H42.4V13.1ZM33.4 11.3V12.3H34.3V11.3V10.3H33.4V11.3ZM34.3 11.3H35.3V8.6H34.3H33.3V11.3H34.3ZM34.3 8.6V9.6H35.2V8.6V7.6H34.3V8.6ZM35.2 8.6H36.2V5.9H35.2H34.2V8.6H35.2ZM35.2 5.9V4.9H34.3V5.9V6.9H35.2V5.9ZM34.3 5.9H35.3V5H34.3H33.3V5.9H34.3ZM34.3 5V6H37V5V4H34.3V5ZM37 5H36V7.7H37H38V5H37ZM37 7.7V8.7H37.9V7.7V6.7H37V7.7ZM37.9 7.7H36.9V8.6H37.9H38.9V7.7H37.9ZM37.9 8.6V7.6H37V8.6V9.6H37.9V8.6ZM37 8.6H36V9.5H37H38V8.6H37ZM37 9.5V8.5H36.1V9.5V10.5H37V9.5ZM36.1 9.5H35.1V11.3H36.1H37.1V9.5H36.1ZM36.1 11.3V10.3H35.2V11.3V12.3H36.1V11.3ZM35.2 11.3H34.2V14H35.2H36.2V11.3H35.2ZM35.2 14V13H33.4V14V15H35.2V14ZM33.4 14H34.4V11.3H33.4H32.4V14H33.4ZM39.7 11.3V12.3H40.6V11.3V10.3H39.7V11.3ZM40.6 11.3H41.6V8.6H40.6H39.6V11.3H40.6ZM40.6 8.6V9.6H41.5V8.6V7.6H40.6V8.6ZM41.5 8.6H42.5V6.8H41.5H40.5V8.6H41.5ZM41.5 6.8V5.8H40.6V6.8V7.8H41.5V6.8ZM40.6 6.8H41.6V5.9H40.6H39.6V6.8H40.6ZM40.6 5.9V4.9H39.7V5.9V6.9H40.6V5.9ZM39.7 5.9H40.7V5H39.7H38.7V5.9H39.7ZM39.7 5V6H42.4V5V4H39.7V5ZM42.4 5H41.4V5.9H42.4H43.4V5H42.4ZM42.4 5.9V6.9H43.3V5.9V4.9H42.4V5.9ZM43.3 5.9H42.3V8.6H43.3H44.3V5.9H43.3ZM43.3 8.6V7.6H42.4V8.6V9.6H43.3V8.6ZM42.4 8.6H41.4V11.3H42.4H43.4V8.6H42.4ZM42.4 11.3V10.3H41.5V11.3V12.3H42.4V11.3ZM41.5 11.3H40.5V13.1H41.5H42.5V11.3H41.5ZM41.5 13.1V14.1H42.4V13.1V12.1H41.5V13.1ZM42.4 13.1H41.4V14H42.4H43.4V13.1H42.4ZM42.4 14V13H39.7V14V15H42.4V14ZM39.7 14H40.7V11.3H39.7H38.7V14H39.7ZM38.8 5.9V6.9H39.7V5.9V4.9H38.8V5.9ZM39.7 5.9H38.7V6.8H39.7H40.7V5.9H39.7ZM39.7 6.8V5.8H38.8V6.8V7.8H39.7V6.8ZM38.8 6.8H39.8V5.9H38.8H37.8V6.8H38.8ZM33.4 5.9V6.9H34.3V5.9V4.9H33.4V5.9ZM34.3 5.9H33.3V6.8H34.3H35.3V5.9H34.3ZM34.3 6.8V5.8H33.4V6.8V7.8H34.3V6.8ZM33.4 6.8H34.4V5.9H33.4H32.4V6.8H33.4ZM37.9 6.8V7.8H38.8V6.8V5.8H37.9V6.8ZM38.8 6.8H37.8V7.7H38.8H39.8V6.8H38.8ZM38.8 7.7V6.7H37.9V7.7V8.7H38.8V7.7ZM37.9 7.7H38.9V6.8H37.9H36.9V7.7H37.9ZM42.4 12.2V13.2H43.3V12.2V11.2H42.4V12.2ZM43.3 12.2H42.3V13.1H43.3H44.3V12.2H43.3ZM43.3 13.1V12.1H42.4V13.1V14.1H43.3V13.1ZM42.4 13.1H43.4V12.2H42.4H41.4V13.1H42.4ZM54.107 1.4V0.399999H53.107V1.4H54.107ZM58.607 1.4H59.607V0.399999H58.607V1.4ZM58.607 2.3H57.607V3.3H58.607V2.3ZM59.507 2.3V3.3H60.507V2.3H59.507ZM59.507 1.4V0.399999H58.507V1.4H59.507ZM60.407 1.4H61.407V0.399999H60.407V1.4ZM60.407 5.9V6.9H61.407V5.9H60.407ZM59.507 5.9H58.507V6.9H59.507V5.9ZM59.507 4.1H60.507V3.1H59.507V4.1ZM58.607 4.1H57.607V5.1H58.607V4.1ZM58.607 3.2H59.607V2.2H58.607V3.2ZM57.707 3.2H56.707V4.2H57.707V3.2ZM57.707 2.3H58.707V1.3H57.707V2.3ZM54.107 2.3H53.107V3.3H54.107V2.3ZM51.407 10.4H50.407V11.4H51.407V10.4ZM52.307 10.4H53.307V9.4H52.307V10.4ZM52.307 12.2H51.307V13.2H52.307V12.2ZM53.207 12.2H54.207V11.2H53.207V12.2ZM53.207 13.1V14.1H54.207V13.1H53.207ZM51.407 13.1H50.407V14.1H51.407V13.1ZM51.407 12.2H52.407V11.2H51.407V12.2ZM50.507 12.2H49.507V13.2H50.507V12.2ZM50.507 10.4H51.507V9.4H50.507V10.4ZM49.607 10.4H48.607V11.4H49.607V10.4ZM49.607 5.9V4.9H48.607V5.9H49.607ZM50.507 5.9V6.9H51.507V5.9H50.507ZM50.507 4.1V3.1H49.507V4.1H50.507ZM51.407 4.1V5.1H52.407V4.1H51.407ZM51.407 3.2V2.2H50.407V3.2H51.407ZM52.307 3.2V4.2H53.307V3.2H52.307ZM52.307 2.3V1.3H51.307V2.3H52.307ZM54.107 2.3H55.107V1.3H54.107V2.3ZM54.107 3.2V4.2H55.107V3.2H54.107ZM53.207 3.2V2.2H52.207V3.2H53.207ZM53.207 4.1V5.1H54.207V4.1H53.207ZM52.307 4.1V3.1H51.307V4.1H52.307ZM52.307 5.9V6.9H53.307V5.9H52.307ZM51.407 5.9V4.9H50.407V5.9H51.407ZM58.607 10.4V9.4H57.607V10.4H58.607ZM59.507 10.4H60.507V9.4H59.507V10.4ZM59.507 11.3V12.3H60.507V11.3H59.507ZM58.607 11.3H57.607V12.3H58.607V11.3ZM57.707 11.3V10.3H56.707V11.3H57.707ZM58.607 11.3H59.607V10.3H58.607V11.3ZM58.607 12.2V13.2H59.607V12.2H58.607ZM57.707 12.2H56.707V13.2H57.707V12.2ZM55.907 12.2V11.2H54.907V12.2H55.907ZM57.707 12.2H58.707V11.2H57.707V12.2ZM57.707 13.1V14.1H58.707V13.1H57.707ZM55.907 13.1H54.907V14.1H55.907V13.1ZM53.207 14H52.207V15H53.207V14ZM53.207 13.1V12.1H52.207V13.1H53.207ZM55.907 13.1H56.907V12.1H55.907V13.1ZM55.907 14V15H56.907V14H55.907ZM54.107 1.4V2.4H58.607V1.4V0.399999H54.107V1.4ZM58.607 1.4H57.607V2.3H58.607H59.607V1.4H58.607ZM58.607 2.3V3.3H59.507V2.3V1.3H58.607V2.3ZM59.507 2.3H60.507V1.4H59.507H58.507V2.3H59.507ZM59.507 1.4V2.4H60.407V1.4V0.399999H59.507V1.4ZM60.407 1.4H59.407V5.9H60.407H61.407V1.4H60.407ZM60.407 5.9V4.9H59.507V5.9V6.9H60.407V5.9ZM59.507 5.9H60.507V4.1H59.507H58.507V5.9H59.507ZM59.507 4.1V3.1H58.607V4.1V5.1H59.507V4.1ZM58.607 4.1H59.607V3.2H58.607H57.607V4.1H58.607ZM58.607 3.2V2.2H57.707V3.2V4.2H58.607V3.2ZM57.707 3.2H58.707V2.3H57.707H56.707V3.2H57.707ZM57.707 2.3V1.3H54.107V2.3V3.3H57.707V2.3ZM54.107 2.3H55.107V1.4H54.107H53.107V2.3H54.107ZM51.407 10.4V11.4H52.307V10.4V9.4H51.407V10.4ZM52.307 10.4H51.307V12.2H52.307H53.307V10.4H52.307ZM52.307 12.2V13.2H53.207V12.2V11.2H52.307V12.2ZM53.207 12.2H52.207V13.1H53.207H54.207V12.2H53.207ZM53.207 13.1V12.1H51.407V13.1V14.1H53.207V13.1ZM51.407 13.1H52.407V12.2H51.407H50.407V13.1H51.407ZM51.407 12.2V11.2H50.507V12.2V13.2H51.407V12.2ZM50.507 12.2H51.507V10.4H50.507H49.507V12.2H50.507ZM50.507 10.4V9.4H49.607V10.4V11.4H50.507V10.4ZM49.607 10.4H50.607V5.9H49.607H48.607V10.4H49.607ZM49.607 5.9V6.9H50.507V5.9V4.9H49.607V5.9ZM50.507 5.9H51.507V4.1H50.507H49.507V5.9H50.507ZM50.507 4.1V5.1H51.407V4.1V3.1H50.507V4.1ZM51.407 4.1H52.407V3.2H51.407H50.407V4.1H51.407ZM51.407 3.2V4.2H52.307V3.2V2.2H51.407V3.2ZM52.307 3.2H53.307V2.3H52.307H51.307V3.2H52.307ZM52.307 2.3V3.3H54.107V2.3V1.3H52.307V2.3ZM54.107 2.3H53.107V3.2H54.107H55.107V2.3H54.107ZM54.107 3.2V2.2H53.207V3.2V4.2H54.107V3.2ZM53.207 3.2H52.207V4.1H53.207H54.207V3.2H53.207ZM53.207 4.1V3.1H52.307V4.1V5.1H53.207V4.1ZM52.307 4.1H51.307V5.9H52.307H53.307V4.1H52.307ZM52.307 5.9V4.9H51.407V5.9V6.9H52.307V5.9ZM51.407 5.9H50.407V10.4H51.407H52.407V5.9H51.407ZM58.607 10.4V11.4H59.507V10.4V9.4H58.607V10.4ZM59.507 10.4H58.507V11.3H59.507H60.507V10.4H59.507ZM59.507 11.3V10.3H58.607V11.3V12.3H59.507V11.3ZM58.607 11.3H59.607V10.4H58.607H57.607V11.3H58.607ZM57.707 11.3V12.3H58.607V11.3V10.3H57.707V11.3ZM58.607 11.3H57.607V12.2H58.607H59.607V11.3H58.607ZM58.607 12.2V11.2H57.707V12.2V13.2H58.607V12.2ZM57.707 12.2H58.707V11.3H57.707H56.707V12.2H57.707ZM55.907 12.2V13.2H57.707V12.2V11.2H55.907V12.2ZM57.707 12.2H56.707V13.1H57.707H58.707V12.2H57.707ZM57.707 13.1V12.1H55.907V13.1V14.1H57.707V13.1ZM55.907 13.1H56.907V12.2H55.907H54.907V13.1H55.907ZM53.207 14H54.207V13.1H53.207H52.207V14H53.207ZM53.207 13.1V14.1H55.907V13.1V12.1H53.207V13.1ZM55.907 13.1H54.907V14H55.907H56.907V13.1H55.907ZM55.907 14V13H53.207V14V15H55.907V14ZM61.3141 11.3V10.3H60.3141V11.3H61.3141ZM62.2141 11.3V12.3H63.2141V11.3H62.2141ZM62.2141 8.6V7.6H61.2141V8.6H62.2141ZM63.1141 8.6V9.6H64.1141V8.6H63.1141ZM63.1141 5V4H62.1141V5H63.1141ZM64.0141 5V6H65.0141V5H64.0141ZM64.0141 2.3H65.0141V1.3H64.0141V2.3ZM62.2141 2.3H61.2141V3.3H62.2141V2.3ZM62.2141 1.4V0.399999H61.2141V1.4H62.2141ZM65.8141 1.4H66.8141V0.399999H65.8141V1.4ZM65.8141 5V6H66.8141V5H65.8141ZM64.9141 5V4H63.9141V5H64.9141ZM64.9141 8.6V9.6H65.9141V8.6H64.9141ZM64.0141 8.6V7.6H63.0141V8.6H64.0141ZM64.0141 11.3V12.3H65.0141V11.3H64.0141ZM63.1141 11.3V10.3H62.1141V11.3H63.1141ZM63.1141 13.1H62.1141V14.1H63.1141V13.1ZM64.0141 13.1H65.0141V12.1H64.0141V13.1ZM64.0141 14V15H65.0141V14H64.0141ZM61.3141 14H60.3141V15H61.3141V14ZM64.0141 12.2V11.2H63.0141V12.2H64.0141ZM64.9141 12.2H65.9141V11.2H64.9141V12.2ZM64.9141 13.1V14.1H65.9141V13.1H64.9141ZM64.0141 13.1H63.0141V14.1H64.0141V13.1ZM61.3141 11.3V12.3H62.2141V11.3V10.3H61.3141V11.3ZM62.2141 11.3H63.2141V8.6H62.2141H61.2141V11.3H62.2141ZM62.2141 8.6V9.6H63.1141V8.6V7.6H62.2141V8.6ZM63.1141 8.6H64.1141V5H63.1141H62.1141V8.6H63.1141ZM63.1141 5V6H64.0141V5V4H63.1141V5ZM64.0141 5H65.0141V2.3H64.0141H63.0141V5H64.0141ZM64.0141 2.3V1.3H62.2141V2.3V3.3H64.0141V2.3ZM62.2141 2.3H63.2141V1.4H62.2141H61.2141V2.3H62.2141ZM62.2141 1.4V2.4H65.8141V1.4V0.399999H62.2141V1.4ZM65.8141 1.4H64.8141V5H65.8141H66.8141V1.4H65.8141ZM65.8141 5V4H64.9141V5V6H65.8141V5ZM64.9141 5H63.9141V8.6H64.9141H65.9141V5H64.9141ZM64.9141 8.6V7.6H64.0141V8.6V9.6H64.9141V8.6ZM64.0141 8.6H63.0141V11.3H64.0141H65.0141V8.6H64.0141ZM64.0141 11.3V10.3H63.1141V11.3V12.3H64.0141V11.3ZM63.1141 11.3H62.1141V13.1H63.1141H64.1141V11.3H63.1141ZM63.1141 13.1V14.1H64.0141V13.1V12.1H63.1141V13.1ZM64.0141 13.1H63.0141V14H64.0141H65.0141V13.1H64.0141ZM64.0141 14V13H61.3141V14V15H64.0141V14ZM61.3141 14H62.3141V11.3H61.3141H60.3141V14H61.3141ZM64.0141 12.2V13.2H64.9141V12.2V11.2H64.0141V12.2ZM64.9141 12.2H63.9141V13.1H64.9141H65.9141V12.2H64.9141ZM64.9141 13.1V12.1H64.0141V13.1V14.1H64.9141V13.1ZM64.0141 13.1H65.0141V12.2H64.0141H63.0141V13.1H64.0141ZM71.207 14V15H72.207V14H71.207ZM68.507 14H67.507V15H68.507V14ZM68.507 13.1H69.507V12.1H68.507V13.1ZM67.607 13.1H66.607V14.1H67.607V13.1ZM67.607 10.4V9.4H66.607V10.4H67.607ZM68.507 10.4V11.4H69.507V10.4H68.507ZM68.507 7.7V6.7H67.507V7.7H68.507ZM69.407 7.7V8.7H70.407V7.7H69.407ZM69.407 5.9H70.407V4.9H69.407V5.9ZM68.507 5.9H67.507V6.9H68.507V5.9ZM68.507 5V4H67.507V5H68.507ZM71.207 5H72.207V4H71.207V5ZM71.207 7.7V8.7H72.207V7.7H71.207ZM70.307 7.7V6.7H69.307V7.7H70.307ZM70.307 10.4V11.4H71.307V10.4H70.307ZM69.407 10.4V9.4H68.407V10.4H69.407ZM69.407 12.2H68.407V13.2H69.407V12.2ZM70.307 12.2H71.307V11.2H70.307V12.2ZM70.307 13.1H69.307V14.1H70.307V13.1ZM71.207 13.1H72.207V12.1H71.207V13.1ZM73.907 11.3H74.907V10.3H73.907V11.3ZM73.007 11.3H72.007V12.3H73.007V11.3ZM73.007 10.4V9.4H72.007V10.4H73.007ZM73.907 10.4V11.4H74.907V10.4H73.907ZM73.907 9.5V8.5H72.907V9.5H73.907ZM74.807 9.5V10.5H75.807V9.5H74.807ZM74.807 7.7V6.7H73.807V7.7H74.807ZM75.707 7.7V8.7H76.707V7.7H75.707ZM75.707 5V4H74.707V5H75.707ZM77.507 5H78.507V4H77.507V5ZM77.507 7.7V8.7H78.507V7.7H77.507ZM76.607 7.7V6.7H75.607V7.7H76.607ZM76.607 10.4V11.4H77.607V10.4H76.607ZM75.707 10.4V9.4H74.707V10.4H75.707ZM75.707 13.1H74.707V14.1H75.707V13.1ZM76.607 13.1H77.607V12.1H76.607V13.1ZM76.607 14V15H77.607V14H76.607ZM73.907 14H72.907V15H73.907V14ZM68.507 6.8V7.8H69.507V6.8H68.507ZM67.607 6.8H66.607V7.8H67.607V6.8ZM67.607 5.9V4.9H66.607V5.9H67.607ZM68.507 5.9H69.507V4.9H68.507V5.9ZM73.007 12.2V13.2H74.007V12.2H73.007ZM72.107 12.2H71.107V13.2H72.107V12.2ZM72.107 11.3V10.3H71.107V11.3H72.107ZM73.007 11.3H74.007V10.3H73.007V11.3ZM72.107 13.1V14.1H73.107V13.1H72.107ZM71.207 13.1H70.207V14.1H71.207V13.1ZM71.207 12.2V11.2H70.207V12.2H71.207ZM72.107 12.2H73.107V11.2H72.107V12.2ZM77.507 13.1V14.1H78.507V13.1H77.507ZM76.607 13.1H75.607V14.1H76.607V13.1ZM76.607 12.2V11.2H75.607V12.2H76.607ZM77.507 12.2H78.507V11.2H77.507V12.2ZM71.207 14V13H68.507V14V15H71.207V14ZM68.507 14H69.507V13.1H68.507H67.507V14H68.507ZM68.507 13.1V12.1H67.607V13.1V14.1H68.507V13.1ZM67.607 13.1H68.607V10.4H67.607H66.607V13.1H67.607ZM67.607 10.4V11.4H68.507V10.4V9.4H67.607V10.4ZM68.507 10.4H69.507V7.7H68.507H67.507V10.4H68.507ZM68.507 7.7V8.7H69.407V7.7V6.7H68.507V7.7ZM69.407 7.7H70.407V5.9H69.407H68.407V7.7H69.407ZM69.407 5.9V4.9H68.507V5.9V6.9H69.407V5.9ZM68.507 5.9H69.507V5H68.507H67.507V5.9H68.507ZM68.507 5V6H71.207V5V4H68.507V5ZM71.207 5H70.207V7.7H71.207H72.207V5H71.207ZM71.207 7.7V6.7H70.307V7.7V8.7H71.207V7.7ZM70.307 7.7H69.307V10.4H70.307H71.307V7.7H70.307ZM70.307 10.4V9.4H69.407V10.4V11.4H70.307V10.4ZM69.407 10.4H68.407V12.2H69.407H70.407V10.4H69.407ZM69.407 12.2V13.2H70.307V12.2V11.2H69.407V12.2ZM70.307 12.2H69.307V13.1H70.307H71.307V12.2H70.307ZM70.307 13.1V14.1H71.207V13.1V12.1H70.307V13.1ZM71.207 13.1H70.207V14H71.207H72.207V13.1H71.207ZM73.907 11.3V10.3H73.007V11.3V12.3H73.907V11.3ZM73.007 11.3H74.007V10.4H73.007H72.007V11.3H73.007ZM73.007 10.4V11.4H73.907V10.4V9.4H73.007V10.4ZM73.907 10.4H74.907V9.5H73.907H72.907V10.4H73.907ZM73.907 9.5V10.5H74.807V9.5V8.5H73.907V9.5ZM74.807 9.5H75.807V7.7H74.807H73.807V9.5H74.807ZM74.807 7.7V8.7H75.707V7.7V6.7H74.807V7.7ZM75.707 7.7H76.707V5H75.707H74.707V7.7H75.707ZM75.707 5V6H77.507V5V4H75.707V5ZM77.507 5H76.507V7.7H77.507H78.507V5H77.507ZM77.507 7.7V6.7H76.607V7.7V8.7H77.507V7.7ZM76.607 7.7H75.607V10.4H76.607H77.607V7.7H76.607ZM76.607 10.4V9.4H75.707V10.4V11.4H76.607V10.4ZM75.707 10.4H74.707V13.1H75.707H76.707V10.4H75.707ZM75.707 13.1V14.1H76.607V13.1V12.1H75.707V13.1ZM76.607 13.1H75.607V14H76.607H77.607V13.1H76.607ZM76.607 14V13H73.907V14V15H76.607V14ZM73.907 14H74.907V11.3H73.907H72.907V14H73.907ZM68.507 6.8V5.8H67.607V6.8V7.8H68.507V6.8ZM67.607 6.8H68.607V5.9H67.607H66.607V6.8H67.607ZM67.607 5.9V6.9H68.507V5.9V4.9H67.607V5.9ZM68.507 5.9H67.507V6.8H68.507H69.507V5.9H68.507ZM73.007 12.2V11.2H72.107V12.2V13.2H73.007V12.2ZM72.107 12.2H73.107V11.3H72.107H71.107V12.2H72.107ZM72.107 11.3V12.3H73.007V11.3V10.3H72.107V11.3ZM73.007 11.3H72.007V12.2H73.007H74.007V11.3H73.007ZM72.107 13.1V12.1H71.207V13.1V14.1H72.107V13.1ZM71.207 13.1H72.207V12.2H71.207H70.207V13.1H71.207ZM71.207 12.2V13.2H72.107V12.2V11.2H71.207V12.2ZM72.107 12.2H71.107V13.1H72.107H73.107V12.2H72.107ZM77.507 13.1V12.1H76.607V13.1V14.1H77.507V13.1ZM76.607 13.1H77.607V12.2H76.607H75.607V13.1H76.607ZM76.607 12.2V13.2H77.507V12.2V11.2H76.607V12.2ZM77.507 12.2H76.507V13.1H77.507H78.507V12.2H77.507ZM81.1141 12.2H82.1141V11.2H81.1141V12.2ZM80.2141 12.2H79.2141V13.2H80.2141V12.2ZM80.2141 8.6V7.6H79.2141V8.6H80.2141ZM81.1141 8.6V9.6H82.1141V8.6H81.1141ZM81.1141 5V4H80.1141V5H81.1141ZM82.0141 5V6H83.0141V5H82.0141ZM82.0141 2.3H83.0141V1.3H82.0141V2.3ZM80.2141 2.3H79.2141V3.3H80.2141V2.3ZM80.2141 1.4V0.399999H79.2141V1.4H80.2141ZM83.8141 1.4H84.8141V0.399999H83.8141V1.4ZM83.8141 5V6H84.8141V5H83.8141ZM82.9141 5V4H81.9141V5H82.9141ZM82.9141 6.8H81.9141V7.8H82.9141V6.8ZM83.8141 6.8H84.8141V5.8H83.8141V6.8ZM83.8141 7.7V8.7H84.8141V7.7H83.8141ZM82.9141 7.7V6.7H81.9141V7.7H82.9141ZM82.9141 8.6V9.6H83.9141V8.6H82.9141ZM82.0141 8.6V7.6H81.0141V8.6H82.0141ZM82.0141 13.1V14.1H83.0141V13.1H82.0141ZM81.1141 13.1H80.1141V14.1H81.1141V13.1ZM85.6141 12.2V11.2H84.6141V12.2H85.6141ZM86.5141 12.2V13.2H87.5141V12.2H86.5141ZM86.5141 10.4V9.4H85.5141V10.4H86.5141ZM87.4141 10.4V11.4H88.4141V10.4H87.4141ZM87.4141 6.8H88.4141V5.8H87.4141V6.8ZM86.5141 6.8H85.5141V7.8H86.5141V6.8ZM86.5141 5.9H87.5141V4.9H86.5141V5.9ZM84.7141 5.9H83.7141V6.9H84.7141V5.9ZM84.7141 5V4H83.7141V5H84.7141ZM87.4141 5H88.4141V4H87.4141V5ZM87.4141 5.9H86.4141V6.9H87.4141V5.9ZM88.3141 5.9H89.3141V4.9H88.3141V5.9ZM88.3141 6.8H87.3141V7.8H88.3141V6.8ZM89.2141 6.8H90.2141V5.8H89.2141V6.8ZM89.2141 10.4V11.4H90.2141V10.4H89.2141ZM88.3141 10.4V9.4H87.3141V10.4H88.3141ZM88.3141 12.2V13.2H89.3141V12.2H88.3141ZM87.4141 12.2V11.2H86.4141V12.2H87.4141ZM87.4141 13.1V14.1H88.4141V13.1H87.4141ZM85.6141 13.1H84.6141V14.1H85.6141V13.1ZM83.8141 5.9V4.9H82.8141V5.9H83.8141ZM84.7141 5.9H85.7141V4.9H84.7141V5.9ZM84.7141 6.8V7.8H85.7141V6.8H84.7141ZM83.8141 6.8H82.8141V7.8H83.8141V6.8ZM82.0141 13.1V12.1H81.0141V13.1H82.0141ZM85.6141 13.1H86.6141V12.1H85.6141V13.1ZM85.6141 14V15H86.6141V14H85.6141ZM82.0141 14H81.0141V15H82.0141V14ZM81.1141 12.2V11.2H80.2141V12.2V13.2H81.1141V12.2ZM80.2141 12.2H81.2141V8.6H80.2141H79.2141V12.2H80.2141ZM80.2141 8.6V9.6H81.1141V8.6V7.6H80.2141V8.6ZM81.1141 8.6H82.1141V5H81.1141H80.1141V8.6H81.1141ZM81.1141 5V6H82.0141V5V4H81.1141V5ZM82.0141 5H83.0141V2.3H82.0141H81.0141V5H82.0141ZM82.0141 2.3V1.3H80.2141V2.3V3.3H82.0141V2.3ZM80.2141 2.3H81.2141V1.4H80.2141H79.2141V2.3H80.2141ZM80.2141 1.4V2.4H83.8141V1.4V0.399999H80.2141V1.4ZM83.8141 1.4H82.8141V5H83.8141H84.8141V1.4H83.8141ZM83.8141 5V4H82.9141V5V6H83.8141V5ZM82.9141 5H81.9141V6.8H82.9141H83.9141V5H82.9141ZM82.9141 6.8V7.8H83.8141V6.8V5.8H82.9141V6.8ZM83.8141 6.8H82.8141V7.7H83.8141H84.8141V6.8H83.8141ZM83.8141 7.7V6.7H82.9141V7.7V8.7H83.8141V7.7ZM82.9141 7.7H81.9141V8.6H82.9141H83.9141V7.7H82.9141ZM82.9141 8.6V7.6H82.0141V8.6V9.6H82.9141V8.6ZM82.0141 8.6H81.0141V13.1H82.0141H83.0141V8.6H82.0141ZM82.0141 13.1V12.1H81.1141V13.1V14.1H82.0141V13.1ZM81.1141 13.1H82.1141V12.2H81.1141H80.1141V13.1H81.1141ZM85.6141 12.2V13.2H86.5141V12.2V11.2H85.6141V12.2ZM86.5141 12.2H87.5141V10.4H86.5141H85.5141V12.2H86.5141ZM86.5141 10.4V11.4H87.4141V10.4V9.4H86.5141V10.4ZM87.4141 10.4H88.4141V6.8H87.4141H86.4141V10.4H87.4141ZM87.4141 6.8V5.8H86.5141V6.8V7.8H87.4141V6.8ZM86.5141 6.8H87.5141V5.9H86.5141H85.5141V6.8H86.5141ZM86.5141 5.9V4.9H84.7141V5.9V6.9H86.5141V5.9ZM84.7141 5.9H85.7141V5H84.7141H83.7141V5.9H84.7141ZM84.7141 5V6H87.4141V5V4H84.7141V5ZM87.4141 5H86.4141V5.9H87.4141H88.4141V5H87.4141ZM87.4141 5.9V6.9H88.3141V5.9V4.9H87.4141V5.9ZM88.3141 5.9H87.3141V6.8H88.3141H89.3141V5.9H88.3141ZM88.3141 6.8V7.8H89.2141V6.8V5.8H88.3141V6.8ZM89.2141 6.8H88.2141V10.4H89.2141H90.2141V6.8H89.2141ZM89.2141 10.4V9.4H88.3141V10.4V11.4H89.2141V10.4ZM88.3141 10.4H87.3141V12.2H88.3141H89.3141V10.4H88.3141ZM88.3141 12.2V11.2H87.4141V12.2V13.2H88.3141V12.2ZM87.4141 12.2H86.4141V13.1H87.4141H88.4141V12.2H87.4141ZM87.4141 13.1V12.1H85.6141V13.1V14.1H87.4141V13.1ZM85.6141 13.1H86.6141V12.2H85.6141H84.6141V13.1H85.6141ZM83.8141 5.9V6.9H84.7141V5.9V4.9H83.8141V5.9ZM84.7141 5.9H83.7141V6.8H84.7141H85.7141V5.9H84.7141ZM84.7141 6.8V5.8H83.8141V6.8V7.8H84.7141V6.8ZM83.8141 6.8H84.8141V5.9H83.8141H82.8141V6.8H83.8141ZM82.0141 13.1V14.1H85.6141V13.1V12.1H82.0141V13.1ZM85.6141 13.1H84.6141V14H85.6141H86.6141V13.1H85.6141ZM85.6141 14V13H82.0141V14V15H85.6141V14ZM82.0141 14H83.0141V13.1H82.0141H81.0141V14H82.0141ZM106.321 2.3H107.321V1.3H106.321V2.3ZM105.421 2.3H104.421V3.3H105.421V2.3ZM105.421 1.4V0.399999H104.421V1.4H105.421ZM108.121 1.4H109.121V0.399999H108.121V1.4ZM108.121 2.3V3.3H109.121V2.3H108.121ZM107.221 2.3V1.3H106.221V2.3H107.221ZM107.221 5V6H108.221V5H107.221ZM106.321 5H105.321V6H106.321V5ZM101.821 9.5H102.821V8.5H101.821V9.5ZM100.921 9.5H99.9211V10.5H100.921V9.5ZM100.921 6.8H101.921V5.8H100.921V6.8ZM100.021 6.8H99.0211V7.8H100.021V6.8ZM100.021 4.1H101.021V3.1H100.021V4.1ZM99.1211 4.1H98.1211V5.1H99.1211V4.1ZM99.1211 2.3H100.121V1.3H99.1211V2.3ZM98.2211 2.3H97.2211V3.3H98.2211V2.3ZM98.2211 1.4V0.399999H97.2211V1.4H98.2211ZM100.921 1.4H101.921V0.399999H100.921V1.4ZM100.921 4.1H99.9211V5.1H100.921V4.1ZM101.821 4.1H102.821V3.1H101.821V4.1ZM101.821 6.8H100.821V7.8H101.821V6.8ZM102.721 6.8H103.721V5.8H102.721V6.8ZM102.721 9.5H101.721V10.5H102.721V9.5ZM103.621 9.5H104.621V8.5H103.621V9.5ZM103.621 11.3H102.621V12.3H103.621V11.3ZM104.521 11.3H105.521V10.3H104.521V11.3ZM104.521 14V15H105.521V14H104.521ZM102.721 14H101.721V15H102.721V14ZM102.721 11.3H103.721V10.3H102.721V11.3ZM101.821 11.3H100.821V12.3H101.821V11.3ZM98.2211 4.1V3.1H97.2211V4.1H98.2211ZM99.1211 4.1H100.121V3.1H99.1211V4.1ZM99.1211 7.7V8.7H100.121V7.7H99.1211ZM98.2211 7.7H97.2211V8.7H98.2211V7.7ZM105.421 5V4H104.421V5H105.421ZM106.321 5H107.321V4H106.321V5ZM106.321 8.6V9.6H107.321V8.6H106.321ZM105.421 8.6H104.421V9.6H105.421V8.6ZM97.3211 7.7V6.7H96.3211V7.7H97.3211ZM98.2211 7.7H99.2211V6.7H98.2211V7.7ZM98.2211 11.3V12.3H99.2211V11.3H98.2211ZM97.3211 11.3H96.3211V12.3H97.3211V11.3ZM104.521 8.6V7.6H103.521V8.6H104.521ZM105.421 8.6H106.421V7.6H105.421V8.6ZM105.421 11.3V12.3H106.421V11.3H105.421ZM104.521 11.3H103.521V12.3H104.521V11.3ZM95.5211 13.1V12.1H94.5211V13.1H95.5211ZM96.4211 13.1V14.1H97.4211V13.1H96.4211ZM96.4211 11.3V10.3H95.4211V11.3H96.4211ZM97.3211 11.3H98.3211V10.3H97.3211V11.3ZM97.3211 13.1H96.3211V14.1H97.3211V13.1ZM98.2211 13.1H99.2211V12.1H98.2211V13.1ZM98.2211 14V15H99.2211V14H98.2211ZM95.5211 14H94.5211V15H95.5211V14ZM106.321 2.3V1.3H105.421V2.3V3.3H106.321V2.3ZM105.421 2.3H106.421V1.4H105.421H104.421V2.3H105.421ZM105.421 1.4V2.4H108.121V1.4V0.399999H105.421V1.4ZM108.121 1.4H107.121V2.3H108.121H109.121V1.4H108.121ZM108.121 2.3V1.3H107.221V2.3V3.3H108.121V2.3ZM107.221 2.3H106.221V5H107.221H108.221V2.3H107.221ZM107.221 5V4H106.321V5V6H107.221V5ZM106.321 5H107.321V2.3H106.321H105.321V5H106.321ZM101.821 9.5V8.5H100.921V9.5V10.5H101.821V9.5ZM100.921 9.5H101.921V6.8H100.921H99.9211V9.5H100.921ZM100.921 6.8V5.8H100.021V6.8V7.8H100.921V6.8ZM100.021 6.8H101.021V4.1H100.021H99.0211V6.8H100.021ZM100.021 4.1V3.1H99.1211V4.1V5.1H100.021V4.1ZM99.1211 4.1H100.121V2.3H99.1211H98.1211V4.1H99.1211ZM99.1211 2.3V1.3H98.2211V2.3V3.3H99.1211V2.3ZM98.2211 2.3H99.2211V1.4H98.2211H97.2211V2.3H98.2211ZM98.2211 1.4V2.4H100.921V1.4V0.399999H98.2211V1.4ZM100.921 1.4H99.9211V4.1H100.921H101.921V1.4H100.921ZM100.921 4.1V5.1H101.821V4.1V3.1H100.921V4.1ZM101.821 4.1H100.821V6.8H101.821H102.821V4.1H101.821ZM101.821 6.8V7.8H102.721V6.8V5.8H101.821V6.8ZM102.721 6.8H101.721V9.5H102.721H103.721V6.8H102.721ZM102.721 9.5V10.5H103.621V9.5V8.5H102.721V9.5ZM103.621 9.5H102.621V11.3H103.621H104.621V9.5H103.621ZM103.621 11.3V12.3H104.521V11.3V10.3H103.621V11.3ZM104.521 11.3H103.521V14H104.521H105.521V11.3H104.521ZM104.521 14V13H102.721V14V15H104.521V14ZM102.721 14H103.721V11.3H102.721H101.721V14H102.721ZM102.721 11.3V10.3H101.821V11.3V12.3H102.721V11.3ZM101.821 11.3H102.821V9.5H101.821H100.821V11.3H101.821ZM98.2211 4.1V5.1H99.1211V4.1V3.1H98.2211V4.1ZM99.1211 4.1H98.1211V7.7H99.1211H100.121V4.1H99.1211ZM99.1211 7.7V6.7H98.2211V7.7V8.7H99.1211V7.7ZM98.2211 7.7H99.2211V4.1H98.2211H97.2211V7.7H98.2211ZM105.421 5V6H106.321V5V4H105.421V5ZM106.321 5H105.321V8.6H106.321H107.321V5H106.321ZM106.321 8.6V7.6H105.421V8.6V9.6H106.321V8.6ZM105.421 8.6H106.421V5H105.421H104.421V8.6H105.421ZM97.3211 7.7V8.7H98.2211V7.7V6.7H97.3211V7.7ZM98.2211 7.7H97.2211V11.3H98.2211H99.2211V7.7H98.2211ZM98.2211 11.3V10.3H97.3211V11.3V12.3H98.2211V11.3ZM97.3211 11.3H98.3211V7.7H97.3211H96.3211V11.3H97.3211ZM104.521 8.6V9.6H105.421V8.6V7.6H104.521V8.6ZM105.421 8.6H104.421V11.3H105.421H106.421V8.6H105.421ZM105.421 11.3V10.3H104.521V11.3V12.3H105.421V11.3ZM104.521 11.3H105.521V8.6H104.521H103.521V11.3H104.521ZM95.5211 13.1V14.1H96.4211V13.1V12.1H95.5211V13.1ZM96.4211 13.1H97.4211V11.3H96.4211H95.4211V13.1H96.4211ZM96.4211 11.3V12.3H97.3211V11.3V10.3H96.4211V11.3ZM97.3211 11.3H96.3211V13.1H97.3211H98.3211V11.3H97.3211ZM97.3211 13.1V14.1H98.2211V13.1V12.1H97.3211V13.1ZM98.2211 13.1H97.2211V14H98.2211H99.2211V13.1H98.2211ZM98.2211 14V13H95.5211V14V15H98.2211V14ZM95.5211 14H96.5211V13.1H95.5211H94.5211V14H95.5211ZM113.525 8.6V7.6H112.525V8.6H113.525ZM114.425 8.6V9.6H115.425V8.6H114.425ZM114.425 5.9H115.425V4.9H114.425V5.9ZM111.725 5.9H110.725V6.9H111.725V5.9ZM111.725 5V4H110.725V5H111.725ZM115.325 5H116.325V4H115.325V5ZM115.325 5.9H114.325V6.9H115.325V5.9ZM116.225 5.9H117.225V4.9H116.225V5.9ZM116.225 8.6V9.6H117.225V8.6H116.225ZM115.325 8.6V7.6H114.325V8.6H115.325ZM115.325 9.5V10.5H116.325V9.5H115.325ZM113.525 9.5H112.525V10.5H113.525V9.5ZM109.025 12.2H110.025V11.2H109.025V12.2ZM108.125 12.2H107.125V13.2H108.125V12.2ZM108.125 8.6V7.6H107.125V8.6H108.125ZM109.025 8.6V9.6H110.025V8.6H109.025ZM109.025 6.8V5.8H108.025V6.8H109.025ZM109.925 6.8V7.8H110.925V6.8H109.925ZM109.925 5.9V4.9H108.925V5.9H109.925ZM111.725 5.9H112.725V4.9H111.725V5.9ZM111.725 6.8V7.8H112.725V6.8H111.725ZM110.825 6.8V5.8H109.825V6.8H110.825ZM110.825 8.6V9.6H111.825V8.6H110.825ZM109.925 8.6V7.6H108.925V8.6H109.925ZM109.925 10.4H108.925V11.4H109.925V10.4ZM111.725 10.4H112.725V9.4H111.725V10.4ZM111.725 11.3V12.3H112.725V11.3H111.725ZM109.925 11.3V10.3H108.925V11.3H109.925ZM109.925 12.2H108.925V13.2H109.925V12.2ZM110.825 12.2H111.825V11.2H110.825V12.2ZM110.825 13.1H109.825V14.1H110.825V13.1ZM113.525 13.1H114.525V12.1H113.525V13.1ZM113.525 14V15H114.525V14H113.525ZM109.925 14H108.925V15H109.925V14ZM109.925 13.1H110.925V12.1H109.925V13.1ZM109.025 13.1H108.025V14.1H109.025V13.1ZM111.725 9.5V8.5H110.725V9.5H111.725ZM113.525 9.5H114.525V8.5H113.525V9.5ZM113.525 10.4V11.4H114.525V10.4H113.525ZM111.725 10.4H110.725V11.4H111.725V10.4ZM115.325 11.3V10.3H114.325V11.3H115.325ZM116.225 11.3H117.225V10.3H116.225V11.3ZM116.225 12.2V13.2H117.225V12.2H116.225ZM115.325 12.2H114.325V13.2H115.325V12.2ZM113.525 12.2V11.2H112.525V12.2H113.525ZM115.325 12.2H116.325V11.2H115.325V12.2ZM115.325 13.1V14.1H116.325V13.1H115.325ZM113.525 13.1H112.525V14.1H113.525V13.1ZM113.525 8.6V9.6H114.425V8.6V7.6H113.525V8.6ZM114.425 8.6H115.425V5.9H114.425H113.425V8.6H114.425ZM114.425 5.9V4.9H111.725V5.9V6.9H114.425V5.9ZM111.725 5.9H112.725V5H111.725H110.725V5.9H111.725ZM111.725 5V6H115.325V5V4H111.725V5ZM115.325 5H114.325V5.9H115.325H116.325V5H115.325ZM115.325 5.9V6.9H116.225V5.9V4.9H115.325V5.9ZM116.225 5.9H115.225V8.6H116.225H117.225V5.9H116.225ZM116.225 8.6V7.6H115.325V8.6V9.6H116.225V8.6ZM115.325 8.6H114.325V9.5H115.325H116.325V8.6H115.325ZM115.325 9.5V8.5H113.525V9.5V10.5H115.325V9.5ZM113.525 9.5H114.525V8.6H113.525H112.525V9.5H113.525ZM109.025 12.2V11.2H108.125V12.2V13.2H109.025V12.2ZM108.125 12.2H109.125V8.6H108.125H107.125V12.2H108.125ZM108.125 8.6V9.6H109.025V8.6V7.6H108.125V8.6ZM109.025 8.6H110.025V6.8H109.025H108.025V8.6H109.025ZM109.025 6.8V7.8H109.925V6.8V5.8H109.025V6.8ZM109.925 6.8H110.925V5.9H109.925H108.925V6.8H109.925ZM109.925 5.9V6.9H111.725V5.9V4.9H109.925V5.9ZM111.725 5.9H110.725V6.8H111.725H112.725V5.9H111.725ZM111.725 6.8V5.8H110.825V6.8V7.8H111.725V6.8ZM110.825 6.8H109.825V8.6H110.825H111.825V6.8H110.825ZM110.825 8.6V7.6H109.925V8.6V9.6H110.825V8.6ZM109.925 8.6H108.925V10.4H109.925H110.925V8.6H109.925ZM109.925 10.4V11.4H111.725V10.4V9.4H109.925V10.4ZM111.725 10.4H110.725V11.3H111.725H112.725V10.4H111.725ZM111.725 11.3V10.3H109.925V11.3V12.3H111.725V11.3ZM109.925 11.3H108.925V12.2H109.925H110.925V11.3H109.925ZM109.925 12.2V13.2H110.825V12.2V11.2H109.925V12.2ZM110.825 12.2H109.825V13.1H110.825H111.825V12.2H110.825ZM110.825 13.1V14.1H113.525V13.1V12.1H110.825V13.1ZM113.525 13.1H112.525V14H113.525H114.525V13.1H113.525ZM113.525 14V13H109.925V14V15H113.525V14ZM109.925 14H110.925V13.1H109.925H108.925V14H109.925ZM109.925 13.1V12.1H109.025V13.1V14.1H109.925V13.1ZM109.025 13.1H110.025V12.2H109.025H108.025V13.1H109.025ZM111.725 9.5V10.5H113.525V9.5V8.5H111.725V9.5ZM113.525 9.5H112.525V10.4H113.525H114.525V9.5H113.525ZM113.525 10.4V9.4H111.725V10.4V11.4H113.525V10.4ZM111.725 10.4H112.725V9.5H111.725H110.725V10.4H111.725ZM115.325 11.3V12.3H116.225V11.3V10.3H115.325V11.3ZM116.225 11.3H115.225V12.2H116.225H117.225V11.3H116.225ZM116.225 12.2V11.2H115.325V12.2V13.2H116.225V12.2ZM115.325 12.2H116.325V11.3H115.325H114.325V12.2H115.325ZM113.525 12.2V13.2H115.325V12.2V11.2H113.525V12.2ZM115.325 12.2H114.325V13.1H115.325H116.325V12.2H115.325ZM115.325 13.1V12.1H113.525V13.1V14.1H115.325V13.1ZM113.525 13.1H114.525V12.2H113.525H112.525V13.1H113.525ZM123.421 11.3V10.3H122.421V11.3H123.421ZM124.321 11.3V12.3H125.321V11.3H124.321ZM124.321 10.4V9.4H123.321V10.4H124.321ZM125.221 10.4V11.4H126.221V10.4H125.221ZM125.221 8.6V7.6H124.221V8.6H125.221ZM126.121 8.6V9.6H127.121V8.6H126.121ZM126.121 5.9H127.121V4.9H126.121V5.9ZM123.421 5.9H122.421V6.9H123.421V5.9ZM123.421 5V4H122.421V5H123.421ZM127.921 5H128.921V4H127.921V5ZM127.921 8.6V9.6H128.921V8.6H127.921ZM127.021 8.6V7.6H126.021V8.6H127.021ZM127.021 11.3V12.3H128.021V11.3H127.021ZM126.121 11.3V10.3H125.121V11.3H126.121ZM126.121 13.1H125.121V14.1H126.121V13.1ZM127.021 13.1H128.021V12.1H127.021V13.1ZM127.021 14V15H128.021V14H127.021ZM124.321 14H123.321V15H124.321V14ZM124.321 12.2H125.321V11.2H124.321V12.2ZM123.421 12.2H122.421V13.2H123.421V12.2ZM121.621 5.9V4.9H120.621V5.9H121.621ZM123.421 5.9H124.421V4.9H123.421V5.9ZM123.421 6.8V7.8H124.421V6.8H123.421ZM121.621 6.8H120.621V7.8H121.621V6.8ZM118.921 13.1H119.921V12.1H118.921V13.1ZM118.021 13.1H117.021V14.1H118.021V13.1ZM118.021 9.5V8.5H117.021V9.5H118.021ZM118.921 9.5V10.5H119.921V9.5H118.921ZM118.921 7.7V6.7H117.921V7.7H118.921ZM119.821 7.7V8.7H120.821V7.7H119.821ZM119.821 6.8V5.8H118.821V6.8H119.821ZM121.621 6.8H122.621V5.8H121.621V6.8ZM121.621 7.7V8.7H122.621V7.7H121.621ZM120.721 7.7V6.7H119.721V7.7H120.721ZM120.721 9.5V10.5H121.721V9.5H120.721ZM119.821 9.5V8.5H118.821V9.5H119.821ZM119.821 12.2H118.821V13.2H119.821V12.2ZM120.721 12.2H121.721V11.2H120.721V12.2ZM120.721 13.1H119.721V14.1H120.721V13.1ZM122.521 13.1H123.521V12.1H122.521V13.1ZM122.521 14V15H123.521V14H122.521ZM118.921 14H117.921V15H118.921V14ZM127.021 12.2V11.2H126.021V12.2H127.021ZM127.921 12.2H128.921V11.2H127.921V12.2ZM127.921 13.1V14.1H128.921V13.1H127.921ZM127.021 13.1H126.021V14.1H127.021V13.1ZM122.521 12.2V11.2H121.521V12.2H122.521ZM123.421 12.2H124.421V11.2H123.421V12.2ZM123.421 13.1V14.1H124.421V13.1H123.421ZM122.521 13.1H121.521V14.1H122.521V13.1ZM123.421 11.3V12.3H124.321V11.3V10.3H123.421V11.3ZM124.321 11.3H125.321V10.4H124.321H123.321V11.3H124.321ZM124.321 10.4V11.4H125.221V10.4V9.4H124.321V10.4ZM125.221 10.4H126.221V8.6H125.221H124.221V10.4H125.221ZM125.221 8.6V9.6H126.121V8.6V7.6H125.221V8.6ZM126.121 8.6H127.121V5.9H126.121H125.121V8.6H126.121ZM126.121 5.9V4.9H123.421V5.9V6.9H126.121V5.9ZM123.421 5.9H124.421V5H123.421H122.421V5.9H123.421ZM123.421 5V6H127.921V5V4H123.421V5ZM127.921 5H126.921V8.6H127.921H128.921V5H127.921ZM127.921 8.6V7.6H127.021V8.6V9.6H127.921V8.6ZM127.021 8.6H126.021V11.3H127.021H128.021V8.6H127.021ZM127.021 11.3V10.3H126.121V11.3V12.3H127.021V11.3ZM126.121 11.3H125.121V13.1H126.121H127.121V11.3H126.121ZM126.121 13.1V14.1H127.021V13.1V12.1H126.121V13.1ZM127.021 13.1H126.021V14H127.021H128.021V13.1H127.021ZM127.021 14V13H124.321V14V15H127.021V14ZM124.321 14H125.321V12.2H124.321H123.321V14H124.321ZM124.321 12.2V11.2H123.421V12.2V13.2H124.321V12.2ZM123.421 12.2H124.421V11.3H123.421H122.421V12.2H123.421ZM121.621 5.9V6.9H123.421V5.9V4.9H121.621V5.9ZM123.421 5.9H122.421V6.8H123.421H124.421V5.9H123.421ZM123.421 6.8V5.8H121.621V6.8V7.8H123.421V6.8ZM121.621 6.8H122.621V5.9H121.621H120.621V6.8H121.621ZM118.921 13.1V12.1H118.021V13.1V14.1H118.921V13.1ZM118.021 13.1H119.021V9.5H118.021H117.021V13.1H118.021ZM118.021 9.5V10.5H118.921V9.5V8.5H118.021V9.5ZM118.921 9.5H119.921V7.7H118.921H117.921V9.5H118.921ZM118.921 7.7V8.7H119.821V7.7V6.7H118.921V7.7ZM119.821 7.7H120.821V6.8H119.821H118.821V7.7H119.821ZM119.821 6.8V7.8H121.621V6.8V5.8H119.821V6.8ZM121.621 6.8H120.621V7.7H121.621H122.621V6.8H121.621ZM121.621 7.7V6.7H120.721V7.7V8.7H121.621V7.7ZM120.721 7.7H119.721V9.5H120.721H121.721V7.7H120.721ZM120.721 9.5V8.5H119.821V9.5V10.5H120.721V9.5ZM119.821 9.5H118.821V12.2H119.821H120.821V9.5H119.821ZM119.821 12.2V13.2H120.721V12.2V11.2H119.821V12.2ZM120.721 12.2H119.721V13.1H120.721H121.721V12.2H120.721ZM120.721 13.1V14.1H122.521V13.1V12.1H120.721V13.1ZM122.521 13.1H121.521V14H122.521H123.521V13.1H122.521ZM122.521 14V13H118.921V14V15H122.521V14ZM118.921 14H119.921V13.1H118.921H117.921V14H118.921ZM127.021 12.2V13.2H127.921V12.2V11.2H127.021V12.2ZM127.921 12.2H126.921V13.1H127.921H128.921V12.2H127.921ZM127.921 13.1V12.1H127.021V13.1V14.1H127.921V13.1ZM127.021 13.1H128.021V12.2H127.021H126.021V13.1H127.021ZM122.521 12.2V13.2H123.421V12.2V11.2H122.521V12.2ZM123.421 12.2H122.421V13.1H123.421H124.421V12.2H123.421ZM123.421 13.1V12.1H122.521V13.1V14.1H123.421V13.1ZM122.521 13.1H123.521V12.2H122.521H121.521V13.1H122.521ZM129.728 11.3V10.3H128.728V11.3H129.728ZM130.628 11.3V12.3H131.628V11.3H130.628ZM130.628 8.6V7.6H129.628V8.6H130.628ZM131.528 8.6V9.6H132.528V8.6H131.528ZM131.528 5.9H132.528V4.9H131.528V5.9ZM130.628 5.9H129.628V6.9H130.628V5.9ZM130.628 5V4H129.628V5H130.628ZM133.328 5H134.328V4H133.328V5ZM133.328 6.8H132.328V7.8H133.328V6.8ZM134.228 6.8H135.228V5.8H134.228V6.8ZM134.228 7.7V8.7H135.228V7.7H134.228ZM133.328 7.7V6.7H132.328V7.7H133.328ZM133.328 9.5V10.5H134.328V9.5H133.328ZM132.428 9.5V8.5H131.428V9.5H132.428ZM132.428 11.3V12.3H133.428V11.3H132.428ZM131.528 11.3V10.3H130.528V11.3H131.528ZM131.528 14V15H132.528V14H131.528ZM129.728 14H128.728V15H129.728V14ZM135.128 5V4H134.128V5H135.128ZM136.928 5H137.928V4H136.928V5ZM136.928 5.9H135.928V6.9H136.928V5.9ZM137.828 5.9H138.828V4.9H137.828V5.9ZM137.828 7.7V8.7H138.828V7.7H137.828ZM136.028 7.7H135.028V8.7H136.028V7.7ZM136.028 5.9H137.028V4.9H136.028V5.9ZM135.128 5.9H134.128V6.9H135.128V5.9ZM134.228 5.9V4.9H133.228V5.9H134.228ZM135.128 5.9H136.128V4.9H135.128V5.9ZM135.128 6.8V7.8H136.128V6.8H135.128ZM134.228 6.8H133.228V7.8H134.228V6.8ZM129.728 5.9V4.9H128.728V5.9H129.728ZM130.628 5.9H131.628V4.9H130.628V5.9ZM130.628 6.8V7.8H131.628V6.8H130.628ZM129.728 6.8H128.728V7.8H129.728V6.8ZM129.728 11.3V12.3H130.628V11.3V10.3H129.728V11.3ZM130.628 11.3H131.628V8.6H130.628H129.628V11.3H130.628ZM130.628 8.6V9.6H131.528V8.6V7.6H130.628V8.6ZM131.528 8.6H132.528V5.9H131.528H130.528V8.6H131.528ZM131.528 5.9V4.9H130.628V5.9V6.9H131.528V5.9ZM130.628 5.9H131.628V5H130.628H129.628V5.9H130.628ZM130.628 5V6H133.328V5V4H130.628V5ZM133.328 5H132.328V6.8H133.328H134.328V5H133.328ZM133.328 6.8V7.8H134.228V6.8V5.8H133.328V6.8ZM134.228 6.8H133.228V7.7H134.228H135.228V6.8H134.228ZM134.228 7.7V6.7H133.328V7.7V8.7H134.228V7.7ZM133.328 7.7H132.328V9.5H133.328H134.328V7.7H133.328ZM133.328 9.5V8.5H132.428V9.5V10.5H133.328V9.5ZM132.428 9.5H131.428V11.3H132.428H133.428V9.5H132.428ZM132.428 11.3V10.3H131.528V11.3V12.3H132.428V11.3ZM131.528 11.3H130.528V14H131.528H132.528V11.3H131.528ZM131.528 14V13H129.728V14V15H131.528V14ZM129.728 14H130.728V11.3H129.728H128.728V14H129.728ZM135.128 5V6H136.928V5V4H135.128V5ZM136.928 5H135.928V5.9H136.928H137.928V5H136.928ZM136.928 5.9V6.9H137.828V5.9V4.9H136.928V5.9ZM137.828 5.9H136.828V7.7H137.828H138.828V5.9H137.828ZM137.828 7.7V6.7H136.028V7.7V8.7H137.828V7.7ZM136.028 7.7H137.028V5.9H136.028H135.028V7.7H136.028ZM136.028 5.9V4.9H135.128V5.9V6.9H136.028V5.9ZM135.128 5.9H136.128V5H135.128H134.128V5.9H135.128ZM134.228 5.9V6.9H135.128V5.9V4.9H134.228V5.9ZM135.128 5.9H134.128V6.8H135.128H136.128V5.9H135.128ZM135.128 6.8V5.8H134.228V6.8V7.8H135.128V6.8ZM134.228 6.8H135.228V5.9H134.228H133.228V6.8H134.228ZM129.728 5.9V6.9H130.628V5.9V4.9H129.728V5.9ZM130.628 5.9H129.628V6.8H130.628H131.628V5.9H130.628ZM130.628 6.8V5.8H129.728V6.8V7.8H130.628V6.8ZM129.728 6.8H130.728V5.9H129.728H128.728V6.8H129.728ZM12.7 31.1V30.1H11.7V31.1H12.7ZM13.6 31.1V32.1H14.6V31.1H13.6ZM13.6 29.3V28.3H12.6V29.3H13.6ZM14.5 29.3V30.3H15.5V29.3H14.5ZM14.5 26.6V25.6H13.5V26.6H14.5ZM15.4 26.6V27.6H16.4V26.6H15.4ZM15.4 23V22H14.4V23H15.4ZM16.3 23V24H17.3V23H16.3ZM16.3 21.2H17.3V20.2H16.3V21.2ZM15.4 21.2H14.4V22.2H15.4V21.2ZM15.4 19.4V18.4H14.4V19.4H15.4ZM19 19.4H20V18.4H19V19.4ZM19 20.3V21.3H20V20.3H19ZM18.1 20.3V19.3H17.1V20.3H18.1ZM18.1 23V24H19.1V23H18.1ZM17.2 23V22H16.2V23H17.2ZM17.2 26.6V27.6H18.2V26.6H17.2ZM16.3 26.6V25.6H15.3V26.6H16.3ZM16.3 29.3V30.3H17.3V29.3H16.3ZM15.4 29.3V28.3H14.4V29.3H15.4ZM15.4 31.1H14.4V32.1H15.4V31.1ZM16.3 31.1H17.3V30.1H16.3V31.1ZM16.3 32V33H17.3V32H16.3ZM12.7 32H11.7V33H12.7V32ZM10 28.4V27.4H9V28.4H10ZM10.9 28.4H11.9V27.4H10.9V28.4ZM10.9 30.2V31.2H11.9V30.2H10.9ZM10 30.2V29.2H9V30.2H10ZM10 32V33H11V32H10ZM8.2 32H7.2V33H8.2V32ZM8.2 29.3H9.2V28.3H8.2V29.3ZM7.3 29.3H6.3V30.3H7.3V29.3ZM7.3 25.7H8.3V24.7H7.3V25.7ZM6.4 25.7H5.4V26.7H6.4V25.7ZM6.4 23H7.4V22H6.4V23ZM5.5 23H4.5V24H5.5V23ZM5.5 20.3H6.5V19.3H5.5V20.3ZM4.6 20.3H3.6V21.3H4.6V20.3ZM4.6 19.4V18.4H3.6V19.4H4.6ZM7.3 19.4H8.3V18.4H7.3V19.4ZM7.3 22.1H6.3V23.1H7.3V22.1ZM8.2 22.1H9.2V21.1H8.2V22.1ZM8.2 25.7H7.2V26.7H8.2V25.7ZM9.1 25.7H10.1V24.7H9.1V25.7ZM9.1 29.3H8.1V30.3H9.1V29.3ZM10 29.3V30.3H11V29.3H10ZM14.5 21.2V20.2H13.5V21.2H14.5ZM15.4 21.2H16.4V20.2H15.4V21.2ZM15.4 22.1V23.1H16.4V22.1H15.4ZM14.5 22.1H13.5V23.1H14.5V22.1ZM13.6 22.1V21.1H12.6V22.1H13.6ZM14.5 22.1H15.5V21.1H14.5V22.1ZM14.5 23.9V24.9H15.5V23.9H14.5ZM13.6 23.9H12.6V24.9H13.6V23.9ZM4.6 23V22H3.6V23H4.6ZM5.5 23H6.5V22H5.5V23ZM5.5 26.6V27.6H6.5V26.6H5.5ZM4.6 26.6H3.6V27.6H4.6V26.6ZM12.7 23.9V22.9H11.7V23.9H12.7ZM13.6 23.9H14.6V22.9H13.6V23.9ZM13.6 25.7V26.7H14.6V25.7H13.6ZM12.7 25.7H11.7V26.7H12.7V25.7ZM11.8 25.7V24.7H10.8V25.7H11.8ZM12.7 25.7H13.7V24.7H12.7V25.7ZM12.7 26.6V27.6H13.7V26.6H12.7ZM11.8 26.6H10.8V27.6H11.8V26.6ZM10.9 26.6V25.6H9.9V26.6H10.9ZM11.8 26.6H12.8V25.6H11.8V26.6ZM11.8 28.4V29.4H12.8V28.4H11.8ZM10.9 28.4H9.9V29.4H10.9V28.4ZM3.7 26.6V25.6H2.7V26.6H3.7ZM4.6 26.6H5.6V25.6H4.6V26.6ZM4.6 29.3V30.3H5.6V29.3H4.6ZM3.7 29.3H2.7V30.3H3.7V29.3ZM1.9 31.1V30.1H0.9V31.1H1.9ZM2.8 31.1V32.1H3.8V31.1H2.8ZM2.8 29.3V28.3H1.8V29.3H2.8ZM3.7 29.3H4.7V28.3H3.7V29.3ZM3.7 31.1H2.7V32.1H3.7V31.1ZM4.6 31.1H5.6V30.1H4.6V31.1ZM4.6 32V33H5.6V32H4.6ZM1.9 32H0.9V33H1.9V32ZM12.7 31.1V32.1H13.6V31.1V30.1H12.7V31.1ZM13.6 31.1H14.6V29.3H13.6H12.6V31.1H13.6ZM13.6 29.3V30.3H14.5V29.3V28.3H13.6V29.3ZM14.5 29.3H15.5V26.6H14.5H13.5V29.3H14.5ZM14.5 26.6V27.6H15.4V26.6V25.6H14.5V26.6ZM15.4 26.6H16.4V23H15.4H14.4V26.6H15.4ZM15.4 23V24H16.3V23V22H15.4V23ZM16.3 23H17.3V21.2H16.3H15.3V23H16.3ZM16.3 21.2V20.2H15.4V21.2V22.2H16.3V21.2ZM15.4 21.2H16.4V19.4H15.4H14.4V21.2H15.4ZM15.4 19.4V20.4H19V19.4V18.4H15.4V19.4ZM19 19.4H18V20.3H19H20V19.4H19ZM19 20.3V19.3H18.1V20.3V21.3H19V20.3ZM18.1 20.3H17.1V23H18.1H19.1V20.3H18.1ZM18.1 23V22H17.2V23V24H18.1V23ZM17.2 23H16.2V26.6H17.2H18.2V23H17.2ZM17.2 26.6V25.6H16.3V26.6V27.6H17.2V26.6ZM16.3 26.6H15.3V29.3H16.3H17.3V26.6H16.3ZM16.3 29.3V28.3H15.4V29.3V30.3H16.3V29.3ZM15.4 29.3H14.4V31.1H15.4H16.4V29.3H15.4ZM15.4 31.1V32.1H16.3V31.1V30.1H15.4V31.1ZM16.3 31.1H15.3V32H16.3H17.3V31.1H16.3ZM16.3 32V31H12.7V32V33H16.3V32ZM12.7 32H13.7V31.1H12.7H11.7V32H12.7ZM10 28.4V29.4H10.9V28.4V27.4H10V28.4ZM10.9 28.4H9.9V30.2H10.9H11.9V28.4H10.9ZM10.9 30.2V29.2H10V30.2V31.2H10.9V30.2ZM10 30.2H9V32H10H11V30.2H10ZM10 32V31H8.2V32V33H10V32ZM8.2 32H9.2V29.3H8.2H7.2V32H8.2ZM8.2 29.3V28.3H7.3V29.3V30.3H8.2V29.3ZM7.3 29.3H8.3V25.7H7.3H6.3V29.3H7.3ZM7.3 25.7V24.7H6.4V25.7V26.7H7.3V25.7ZM6.4 25.7H7.4V23H6.4H5.4V25.7H6.4ZM6.4 23V22H5.5V23V24H6.4V23ZM5.5 23H6.5V20.3H5.5H4.5V23H5.5ZM5.5 20.3V19.3H4.6V20.3V21.3H5.5V20.3ZM4.6 20.3H5.6V19.4H4.6H3.6V20.3H4.6ZM4.6 19.4V20.4H7.3V19.4V18.4H4.6V19.4ZM7.3 19.4H6.3V22.1H7.3H8.3V19.4H7.3ZM7.3 22.1V23.1H8.2V22.1V21.1H7.3V22.1ZM8.2 22.1H7.2V25.7H8.2H9.2V22.1H8.2ZM8.2 25.7V26.7H9.1V25.7V24.7H8.2V25.7ZM9.1 25.7H8.1V29.3H9.1H10.1V25.7H9.1ZM9.1 29.3V30.3H10V29.3V28.3H9.1V29.3ZM10 29.3H11V28.4H10H9V29.3H10ZM14.5 21.2V22.2H15.4V21.2V20.2H14.5V21.2ZM15.4 21.2H14.4V22.1H15.4H16.4V21.2H15.4ZM15.4 22.1V21.1H14.5V22.1V23.1H15.4V22.1ZM14.5 22.1H15.5V21.2H14.5H13.5V22.1H14.5ZM13.6 22.1V23.1H14.5V22.1V21.1H13.6V22.1ZM14.5 22.1H13.5V23.9H14.5H15.5V22.1H14.5ZM14.5 23.9V22.9H13.6V23.9V24.9H14.5V23.9ZM13.6 23.9H14.6V22.1H13.6H12.6V23.9H13.6ZM4.6 23V24H5.5V23V22H4.6V23ZM5.5 23H4.5V26.6H5.5H6.5V23H5.5ZM5.5 26.6V25.6H4.6V26.6V27.6H5.5V26.6ZM4.6 26.6H5.6V23H4.6H3.6V26.6H4.6ZM12.7 23.9V24.9H13.6V23.9V22.9H12.7V23.9ZM13.6 23.9H12.6V25.7H13.6H14.6V23.9H13.6ZM13.6 25.7V24.7H12.7V25.7V26.7H13.6V25.7ZM12.7 25.7H13.7V23.9H12.7H11.7V25.7H12.7ZM11.8 25.7V26.7H12.7V25.7V24.7H11.8V25.7ZM12.7 25.7H11.7V26.6H12.7H13.7V25.7H12.7ZM12.7 26.6V25.6H11.8V26.6V27.6H12.7V26.6ZM11.8 26.6H12.8V25.7H11.8H10.8V26.6H11.8ZM10.9 26.6V27.6H11.8V26.6V25.6H10.9V26.6ZM11.8 26.6H10.8V28.4H11.8H12.8V26.6H11.8ZM11.8 28.4V27.4H10.9V28.4V29.4H11.8V28.4ZM10.9 28.4H11.9V26.6H10.9H9.9V28.4H10.9ZM3.7 26.6V27.6H4.6V26.6V25.6H3.7V26.6ZM4.6 26.6H3.6V29.3H4.6H5.6V26.6H4.6ZM4.6 29.3V28.3H3.7V29.3V30.3H4.6V29.3ZM3.7 29.3H4.7V26.6H3.7H2.7V29.3H3.7ZM1.9 31.1V32.1H2.8V31.1V30.1H1.9V31.1ZM2.8 31.1H3.8V29.3H2.8H1.8V31.1H2.8ZM2.8 29.3V30.3H3.7V29.3V28.3H2.8V29.3ZM3.7 29.3H2.7V31.1H3.7H4.7V29.3H3.7ZM3.7 31.1V32.1H4.6V31.1V30.1H3.7V31.1ZM4.6 31.1H3.6V32H4.6H5.6V31.1H4.6ZM4.6 32V31H1.9V32V33H4.6V32ZM1.9 32H2.9V31.1H1.9H0.9V32H1.9ZM24.4035 26.6V25.6H23.4035V26.6H24.4035ZM25.3035 26.6V27.6H26.3035V26.6H25.3035ZM25.3035 23.9H26.3035V22.9H25.3035V23.9ZM22.6035 23.9H21.6035V24.9H22.6035V23.9ZM22.6035 23V22H21.6035V23H22.6035ZM26.2035 23H27.2035V22H26.2035V23ZM26.2035 23.9H25.2035V24.9H26.2035V23.9ZM27.1035 23.9H28.1035V22.9H27.1035V23.9ZM27.1035 26.6V27.6H28.1035V26.6H27.1035ZM26.2035 26.6V25.6H25.2035V26.6H26.2035ZM26.2035 27.5V28.5H27.2035V27.5H26.2035ZM24.4035 27.5H23.4035V28.5H24.4035V27.5ZM19.9035 30.2H20.9035V29.2H19.9035V30.2ZM19.0035 30.2H18.0035V31.2H19.0035V30.2ZM19.0035 26.6V25.6H18.0035V26.6H19.0035ZM19.9035 26.6V27.6H20.9035V26.6H19.9035ZM19.9035 24.8V23.8H18.9035V24.8H19.9035ZM20.8035 24.8V25.8H21.8035V24.8H20.8035ZM20.8035 23.9V22.9H19.8035V23.9H20.8035ZM22.6035 23.9H23.6035V22.9H22.6035V23.9ZM22.6035 24.8V25.8H23.6035V24.8H22.6035ZM21.7035 24.8V23.8H20.7035V24.8H21.7035ZM21.7035 26.6V27.6H22.7035V26.6H21.7035ZM20.8035 26.6V25.6H19.8035V26.6H20.8035ZM20.8035 28.4H19.8035V29.4H20.8035V28.4ZM22.6035 28.4H23.6035V27.4H22.6035V28.4ZM22.6035 29.3V30.3H23.6035V29.3H22.6035ZM20.8035 29.3V28.3H19.8035V29.3H20.8035ZM20.8035 30.2H19.8035V31.2H20.8035V30.2ZM21.7035 30.2H22.7035V29.2H21.7035V30.2ZM21.7035 31.1H20.7035V32.1H21.7035V31.1ZM24.4035 31.1H25.4035V30.1H24.4035V31.1ZM24.4035 32V33H25.4035V32H24.4035ZM20.8035 32H19.8035V33H20.8035V32ZM20.8035 31.1H21.8035V30.1H20.8035V31.1ZM19.9035 31.1H18.9035V32.1H19.9035V31.1ZM22.6035 27.5V26.5H21.6035V27.5H22.6035ZM24.4035 27.5H25.4035V26.5H24.4035V27.5ZM24.4035 28.4V29.4H25.4035V28.4H24.4035ZM22.6035 28.4H21.6035V29.4H22.6035V28.4ZM26.2035 29.3V28.3H25.2035V29.3H26.2035ZM27.1035 29.3H28.1035V28.3H27.1035V29.3ZM27.1035 30.2V31.2H28.1035V30.2H27.1035ZM26.2035 30.2H25.2035V31.2H26.2035V30.2ZM24.4035 30.2V29.2H23.4035V30.2H24.4035ZM26.2035 30.2H27.2035V29.2H26.2035V30.2ZM26.2035 31.1V32.1H27.2035V31.1H26.2035ZM24.4035 31.1H23.4035V32.1H24.4035V31.1ZM24.4035 26.6V27.6H25.3035V26.6V25.6H24.4035V26.6ZM25.3035 26.6H26.3035V23.9H25.3035H24.3035V26.6H25.3035ZM25.3035 23.9V22.9H22.6035V23.9V24.9H25.3035V23.9ZM22.6035 23.9H23.6035V23H22.6035H21.6035V23.9H22.6035ZM22.6035 23V24H26.2035V23V22H22.6035V23ZM26.2035 23H25.2035V23.9H26.2035H27.2035V23H26.2035ZM26.2035 23.9V24.9H27.1035V23.9V22.9H26.2035V23.9ZM27.1035 23.9H26.1035V26.6H27.1035H28.1035V23.9H27.1035ZM27.1035 26.6V25.6H26.2035V26.6V27.6H27.1035V26.6ZM26.2035 26.6H25.2035V27.5H26.2035H27.2035V26.6H26.2035ZM26.2035 27.5V26.5H24.4035V27.5V28.5H26.2035V27.5ZM24.4035 27.5H25.4035V26.6H24.4035H23.4035V27.5H24.4035ZM19.9035 30.2V29.2H19.0035V30.2V31.2H19.9035V30.2ZM19.0035 30.2H20.0035V26.6H19.0035H18.0035V30.2H19.0035ZM19.0035 26.6V27.6H19.9035V26.6V25.6H19.0035V26.6ZM19.9035 26.6H20.9035V24.8H19.9035H18.9035V26.6H19.9035ZM19.9035 24.8V25.8H20.8035V24.8V23.8H19.9035V24.8ZM20.8035 24.8H21.8035V23.9H20.8035H19.8035V24.8H20.8035ZM20.8035 23.9V24.9H22.6035V23.9V22.9H20.8035V23.9ZM22.6035 23.9H21.6035V24.8H22.6035H23.6035V23.9H22.6035ZM22.6035 24.8V23.8H21.7035V24.8V25.8H22.6035V24.8ZM21.7035 24.8H20.7035V26.6H21.7035H22.7035V24.8H21.7035ZM21.7035 26.6V25.6H20.8035V26.6V27.6H21.7035V26.6ZM20.8035 26.6H19.8035V28.4H20.8035H21.8035V26.6H20.8035ZM20.8035 28.4V29.4H22.6035V28.4V27.4H20.8035V28.4ZM22.6035 28.4H21.6035V29.3H22.6035H23.6035V28.4H22.6035ZM22.6035 29.3V28.3H20.8035V29.3V30.3H22.6035V29.3ZM20.8035 29.3H19.8035V30.2H20.8035H21.8035V29.3H20.8035ZM20.8035 30.2V31.2H21.7035V30.2V29.2H20.8035V30.2ZM21.7035 30.2H20.7035V31.1H21.7035H22.7035V30.2H21.7035ZM21.7035 31.1V32.1H24.4035V31.1V30.1H21.7035V31.1ZM24.4035 31.1H23.4035V32H24.4035H25.4035V31.1H24.4035ZM24.4035 32V31H20.8035V32V33H24.4035V32ZM20.8035 32H21.8035V31.1H20.8035H19.8035V32H20.8035ZM20.8035 31.1V30.1H19.9035V31.1V32.1H20.8035V31.1ZM19.9035 31.1H20.9035V30.2H19.9035H18.9035V31.1H19.9035ZM22.6035 27.5V28.5H24.4035V27.5V26.5H22.6035V27.5ZM24.4035 27.5H23.4035V28.4H24.4035H25.4035V27.5H24.4035ZM24.4035 28.4V27.4H22.6035V28.4V29.4H24.4035V28.4ZM22.6035 28.4H23.6035V27.5H22.6035H21.6035V28.4H22.6035ZM26.2035 29.3V30.3H27.1035V29.3V28.3H26.2035V29.3ZM27.1035 29.3H26.1035V30.2H27.1035H28.1035V29.3H27.1035ZM27.1035 30.2V29.2H26.2035V30.2V31.2H27.1035V30.2ZM26.2035 30.2H27.2035V29.3H26.2035H25.2035V30.2H26.2035ZM24.4035 30.2V31.2H26.2035V30.2V29.2H24.4035V30.2ZM26.2035 30.2H25.2035V31.1H26.2035H27.2035V30.2H26.2035ZM26.2035 31.1V30.1H24.4035V31.1V32.1H26.2035V31.1ZM24.4035 31.1H25.4035V30.2H24.4035H23.4035V31.1H24.4035ZM33.407 21.2H34.407V20.2H33.407V21.2ZM32.507 21.2H31.507V22.2H32.507V21.2ZM32.507 19.4V18.4H31.507V19.4H32.507ZM34.307 19.4H35.307V18.4H34.307V19.4ZM34.307 22.1V23.1H35.307V22.1H34.307ZM33.407 22.1H32.407V23.1H33.407V22.1ZM30.707 21.2H31.707V20.2H30.707V21.2ZM29.807 21.2H28.807V22.2H29.807V21.2ZM29.807 19.4V18.4H28.807V19.4H29.807ZM31.607 19.4H32.607V18.4H31.607V19.4ZM31.607 22.1V23.1H32.607V22.1H31.607ZM30.707 22.1H29.707V23.1H30.707V22.1ZM31.607 23H30.607V24H31.607V23ZM31.607 22.1V21.1H30.607V22.1H31.607ZM33.407 22.1H34.407V21.1H33.407V22.1ZM33.407 23V24H34.407V23H33.407ZM28.907 22.1V21.1H27.907V22.1H28.907ZM30.707 22.1H31.707V21.1H30.707V22.1ZM30.707 23V24H31.707V23H30.707ZM28.907 23H27.907V24H28.907V23ZM33.407 21.2V20.2H32.507V21.2V22.2H33.407V21.2ZM32.507 21.2H33.507V19.4H32.507H31.507V21.2H32.507ZM32.507 19.4V20.4H34.307V19.4V18.4H32.507V19.4ZM34.307 19.4H33.307V22.1H34.307H35.307V19.4H34.307ZM34.307 22.1V21.1H33.407V22.1V23.1H34.307V22.1ZM33.407 22.1H34.407V21.2H33.407H32.407V22.1H33.407ZM30.707 21.2V20.2H29.807V21.2V22.2H30.707V21.2ZM29.807 21.2H30.807V19.4H29.807H28.807V21.2H29.807ZM29.807 19.4V20.4H31.607V19.4V18.4H29.807V19.4ZM31.607 19.4H30.607V22.1H31.607H32.607V19.4H31.607ZM31.607 22.1V21.1H30.707V22.1V23.1H31.607V22.1ZM30.707 22.1H31.707V21.2H30.707H29.707V22.1H30.707ZM31.607 23H32.607V22.1H31.607H30.607V23H31.607ZM31.607 22.1V23.1H33.407V22.1V21.1H31.607V22.1ZM33.407 22.1H32.407V23H33.407H34.407V22.1H33.407ZM33.407 23V22H31.607V23V24H33.407V23ZM28.907 22.1V23.1H30.707V22.1V21.1H28.907V22.1ZM30.707 22.1H29.707V23H30.707H31.707V22.1H30.707ZM30.707 23V22H28.907V23V24H30.707V23ZM28.907 23H29.907V22.1H28.907H27.907V23H28.907Z" fill="black" mask="url(#path-1-outside-1_1_37)"/>
</svg>
